<!-- Generated by IcoMoon.io -->
<svg version="1.1" xmlns="http://www.w3.org/2000/svg" width="32" height="32" viewBox="0 0 32 32">
<title>address-book</title>
<path d="M29.25 10c0.208 0 0.385-0.073 0.531-0.219s0.219-0.323 0.219-0.531v-2.5c0-0.208-0.073-0.385-0.219-0.531s-0.323-0.219-0.531-0.219h-1.25v-3c0-0.833-0.292-1.542-0.875-2.125s-1.292-0.875-2.125-0.875h-20c-0.833 0-1.542 0.292-2.125 0.875s-0.875 1.292-0.875 2.125v26c0 0.833 0.292 1.542 0.875 2.125s1.292 0.875 2.125 0.875h20c0.833 0 1.542-0.292 2.125-0.875s0.875-1.292 0.875-2.125v-3h1.25c0.208 0 0.385-0.073 0.531-0.219s0.219-0.323 0.219-0.531v-2.5c0-0.208-0.073-0.385-0.219-0.531s-0.323-0.219-0.531-0.219h-1.25v-4h1.25c0.208 0 0.385-0.073 0.531-0.219s0.219-0.323 0.219-0.531v-2.5c0-0.208-0.073-0.385-0.219-0.531s-0.323-0.219-0.531-0.219h-1.25v-4h1.25zM15 8c1.083 0 2.021 0.396 2.813 1.188s1.187 1.729 1.187 2.812-0.396 2.021-1.187 2.813c-0.792 0.791-1.73 1.187-2.813 1.187s-2.021-0.396-2.812-1.187c-0.792-0.792-1.188-1.73-1.188-2.813s0.396-2.021 1.188-2.812c0.791-0.792 1.729-1.188 2.812-1.188zM22 22.813c0 0.333-0.135 0.614-0.406 0.843s-0.594 0.344-0.969 0.344h-11.25c-0.375 0-0.698-0.115-0.969-0.344s-0.406-0.51-0.406-0.843v-1.188c0-1 0.406-1.854 1.219-2.562s1.802-1.063 2.969-1.063h0.312c0.792 0.333 1.625 0.5 2.5 0.5s1.708-0.167 2.5-0.5h0.313c1.166 0 2.156 0.354 2.968 1.063 0.813 0.708 1.219 1.562 1.219 2.562v1.188z"></path>
</svg>
