<!-- Generated by IcoMoon.io -->
<svg version="1.1" xmlns="http://www.w3.org/2000/svg" width="36" height="32" viewBox="0 0 36 32">
<title>address-card</title>
<path d="M33 2h-30c-0.833 0-1.542 0.292-2.125 0.875s-0.875 1.292-0.875 2.125v22c0 0.833 0.292 1.542 0.875 2.125s1.292 0.875 2.125 0.875h30c0.833 0 1.542-0.292 2.125-0.875s0.875-1.292 0.875-2.125v-22c0-0.833-0.292-1.542-0.875-2.125s-1.292-0.875-2.125-0.875zM11 8c1.083 0 2.021 0.396 2.813 1.188s1.187 1.729 1.187 2.812-0.396 2.021-1.187 2.813c-0.792 0.791-1.73 1.187-2.813 1.187s-2.021-0.396-2.812-1.188c-0.792-0.791-1.188-1.729-1.188-2.812s0.396-2.021 1.188-2.813c0.791-0.791 1.729-1.187 2.812-1.187zM18 22.813c0 0.333-0.135 0.614-0.406 0.843s-0.594 0.344-0.969 0.344h-11.25c-0.375 0-0.698-0.115-0.969-0.344s-0.406-0.51-0.406-0.843v-1.188c0-1 0.406-1.854 1.219-2.563 0.812-0.708 1.802-1.062 2.969-1.062h0.312c0.792 0.333 1.625 0.5 2.5 0.5s1.708-0.167 2.5-0.5h0.313c1.166 0 2.156 0.354 2.968 1.063 0.813 0.708 1.219 1.562 1.219 2.562v1.188zM32 19.5c0 0.125-0.052 0.24-0.156 0.344s-0.219 0.156-0.344 0.156h-9c-0.125 0-0.24-0.052-0.344-0.156s-0.156-0.219-0.156-0.344v-1c0-0.125 0.052-0.24 0.156-0.344s0.219-0.156 0.344-0.156h9c0.125 0 0.24 0.052 0.344 0.156s0.156 0.219 0.156 0.344v1zM32 15.5c0 0.125-0.052 0.24-0.156 0.344s-0.219 0.156-0.344 0.156h-9c-0.125 0-0.24-0.052-0.344-0.156s-0.156-0.219-0.156-0.344v-1c0-0.125 0.052-0.24 0.156-0.344s0.219-0.156 0.344-0.156h9c0.125 0 0.24 0.052 0.344 0.156s0.156 0.219 0.156 0.344v1zM32 11.5c0 0.125-0.052 0.24-0.156 0.344s-0.219 0.156-0.344 0.156h-9c-0.125 0-0.24-0.052-0.344-0.156s-0.156-0.219-0.156-0.344v-1c0-0.125 0.052-0.24 0.156-0.344s0.219-0.156 0.344-0.156h9c0.125 0 0.24 0.052 0.344 0.156s0.156 0.219 0.156 0.344v1z"></path>
</svg>
