<!-- Generated by IcoMoon.io -->
<svg version="1.1" xmlns="http://www.w3.org/2000/svg" width="36" height="32" viewBox="0 0 36 32">
<title>address-card-o</title>
<path d="M33 2h-30c-0.833 0-1.542 0.292-2.125 0.875s-0.875 1.292-0.875 2.125v22c0 0.833 0.292 1.542 0.875 2.125s1.292 0.875 2.125 0.875h30c0.833 0 1.542-0.292 2.125-0.875s0.875-1.292 0.875-2.125v-22c0-0.833-0.292-1.542-0.875-2.125s-1.292-0.875-2.125-0.875zM33 27h-30v-22h30v22zM13 16c1.083 0 2.021-0.396 2.813-1.188 0.791-0.791 1.187-1.729 1.187-2.812s-0.396-2.021-1.187-2.813c-0.792-0.791-1.73-1.187-2.813-1.187s-2.021 0.396-2.812 1.188c-0.792 0.791-1.188 1.729-1.188 2.812s0.396 2.021 1.188 2.813c0.791 0.791 1.729 1.187 2.812 1.187zM7.375 24h11.25c0.375 0 0.698-0.115 0.969-0.344s0.406-0.51 0.406-0.843v-1.188c0-1-0.406-1.854-1.219-2.563-0.812-0.708-1.802-1.062-2.968-1.062-0.167 0-0.438 0.063-0.813 0.188-0.667 0.208-1.333 0.312-2 0.312s-1.333-0.104-2-0.313c-0.333-0.125-0.604-0.187-0.812-0.187-1.167 0-2.157 0.354-2.969 1.063-0.813 0.708-1.219 1.562-1.219 2.562v1.188c0 0.333 0.135 0.614 0.406 0.843s0.594 0.344 0.969 0.344zM22.5 20h7c0.125 0 0.24-0.052 0.344-0.156s0.156-0.219 0.156-0.344v-1c0-0.125-0.052-0.24-0.156-0.344s-0.219-0.156-0.344-0.156h-7c-0.125 0-0.24 0.052-0.344 0.156s-0.156 0.219-0.156 0.344v1c0 0.125 0.052 0.24 0.156 0.344s0.219 0.156 0.344 0.156zM22.5 16h7c0.125 0 0.24-0.052 0.344-0.156s0.156-0.219 0.156-0.344v-1c0-0.125-0.052-0.24-0.156-0.344s-0.219-0.156-0.344-0.156h-7c-0.125 0-0.24 0.052-0.344 0.156s-0.156 0.219-0.156 0.344v1c0 0.125 0.052 0.24 0.156 0.344s0.219 0.156 0.344 0.156zM22.5 12h7c0.125 0 0.24-0.052 0.344-0.156s0.156-0.219 0.156-0.344v-1c0-0.125-0.052-0.24-0.156-0.344s-0.219-0.156-0.344-0.156h-7c-0.125 0-0.24 0.052-0.344 0.156s-0.156 0.219-0.156 0.344v1c0 0.125 0.052 0.24 0.156 0.344s0.219 0.156 0.344 0.156z"></path>
</svg>
