<!-- Generated by IcoMoon.io -->
<svg version="1.1" xmlns="http://www.w3.org/2000/svg" width="36" height="32" viewBox="0 0 36 32">
<title>anchor</title>
<path d="M0.76 22.001h2.006c0.46 2.042 1.484 3.854 3.072 5.438 1.505 1.458 3.344 2.583 5.517 3.375 2.173 0.791 4.388 1.187 6.645 1.187s4.472-0.396 6.645-1.187c2.173-0.792 4.012-1.917 5.517-3.375 1.588-1.584 2.612-3.396 3.072-5.438h2.006c0.334 0 0.564-0.156 0.689-0.469 0.126-0.312 0.084-0.573-0.125-0.781l-4.263-4.25c-0.125-0.125-0.292-0.187-0.501-0.187s-0.377 0.062-0.502 0.187l-4.263 4.25c-0.209 0.208-0.251 0.469-0.125 0.781 0.125 0.313 0.355 0.469 0.689 0.469h2.195c-0.586 1.625-1.777 2.979-3.574 4.063-1.63 0.958-3.448 1.562-5.454 1.812v-11.875h3.26c0.209 0 0.387-0.073 0.533-0.219s0.219-0.323 0.219-0.531v-2.5c0-0.208-0.073-0.385-0.219-0.531s-0.324-0.219-0.533-0.219h-3.26v-0.312c1.17-0.417 2.132-1.146 2.884-2.188s1.128-2.208 1.128-3.5c0-1.625-0.574-3.021-1.724-4.187s-2.56-1.771-4.231-1.813c-1.672-0.042-3.103 0.531-4.295 1.719-1.191 1.187-1.786 2.614-1.786 4.281 0 1.292 0.376 2.458 1.128 3.5s1.714 1.771 2.884 2.188v0.312h-3.26c-0.209 0-0.387 0.073-0.533 0.219s-0.219 0.323-0.219 0.531v2.5c0 0.208 0.073 0.385 0.219 0.531s0.324 0.219 0.533 0.219h3.26v11.875c-2.006-0.25-3.824-0.854-5.454-1.812-1.797-1.084-2.988-2.438-3.574-4.063h2.195c0.334 0 0.564-0.156 0.689-0.469 0.126-0.312 0.084-0.573-0.125-0.781l-4.263-4.25c-0.125-0.125-0.293-0.187-0.502-0.187s-0.376 0.062-0.501 0.187l-4.263 4.25c-0.209 0.208-0.251 0.469-0.125 0.781 0.125 0.313 0.355 0.469 0.689 0.469zM18 4.001c0.543 0 1.013 0.198 1.411 0.594 0.397 0.396 0.595 0.864 0.595 1.406s-0.198 1.010-0.595 1.406c-0.398 0.396-0.868 0.594-1.411 0.594s-1.013-0.198-1.411-0.594c-0.397-0.396-0.595-0.864-0.595-1.406s0.198-1.010 0.595-1.406c0.398-0.396 0.868-0.594 1.411-0.594z"></path>
</svg>
