<!-- Generated by IcoMoon.io -->
<svg version="1.1" xmlns="http://www.w3.org/2000/svg" width="32" height="32" viewBox="0 0 32 32">
<title>angle-down</title>
<path d="M14.938 22l-8.501-8.5c-0.291-0.292-0.437-0.646-0.437-1.063s0.146-0.77 0.437-1.062l1.438-1.375c0.292-0.292 0.646-0.438 1.062-0.438s0.771 0.146 1.063 0.438l6 6 6-6c0.292-0.292 0.646-0.438 1.063-0.438s0.77 0.146 1.062 0.438l1.438 1.375c0.291 0.292 0.437 0.646 0.437 1.063s-0.146 0.77-0.438 1.062l-8.5 8.5c-0.291 0.292-0.645 0.438-1.062 0.438s-0.771-0.146-1.063-0.438z"></path>
</svg>
