<!-- Generated by IcoMoon.io -->
<svg version="1.1" xmlns="http://www.w3.org/2000/svg" width="32" height="32" viewBox="0 0 32 32">
<title>angle-left</title>
<path d="M10 14.938l8.5-8.501c0.292-0.291 0.646-0.437 1.063-0.437s0.77 0.146 1.062 0.437l1.375 1.438c0.292 0.292 0.438 0.646 0.438 1.062s-0.146 0.75-0.438 1l-6 6.063 6 6c0.292 0.292 0.438 0.646 0.438 1.063s-0.146 0.77-0.438 1.062l-1.375 1.438c-0.292 0.291-0.646 0.437-1.063 0.437s-0.77-0.146-1.062-0.438l-8.5-8.5c-0.292-0.291-0.438-0.645-0.438-1.062s0.146-0.771 0.438-1.063z"></path>
</svg>
