<!-- Generated by IcoMoon.io -->
<svg version="1.1" xmlns="http://www.w3.org/2000/svg" width="32" height="32" viewBox="0 0 32 32">
<title>angle-right</title>
<path d="M22 17.063l-8.5 8.5c-0.292 0.291-0.646 0.437-1.063 0.437s-0.77-0.146-1.062-0.438l-1.375-1.437c-0.292-0.292-0.438-0.646-0.438-1.063s0.146-0.77 0.438-1.062l6-6-6-6c-0.292-0.292-0.438-0.646-0.438-1.063s0.146-0.77 0.438-1.062l1.375-1.437c0.292-0.292 0.646-0.438 1.063-0.438s0.77 0.146 1.062 0.438l8.5 8.5c0.292 0.291 0.438 0.645 0.438 1.062s-0.146 0.771-0.438 1.063z"></path>
</svg>
