<!-- Generated by IcoMoon.io -->
<svg version="1.1" xmlns="http://www.w3.org/2000/svg" width="32" height="32" viewBox="0 0 32 32">
<title>archive</title>
<path d="M2 28c0 0.542 0.198 1.010 0.594 1.406s0.864 0.594 1.406 0.594h24c0.542 0 1.010-0.198 1.406-0.594s0.594-0.864 0.594-1.406v-18h-28v18zM12 14.75c0-0.208 0.073-0.385 0.219-0.531s0.323-0.219 0.531-0.219h6.5c0.208 0 0.385 0.073 0.531 0.219s0.219 0.323 0.219 0.531v0.5c0 0.208-0.073 0.385-0.219 0.531s-0.323 0.219-0.531 0.219h-6.5c-0.208 0-0.385-0.073-0.531-0.219s-0.219-0.323-0.219-0.531v-0.5zM30 2h-28c-0.542 0-1.010 0.198-1.406 0.594s-0.594 0.864-0.594 1.406v3c0 0.292 0.094 0.531 0.281 0.719 0.188 0.187 0.427 0.281 0.719 0.281h30c0.292 0 0.531-0.094 0.719-0.281 0.187-0.188 0.281-0.427 0.281-0.719v-3c0-0.542-0.198-1.010-0.594-1.406s-0.864-0.594-1.406-0.594z"></path>
</svg>
