<!-- Generated by IcoMoon.io -->
<svg version="1.1" xmlns="http://www.w3.org/2000/svg" width="32" height="32" viewBox="0 0 32 32">
<title>arrows-alt-v</title>
<path d="M21.375 23.625h-2.875v-15.25h2.875c0.417 0 0.771-0.146 1.063-0.438s0.437-0.645 0.437-1.062-0.146-0.771-0.438-1.063l-5.375-5.375c-0.291-0.291-0.645-0.437-1.062-0.437s-0.771 0.146-1.063 0.437l-5.374 5.376c-0.292 0.291-0.438 0.645-0.438 1.062s0.146 0.771 0.438 1.062c0.291 0.292 0.645 0.438 1.062 0.438h2.875v15.25h-2.875c-0.417 0-0.771 0.146-1.062 0.438-0.292 0.291-0.438 0.645-0.438 1.062s0.146 0.771 0.438 1.063l5.375 5.375c0.291 0.291 0.645 0.437 1.062 0.437s0.771-0.146 1.063-0.438l5.375-5.375c0.291-0.291 0.437-0.645 0.437-1.062s-0.146-0.771-0.438-1.063c-0.291-0.291-0.645-0.437-1.062-0.437z"></path>
</svg>
