<!-- Generated by IcoMoon.io -->
<svg version="1.1" xmlns="http://www.w3.org/2000/svg" width="32" height="32" viewBox="0 0 32 32">
<title>arrow-down</title>
<path d="M27.813 13.875l1.375 1.438c0.291 0.291 0.437 0.645 0.437 1.062s-0.146 0.771-0.438 1.063l-12.125 12.125c-0.291 0.291-0.645 0.437-1.062 0.437s-0.771-0.146-1.063-0.438l-12.125-12.125c-0.291-0.291-0.437-0.645-0.437-1.062s0.146-0.771 0.438-1.063l1.375-1.437c0.291-0.292 0.645-0.427 1.062-0.406s0.771 0.177 1.063 0.469l7.187 7.5v-17.938c0-0.417 0.146-0.771 0.438-1.063s0.645-0.437 1.062-0.437h2c0.417 0 0.771 0.146 1.063 0.437s0.437 0.646 0.437 1.063v17.938l7.188-7.5c0.291-0.292 0.645-0.448 1.062-0.469s0.771 0.114 1.063 0.406z"></path>
</svg>
