<!-- Generated by IcoMoon.io -->
<svg version="1.1" xmlns="http://www.w3.org/2000/svg" width="32" height="32" viewBox="0 0 32 32">
<title>arrow-up</title>
<path d="M4.188 18.063l-1.375-1.375c-0.292-0.292-0.438-0.646-0.438-1.063s0.146-0.771 0.438-1.062l12.125-12.125c0.291-0.292 0.645-0.438 1.062-0.438s0.771 0.146 1.063 0.438l12.125 12.125c0.291 0.291 0.437 0.645 0.437 1.062s-0.146 0.771-0.438 1.063l-1.375 1.375c-0.291 0.333-0.645 0.489-1.062 0.468s-0.771-0.177-1.063-0.468l-7.187-7.5v17.937c0 0.417-0.146 0.771-0.438 1.063s-0.645 0.437-1.062 0.437h-2c-0.417 0-0.771-0.146-1.063-0.438s-0.437-0.645-0.437-1.062v-17.938l-7.188 7.5c-0.291 0.292-0.645 0.448-1.062 0.469s-0.771-0.135-1.063-0.469z"></path>
</svg>
