<!-- Generated by IcoMoon.io -->
<svg version="1.1" xmlns="http://www.w3.org/2000/svg" width="32" height="32" viewBox="0 0 32 32">
<title>arrow-left</title>
<path d="M18.125 27.813l-1.438 1.375c-0.291 0.291-0.645 0.437-1.062 0.437s-0.771-0.146-1.063-0.438l-12.125-12.125c-0.291-0.291-0.437-0.645-0.437-1.062s0.146-0.771 0.437-1.063l12.125-12.125c0.292-0.291 0.646-0.437 1.063-0.437s0.771 0.146 1.062 0.438l1.438 1.375c0.292 0.291 0.427 0.645 0.406 1.062s-0.177 0.771-0.468 1.063l-7.5 7.187h17.937c0.417 0 0.771 0.146 1.063 0.438s0.437 0.645 0.437 1.062v2c0 0.417-0.146 0.771-0.438 1.063s-0.645 0.437-1.062 0.437h-17.938l7.5 7.188c0.292 0.291 0.448 0.645 0.469 1.062s-0.114 0.771-0.406 1.063z"></path>
</svg>
