<!-- Generated by IcoMoon.io -->
<svg version="1.1" xmlns="http://www.w3.org/2000/svg" width="32" height="32" viewBox="0 0 32 32">
<title>arrows-alt-h</title>
<path d="M23.625 10.625v2.875h-15.25v-2.875c0-0.417-0.146-0.771-0.438-1.063s-0.645-0.437-1.062-0.437-0.771 0.146-1.063 0.438l-5.375 5.374c-0.291 0.292-0.437 0.646-0.437 1.063s0.146 0.771 0.437 1.063l5.376 5.375c0.291 0.291 0.645 0.437 1.062 0.437s0.771-0.146 1.062-0.438c0.292-0.291 0.438-0.645 0.438-1.062v-2.875h15.25v2.875c0 0.417 0.146 0.771 0.438 1.063s0.645 0.437 1.062 0.437 0.771-0.146 1.063-0.438l5.375-5.375c0.291-0.291 0.437-0.645 0.437-1.062s-0.146-0.771-0.438-1.063l-5.375-5.374c-0.291-0.292-0.645-0.438-1.062-0.438s-0.771 0.146-1.063 0.438c-0.291 0.291-0.437 0.645-0.437 1.062z"></path>
</svg>
