<!-- Generated by IcoMoon.io -->
<svg version="1.1" xmlns="http://www.w3.org/2000/svg" width="32" height="32" viewBox="0 0 32 32">
<title>asterix</title>
<path d="M29.875 20.875l-8.875-4.875 8.875-4.875c0.375-0.208 0.615-0.51 0.719-0.906s0.052-0.781-0.157-1.156l-1.187-2.125c-0.208-0.375-0.521-0.615-0.938-0.719s-0.791-0.031-1.125 0.219l-8.687 5.25 0.188-10.125c0.041-0.459-0.084-0.834-0.375-1.125-0.292-0.292-0.667-0.438-1.125-0.438h-2.375c-0.459 0-0.834 0.146-1.125 0.438-0.292 0.291-0.417 0.666-0.375 1.125l0.187 10.125-8.687-5.25c-0.334-0.25-0.709-0.323-1.125-0.219s-0.73 0.344-0.938 0.719l-1.187 2.125c-0.209 0.375-0.261 0.76-0.157 1.156s0.344 0.698 0.719 0.906l8.875 4.875-8.875 4.875c-0.375 0.208-0.615 0.51-0.719 0.906s-0.052 0.782 0.157 1.157l1.187 2.125c0.208 0.375 0.521 0.614 0.938 0.718s0.791 0.032 1.125-0.218l8.687-5.25-0.187 10.125c-0.042 0.458 0.083 0.833 0.375 1.125 0.291 0.291 0.666 0.437 1.125 0.437h2.375c0.458 0 0.833-0.146 1.125-0.438 0.291-0.291 0.416-0.666 0.375-1.125l-0.188-10.125 8.688 5.25c0.333 0.25 0.708 0.323 1.124 0.219 0.417-0.104 0.73-0.344 0.938-0.719l1.188-2.125c0.208-0.375 0.26-0.76 0.156-1.156s-0.344-0.698-0.719-0.906z"></path>
</svg>
