<!-- Generated by IcoMoon.io -->
<svg version="1.1" xmlns="http://www.w3.org/2000/svg" width="32" height="32" viewBox="0 0 32 32">
<title>at</title>
<path d="M16 0.5c-2.792 0-5.375 0.698-7.75 2.094s-4.26 3.281-5.656 5.656c-1.396 2.375-2.094 4.958-2.094 7.75s0.698 5.375 2.094 7.75c1.396 2.375 3.281 4.26 5.656 5.656s4.958 2.094 7.75 2.094c3.083 0 5.896-0.833 8.438-2.5 0.374-0.25 0.604-0.594 0.687-1.031 0.083-0.438-0.021-0.844-0.313-1.219l-0.625-0.75c-0.25-0.292-0.562-0.469-0.937-0.531-0.375-0.063-0.729 0.010-1.063 0.218-1.875 1.209-3.937 1.813-6.187 1.813-2.083 0-4-0.521-5.75-1.563s-3.146-2.437-4.188-4.187c-1.041-1.75-1.562-3.667-1.562-5.75s0.521-4 1.562-5.75c1.042-1.75 2.438-3.146 4.188-4.188 1.75-1.041 3.677-1.562 5.781-1.562s4.031 0.396 5.781 1.188c1.75 0.791 3.125 1.916 4.125 3.375 1.042 1.541 1.563 3.354 1.563 5.437 0 1.292-0.313 2.438-0.938 3.438-0.708 1.083-1.604 1.687-2.687 1.812-0.5-0.042-0.813-0.229-0.938-0.563-0.083-0.25-0.062-0.687 0.063-1.312l1.5-7.563c0.083-0.5-0.021-0.927-0.313-1.281s-0.687-0.531-1.187-0.531h-2.813c-0.208 0-0.395 0.073-0.562 0.219s-0.25 0.323-0.25 0.531c-0.75-0.917-2-1.375-3.75-1.375-1.542 0-2.979 0.406-4.313 1.219s-2.385 1.937-3.156 3.375c-0.771 1.437-1.156 3.073-1.156 4.906 0 2.042 0.542 3.656 1.625 4.844 1.083 1.187 2.542 1.781 4.375 1.781 0.833 0 1.688-0.229 2.563-0.688 0.874-0.458 1.583-1.041 2.124-1.75 0.25 0.959 0.834 1.584 1.75 1.875 0.5 0.167 1.396 0.25 2.688 0.25 3.167 0 5.583-0.937 7.25-2.812 1.417-1.625 2.125-3.75 2.125-6.375 0-2.792-0.708-5.271-2.125-7.438-1.333-2.041-3.177-3.645-5.531-4.812s-4.969-1.75-7.844-1.75zM14.625 19.5c-0.667 0-1.208-0.219-1.625-0.656-0.417-0.438-0.625-1.052-0.625-1.844 0-1.333 0.396-2.458 1.188-3.375 0.708-0.792 1.541-1.188 2.499-1.188 0.709 0.001 1.25 0.23 1.625 0.688s0.563 1.104 0.563 1.938c0 0.833-0.188 1.624-0.563 2.374-0.375 0.625-0.843 1.125-1.406 1.5s-1.114 0.563-1.656 0.563z"></path>
</svg>
