<!-- Generated by IcoMoon.io -->
<svg version="1.1" xmlns="http://www.w3.org/2000/svg" width="32" height="32" viewBox="0 0 32 32">
<title>atlas</title>
<path d="M21.875 13h-2.438c-0.083 1.708-0.375 3.167-0.875 4.375 0.875-0.417 1.605-1.010 2.188-1.781s0.958-1.636 1.125-2.594zM21.875 11c-0.167-0.958-0.542-1.823-1.125-2.594s-1.313-1.364-2.188-1.781c0.5 1.208 0.792 2.667 0.875 4.375h2.438zM16 6.062c-0.292 0.292-0.583 0.834-0.875 1.625-0.333 0.959-0.521 2.063-0.563 3.313h2.876c-0.042-1.25-0.23-2.354-0.563-3.313-0.292-0.791-0.583-1.333-0.875-1.624zM13.437 6.624c-0.874 0.417-1.604 1.010-2.187 1.781s-0.958 1.636-1.125 2.594h2.438c0.083-1.708 0.374-3.167 0.874-4.375zM13.437 17.374c-0.5-1.208-0.791-2.667-0.875-4.375h-2.437c0.167 0.958 0.542 1.823 1.125 2.594s1.312 1.364 2.187 1.781zM17.437 12.999h-2.875c0.042 1.25 0.23 2.354 0.563 3.313 0.292 0.791 0.583 1.333 0.875 1.625 0.292-0.292 0.583-0.834 0.875-1.625 0.333-0.959 0.521-2.063 0.563-3.313zM29.999 22.374v-20.75c0-0.5-0.146-0.896-0.438-1.188s-0.687-0.437-1.187-0.437h-20.375c-1.708 0-3.135 0.573-4.281 1.719s-1.719 2.573-1.719 4.281v20c0 1.708 0.573 3.135 1.719 4.281s2.573 1.719 4.281 1.719h20.375c0.458 0 0.844-0.146 1.156-0.438 0.313-0.291 0.469-0.687 0.469-1.187v-1c0-0.375-0.208-0.771-0.625-1.188-0.083-0.5-0.125-1.291-0.125-2.375 0-1.083 0.042-1.812 0.125-2.187 0.417-0.208 0.625-0.625 0.625-1.25zM15.999 3.999c1.458 0 2.802 0.354 4.031 1.063 1.229 0.708 2.198 1.677 2.907 2.906 0.708 1.229 1.062 2.573 1.062 4.031s-0.354 2.802-1.063 4.031c-0.708 1.229-1.677 2.198-2.906 2.907-1.229 0.708-2.573 1.062-4.031 1.062s-2.802-0.354-4.031-1.063c-1.229-0.708-2.198-1.677-2.907-2.906s-1.062-2.573-1.062-4.031 0.354-2.802 1.062-4.031c0.709-1.229 1.678-2.198 2.907-2.907 1.229-0.708 2.573-1.062 4.031-1.062zM25.999 27.999h-18c-0.583 0-1.063-0.188-1.438-0.563s-0.562-0.854-0.562-1.437c0-0.583 0.198-1.063 0.594-1.438s0.864-0.562 1.406-0.562h18v4z"></path>
</svg>
