<!-- Generated by IcoMoon.io -->
<svg version="1.1" xmlns="http://www.w3.org/2000/svg" width="32" height="32" viewBox="0 0 32 32">
<title>atom-heart</title>
<path d="M9.59 4.195c1.69-2.605 3.941-4.194 6.41-4.194s4.72 1.589 6.41 4.194c3.104-0.001 5.663 1.020 7.008 3.091 1.511 2.327 1.189 5.515-0.547 8.714 1.736 3.199 2.058 6.387 0.547 8.714-1.345 2.071-3.904 3.092-7.008 3.091-1.69 2.605-3.941 4.194-6.41 4.194s-4.72-1.589-6.41-4.194c-3.104 0.001-5.663-1.020-7.008-3.091-1.511-2.327-1.189-5.515 0.547-8.714-1.736-3.199-2.058-6.387-0.547-8.714 1.345-2.071 3.904-3.092 7.008-3.091zM16 26.571c-1.042 0.381-2.074 0.674-3.079 0.879 0.917 0.989 1.965 1.55 3.079 1.55s2.162-0.561 3.079-1.55c-1.005-0.205-2.036-0.498-3.079-0.879zM27.002 18.78c-0.585 0.726-1.24 1.44-1.959 2.13-0.267 1.396-0.645 2.709-1.117 3.908 1.328-0.23 2.37-0.804 2.977-1.738 0.739-1.138 0.726-2.649 0.099-4.3zM4.998 18.78c-0.627 1.651-0.64 3.162 0.099 4.3 0.607 0.934 1.649 1.508 2.977 1.738-0.472-1.199-0.85-2.512-1.117-3.908-0.719-0.69-1.374-1.404-1.959-2.13zM21.122 24.001c-0.364 0.235-0.73 0.46-1.098 0.673 0.256 0.051 0.508 0.095 0.757 0.131 0.119-0.259 0.232-0.527 0.341-0.804zM10.878 24.001c0.109 0.277 0.222 0.545 0.341 0.804 0.249-0.036 0.501-0.080 0.757-0.131-0.368-0.213-0.734-0.438-1.098-0.673zM16 8.627c-1.173 0.517-2.365 1.159-3.54 1.922-0.989 0.642-1.904 1.329-2.734 2.044-0.147 1.086-0.226 2.228-0.226 3.407s0.079 2.321 0.226 3.407c0.83 0.715 1.745 1.402 2.734 2.044 1.175 0.763 2.367 1.405 3.54 1.922 1.173-0.517 2.365-1.159 3.54-1.922 0.989-0.642 1.904-1.329 2.734-2.044 0.147-1.086 0.226-2.228 0.226-3.407s-0.079-2.321-0.226-3.407c-0.83-0.715-1.745-1.402-2.734-2.044-1.175-0.763-2.367-1.405-3.54-1.922zM19.621 12.609c-0.317-0.27-0.674-0.44-1.072-0.51-0.399-0.070-0.791-0.041-1.178 0.088s-0.727 0.346-1.019 0.65l-0.352 0.352-0.352-0.352c-0.292-0.304-0.632-0.521-1.019-0.65s-0.779-0.158-1.178-0.088c-0.398 0.070-0.755 0.24-1.072 0.51-0.363 0.304-0.615 0.679-0.756 1.125s-0.161 0.893-0.061 1.344 0.313 0.847 0.641 1.187l3.393 3.497c0.117 0.118 0.252 0.176 0.404 0.176s0.287-0.058 0.404-0.176l3.393-3.515c0.328-0.328 0.541-0.718 0.641-1.169s0.079-0.899-0.061-1.344c-0.141-0.446-0.393-0.821-0.756-1.125zM8.074 7.182c-1.328 0.23-2.37 0.804-2.977 1.738-0.739 1.138-0.726 2.649-0.099 4.3 0.585-0.726 1.24-1.44 1.959-2.13 0.267-1.396 0.645-2.709 1.117-3.908zM23.926 7.182c0.472 1.199 0.85 2.512 1.117 3.908 0.719 0.69 1.374 1.404 1.959 2.13 0.627-1.651 0.64-3.162-0.099-4.3-0.607-0.934-1.649-1.508-2.977-1.738zM20.781 7.195c-0.249 0.036-0.501 0.080-0.757 0.131 0.368 0.213 0.734 0.438 1.098 0.673-0.109-0.277-0.222-0.545-0.341-0.804zM11.219 7.195c-0.119 0.259-0.232 0.527-0.341 0.804 0.364-0.235 0.73-0.46 1.098-0.673-0.256-0.051-0.508-0.095-0.757-0.131zM19.079 4.55c-0.917-0.989-1.965-1.55-3.079-1.55s-2.162 0.561-3.079 1.55c1.005 0.205 2.036 0.498 3.079 0.879 1.042-0.381 2.074-0.674 3.079-0.879z"></path>
</svg>
