<!-- Generated by IcoMoon.io -->
<svg version="1.1" xmlns="http://www.w3.org/2000/svg" width="32" height="32" viewBox="0 0 32 32">
<title>award</title>
<path d="M10.063 22.69c-0.042-0.041-0.105-0.104-0.188-0.187-0.125-0.125-0.219-0.209-0.281-0.25-0.063-0.042-0.24-0.104-0.531-0.188l-0.563-0.125c-0.542-0.166-1.062-0.458-1.562-0.875l-2.875 7c-0.125 0.334-0.084 0.646 0.125 0.938 0.208 0.291 0.5 0.437 0.875 0.437l3.25-0.125 2.312 2.375c0.25 0.25 0.552 0.344 0.906 0.282 0.354-0.063 0.594-0.261 0.719-0.594l3.25-8c-0.708 0.416-1.437 0.625-2.187 0.625-1.25 0-2.334-0.438-3.25-1.313zM27.938 28.065l-2.875-7c-0.5 0.417-1.021 0.709-1.563 0.875l-0.563 0.125c-0.291 0.084-0.468 0.146-0.531 0.188s-0.156 0.125-0.281 0.25l-0.188 0.187c-0.916 0.875-2 1.313-3.25 1.313-0.75 0-1.479-0.209-2.187-0.625l3.25 8c0.125 0.333 0.365 0.531 0.719 0.594 0.354 0.062 0.656-0.032 0.906-0.282l2.312-2.375 3.25 0.125c0.375 0 0.667-0.146 0.875-0.437 0.209-0.292 0.25-0.604 0.125-0.938zM20.438 21.253c0.375-0.417 0.667-0.677 0.875-0.781 0.209-0.105 0.563-0.219 1.063-0.344l0.5-0.125c0.417-0.125 0.781-0.354 1.094-0.688 0.312-0.333 0.531-0.708 0.656-1.125l0.125-0.312c0.167-0.667 0.302-1.094 0.406-1.281 0.104-0.188 0.386-0.532 0.844-1.032l0.25-0.25c0.333-0.333 0.552-0.718 0.656-1.156 0.104-0.437 0.115-0.865 0.031-1.281l-0.125-0.375c-0.166-0.667-0.25-1.104-0.25-1.313 0-0.208 0.084-0.646 0.25-1.312l0.125-0.313c0.084-0.458 0.073-0.906-0.031-1.343-0.104-0.438-0.323-0.823-0.656-1.157l-0.25-0.25c-0.458-0.458-0.74-0.781-0.844-0.968s-0.239-0.615-0.406-1.282l-0.125-0.375c-0.125-0.416-0.344-0.791-0.656-1.125-0.313-0.333-0.677-0.562-1.094-0.687l-0.313-0.063c-0.666-0.166-1.093-0.312-1.281-0.437s-0.51-0.417-0.969-0.875l-0.25-0.25c-0.333-0.334-0.718-0.552-1.156-0.656-0.437-0.105-0.864-0.115-1.281-0.032l-0.313 0.125c-0.666 0.167-1.104 0.25-1.312 0.25s-0.646-0.083-1.313-0.25l-0.312-0.125c-0.417-0.083-0.844-0.073-1.281 0.032-0.438 0.104-0.823 0.322-1.157 0.656l-0.25 0.25c-0.458 0.458-0.781 0.75-0.968 0.875-0.188 0.125-0.615 0.271-1.282 0.437l-0.312 0.063c-0.417 0.125-0.781 0.354-1.094 0.687s-0.531 0.709-0.656 1.125l-0.125 0.375c-0.167 0.667-0.302 1.094-0.406 1.282s-0.386 0.51-0.844 0.968l-0.25 0.25c-0.333 0.334-0.552 0.719-0.656 1.157-0.104 0.437-0.115 0.885-0.032 1.343l0.125 0.313c0.167 0.666 0.25 1.104 0.25 1.312s-0.083 0.646-0.25 1.313l-0.125 0.375c-0.083 0.416-0.072 0.844 0.032 1.281s0.323 0.823 0.656 1.156l0.25 0.25c0.458 0.5 0.74 0.844 0.844 1.032s0.239 0.614 0.406 1.281l0.125 0.312c0.125 0.417 0.344 0.792 0.656 1.125 0.313 0.334 0.677 0.563 1.094 0.688l0.437 0.125c0.542 0.125 0.917 0.239 1.125 0.344 0.209 0.104 0.511 0.364 0.907 0.781s0.885 0.656 1.468 0.719c0.584 0.062 1.125-0.053 1.625-0.344 0.375-0.25 0.813-0.375 1.313-0.375s0.937 0.125 1.312 0.375c0.5 0.291 1.042 0.406 1.625 0.344 0.584-0.063 1.084-0.303 1.5-0.719zM10.126 11.003c0-1.667 0.573-3.084 1.719-4.25s2.531-1.75 4.156-1.75 3.010 0.583 4.156 1.75c1.146 1.166 1.719 2.583 1.719 4.25s-0.573 3.083-1.719 4.25c-1.146 1.166-2.531 1.75-4.156 1.75s-3.010-0.584-4.156-1.75c-1.146-1.167-1.719-2.584-1.719-4.25z"></path>
</svg>
