<!-- Generated by IcoMoon.io -->
<svg version="1.1" xmlns="http://www.w3.org/2000/svg" width="40" height="32" viewBox="0 0 40 32">
<title>backspace</title>
<path d="M36 4h-23.187c-1.084 0-2.021 0.396-2.813 1.188l-9.437 9.375c-0.375 0.416-0.563 0.895-0.563 1.437s0.188 1.021 0.563 1.438l9.437 9.375c0.792 0.791 1.729 1.187 2.813 1.187h23.187c1.125 0 2.073-0.385 2.844-1.156s1.156-1.719 1.156-2.844v-16c0-1.125-0.385-2.073-1.156-2.844s-1.719-1.156-2.844-1.156zM30.688 19.875c0.208 0.208 0.312 0.448 0.312 0.719s-0.104 0.51-0.312 0.718l-1.375 1.375c-0.209 0.209-0.448 0.313-0.719 0.313s-0.511-0.104-0.719-0.313l-3.875-3.875-3.875 3.875c-0.208 0.209-0.448 0.313-0.719 0.313s-0.51-0.104-0.718-0.313l-1.375-1.375c-0.209-0.208-0.313-0.447-0.313-0.718s0.104-0.511 0.313-0.719l3.875-3.875-3.875-3.875c-0.209-0.208-0.313-0.448-0.313-0.719s0.104-0.51 0.313-0.719l1.375-1.375c0.208-0.208 0.447-0.312 0.718-0.312s0.511 0.104 0.719 0.312l3.875 3.875 3.875-3.875c0.208-0.208 0.448-0.312 0.719-0.312s0.51 0.104 0.719 0.312l1.375 1.375c0.208 0.209 0.312 0.448 0.312 0.719s-0.104 0.511-0.312 0.719l-3.875 3.875 3.875 3.875z"></path>
</svg>
