<!-- Generated by IcoMoon.io -->
<svg version="1.1" xmlns="http://www.w3.org/2000/svg" width="40" height="32" viewBox="0 0 40 32">
<title>balance-scale</title>
<path d="M16 21v-0.063c0-0.375-0.104-0.791-0.312-1.25-0.209-0.458-0.917-1.875-2.125-4.25l-2.875-5.812c-0.375-0.708-0.917-1.188-1.625-1.438-0.709-0.249-1.417-0.249-2.125 0.001s-1.25 0.729-1.625 1.437l-2.813 5.625c-1.25 2.5-1.979 3.99-2.187 4.469-0.209 0.479-0.313 0.885-0.313 1.219v0.062c0 0.917 0.354 1.75 1.063 2.5 0.708 0.75 1.677 1.354 2.906 1.813 1.229 0.458 2.573 0.687 4.031 0.687s2.802-0.229 4.031-0.688c1.229-0.458 2.198-1.062 2.907-1.812s1.062-1.583 1.062-2.5zM8 11l4.5 9h-9l4.5-9zM40 21c0 0 0-0.021 0-0.063 0-0.375-0.104-0.791-0.312-1.25-0.209-0.458-0.917-1.875-2.125-4.25l-2.875-5.812c-0.375-0.708-0.917-1.188-1.625-1.438-0.709-0.249-1.417-0.249-2.125 0.001-0.709 0.25-1.25 0.729-1.625 1.437l-2.813 5.625c-1.25 2.5-1.979 3.99-2.187 4.469s-0.313 0.885-0.313 1.219v0.062c0 0.917 0.354 1.75 1.063 2.5 0.708 0.75 1.677 1.354 2.906 1.813 1.229 0.458 2.573 0.687 4.031 0.687s2.802-0.229 4.031-0.688c1.229-0.458 2.198-1.062 2.907-1.812 0.708-0.75 1.062-1.583 1.062-2.5zM27.5 20l4.5-9 4.5 9h-9zM33 28h-11v-18.438c0.75-0.333 1.375-0.812 1.875-1.437s0.833-1.333 1-2.125h8.125c0.292 0 0.531-0.094 0.719-0.281 0.187-0.188 0.281-0.427 0.281-0.719v-2c0-0.292-0.094-0.531-0.281-0.719-0.188-0.187-0.427-0.281-0.719-0.281h-9c-0.5-0.625-1.094-1.115-1.781-1.469-0.688-0.354-1.427-0.531-2.219-0.531s-1.531 0.177-2.219 0.531c-0.687 0.354-1.281 0.844-1.781 1.469h-9c-0.292 0-0.531 0.094-0.719 0.281-0.187 0.188-0.281 0.427-0.281 0.719v2c0 0.292 0.094 0.531 0.281 0.719 0.188 0.187 0.427 0.281 0.719 0.281h8.125c0.167 0.792 0.5 1.5 1 2.125s1.125 1.104 1.875 1.437v18.438h-11c-0.292 0-0.531 0.094-0.719 0.281-0.187 0.188-0.281 0.427-0.281 0.719v2c0 0.292 0.094 0.531 0.281 0.719 0.188 0.187 0.427 0.281 0.719 0.281h26c0.292 0 0.531-0.094 0.719-0.281 0.187-0.188 0.281-0.427 0.281-0.719v-2c0-0.292-0.094-0.531-0.281-0.719-0.188-0.187-0.427-0.281-0.719-0.281z"></path>
</svg>
