<!-- Generated by IcoMoon.io -->
<svg version="1.1" xmlns="http://www.w3.org/2000/svg" width="32" height="32" viewBox="0 0 32 32">
<title>ban</title>
<path d="M16 0.5c-2.792 0-5.375 0.698-7.75 2.094s-4.26 3.281-5.656 5.656c-1.396 2.375-2.094 4.958-2.094 7.75s0.698 5.375 2.094 7.75c1.396 2.375 3.281 4.26 5.656 5.656s4.958 2.094 7.75 2.094c2.792 0 5.375-0.698 7.75-2.094s4.26-3.281 5.656-5.656c1.396-2.375 2.094-4.958 2.094-7.75s-0.698-5.375-2.094-7.75c-1.396-2.375-3.281-4.26-5.656-5.656s-4.958-2.094-7.75-2.094zM24.125 7.875c1.333 1.333 2.271 2.865 2.813 4.594s0.677 3.489 0.406 5.281-0.906 3.417-1.906 4.875l-16.063-16.063c1.458-1 3.083-1.635 4.875-1.906s3.552-0.135 5.281 0.406c1.729 0.542 3.261 1.48 4.594 2.813zM7.875 24.125c-1.333-1.333-2.271-2.865-2.813-4.594-0.541-1.729-0.677-3.489-0.406-5.281s0.907-3.417 1.907-4.875l16.062 16.063c-1.458 1-3.083 1.635-4.875 1.906s-3.552 0.135-5.281-0.406c-1.729-0.542-3.261-1.48-4.594-2.813z"></path>
</svg>
