<!-- Generated by IcoMoon.io -->
<svg version="1.1" xmlns="http://www.w3.org/2000/svg" width="32" height="32" viewBox="0 0 32 32">
<title>bell-o</title>
<path d="M29.438 22.625c-0.042-0.042-0.105-0.125-0.188-0.25-0.958-1-1.667-1.979-2.125-2.938-0.75-1.666-1.125-3.812-1.125-6.437 0-2.417-0.75-4.521-2.25-6.313s-3.417-2.916-5.75-3.375v-1.312c0-0.542-0.198-1.010-0.594-1.406s-0.864-0.594-1.406-0.594c-0.542 0-1.010 0.198-1.406 0.594s-0.594 0.864-0.594 1.406v1.313c-2.333 0.458-4.25 1.583-5.75 3.375-1.5 1.791-2.25 3.895-2.25 6.312 0 2.625-0.375 4.771-1.125 6.438-0.458 0.958-1.167 1.937-2.125 2.937l-0.188 0.25c-0.375 0.417-0.562 0.885-0.562 1.406s0.187 0.979 0.562 1.375c0.375 0.396 0.855 0.594 1.438 0.594h24c0.583 0 1.062-0.198 1.437-0.594s0.563-0.854 0.563-1.375c0-0.521-0.188-0.989-0.563-1.406zM6.251 23c1.833-2.458 2.75-5.771 2.75-9.938v-0.062c0-1.25 0.312-2.417 0.937-3.5s1.48-1.938 2.563-2.563c1.083-0.624 2.25-0.937 3.5-0.937s2.417 0.313 3.5 0.938c1.083 0.625 1.937 1.479 2.562 2.562s0.938 2.25 0.938 3.5v0.063c0 4.166 0.917 7.479 2.75 9.937h-19.5zM16.001 32c1.083 0 2.021-0.385 2.812-1.156 0.792-0.771 1.188-1.719 1.188-2.844h-8c0 1.125 0.396 2.073 1.187 2.844 0.792 0.771 1.73 1.156 2.813 1.156z"></path>
</svg>
