<!-- Generated by IcoMoon.io -->
<svg version="1.1" xmlns="http://www.w3.org/2000/svg" width="40" height="32" viewBox="0 0 40 32">
<title>bell-slash</title>
<path d="M39.625 28.625l-5.687-4.375 0.062-0.25c0-0.5-0.187-0.958-0.562-1.375l-0.188-0.25c-0.958-1-1.667-1.979-2.125-2.938-0.75-1.666-1.125-3.812-1.125-6.437 0-2.417-0.75-4.521-2.25-6.313s-3.417-2.916-5.75-3.375v-1.312c0-0.542-0.198-1.010-0.594-1.406s-0.864-0.594-1.406-0.594c-0.542 0-1.010 0.198-1.406 0.594s-0.594 0.864-0.594 1.406v1.313c-1.25 0.25-2.396 0.718-3.437 1.406-1.042 0.687-1.938 1.51-2.688 2.469l-9.062-7c-0.209-0.167-0.448-0.23-0.719-0.188s-0.49 0.167-0.656 0.375l-1.25 1.563c-0.167 0.25-0.23 0.51-0.188 0.781s0.167 0.489 0.375 0.656l36.813 28.438c0.208 0.166 0.447 0.229 0.718 0.187s0.49-0.167 0.657-0.375l1.25-1.563c0.166-0.25 0.229-0.51 0.187-0.781s-0.167-0.489-0.375-0.656zM9.813 15.75c-0.209 1.708-0.646 3.187-1.313 4.437-0.417 0.667-1 1.417-1.75 2.25l-0.187 0.188c-0.375 0.417-0.563 0.885-0.563 1.406s0.188 0.979 0.563 1.375c0.375 0.396 0.854 0.594 1.437 0.594h15.125l-13.312-10.25zM20 32c1.083 0 2.021-0.385 2.813-1.156s1.187-1.719 1.187-2.844h-8c0 1.125 0.396 2.073 1.188 2.844s1.729 1.156 2.812 1.156z"></path>
</svg>
