<!-- Generated by IcoMoon.io -->
<svg version="1.1" xmlns="http://www.w3.org/2000/svg" width="32" height="32" viewBox="0 0 32 32">
<title>bold</title>
<path d="M23.063 15.25c1.041-0.583 1.854-1.406 2.437-2.469s0.875-2.239 0.875-3.531c0-1.5-0.375-2.833-1.125-4s-1.792-2-3.125-2.5c-0.75-0.292-1.542-0.5-2.375-0.625-0.708-0.083-1.583-0.125-2.625-0.125h-11.625c-0.292 0-0.531 0.094-0.719 0.281-0.187 0.188-0.281 0.427-0.281 0.719v2.063c0 0.291 0.094 0.531 0.281 0.718 0.188 0.188 0.427 0.281 0.719 0.281h2.063l-0.001 19.938h-2.062c-0.292 0-0.531 0.094-0.719 0.281-0.187 0.188-0.281 0.427-0.281 0.719v2c0 0.292 0.094 0.531 0.281 0.719 0.188 0.187 0.427 0.281 0.719 0.281h12.25c1.667 0 3.063-0.167 4.188-0.5 1.625-0.458 2.958-1.385 4-2.781s1.562-3.011 1.562-4.844c0-1.625-0.396-3.021-1.188-4.188s-1.875-1.979-3.25-2.437zM12.876 6.312h4.25c0.958 0 1.729 0.146 2.313 0.438 0.5 0.25 0.885 0.646 1.156 1.187s0.406 1.167 0.406 1.875c0 1.084-0.292 1.948-0.875 2.594s-1.396 0.969-2.437 0.969h-4.813v-7.063zM19.939 25.375c-0.5 0.208-1.167 0.313-2 0.313h-5.063v-8.063h5.313c1.208 0 2.166 0.354 2.875 1.063 0.708 0.708 1.062 1.666 1.062 2.875 0 0.875-0.198 1.666-0.594 2.375-0.396 0.708-0.927 1.187-1.593 1.437z"></path>
</svg>
