<!-- Generated by IcoMoon.io -->
<svg version="1.1" xmlns="http://www.w3.org/2000/svg" width="32" height="32" viewBox="0 0 32 32">
<title>bolt</title>
<path d="M24.488 10h-7.187l2.125-8.125c0.125-0.458 0.041-0.885-0.25-1.281-0.292-0.396-0.688-0.594-1.188-0.594h-8.5c-0.375 0-0.708 0.125-1 0.375s-0.458 0.562-0.5 0.937l-2 15c-0.041 0.459 0.084 0.855 0.375 1.188s0.667 0.5 1.125 0.5h7.438l-2.875 12.125c-0.125 0.5-0.042 0.938 0.25 1.313s0.687 0.562 1.187 0.562c0.584 0 1.021-0.25 1.313-0.75l11-19c0.291-0.5 0.291-1 0-1.5-0.292-0.5-0.729-0.75-1.313-0.75z"></path>
</svg>
