<!-- Generated by IcoMoon.io -->
<svg version="1.1" xmlns="http://www.w3.org/2000/svg" width="32" height="32" viewBox="0 0 32 32">
<title>books</title>
<path d="M6 8v12.998c0.011 0.328 0.020 0.281 0.020 0.281 0.149 2.483 2.442 4.665 4.827 4.718l13.153 0.002v1.251c0 0.335-0.219 0.619-0.522 0.715-0.068 0.799-0.037 1.544 0.007 2.073 0.299 0.098 0.515 0.38 0.515 0.712 0 0.144 0 0.25 0 0.25 0 0.265-0.105 0.52-0.293 0.707s-0.442 0.293-0.707 0.293c-3.803-0.001-18.153-0.003-18.153-0.003-1.553-0.118-2.804-1.498-2.838-3l-0.009 0.001c0 0 0-12.195 0-17.998 0-1.657 1.343-3 3-3h1zM21.494 28h-16.494c-0.265 0-0.52 0.106-0.707 0.293-0.188 0.188-0.293 0.442-0.293 0.707s0.105 0.52 0.293 0.707c0.187 0.188 0.442 0.293 0.707 0.293h16.487c-0.045-0.75-0.027-1.449 0.007-2zM8.009 20.997l-0.009 0.001c0 0 0-12.195 0-17.998 0-1.657 1.343-3 3-3 4.799 0 14.969 0 18 0 0.552 0 1 0.448 1 1v18.25c0 0.335-0.219 0.618-0.522 0.715-0.068 0.799-0.037 1.544 0.007 2.073 0.299 0.098 0.515 0.38 0.515 0.712 0 0.143 0 0.25 0 0.25 0 0.265-0.105 0.52-0.293 0.707s-0.442 0.293-0.707 0.293c-3.803-0.001-18.153-0.003-18.153-0.003-1.553-0.118-2.804-1.498-2.838-3zM27.494 20h-16.494c-0.265 0-0.52 0.105-0.707 0.293s-0.293 0.442-0.293 0.707 0.105 0.52 0.293 0.707c0.187 0.188 0.442 0.293 0.707 0.293h16.487c-0.045-0.75-0.027-1.449 0.007-2zM24.75 10.5c0.063 0 0.125-0.031 0.187-0.094s0.094-0.125 0.094-0.187v-0.938c0-0.062-0.031-0.125-0.094-0.187-0.062-0.063-0.125-0.094-0.187-0.094h-10.469c-0.062 0-0.125 0.031-0.187 0.094-0.063 0.062-0.094 0.125-0.094 0.187v0.938c0 0.062 0.031 0.125 0.094 0.187 0.062 0.063 0.125 0.094 0.187 0.094h10.469zM24.75 7.5c0.063 0 0.125-0.031 0.187-0.094 0.063-0.062 0.094-0.125 0.094-0.187v-0.938c0-0.062-0.031-0.125-0.094-0.187-0.062-0.063-0.125-0.094-0.187-0.094h-10.469c-0.062 0-0.125 0.031-0.187 0.094-0.063 0.062-0.094 0.125-0.094 0.187v0.938c0 0.062 0.031 0.125 0.094 0.187s0.125 0.094 0.187 0.094h10.469z"></path>
</svg>
