<!-- Generated by IcoMoon.io -->
<svg version="1.1" xmlns="http://www.w3.org/2000/svg" width="36" height="32" viewBox="0 0 36 32">
<title>book-open</title>
<path d="M33.875 2.007c-2.458 0.125-4.771 0.416-6.937 0.875-3.125 0.625-5.625 1.5-7.5 2.625-0.292 0.166-0.438 0.437-0.438 0.812v22.75c0 0.334 0.156 0.594 0.469 0.782 0.312 0.187 0.635 0.197 0.969 0.031 1.916-0.959 4.354-1.688 7.312-2.188 2-0.375 4.125-0.625 6.375-0.75 0.542 0 0.99-0.187 1.344-0.562s0.531-0.813 0.531-1.313v-21.125c0-0.583-0.208-1.062-0.625-1.437s-0.917-0.542-1.5-0.5zM16.563 5.507c-1.875-1.125-4.375-2-7.5-2.625-2.167-0.459-4.48-0.75-6.938-0.875-0.583-0.042-1.083 0.125-1.5 0.5s-0.625 0.854-0.625 1.437v21.125c0 0.5 0.177 0.938 0.531 1.313s0.802 0.562 1.344 0.562c2.25 0.125 4.375 0.375 6.375 0.75 2.958 0.5 5.396 1.229 7.313 2.188 0.333 0.166 0.656 0.156 0.968-0.031 0.313-0.188 0.469-0.448 0.469-0.782v-22.75c0-0.375-0.146-0.646-0.437-0.812z"></path>
</svg>
