<!-- Generated by IcoMoon.io -->
<svg version="1.1" xmlns="http://www.w3.org/2000/svg" width="32" height="32" viewBox="0 0 32 32">
<title>books-bullseye</title>
<path d="M6 8v12.998c0.011 0.328 0.020 0.281 0.020 0.281 0.149 2.483 2.442 4.665 4.827 4.718l13.153 0.002v1.251c0 0.335-0.219 0.619-0.522 0.715-0.068 0.799-0.037 1.544 0.007 2.073 0.299 0.098 0.515 0.38 0.515 0.712 0 0.144 0 0.25 0 0.25 0 0.265-0.105 0.52-0.293 0.707s-0.442 0.293-0.707 0.293c-3.803-0.001-18.153-0.003-18.153-0.003-1.553-0.118-2.804-1.498-2.838-3l-0.009 0.001c0 0 0-12.195 0-17.998 0-1.657 1.343-3 3-3h1zM21.494 28h-16.494c-0.265 0-0.52 0.106-0.707 0.293-0.188 0.188-0.293 0.442-0.293 0.707s0.105 0.52 0.293 0.707c0.187 0.188 0.442 0.293 0.707 0.293h16.487c-0.045-0.75-0.027-1.449 0.007-2zM8.009 20.997l-0.009 0.001c0 0 0-12.195 0-17.998 0-1.657 1.343-3 3-3 4.799 0 14.969 0 18 0 0.552 0 1 0.448 1 1v18.25c0 0.335-0.219 0.618-0.522 0.715-0.068 0.799-0.037 1.544 0.007 2.073 0.299 0.098 0.515 0.38 0.515 0.712 0 0.143 0 0.25 0 0.25 0 0.265-0.105 0.52-0.293 0.707s-0.442 0.293-0.707 0.293c-3.803-0.001-18.153-0.003-18.153-0.003-1.553-0.118-2.804-1.498-2.838-3zM27.494 20h-16.494c-0.265 0-0.52 0.105-0.707 0.293s-0.293 0.442-0.293 0.707 0.105 0.52 0.293 0.707c0.187 0.188 0.442 0.293 0.707 0.293h16.487c-0.045-0.75-0.027-1.449 0.007-2zM20 3c-1.261 0-2.427 0.315-3.5 0.946-1.073 0.63-1.924 1.481-2.554 2.554s-0.946 2.239-0.946 3.5 0.315 2.427 0.946 3.5c0.63 1.073 1.481 1.924 2.554 2.554 1.073 0.631 2.239 0.946 3.5 0.946s2.427-0.315 3.5-0.946c1.073-0.63 1.924-1.481 2.554-2.554 0.631-1.073 0.946-2.239 0.946-3.5s-0.315-2.427-0.946-3.5c-0.63-1.073-1.481-1.924-2.554-2.554s-2.239-0.946-3.5-0.946zM20 15.194c-0.941 0-1.811-0.231-2.611-0.692s-1.43-1.091-1.891-1.891c-0.461-0.8-0.692-1.67-0.692-2.611s0.231-1.811 0.692-2.611c0.461-0.8 1.091-1.43 1.891-1.891s1.67-0.692 2.611-0.692c0.941 0 1.811 0.231 2.611 0.692s1.43 1.091 1.891 1.891c0.461 0.8 0.692 1.67 0.692 2.611s-0.231 1.811-0.692 2.611c-0.461 0.8-1.091 1.43-1.891 1.891s-1.67 0.692-2.611 0.692zM20 6.387c-0.659 0-1.265 0.16-1.821 0.48-0.555 0.32-0.992 0.757-1.312 1.312-0.32 0.556-0.48 1.162-0.48 1.821s0.16 1.265 0.48 1.821c0.32 0.555 0.757 0.992 1.312 1.312 0.556 0.32 1.162 0.48 1.821 0.48s1.265-0.16 1.821-0.48c0.555-0.32 0.992-0.757 1.312-1.312 0.32-0.556 0.48-1.162 0.48-1.821s-0.16-1.265-0.48-1.821c-0.32-0.555-0.757-0.992-1.312-1.312-0.556-0.32-1.162-0.48-1.821-0.48zM20 11.806c-0.489 0-0.913-0.178-1.27-0.536-0.358-0.357-0.536-0.781-0.536-1.27s0.178-0.913 0.536-1.27c0.357-0.358 0.781-0.536 1.27-0.536s0.913 0.178 1.27 0.536c0.358 0.357 0.536 0.781 0.536 1.27s-0.178 0.913-0.536 1.27c-0.357 0.358-0.781 0.536-1.27 0.536z"></path>
</svg>
