<!-- Generated by IcoMoon.io -->
<svg version="1.1" xmlns="http://www.w3.org/2000/svg" width="32" height="32" viewBox="0 0 32 32">
<title>book</title>
<path d="M30 22.5v-21c0-0.417-0.146-0.771-0.438-1.063s-0.645-0.437-1.062-0.437h-20.5c-1.667 0-3.083 0.583-4.25 1.75s-1.75 2.583-1.75 4.25v20c0 1.667 0.583 3.083 1.75 4.25s2.583 1.75 4.25 1.75h20.5c0.417 0 0.771-0.146 1.063-0.438s0.437-0.645 0.437-1.062v-1c0-0.458-0.188-0.854-0.563-1.188-0.125-0.458-0.187-1.229-0.187-2.312s0.063-1.854 0.188-2.313c0.375-0.291 0.562-0.687 0.562-1.187zM10 8.375c0-0.083 0.042-0.167 0.125-0.25s0.167-0.125 0.25-0.125h13.25c0.083 0 0.167 0.042 0.25 0.125s0.125 0.167 0.125 0.25v1.25c0 0.083-0.042 0.167-0.125 0.25s-0.167 0.125-0.25 0.125h-13.25c-0.083 0-0.167-0.042-0.25-0.125s-0.125-0.167-0.125-0.25v-1.25zM10 12.375c0-0.083 0.042-0.167 0.125-0.25s0.167-0.125 0.25-0.125h13.25c0.083 0 0.167 0.042 0.25 0.125s0.125 0.167 0.125 0.25v1.25c0 0.083-0.042 0.167-0.125 0.25s-0.167 0.125-0.25 0.125h-13.25c-0.083 0-0.167-0.042-0.25-0.125s-0.125-0.167-0.125-0.25v-1.25zM25.813 28h-17.813c-0.542 0-1.010-0.198-1.406-0.594s-0.594-0.864-0.594-1.406c0-0.542 0.198-1.010 0.594-1.406s0.864-0.594 1.406-0.594h17.812c-0.041 0.542-0.062 1.208-0.062 2s0.021 1.458 0.062 2z"></path>
</svg>
