<!-- Generated by IcoMoon.io -->
<svg version="1.1" xmlns="http://www.w3.org/2000/svg" width="32" height="32" viewBox="0 0 32 32">
<title>book-reader</title>
<path d="M22 6c0-1.667-0.583-3.083-1.75-4.25s-2.583-1.75-4.25-1.75c-1.667 0-3.083 0.583-4.25 1.75s-1.75 2.583-1.75 4.25c0 1.667 0.583 3.083 1.75 4.25s2.583 1.75 4.25 1.75c1.667 0 3.083-0.583 4.25-1.75s1.75-2.583 1.75-4.25zM14.625 15.063c-1.667-1-3.875-1.771-6.625-2.313-1.917-0.375-3.958-0.625-6.125-0.75-0.5-0.042-0.938 0.104-1.313 0.438-0.375 0.333-0.562 0.75-0.562 1.25v13.937c0 0.458 0.156 0.844 0.469 1.156 0.312 0.313 0.698 0.49 1.156 0.532 2 0.083 3.875 0.291 5.625 0.625 2.625 0.458 4.792 1.104 6.5 1.937 0.292 0.167 0.573 0.167 0.844 0s0.406-0.396 0.406-0.687v-15.375c0-0.334-0.125-0.584-0.375-0.75zM30.125 12c-2.167 0.125-4.208 0.375-6.125 0.75-2.75 0.542-4.958 1.313-6.625 2.313-0.25 0.166-0.375 0.416-0.375 0.75v15.375c0 0.291 0.135 0.52 0.406 0.687s0.573 0.167 0.907 0c1.666-0.833 3.812-1.479 6.437-1.937 1.75-0.334 3.625-0.542 5.625-0.625 0.458-0.042 0.844-0.219 1.156-0.532 0.313-0.312 0.469-0.698 0.469-1.156v-13.937c0-0.5-0.188-0.917-0.563-1.25s-0.812-0.48-1.312-0.438z"></path>
</svg>
