<!-- Generated by IcoMoon.io -->
<svg version="1.1" xmlns="http://www.w3.org/2000/svg" width="32" height="32" viewBox="0 0 32 32">
<title>box</title>
<path d="M31.875 11.563l-3.188-9.501c-0.208-0.625-0.572-1.125-1.093-1.5s-1.115-0.562-1.782-0.562h-8.812v12h14.938l-0.063-0.438zM15 0.001h-8.813c-0.666 0-1.26 0.187-1.781 0.562s-0.885 0.875-1.094 1.5l-3.125 9.5-0.125 0.438h14.938v-12zM0 14.001v15c0 0.833 0.292 1.542 0.875 2.125s1.292 0.875 2.125 0.875h26c0.833 0 1.542-0.292 2.125-0.875s0.875-1.292 0.875-2.125v-15h-32z"></path>
</svg>
