<!-- Generated by IcoMoon.io -->
<svg version="1.1" xmlns="http://www.w3.org/2000/svg" width="36" height="32" viewBox="0 0 36 32">
<title>brain</title>
<path d="M13 0c-0.917 0-1.729 0.281-2.437 0.844s-1.188 1.281-1.438 2.156h-0.125c-1.125 0-2.073 0.385-2.844 1.156s-1.156 1.719-1.156 2.844c0 0.292 0.042 0.583 0.125 0.875-0.958 0.375-1.719 0.979-2.281 1.813-0.563 0.833-0.844 1.77-0.844 2.812 0 0.75 0.167 1.479 0.5 2.188-0.75 0.416-1.354 1.010-1.812 1.781-0.459 0.771-0.688 1.614-0.688 2.531 0 1.042 0.281 1.979 0.844 2.813 0.562 0.833 1.302 1.437 2.219 1.812-0.042 0.292-0.063 0.583-0.063 0.875 0 1.25 0.438 2.313 1.313 3.188s1.937 1.312 3.187 1.312c0.208 0 0.458-0.021 0.75-0.063 0.292 0.917 0.833 1.657 1.625 2.219s1.667 0.844 2.625 0.844c1.25 0 2.313-0.438 3.188-1.313s1.312-1.937 1.312-3.187v-14.688c-0.708 0.584-1.5 0.98-2.375 1.188-0.167 0.042-0.312 0.010-0.437-0.094s-0.188-0.239-0.188-0.406v-1c0-0.25 0.125-0.417 0.375-0.5 0.75-0.208 1.375-0.625 1.875-1.25s0.75-1.333 0.75-2.125v-4.625c0-1.125-0.385-2.073-1.156-2.844s-1.719-1.156-2.844-1.156zM36 19c0-0.917-0.229-1.76-0.687-2.531-0.459-0.771-1.063-1.365-1.813-1.782 0.333-0.708 0.5-1.437 0.5-2.187 0-1.042-0.281-1.979-0.844-2.813-0.562-0.833-1.323-1.437-2.281-1.812 0.083-0.292 0.125-0.583 0.125-0.875 0-1.125-0.385-2.073-1.156-2.844s-1.719-1.156-2.844-1.156h-0.125c-0.25-0.875-0.729-1.594-1.437-2.156s-1.521-0.844-2.438-0.844c-1.125 0-2.073 0.385-2.844 1.156s-1.156 1.719-1.156 2.844v4.625c0 0.792 0.25 1.5 0.75 2.125s1.125 1.042 1.875 1.25c0.25 0.083 0.375 0.25 0.375 0.5v1c0 0.167-0.062 0.302-0.187 0.406s-0.271 0.136-0.438 0.094c-0.875-0.208-1.667-0.604-2.375-1.188v14.688c0 1.25 0.438 2.313 1.313 3.188s1.937 1.312 3.187 1.312c0.958 0 1.833-0.281 2.625-0.844 0.792-0.562 1.333-1.302 1.625-2.218 0.292 0.041 0.542 0.062 0.75 0.062 1.25 0 2.313-0.438 3.188-1.313s1.312-1.937 1.312-3.187c0-0.292-0.021-0.583-0.062-0.875 0.916-0.375 1.656-0.979 2.218-1.813 0.563-0.833 0.844-1.77 0.844-2.812z"></path>
</svg>
