<!-- Generated by IcoMoon.io -->
<svg version="1.1" xmlns="http://www.w3.org/2000/svg" width="32" height="32" viewBox="0 0 32 32">
<title>briefcase</title>
<path d="M20 21c0 0.292-0.094 0.531-0.281 0.719-0.188 0.187-0.427 0.281-0.719 0.281h-6c-0.292 0-0.531-0.094-0.719-0.281-0.187-0.188-0.281-0.427-0.281-0.719v-3h-12v9c0 0.792 0.302 1.49 0.906 2.094s1.302 0.906 2.094 0.906h26c0.792 0 1.49-0.302 2.094-0.906s0.906-1.302 0.906-2.094v-9h-12v3zM29 8h-5v-3c0-0.792-0.302-1.49-0.906-2.094s-1.302-0.906-2.094-0.906h-10c-0.792 0-1.49 0.302-2.094 0.906s-0.906 1.302-0.906 2.094v3h-5c-0.792 0-1.49 0.302-2.094 0.906s-0.906 1.302-0.906 2.094v5h32v-5c0-0.792-0.302-1.49-0.906-2.094s-1.302-0.906-2.094-0.906zM20 8h-8v-2h8v2z"></path>
</svg>
