<!-- Generated by IcoMoon.io -->
<svg version="1.1" xmlns="http://www.w3.org/2000/svg" width="32" height="32" viewBox="0 0 32 32">
<title>bug</title>
<path d="M32 18.063c0 0.541-0.208 1-0.625 1.375s-0.896 0.562-1.438 0.562h-3.437v1c0 1.333-0.292 2.604-0.875 3.813l3.813 3.75c0.375 0.416 0.562 0.895 0.562 1.437s-0.198 1.010-0.594 1.406c-0.396 0.396-0.864 0.594-1.406 0.594s-1.021-0.188-1.438-0.563l-3.375-3.437c-1.666 1.333-3.562 2-5.687 2v-15.25c0-0.208-0.073-0.385-0.219-0.531s-0.323-0.219-0.531-0.219h-1.5c-0.208 0-0.385 0.073-0.531 0.219s-0.219 0.323-0.219 0.531v15.25c-2.125 0-4.021-0.667-5.688-2l-3.375 3.438c-0.416 0.375-0.895 0.562-1.437 0.562s-1.010-0.198-1.406-0.594c-0.396-0.396-0.594-0.864-0.594-1.406s0.187-1.021 0.562-1.438l3.813-3.75c-0.583-1.208-0.875-2.479-0.875-3.812v-1h-3.438c-0.541 0-1.020-0.188-1.437-0.563s-0.625-0.843-0.625-1.406c0-0.562 0.198-1.041 0.594-1.437s0.864-0.594 1.406-0.594h3.5v-3.688l-2.938-2.874c-0.375-0.417-0.562-0.896-0.562-1.438s0.198-1.010 0.594-1.406c0.396-0.396 0.864-0.594 1.406-0.594s1.021 0.188 1.437 0.563l3.375 3.437h14.375l3.375-3.438c0.417-0.374 0.896-0.562 1.438-0.562s1.010 0.198 1.406 0.594c0.396 0.396 0.594 0.864 0.594 1.406s-0.188 1.021-0.563 1.438l-2.937 2.874v3.688h3.5c0.542 0 1.010 0.198 1.406 0.594s0.594 0.885 0.594 1.468zM16.062 0.001c1.251 0 2.417 0.313 3.501 0.938 1.083 0.624 1.937 1.479 2.562 2.562s0.938 2.25 0.938 3.5h-14c0-1.25 0.312-2.417 0.937-3.5s1.479-1.938 2.563-2.563c1.083-0.624 2.25-0.937 3.5-0.937z"></path>
</svg>
