<!-- Generated by IcoMoon.io -->
<svg version="1.1" xmlns="http://www.w3.org/2000/svg" width="32" height="32" viewBox="0 0 32 32">
<title>building</title>
<path d="M29.25 30h-1.25v-28.5c0-0.417-0.146-0.771-0.438-1.063s-0.645-0.437-1.062-0.437h-21c-0.417 0-0.771 0.146-1.063 0.437-0.291 0.292-0.437 0.646-0.437 1.063v28.5h-1.25c-0.208 0-0.385 0.073-0.531 0.219s-0.219 0.323-0.219 0.531v1.25h28v-1.25c0-0.208-0.073-0.385-0.219-0.531s-0.323-0.219-0.531-0.219zM10 4.75c0-0.208 0.073-0.385 0.219-0.531s0.323-0.219 0.531-0.219h2.5c0.208 0 0.385 0.073 0.531 0.219s0.219 0.323 0.219 0.531v2.5c0 0.208-0.073 0.385-0.219 0.531s-0.323 0.219-0.531 0.219h-2.5c-0.208 0-0.385-0.073-0.531-0.219s-0.219-0.323-0.219-0.531v-2.5zM10 10.75c0-0.208 0.073-0.385 0.219-0.531s0.323-0.219 0.531-0.219h2.5c0.208 0 0.385 0.073 0.531 0.219s0.219 0.323 0.219 0.531v2.5c0 0.208-0.073 0.385-0.219 0.531s-0.323 0.219-0.531 0.219h-2.5c-0.208 0-0.385-0.073-0.531-0.219s-0.219-0.323-0.219-0.531v-2.5zM13.25 20h-2.5c-0.208 0-0.385-0.073-0.531-0.219s-0.219-0.323-0.219-0.531v-2.5c0-0.208 0.073-0.385 0.219-0.531s0.323-0.219 0.531-0.219h2.5c0.208 0 0.385 0.073 0.531 0.219s0.219 0.323 0.219 0.531v2.5c0 0.208-0.073 0.385-0.219 0.531s-0.323 0.219-0.531 0.219zM18 30h-4v-5.25c0-0.208 0.073-0.385 0.219-0.531s0.323-0.219 0.531-0.219h2.5c0.208 0 0.385 0.073 0.531 0.219s0.219 0.323 0.219 0.531v5.25zM22 19.25c0 0.208-0.073 0.385-0.219 0.531s-0.323 0.219-0.531 0.219h-2.5c-0.208 0-0.385-0.073-0.531-0.219s-0.219-0.323-0.219-0.531v-2.5c0-0.208 0.073-0.385 0.219-0.531s0.323-0.219 0.531-0.219h2.5c0.208 0 0.385 0.073 0.531 0.219s0.219 0.323 0.219 0.531v2.5zM22 13.25c0 0.208-0.073 0.385-0.219 0.531s-0.323 0.219-0.531 0.219h-2.5c-0.208 0-0.385-0.073-0.531-0.219s-0.219-0.323-0.219-0.531v-2.5c0-0.208 0.073-0.385 0.219-0.531s0.323-0.219 0.531-0.219h2.5c0.208 0 0.385 0.073 0.531 0.219s0.219 0.323 0.219 0.531v2.5zM22 7.25c0 0.208-0.073 0.385-0.219 0.531s-0.323 0.219-0.531 0.219h-2.5c-0.208 0-0.385-0.073-0.531-0.219s-0.219-0.323-0.219-0.531v-2.5c0-0.208 0.073-0.385 0.219-0.531s0.323-0.219 0.531-0.219h2.5c0.208 0 0.385 0.073 0.531 0.219s0.219 0.323 0.219 0.531v2.5z"></path>
</svg>
