<!-- Generated by IcoMoon.io -->
<svg version="1.1" xmlns="http://www.w3.org/2000/svg" width="32" height="32" viewBox="0 0 32 32">
<title>building-o</title>
<path d="M10 9.25v-2.5c0-0.208 0.073-0.385 0.219-0.531s0.323-0.219 0.531-0.219h2.5c0.208 0 0.385 0.073 0.531 0.219s0.219 0.323 0.219 0.531v2.5c0 0.208-0.073 0.385-0.219 0.531s-0.323 0.219-0.531 0.219h-2.5c-0.208 0-0.385-0.073-0.531-0.219s-0.219-0.323-0.219-0.531zM18.75 10c-0.208 0-0.385-0.073-0.531-0.219s-0.219-0.323-0.219-0.531v-2.5c0-0.208 0.073-0.385 0.219-0.531s0.323-0.219 0.531-0.219h2.5c0.208 0 0.385 0.073 0.531 0.219s0.219 0.323 0.219 0.531v2.5c0 0.208-0.073 0.385-0.219 0.531s-0.323 0.219-0.531 0.219h-2.5zM10.75 16c-0.208 0-0.385-0.073-0.531-0.219s-0.219-0.323-0.219-0.531v-2.5c0-0.208 0.073-0.385 0.219-0.531s0.323-0.219 0.531-0.219h2.5c0.208 0 0.385 0.073 0.531 0.219s0.219 0.323 0.219 0.531v2.5c0 0.208-0.073 0.385-0.219 0.531s-0.323 0.219-0.531 0.219h-2.5zM18.75 16c-0.208 0-0.385-0.073-0.531-0.219s-0.219-0.323-0.219-0.531v-2.5c0-0.208 0.073-0.385 0.219-0.531s0.323-0.219 0.531-0.219h2.5c0.208 0 0.385 0.073 0.531 0.219s0.219 0.323 0.219 0.531v2.5c0 0.208-0.073 0.385-0.219 0.531s-0.323 0.219-0.531 0.219h-2.5zM14 21.25c0 0.208-0.073 0.385-0.219 0.531s-0.323 0.219-0.531 0.219h-2.5c-0.208 0-0.385-0.073-0.531-0.219s-0.219-0.323-0.219-0.531v-2.5c0-0.208 0.073-0.385 0.219-0.531s0.323-0.219 0.531-0.219h2.5c0.208 0 0.385 0.073 0.531 0.219s0.219 0.323 0.219 0.531v2.5zM18.75 22c-0.208 0-0.385-0.073-0.531-0.219s-0.219-0.323-0.219-0.531v-2.5c0-0.208 0.073-0.385 0.219-0.531s0.323-0.219 0.531-0.219h2.5c0.208 0 0.385 0.073 0.531 0.219s0.219 0.323 0.219 0.531v2.5c0 0.208-0.073 0.385-0.219 0.531s-0.323 0.219-0.531 0.219h-2.5zM30 29.75v2.25h-28v-2.25c0-0.208 0.073-0.385 0.219-0.531s0.323-0.219 0.531-0.219h1.25v-27.5c-0.042-0.417 0.094-0.771 0.406-1.063 0.313-0.291 0.677-0.437 1.094-0.437h21.063c0.375 0 0.718 0.146 1.031 0.437 0.312 0.292 0.448 0.646 0.406 1.063v27.5h1.25c0.208 0 0.385 0.073 0.531 0.219s0.219 0.323 0.219 0.531zM7 28.937h7v-4.187c0-0.208 0.073-0.385 0.219-0.531s0.323-0.219 0.531-0.219h2.5c0.208 0 0.385 0.073 0.531 0.219s0.219 0.323 0.219 0.531v4.188h7.063v-25.876l-18.063-0.062v25.938z"></path>
</svg>
