<!-- Generated by IcoMoon.io -->
<svg version="1.1" xmlns="http://www.w3.org/2000/svg" width="32" height="32" viewBox="0 0 32 32">
<title>bullseye-arrow</title>
<path d="M29.295 9.053c1.089 2.078 1.705 4.441 1.705 6.947 0 8.279-6.721 15-15 15s-15-6.721-15-15c0-8.279 6.721-15 15-15 2.498 0 4.854 0.612 6.927 1.694l-2.247 2.254c-1.438-0.61-3.020-0.948-4.68-0.948-6.623 0-12 5.377-12 12s5.377 12 12 12c6.623 0 12-5.377 12-12 0-1.664-0.339-3.249-0.953-4.69l2.248-2.257zM24.695 13.67c0.199 0.743 0.305 1.524 0.305 2.33 0 4.967-4.033 9-9 9s-9-4.033-9-9c0-4.967 4.033-9 9-9 0.806 0 1.588 0.106 2.332 0.306l-2.696 2.705c-3.142 0.188-5.636 2.8-5.636 5.989 0 3.311 2.689 6 6 6 3.181 0 5.788-2.481 5.988-5.613l2.707-2.717zM16.786 13.104l9.471-9.502v-3.602h3c0 0.914 0 1.828 0 2.743h2.743v3h-3.641l-9.458 9.49c0.065 0.245 0.099 0.502 0.099 0.767 0 1.656-1.344 3-3 3s-3-1.344-3-3c0-1.656 1.344-3 3-3 0.272 0 0.536 0.036 0.786 0.104z"></path>
</svg>
