<!-- Generated by IcoMoon.io -->
<svg version="1.1" xmlns="http://www.w3.org/2000/svg" width="32" height="32" viewBox="0 0 32 32">
<title>bullseye</title>
<path d="M16 0.5c-2.792 0-5.375 0.698-7.75 2.094s-4.26 3.281-5.656 5.656c-1.396 2.375-2.094 4.958-2.094 7.75s0.698 5.375 2.094 7.75c1.396 2.375 3.281 4.26 5.656 5.656s4.958 2.094 7.75 2.094c2.792 0 5.375-0.698 7.75-2.094s4.26-3.281 5.656-5.656c1.396-2.375 2.094-4.958 2.094-7.75s-0.698-5.375-2.094-7.75c-1.396-2.375-3.281-4.26-5.656-5.656s-4.958-2.094-7.75-2.094zM16 27.5c-2.083 0-4.010-0.51-5.781-1.531s-3.167-2.417-4.188-4.188c-1.021-1.771-1.531-3.698-1.531-5.781s0.51-4.010 1.531-5.781c1.021-1.771 2.417-3.167 4.188-4.188s3.698-1.531 5.781-1.531c2.083 0 4.010 0.51 5.781 1.531s3.167 2.417 4.188 4.188c1.021 1.771 1.531 3.698 1.531 5.781s-0.51 4.010-1.531 5.781c-1.021 1.771-2.417 3.167-4.188 4.188s-3.698 1.531-5.781 1.531zM16 8c-1.458 0-2.802 0.354-4.031 1.063-1.229 0.708-2.198 1.677-2.907 2.906s-1.062 2.573-1.062 4.031 0.354 2.802 1.062 4.031c0.709 1.229 1.678 2.198 2.907 2.907 1.229 0.708 2.573 1.062 4.031 1.062s2.802-0.354 4.031-1.063c1.229-0.708 2.198-1.677 2.907-2.906 0.708-1.229 1.062-2.573 1.062-4.031s-0.354-2.802-1.063-4.031c-0.708-1.229-1.677-2.198-2.906-2.907s-2.573-1.062-4.031-1.062zM16 20c-1.083 0-2.021-0.396-2.813-1.188s-1.187-1.729-1.187-2.812 0.396-2.021 1.187-2.813c0.792-0.791 1.73-1.187 2.813-1.187s2.021 0.396 2.812 1.187c0.792 0.792 1.188 1.73 1.188 2.813s-0.396 2.021-1.188 2.812c-0.791 0.792-1.729 1.188-2.812 1.188z"></path>
</svg>
