<!-- Generated by IcoMoon.io -->
<svg version="1.1" xmlns="http://www.w3.org/2000/svg" width="32" height="32" viewBox="0 0 32 32">
<title>bullhorn</title>
<path d="M34 15c0-0.708-0.177-1.375-0.531-2s-0.844-1.104-1.469-1.438v-9.562c0-0.417-0.146-0.813-0.438-1.188-0.375-0.541-0.895-0.812-1.562-0.812-0.458 0-0.875 0.146-1.25 0.438l-5.313 4.25c-1.333 1.083-2.812 1.906-4.437 2.468s-3.292 0.844-5 0.844h-12c-1.125 0-2.073 0.385-2.844 1.156s-1.156 1.719-1.156 2.844v6c0 1.125 0.385 2.073 1.156 2.844s1.719 1.156 2.844 1.156h2.125c-0.083 0.667-0.125 1.333-0.125 2 0 2.417 0.521 4.729 1.563 6.938 0.166 0.333 0.406 0.593 0.718 0.781s0.657 0.281 1.032 0.281h4.687c0.5 0 0.938-0.177 1.313-0.531s0.593-0.781 0.656-1.281c0.062-0.5-0.052-0.959-0.344-1.375-1.083-1.417-1.625-3.021-1.625-4.813 0-0.667 0.083-1.333 0.25-2h1.75c1.708 0 3.375 0.281 5 0.844 1.625 0.562 3.104 1.385 4.438 2.468l5.312 4.25c0.375 0.292 0.792 0.438 1.25 0.438 0.667 0 1.188-0.271 1.563-0.813 0.291-0.375 0.437-0.77 0.437-1.187v-9.563c0.625-0.333 1.115-0.812 1.469-1.437s0.531-1.292 0.531-2zM28 23.813l-2.063-1.625c-1.708-1.334-3.583-2.365-5.625-3.094s-4.145-1.094-6.312-1.094v-6c2.167 0 4.271-0.365 6.313-1.094s3.916-1.76 5.625-3.093l2.062-1.625v17.625z"></path>
</svg>
