<!-- Generated by IcoMoon.io -->
<svg version="1.1" xmlns="http://www.w3.org/2000/svg" width="32" height="32" viewBox="0 0 32 32">
<title>calculator</title>
<path d="M27 0h-22c-0.792 0-1.49 0.302-2.094 0.906s-0.906 1.302-0.906 2.094v26c0 0.792 0.302 1.49 0.906 2.094s1.302 0.906 2.094 0.906h22c0.792 0 1.49-0.302 2.094-0.906s0.906-1.302 0.906-2.094v-26c0-0.792-0.302-1.49-0.906-2.094s-1.302-0.906-2.094-0.906zM10 27.188c0 0.208-0.083 0.395-0.25 0.562s-0.354 0.25-0.563 0.25h-2.374c-0.209 0-0.396-0.083-0.563-0.25s-0.25-0.354-0.25-0.563v-2.375c0-0.208 0.083-0.395 0.25-0.562s0.354-0.25 0.563-0.25h2.375c0.208 0 0.395 0.083 0.562 0.25s0.25 0.354 0.25 0.563v2.375zM10 19.188c0 0.208-0.083 0.395-0.25 0.562s-0.354 0.25-0.562 0.25h-2.375c-0.209 0-0.396-0.083-0.563-0.25s-0.25-0.354-0.25-0.563v-2.375c0-0.208 0.083-0.395 0.25-0.562s0.354-0.25 0.563-0.25h2.375c0.208 0 0.395 0.083 0.562 0.25s0.25 0.354 0.25 0.563v2.375zM18 27.188c0 0.208-0.083 0.395-0.25 0.562s-0.354 0.25-0.563 0.25h-2.375c-0.208 0-0.395-0.083-0.562-0.25s-0.25-0.354-0.25-0.563v-2.375c0-0.208 0.083-0.395 0.25-0.562s0.354-0.25 0.562-0.25h2.375c0.209 0 0.396 0.083 0.563 0.25s0.25 0.354 0.25 0.563v2.375zM18 19.188c0 0.208-0.083 0.395-0.25 0.562s-0.354 0.25-0.563 0.25h-2.375c-0.208 0-0.395-0.083-0.562-0.25s-0.25-0.354-0.25-0.563v-2.375c0-0.208 0.083-0.395 0.25-0.562s0.354-0.25 0.562-0.25h2.375c0.209 0 0.396 0.083 0.563 0.25s0.25 0.354 0.25 0.563v2.375zM26 27.188c0 0.208-0.083 0.395-0.25 0.562s-0.354 0.25-0.563 0.25h-2.375c-0.208 0-0.395-0.083-0.562-0.25s-0.25-0.354-0.25-0.563v-10.375c0-0.208 0.083-0.395 0.25-0.562s0.354-0.25 0.563-0.25h2.375c0.208 0 0.395 0.083 0.562 0.25s0.25 0.354 0.25 0.563v10.375zM26 11.188c0 0.208-0.083 0.395-0.25 0.562s-0.354 0.25-0.563 0.25h-18.375c-0.208 0-0.395-0.083-0.562-0.25s-0.25-0.354-0.25-0.562v-6.375c0-0.209 0.083-0.396 0.25-0.563s0.354-0.25 0.562-0.25h18.376c0.208 0 0.395 0.083 0.562 0.25s0.25 0.354 0.25 0.563v6.375z"></path>
</svg>
