<!-- Generated by IcoMoon.io -->
<svg version="1.1" xmlns="http://www.w3.org/2000/svg" width="32" height="32" viewBox="0 0 32 32">
<title>calendar-alt-o</title>
<path d="M11.25 18h-2.5c-0.208 0-0.385-0.073-0.531-0.219s-0.219-0.323-0.219-0.531v-2.5c0-0.208 0.073-0.385 0.219-0.531s0.323-0.219 0.531-0.219h2.5c0.208 0 0.385 0.073 0.531 0.219s0.219 0.323 0.219 0.531v2.5c0 0.208-0.073 0.385-0.219 0.531s-0.323 0.219-0.531 0.219zM18 17.25c0 0.208-0.073 0.385-0.219 0.531s-0.323 0.219-0.531 0.219h-2.5c-0.208 0-0.385-0.073-0.531-0.219s-0.219-0.323-0.219-0.531v-2.5c0-0.208 0.073-0.385 0.219-0.531s0.323-0.219 0.531-0.219h2.5c0.208 0 0.385 0.073 0.531 0.219s0.219 0.323 0.219 0.531v2.5zM24 17.25c0 0.208-0.073 0.385-0.219 0.531s-0.323 0.219-0.531 0.219h-2.5c-0.208 0-0.385-0.073-0.531-0.219s-0.219-0.323-0.219-0.531v-2.5c0-0.208 0.073-0.385 0.219-0.531s0.323-0.219 0.531-0.219h2.5c0.208 0 0.385 0.073 0.531 0.219s0.219 0.323 0.219 0.531v2.5zM18 23.25c0 0.208-0.073 0.385-0.219 0.531s-0.323 0.219-0.531 0.219h-2.5c-0.208 0-0.385-0.073-0.531-0.219s-0.219-0.323-0.219-0.531v-2.5c0-0.208 0.073-0.385 0.219-0.531s0.323-0.219 0.531-0.219h2.5c0.208 0 0.385 0.073 0.531 0.219s0.219 0.323 0.219 0.531v2.5zM12 23.25c0 0.208-0.073 0.385-0.219 0.531s-0.323 0.219-0.531 0.219h-2.5c-0.208 0-0.385-0.073-0.531-0.219s-0.219-0.323-0.219-0.531v-2.5c0-0.208 0.073-0.385 0.219-0.531s0.323-0.219 0.531-0.219h2.5c0.208 0 0.385 0.073 0.531 0.219s0.219 0.323 0.219 0.531v2.5zM24 23.25c0 0.208-0.073 0.385-0.219 0.531s-0.323 0.219-0.531 0.219h-2.5c-0.208 0-0.385-0.073-0.531-0.219s-0.219-0.323-0.219-0.531v-2.5c0-0.208 0.073-0.385 0.219-0.531s0.323-0.219 0.531-0.219h2.5c0.208 0 0.385 0.073 0.531 0.219s0.219 0.323 0.219 0.531v2.5zM30 7v22c0 0.833-0.292 1.542-0.875 2.125s-1.292 0.875-2.125 0.875h-22c-0.833 0-1.542-0.292-2.125-0.875s-0.875-1.292-0.875-2.125v-22c0-0.833 0.292-1.542 0.875-2.125s1.292-0.875 2.125-0.875h3v-3.25c0-0.208 0.073-0.385 0.219-0.531s0.323-0.219 0.531-0.219h2.5c0.208 0 0.385 0.073 0.531 0.219s0.219 0.323 0.219 0.531v3.25h8v-3.25c0-0.208 0.073-0.385 0.219-0.531s0.323-0.219 0.531-0.219h2.5c0.208 0 0.385 0.073 0.531 0.219s0.219 0.323 0.219 0.531v3.25h3c0.833 0 1.542 0.292 2.125 0.875s0.875 1.292 0.875 2.125zM27 28.625v-18.625h-22v18.625c0 0.083 0.042 0.167 0.125 0.25s0.167 0.125 0.25 0.125h21.25c0.083 0 0.167-0.042 0.25-0.125s0.125-0.167 0.125-0.25z"></path>
</svg>
