<!-- Generated by IcoMoon.io -->
<svg version="1.1" xmlns="http://www.w3.org/2000/svg" width="32" height="32" viewBox="0 0 32 32">
<title>calendar-minus</title>
<path d="M29.25 10h-26.5c-0.208 0-0.385-0.073-0.531-0.219s-0.219-0.323-0.219-0.531v-2.25c0-0.833 0.292-1.542 0.875-2.125s1.292-0.875 2.125-0.875h3v-3.25c0-0.208 0.073-0.385 0.219-0.531s0.323-0.219 0.531-0.219h2.5c0.208 0 0.385 0.073 0.531 0.219s0.219 0.323 0.219 0.531v3.25h8v-3.25c0-0.208 0.073-0.385 0.219-0.531s0.323-0.219 0.531-0.219h2.5c0.208 0 0.385 0.073 0.531 0.219s0.219 0.323 0.219 0.531v3.25h3c0.833 0 1.542 0.292 2.125 0.875s0.875 1.292 0.875 2.125v2.25c0 0.208-0.073 0.385-0.219 0.531s-0.323 0.219-0.531 0.219zM2.75 12h26.5c0.208 0 0.385 0.073 0.531 0.219s0.219 0.323 0.219 0.531v16.25c0 0.833-0.292 1.542-0.875 2.125s-1.292 0.875-2.125 0.875h-22c-0.833 0-1.542-0.292-2.125-0.875s-0.875-1.292-0.875-2.125v-16.25c0-0.208 0.073-0.385 0.219-0.531s0.323-0.219 0.531-0.219zM21.75 24c0.208 0 0.385-0.073 0.531-0.219s0.219-0.323 0.219-0.531v-2.5c0-0.208-0.073-0.385-0.219-0.531s-0.323-0.219-0.531-0.219h-11.5c-0.208 0-0.385 0.073-0.531 0.219s-0.219 0.323-0.219 0.531v2.5c0 0.208 0.073 0.385 0.219 0.531s0.323 0.219 0.531 0.219h11.5z"></path>
</svg>
