<!-- Generated by IcoMoon.io -->
<svg version="1.1" xmlns="http://www.w3.org/2000/svg" width="32" height="32" viewBox="0 0 32 32">
<title>calendar-o</title>
<path d="M27 4h-3v-3.25c0-0.208-0.073-0.385-0.219-0.531s-0.323-0.219-0.531-0.219h-2.5c-0.208 0-0.385 0.073-0.531 0.219s-0.219 0.323-0.219 0.531v3.25h-8v-3.25c0-0.208-0.073-0.385-0.219-0.531s-0.323-0.219-0.531-0.219h-2.5c-0.208 0-0.385 0.073-0.531 0.219s-0.219 0.323-0.219 0.531v3.25h-3c-0.833 0-1.542 0.292-2.125 0.875s-0.875 1.292-0.875 2.125v22c0 0.833 0.292 1.542 0.875 2.125s1.292 0.875 2.125 0.875h22c0.833 0 1.542-0.292 2.125-0.875s0.875-1.292 0.875-2.125v-22c0-0.833-0.292-1.542-0.875-2.125s-1.292-0.875-2.125-0.875zM26.625 29h-21.25c-0.083 0-0.167-0.042-0.25-0.125s-0.125-0.167-0.125-0.25v-18.625h22v18.625c0 0.083-0.042 0.167-0.125 0.25s-0.167 0.125-0.25 0.125z"></path>
</svg>
