<!-- Generated by IcoMoon.io -->
<svg version="1.1" xmlns="http://www.w3.org/2000/svg" width="32" height="32" viewBox="0 0 32 32">
<title>calendar-bullseye-o</title>
<path d="M27 32h-22c-1.656 0-3-1.344-3-3v-22c0-1.656 1.344-3 3-3h3v-3.25c0-0.412 0.338-0.75 0.75-0.75h2.5c0.412 0 0.75 0.338 0.75 0.75v3.25h8v-3.25c0-0.412 0.337-0.75 0.75-0.75h2.5c0.413 0 0.75 0.338 0.75 0.75v3.25h3c1.656 0 3 1.344 3 3v22c0 1.656-1.344 3-3 3zM27 10h-22v18.625c0 0.206 0.169 0.375 0.375 0.375h21.25c0.206 0 0.375-0.169 0.375-0.375v-18.625zM16 11.883c-1.396 0-2.688 0.349-3.875 1.047-1.188 0.698-2.13 1.641-2.828 2.828s-1.047 2.479-1.047 3.875 0.349 2.688 1.047 3.875c0.698 1.188 1.64 2.13 2.828 2.828s2.479 1.047 3.875 1.047c1.396 0 2.688-0.349 3.875-1.047s2.13-1.64 2.828-2.828c0.698-1.187 1.047-2.479 1.047-3.875s-0.349-2.687-1.047-3.875c-0.698-1.187-1.64-2.13-2.828-2.828s-2.479-1.047-3.875-1.047zM16 25.383c-1.042 0-2.005-0.255-2.891-0.766-0.885-0.51-1.583-1.208-2.093-2.093s-0.766-1.849-0.766-2.891 0.255-2.005 0.766-2.891c0.51-0.885 1.208-1.583 2.093-2.093s1.849-0.766 2.891-0.766 2.005 0.255 2.891 0.766c0.885 0.51 1.583 1.208 2.093 2.093 0.511 0.886 0.766 1.849 0.766 2.891s-0.255 2.005-0.766 2.891c-0.51 0.885-1.208 1.583-2.093 2.093s-1.849 0.766-2.891 0.766zM16 15.633c-0.729 0-1.401 0.177-2.016 0.531-0.614 0.355-1.099 0.839-1.453 1.453s-0.531 1.287-0.531 2.016 0.177 1.401 0.531 2.016c0.354 0.614 0.839 1.099 1.453 1.453 0.615 0.354 1.287 0.531 2.016 0.531s1.401-0.177 2.016-0.531c0.614-0.354 1.099-0.839 1.453-1.453s0.531-1.287 0.531-2.016-0.177-1.401-0.531-2.016c-0.354-0.614-0.839-1.098-1.453-1.453-0.615-0.354-1.287-0.531-2.016-0.531zM16 21.633c-0.542 0-1.010-0.198-1.406-0.594-0.396-0.395-0.594-0.864-0.594-1.406s0.198-1.010 0.594-1.406c0.396-0.396 0.864-0.594 1.406-0.594s1.010 0.198 1.406 0.594c0.396 0.396 0.594 0.864 0.594 1.406s-0.198 1.011-0.594 1.406c-0.396 0.396-0.864 0.594-1.406 0.594z"></path>
</svg>
