<!-- Generated by IcoMoon.io -->
<svg version="1.1" xmlns="http://www.w3.org/2000/svg" width="32" height="32" viewBox="0 0 32 32">
<title>calendar-check</title>
<path d="M29.25 10h-26.5c-0.208 0-0.385-0.073-0.531-0.219s-0.219-0.323-0.219-0.531v-2.25c0-0.833 0.292-1.542 0.875-2.125s1.292-0.875 2.125-0.875h3v-3.25c0-0.208 0.073-0.385 0.219-0.531s0.323-0.219 0.531-0.219h2.5c0.208 0 0.385 0.073 0.531 0.219s0.219 0.323 0.219 0.531v3.25h8v-3.25c0-0.208 0.073-0.385 0.219-0.531s0.323-0.219 0.531-0.219h2.5c0.208 0 0.385 0.073 0.531 0.219s0.219 0.323 0.219 0.531v3.25h3c0.833 0 1.542 0.292 2.125 0.875s0.875 1.292 0.875 2.125v2.25c0 0.208-0.073 0.385-0.219 0.531s-0.323 0.219-0.531 0.219zM2.75 12h26.5c0.208 0 0.385 0.073 0.531 0.219s0.219 0.323 0.219 0.531v16.25c0 0.833-0.292 1.542-0.875 2.125s-1.292 0.875-2.125 0.875h-22c-0.833 0-1.542-0.292-2.125-0.875s-0.875-1.292-0.875-2.125v-16.25c0-0.208 0.073-0.385 0.219-0.531s0.323-0.219 0.531-0.219zM23.563 18l-1.75-1.75c-0.125-0.167-0.292-0.25-0.5-0.25-0.209 0-0.396 0.063-0.563 0.188l-6.625 6.625-2.875-2.938c-0.125-0.125-0.292-0.188-0.5-0.188s-0.396 0.063-0.563 0.188l-1.749 1.75c-0.167 0.167-0.25 0.354-0.25 0.563 0 0.208 0.083 0.375 0.25 0.5l5.125 5.25c0.166 0.125 0.354 0.187 0.562 0.187s0.375-0.063 0.5-0.188l8.938-8.875c0.166-0.166 0.25-0.354 0.25-0.562s-0.084-0.375-0.25-0.5z"></path>
</svg>
