<!-- Generated by IcoMoon.io -->
<svg version="1.1" xmlns="http://www.w3.org/2000/svg" width="32" height="32" viewBox="0 0 32 32">
<title>camera</title>
<path d="M32 9v18c0 0.833-0.292 1.542-0.875 2.125s-1.292 0.875-2.125 0.875h-26c-0.833 0-1.542-0.292-2.125-0.875s-0.875-1.292-0.875-2.125v-18c0-0.833 0.292-1.542 0.875-2.125s1.292-0.875 2.125-0.875h5.5l0.75-2.063c0.25-0.583 0.625-1.052 1.125-1.406s1.063-0.531 1.688-0.531h7.874c0.625 0 1.188 0.177 1.688 0.531s0.875 0.823 1.125 1.407l0.75 2.062h5.5c0.833 0 1.542 0.292 2.125 0.875s0.875 1.292 0.875 2.125zM23.5 18c0-1.375-0.333-2.635-1-3.781s-1.573-2.052-2.719-2.719c-1.146-0.667-2.406-1-3.781-1s-2.635 0.333-3.781 1c-1.146 0.667-2.052 1.573-2.719 2.719s-1 2.406-1 3.781c0 1.375 0.333 2.635 1 3.781s1.573 2.052 2.719 2.719c1.146 0.667 2.406 1 3.781 1s2.635-0.333 3.781-1c1.146-0.667 2.052-1.573 2.719-2.719s1-2.406 1-3.781zM21.5 18c0 1.5-0.542 2.792-1.625 3.875s-2.375 1.625-3.875 1.625c-1.5 0-2.792-0.542-3.875-1.625s-1.625-2.375-1.625-3.875c0-1.5 0.542-2.792 1.625-3.875s2.375-1.625 3.875-1.625c1.5 0 2.792 0.542 3.875 1.625s1.625 2.375 1.625 3.875z"></path>
</svg>
