<!-- Generated by IcoMoon.io -->
<svg version="1.1" xmlns="http://www.w3.org/2000/svg" width="40" height="32" viewBox="0 0 40 32">
<title>chalkboard</title>
<path d="M6 4h28v22h4v-23.5c0-0.708-0.24-1.302-0.719-1.781s-1.073-0.719-1.781-0.719h-31c-0.708 0-1.302 0.24-1.781 0.719s-0.719 1.073-0.719 1.781v23.5h4v-22zM39 28h-9v-4h-12v4h-17c-0.292 0-0.531 0.094-0.719 0.281-0.187 0.188-0.281 0.427-0.281 0.719v2c0 0.292 0.094 0.531 0.281 0.719 0.188 0.187 0.427 0.281 0.719 0.281h38c0.292 0 0.531-0.094 0.719-0.281 0.187-0.188 0.281-0.427 0.281-0.719v-2c0-0.292-0.094-0.531-0.281-0.719-0.188-0.187-0.427-0.281-0.719-0.281z"></path>
</svg>
