<!-- Generated by IcoMoon.io -->
<svg version="1.1" xmlns="http://www.w3.org/2000/svg" width="40" height="32" viewBox="0 0 40 32">
<title>chalkboard-teacher</title>
<path d="M13 22c-0.167 0-0.313 0.021-0.438 0.063-0.874 0.291-1.729 0.437-2.562 0.437s-1.688-0.146-2.563-0.438c-0.124-0.041-0.27-0.062-0.437-0.062-1.292 0-2.469 0.313-3.531 0.938-1.063 0.625-1.906 1.479-2.531 2.562s-0.938 2.271-0.938 3.563c0 0.791 0.292 1.479 0.875 2.062s1.292 0.875 2.125 0.875h14c0.833 0 1.542-0.292 2.125-0.875s0.875-1.271 0.875-2.063c0-1.291-0.313-2.479-0.938-3.562s-1.468-1.938-2.531-2.563c-1.062-0.625-2.239-0.937-3.531-0.937zM10 20c1.667 0 3.083-0.583 4.25-1.75s1.75-2.583 1.75-4.25c0-1.667-0.583-3.083-1.75-4.25s-2.583-1.75-4.25-1.75c-1.667 0-3.083 0.583-4.25 1.75s-1.75 2.583-1.75 4.25c0 1.667 0.583 3.083 1.75 4.25s2.583 1.75 4.25 1.75zM37 0h-24c-0.833 0-1.542 0.302-2.125 0.906s-0.875 1.344-0.875 2.219v2.875c1.375 0 2.708 0.375 4 1.125v-3.125h22v18h-4v-4h-8v4h-4.75c1.25 1.083 2.063 2.417 2.438 4h15.312c0.833 0 1.542-0.302 2.125-0.906s0.875-1.344 0.875-2.219v-19.75c0-0.875-0.292-1.615-0.875-2.219s-1.292-0.906-2.125-0.906z"></path>
</svg>
