<!-- Generated by IcoMoon.io -->
<svg version="1.1" xmlns="http://www.w3.org/2000/svg" width="32" height="32" viewBox="0 0 32 32">
<title>change-log-o</title>
<path d="M11.25 0c0.208 0 0.385 0.073 0.531 0.219s0.219 0.323 0.219 0.531v3.25h8v-3.25c0-0.208 0.073-0.385 0.219-0.531s0.323-0.219 0.531-0.219h2.5c0.208 0 0.385 0.073 0.531 0.219s0.219 0.323 0.219 0.531v3.25h3c0.833 0 1.542 0.292 2.125 0.875s0.875 1.292 0.875 2.125v22c0 0.833-0.292 1.542-0.875 2.125s-1.292 0.875-2.125 0.875h-22c-0.833 0-1.542-0.292-2.125-0.875s-0.875-1.292-0.875-2.125v-22c0-0.833 0.292-1.542 0.875-2.125s1.292-0.875 2.125-0.875h3v-3.25c0-0.208 0.073-0.385 0.219-0.531s0.323-0.219 0.531-0.219h2.5zM26.625 29c0.083 0 0.167-0.042 0.25-0.125s0.125-0.167 0.125-0.25v-18.625h-22v18.625c0 0.083 0.042 0.167 0.125 0.25s0.167 0.125 0.25 0.125h21.25zM8.875 23.5h-0.406c-0.25 0-0.375-0.125-0.375-0.375v-0.281c0-0.229 0.125-0.344 0.375-0.344h1.812c0.25 0 0.375 0.115 0.375 0.344v0.125c0 0.166-0.062 0.312-0.187 0.437l-0.531 0.625c0.291 0.084 0.515 0.224 0.671 0.422 0.157 0.198 0.235 0.422 0.235 0.672 0 0.375-0.125 0.687-0.375 0.937-0.271 0.292-0.656 0.438-1.156 0.438-0.417 0-0.792-0.094-1.125-0.281-0.167-0.146-0.188-0.313-0.063-0.5l0.156-0.313c0.125-0.187 0.292-0.219 0.5-0.094 0.146 0.063 0.292 0.094 0.438 0.094 0.312 0 0.469-0.088 0.469-0.265s-0.167-0.266-0.5-0.266h-0.157c-0.166 0-0.291-0.083-0.375-0.25l-0.031-0.063c-0.083-0.145-0.062-0.302 0.063-0.468l0.187-0.219c0.146-0.167 0.271-0.302 0.375-0.406v-0.032l-0.375 0.063zM23.25 26.125h-10.5c-0.412 0-0.75-0.337-0.75-0.75v-1.75c0-0.412 0.338-0.75 0.75-0.75h10.5c0.413 0 0.75 0.338 0.75 0.75v1.75c0 0.413-0.337 0.75-0.75 0.75zM10.5 21.5h-2.125c-0.104 0-0.193-0.031-0.266-0.094-0.073-0.062-0.109-0.146-0.109-0.25v-0.125c0-0.437 0.135-0.812 0.406-1.125 0.167-0.187 0.417-0.396 0.75-0.625 0.167-0.104 0.282-0.187 0.344-0.25 0.063-0.062 0.094-0.125 0.094-0.187 0-0.167-0.094-0.25-0.281-0.25-0.105 0-0.209 0.041-0.313 0.125-0.167 0.166-0.333 0.187-0.5 0.062l-0.25-0.219c-0.187-0.145-0.219-0.302-0.094-0.468 0.292-0.396 0.709-0.594 1.25-0.594 0.375 0 0.688 0.094 0.938 0.281 0.312 0.229 0.469 0.552 0.469 0.969 0 0.333-0.125 0.635-0.375 0.906-0.146 0.146-0.386 0.323-0.719 0.531-0.271 0.146-0.417 0.25-0.438 0.313h1.219c0.25 0 0.375 0.125 0.375 0.375v0.281c0 0.229-0.125 0.344-0.375 0.344zM23.25 21.125h-10.5c-0.412 0-0.75-0.337-0.75-0.75v-1.75c0-0.412 0.338-0.75 0.75-0.75h10.5c0.413 0 0.75 0.338 0.75 0.75v1.75c0 0.413-0.337 0.75-0.75 0.75zM10.5 16.5h-2.094c-0.25 0-0.375-0.125-0.375-0.375v-0.25c0-0.25 0.125-0.375 0.375-0.375h0.469v-1.25l0.031-0.313-0.125 0.094c-0.062 0.084-0.14 0.12-0.234 0.11s-0.172-0.058-0.234-0.141l-0.188-0.187c-0.167-0.167-0.156-0.334 0.031-0.5l0.657-0.625c0.145-0.125 0.302-0.188 0.468-0.188h0.375c0.25 0 0.375 0.125 0.375 0.375v2.625h0.469c0.25 0 0.375 0.125 0.375 0.375v0.25c0 0.25-0.125 0.375-0.375 0.375zM23.25 16.125h-10.5c-0.412 0-0.75-0.337-0.75-0.75v-1.75c0-0.412 0.338-0.75 0.75-0.75h10.5c0.413 0 0.75 0.338 0.75 0.75v1.75c0 0.413-0.337 0.75-0.75 0.75z"></path>
</svg>
