<!-- Generated by IcoMoon.io -->
<svg version="1.1" xmlns="http://www.w3.org/2000/svg" width="32" height="32" viewBox="0 0 32 32">
<title>chart-bar</title>
<path d="M20.813 20h2.375c0.208 0 0.395-0.083 0.562-0.25s0.25-0.354 0.25-0.563v-8.375c0-0.208-0.083-0.395-0.25-0.562s-0.354-0.25-0.563-0.25h-2.375c-0.208 0-0.395 0.083-0.562 0.25s-0.25 0.354-0.25 0.562v8.375c0 0.209 0.083 0.396 0.25 0.563s0.354 0.25 0.563 0.25zM26.813 20h2.375c0.208 0 0.395-0.083 0.562-0.25s0.25-0.354 0.25-0.563v-14.375c0-0.208-0.083-0.395-0.25-0.562s-0.354-0.25-0.563-0.25h-2.375c-0.208 0-0.395 0.083-0.562 0.25s-0.25 0.354-0.25 0.562v14.375c0 0.209 0.083 0.396 0.25 0.563s0.354 0.25 0.563 0.25zM8.812 20h2.376c0.208 0 0.395-0.083 0.562-0.25s0.25-0.354 0.25-0.563v-4.375c0-0.208-0.083-0.395-0.25-0.562s-0.354-0.25-0.562-0.25h-2.375c-0.209 0-0.396 0.083-0.563 0.25s-0.25 0.354-0.25 0.562v4.375c0 0.209 0.083 0.396 0.25 0.563s0.354 0.25 0.563 0.25zM14.812 20h2.375c0.208 0 0.395-0.083 0.562-0.25s0.25-0.354 0.25-0.563v-12.375c0-0.208-0.083-0.395-0.25-0.562s-0.354-0.25-0.562-0.25h-2.375c-0.209 0-0.396 0.083-0.563 0.25s-0.25 0.354-0.25 0.562v12.375c0 0.209 0.083 0.396 0.25 0.563s0.354 0.25 0.563 0.25zM30.999 24h-27v-19c0-0.292-0.094-0.531-0.281-0.719-0.188-0.187-0.427-0.281-0.719-0.281h-2c-0.292 0-0.531 0.094-0.719 0.281s-0.281 0.427-0.281 0.719v21c0 0.542 0.198 1.010 0.594 1.406s0.864 0.594 1.406 0.594h29c0.292 0 0.531-0.094 0.719-0.281 0.187-0.188 0.281-0.427 0.281-0.719v-2c0-0.292-0.094-0.531-0.281-0.719-0.188-0.187-0.427-0.281-0.719-0.281z"></path>
</svg>
