<!-- Generated by IcoMoon.io -->
<svg version="1.1" xmlns="http://www.w3.org/2000/svg" width="36" height="32" viewBox="0 0 36 32">
<title>chart-pie</title>
<path d="M33.999 17.999h-14.812l9.875 9.875c0.166 0.208 0.385 0.313 0.656 0.313s0.51-0.084 0.719-0.25c1.208-1.167 2.208-2.5 3-4 0.791-1.5 1.312-3.105 1.562-4.813 0.042-0.292-0.041-0.552-0.25-0.781-0.208-0.229-0.458-0.344-0.75-0.344zM32.999 13.937c-0.166-2.459-0.885-4.719-2.156-6.782-1.271-2.062-2.938-3.729-5-5s-4.323-1.989-6.781-2.156c-0.292 0-0.542 0.094-0.75 0.281-0.209 0.188-0.313 0.427-0.313 0.719v14h14c0.292 0 0.531-0.104 0.719-0.312s0.281-0.459 0.281-0.75zM14.999 17.999v-14.812c0-0.334-0.114-0.594-0.344-0.782-0.229-0.187-0.489-0.26-0.781-0.218-2.458 0.333-4.687 1.229-6.687 2.687s-3.552 3.292-4.657 5.5c-1.104 2.208-1.614 4.604-1.531 7.188 0.084 2.583 0.834 4.989 2.25 7.218s3.271 4 5.563 5.313c2.291 1.312 4.75 1.948 7.375 1.906 3.125-0.042 5.937-0.958 8.437-2.75 0.25-0.167 0.386-0.406 0.406-0.719 0.021-0.312-0.072-0.573-0.281-0.781l-9.75-9.75z"></path>
</svg>
