<!-- Generated by IcoMoon.io -->
<svg version="1.1" xmlns="http://www.w3.org/2000/svg" width="32" height="32" viewBox="0 0 32 32">
<title>chart-line</title>
<path d="M31 24h-27v-19c0-0.292-0.094-0.531-0.281-0.719-0.188-0.187-0.427-0.281-0.719-0.281h-2c-0.292 0-0.531 0.094-0.719 0.281s-0.281 0.427-0.281 0.719v21c0 0.542 0.198 1.010 0.594 1.406s0.864 0.594 1.406 0.594h29c0.292 0 0.531-0.094 0.719-0.281 0.187-0.188 0.281-0.427 0.281-0.719v-2c0-0.292-0.094-0.531-0.281-0.719-0.188-0.187-0.427-0.281-0.719-0.281zM29 6h-7.375c-0.417 0-0.771 0.146-1.063 0.438s-0.437 0.645-0.437 1.062 0.146 0.771 0.438 1.063l2 1.999-4.563 4.625-4.563-4.625c-0.416-0.375-0.895-0.562-1.437-0.562s-1.021 0.187-1.438 0.562l-4.25 4.313c-0.208 0.208-0.312 0.448-0.312 0.719s0.104 0.51 0.312 0.719l1.375 1.375c0.209 0.208 0.448 0.312 0.719 0.312s0.511-0.104 0.719-0.313l2.875-2.875 4.563 4.625c0.416 0.375 0.895 0.563 1.437 0.563s1.021-0.188 1.438-0.563l6-6 2 2c0.291 0.292 0.645 0.438 1.062 0.438s0.771-0.146 1.063-0.438c0.291-0.291 0.437-0.645 0.437-1.062v-7.375c0-0.292-0.094-0.531-0.281-0.719-0.188-0.187-0.427-0.281-0.719-0.281z"></path>
</svg>
