<!-- Generated by IcoMoon.io -->
<svg version="1.1" xmlns="http://www.w3.org/2000/svg" width="36" height="32" viewBox="0 0 36 32">
<title>chat-o</title>
<path d="M33.242 24.125c1.834-1.792 2.75-3.833 2.75-6.125 0-1.625-0.479-3.146-1.437-4.563-0.959-1.416-2.282-2.593-3.969-3.531-1.688-0.937-3.552-1.531-5.594-1.781-1-1.833-2.583-3.313-4.75-4.438-2.166-1.125-4.583-1.687-7.25-1.687-2.375 0-4.552 0.448-6.531 1.344s-3.552 2.114-4.719 3.656c-1.166 1.542-1.75 3.208-1.75 5 0 2.292 0.917 4.333 2.75 6.125-0.416 0.792-0.916 1.604-1.5 2.438-0.375 0.5-0.656 0.843-0.844 1.031s-0.312 0.427-0.375 0.719c-0.062 0.291-0.031 0.562 0.094 0.812s0.302 0.458 0.531 0.625c0.23 0.167 0.49 0.25 0.782 0.25 2.75 0 5.354-0.813 7.812-2.438 0.584 0.125 1.188 0.23 1.813 0.313 1 1.833 2.573 3.313 4.718 4.438s4.553 1.687 7.219 1.687c1.25 0 2.5-0.146 3.75-0.438 2.5 1.625 5.104 2.438 7.813 2.438 0.291 0 0.552-0.083 0.781-0.25s0.406-0.375 0.531-0.625c0.125-0.25 0.167-0.521 0.125-0.813-0.041-0.291-0.166-0.541-0.375-0.75-0.125-0.083-0.416-0.416-0.875-1-0.583-0.833-1.083-1.645-1.5-2.437zM8.68 18.375l-1.063 0.688c-0.875 0.583-1.771 1.020-2.687 1.312l0.5-0.875 1-2-1.563-1.5c-1.25-1.208-1.875-2.542-1.875-4 0-1.25 0.459-2.406 1.375-3.469 0.917-1.062 2.136-1.916 3.656-2.562 1.521-0.646 3.178-0.969 4.969-0.969s3.448 0.323 4.969 0.969 2.74 1.5 3.656 2.562c0.917 1.063 1.375 2.219 1.375 3.469s-0.458 2.406-1.375 3.469c-0.916 1.062-2.135 1.916-3.656 2.562s-3.177 0.969-4.969 0.969c-1.041 0-2.062-0.125-3.062-0.375l-1.25-0.25zM31.117 22l-1.5 1.5 0.938 1.938 0.5 0.937c-0.917-0.292-1.813-0.729-2.688-1.313l-1.062-0.687-1.25 0.25c-1 0.25-2.021 0.375-3.063 0.375-1.666 0-3.219-0.281-4.656-0.844-1.438-0.562-2.615-1.323-3.531-2.281 2.083-0.208 3.979-0.781 5.687-1.719 1.709-0.937 3.052-2.114 4.031-3.531 0.98-1.417 1.469-2.958 1.469-4.625l-0.062-0.625c2.041 0.458 3.729 1.302 5.062 2.531s2 2.584 2 4.063-0.625 2.823-1.875 4.031z"></path>
</svg>
