<!-- Generated by IcoMoon.io -->
<svg version="1.1" xmlns="http://www.w3.org/2000/svg" width="32" height="32" viewBox="0 0 32 32">
<title>check</title>
<path d="M10.875 27.438l-10.438-10.375c-0.291-0.292-0.437-0.667-0.437-1.125 0-0.459 0.146-0.834 0.438-1.125l2.312-2.25c0.292-0.334 0.656-0.5 1.094-0.5 0.437 0 0.823 0.166 1.156 0.5l7 7 15-15c0.333-0.334 0.719-0.5 1.156-0.5 0.438 0 0.802 0.166 1.094 0.5l2.313 2.25c0.291 0.291 0.437 0.666 0.437 1.125s-0.146 0.833-0.438 1.125l-18.437 18.375c-0.292 0.333-0.667 0.5-1.125 0.5s-0.833-0.167-1.125-0.5z"></path>
</svg>
