<!-- Generated by IcoMoon.io -->
<svg version="1.1" xmlns="http://www.w3.org/2000/svg" width="32" height="32" viewBox="0 0 32 32">
<title>check-circle</title>
<path d="M31.5 16c0 2.792-0.698 5.375-2.094 7.75s-3.281 4.26-5.656 5.656c-2.375 1.396-4.958 2.094-7.75 2.094s-5.375-0.698-7.75-2.094c-2.375-1.396-4.26-3.281-5.656-5.656s-2.094-4.958-2.094-7.75c0-2.792 0.698-5.375 2.094-7.75s3.281-4.26 5.656-5.656c2.375-1.396 4.958-2.094 7.75-2.094s5.375 0.698 7.75 2.094c2.375 1.396 4.26 3.281 5.656 5.656s2.094 4.958 2.094 7.75zM14.187 24.188l11.5-11.501c0.209-0.166 0.313-0.395 0.313-0.687s-0.104-0.521-0.313-0.688l-1.375-1.437c-0.208-0.208-0.447-0.313-0.718-0.313s-0.511 0.105-0.719 0.313l-9.375 9.375-4.375-4.375c-0.208-0.208-0.448-0.313-0.719-0.313s-0.51 0.105-0.719 0.313l-1.375 1.437c-0.208 0.167-0.312 0.396-0.312 0.688s0.104 0.521 0.313 0.687l6.5 6.5c0.166 0.209 0.395 0.313 0.687 0.313s0.521-0.104 0.688-0.313z"></path>
</svg>
