<!-- Generated by IcoMoon.io -->
<svg version="1.1" xmlns="http://www.w3.org/2000/svg" width="32" height="32" viewBox="0 0 32 32">
<title>chevron-down</title>
<path d="M14.938 23.798l-12.126-12.125c-0.291-0.292-0.437-0.646-0.437-1.063s0.146-0.77 0.437-1.062l1.375-1.375c0.292-0.292 0.646-0.448 1.063-0.469s0.771 0.115 1.062 0.406l9.688 9.688 9.688-9.688c0.291-0.291 0.645-0.427 1.062-0.406s0.771 0.177 1.062 0.469l1.375 1.375c0.292 0.292 0.438 0.646 0.438 1.062 0 0.417-0.146 0.771-0.438 1.063l-12.125 12.125c-0.291 0.333-0.645 0.5-1.062 0.5s-0.771-0.167-1.063-0.5z"></path>
</svg>
