<!-- Generated by IcoMoon.io -->
<svg version="1.1" xmlns="http://www.w3.org/2000/svg" width="32" height="32" viewBox="0 0 32 32">
<title>chevron-right</title>
<path d="M23.798 17.063l-12.125 12.125c-0.292 0.291-0.646 0.437-1.063 0.437s-0.77-0.146-1.062-0.438l-1.375-1.375c-0.292-0.291-0.448-0.645-0.469-1.062s0.115-0.771 0.406-1.063l9.688-9.687-9.688-9.688c-0.291-0.291-0.427-0.645-0.406-1.062s0.177-0.771 0.469-1.062l1.375-1.375c0.292-0.292 0.646-0.438 1.062-0.438 0.417 0 0.771 0.146 1.063 0.438l12.125 12.125c0.333 0.291 0.5 0.645 0.5 1.062s-0.167 0.771-0.5 1.063z"></path>
</svg>
