<!-- Generated by IcoMoon.io -->
<svg version="1.1" xmlns="http://www.w3.org/2000/svg" width="32" height="32" viewBox="0 0 32 32">
<title>circle-o</title>
<path d="M16 0.5c-2.792 0-5.375 0.698-7.75 2.094s-4.26 3.281-5.656 5.656c-1.396 2.375-2.094 4.958-2.094 7.75s0.698 5.375 2.094 7.75c1.396 2.375 3.281 4.26 5.656 5.656s4.958 2.094 7.75 2.094c2.792 0 5.375-0.698 7.75-2.094s4.26-3.281 5.656-5.656c1.396-2.375 2.094-4.958 2.094-7.75s-0.698-5.375-2.094-7.75c-1.396-2.375-3.281-4.26-5.656-5.656s-4.958-2.094-7.75-2.094zM16 28.5c-2.25 0-4.333-0.563-6.25-1.688s-3.438-2.645-4.563-4.562c-1.125-1.917-1.687-4-1.687-6.25s0.563-4.333 1.688-6.25c1.125-1.917 2.645-3.438 4.562-4.563s4-1.687 6.25-1.687c2.25 0 4.333 0.563 6.25 1.688s3.438 2.645 4.563 4.562c1.125 1.917 1.687 4 1.687 6.25s-0.563 4.333-1.688 6.25c-1.125 1.917-2.645 3.438-4.562 4.563s-4 1.687-6.25 1.687z"></path>
</svg>
