<!-- Generated by IcoMoon.io -->
<svg version="1.1" xmlns="http://www.w3.org/2000/svg" width="32" height="32" viewBox="0 0 32 32">
<title>clipboard-list</title>
<path d="M25 4h-5c0-1.083-0.396-2.021-1.188-2.813-0.791-0.791-1.729-1.187-2.812-1.187s-2.021 0.396-2.813 1.188c-0.791 0.791-1.187 1.729-1.187 2.812h-5c-0.833 0-1.542 0.292-2.125 0.875s-0.875 1.292-0.875 2.125v22c0 0.833 0.292 1.542 0.875 2.125s1.292 0.875 2.125 0.875h18c0.833 0 1.542-0.292 2.125-0.875s0.875-1.292 0.875-2.125v-22c0-0.833-0.292-1.542-0.875-2.125s-1.292-0.875-2.125-0.875zM10 26.5c-0.417 0-0.771-0.146-1.063-0.438s-0.437-0.645-0.437-1.062 0.146-0.771 0.438-1.063c0.291-0.291 0.645-0.437 1.062-0.437s0.771 0.146 1.063 0.438c0.291 0.291 0.437 0.645 0.437 1.062s-0.146 0.771-0.438 1.063c-0.291 0.291-0.645 0.437-1.062 0.437zM10 20.5c-0.417 0-0.771-0.146-1.063-0.438s-0.437-0.645-0.437-1.062 0.146-0.771 0.438-1.063c0.291-0.291 0.645-0.437 1.062-0.437s0.771 0.146 1.063 0.438c0.291 0.291 0.437 0.645 0.437 1.062s-0.146 0.771-0.438 1.063c-0.291 0.291-0.645 0.437-1.062 0.437zM10 14.5c-0.417 0-0.771-0.146-1.063-0.438s-0.437-0.645-0.437-1.062 0.146-0.771 0.438-1.063c0.291-0.291 0.645-0.437 1.062-0.437s0.771 0.146 1.063 0.438c0.291 0.291 0.437 0.645 0.437 1.062s-0.146 0.771-0.438 1.063c-0.291 0.291-0.645 0.437-1.062 0.437zM16 2.5c0.417 0 0.771 0.146 1.063 0.438 0.291 0.291 0.437 0.645 0.437 1.062s-0.146 0.771-0.438 1.063c-0.291 0.291-0.645 0.437-1.062 0.437s-0.771-0.146-1.063-0.438c-0.291-0.291-0.437-0.645-0.437-1.062s0.146-0.771 0.438-1.063c0.291-0.291 0.645-0.437 1.062-0.437zM24 25.5c0 0.125-0.052 0.24-0.156 0.344s-0.219 0.156-0.344 0.156h-9c-0.125 0-0.24-0.052-0.344-0.156s-0.156-0.219-0.156-0.344v-1c0-0.125 0.052-0.24 0.156-0.344s0.219-0.156 0.344-0.156h9c0.125 0 0.24 0.052 0.344 0.156s0.156 0.219 0.156 0.344v1zM24 19.5c0 0.125-0.052 0.24-0.156 0.344s-0.219 0.156-0.344 0.156h-9c-0.125 0-0.24-0.052-0.344-0.156s-0.156-0.219-0.156-0.344v-1c0-0.125 0.052-0.24 0.156-0.344s0.219-0.156 0.344-0.156h9c0.125 0 0.24 0.052 0.344 0.156s0.156 0.219 0.156 0.344v1zM24 13.5c0 0.125-0.052 0.24-0.156 0.344s-0.219 0.156-0.344 0.156h-9c-0.125 0-0.24-0.052-0.344-0.156s-0.156-0.219-0.156-0.344v-1c0-0.125 0.052-0.24 0.156-0.344s0.219-0.156 0.344-0.156h9c0.125 0 0.24 0.052 0.344 0.156s0.156 0.219 0.156 0.344v1z"></path>
</svg>
