<!-- Generated by IcoMoon.io -->
<svg version="1.1" xmlns="http://www.w3.org/2000/svg" width="32" height="32" viewBox="0 0 32 32">
<title>clipboard-check-o</title>
<path d="M25 32h-18c-1.657 0-3-1.343-3-3v-22c0-1.657 1.343-3 3-3h5c0-2.206 1.794-4 4-4s4 1.794 4 4h5c1.657 0 3 1.343 3 3v22c0 1.657-1.343 3-3 3zM10 7h-2.625c-0.206 0-0.375 0.169-0.375 0.375v21.25c0 0.206 0.169 0.375 0.375 0.375h17.25c0.206 0 0.375-0.169 0.375-0.375v-21.25c0-0.206-0.169-0.375-0.375-0.375h-2.625v2.25c0 0.414-0.336 0.75-0.75 0.75h-10.5c-0.414 0-0.75-0.336-0.75-0.75v-2.25zM22.12 16.667l-7.218 7.157c-0.237 0.238-0.621 0.233-0.858-0.004l-4.169-4.204c-0.237-0.238-0.231-0.621 0.005-0.859l1.434-1.423c0.237-0.237 0.62-0.232 0.858 0.005l2.321 2.342 5.35-5.309c0.238-0.238 0.621-0.232 0.859 0.005l1.422 1.433c0.238 0.242 0.233 0.621-0.004 0.858v-0.001zM16.010 2.5c0.826 0.005 1.49 0.672 1.49 1.5 0 0.831-0.669 1.5-1.5 1.5s-1.5-0.669-1.5-1.5c0-0.828 0.663-1.495 1.49-1.5h0.020z"></path>
</svg>
