<!-- Generated by IcoMoon.io -->
<svg version="1.1" xmlns="http://www.w3.org/2000/svg" width="32" height="32" viewBox="0 0 32 32">
<title>clipboard-check</title>
<path d="M25 4h-5c0-1.083-0.396-2.021-1.188-2.813-0.791-0.791-1.729-1.187-2.812-1.187s-2.021 0.396-2.813 1.188c-0.791 0.791-1.187 1.729-1.187 2.812h-5c-0.833 0-1.542 0.292-2.125 0.875s-0.875 1.292-0.875 2.125v22c0 0.833 0.292 1.542 0.875 2.125s1.292 0.875 2.125 0.875h18c0.833 0 1.542-0.292 2.125-0.875s0.875-1.292 0.875-2.125v-22c0-0.833-0.292-1.542-0.875-2.125s-1.292-0.875-2.125-0.875zM16 2.5c0.417 0 0.771 0.146 1.063 0.438 0.291 0.291 0.437 0.645 0.437 1.062s-0.146 0.771-0.438 1.063c-0.291 0.291-0.645 0.437-1.062 0.437s-0.771-0.146-1.063-0.438c-0.291-0.291-0.437-0.645-0.437-1.062s0.146-0.771 0.438-1.063c0.291-0.291 0.645-0.437 1.062-0.437zM23.563 17l-8.938 8.875c-0.125 0.125-0.292 0.188-0.5 0.188s-0.396-0.084-0.562-0.25l-5.125-5.188c-0.167-0.125-0.25-0.292-0.25-0.5s0.083-0.396 0.25-0.563l1.75-1.75c0.166-0.166 0.354-0.239 0.562-0.218s0.375 0.093 0.5 0.218l2.875 2.875 6.625-6.562c0.167-0.125 0.354-0.188 0.563-0.188 0.208 0.001 0.375 0.063 0.5 0.188l1.75 1.813c0.166 0.124 0.25 0.291 0.25 0.499s-0.084 0.396-0.25 0.563z"></path>
</svg>
