<!-- Generated by IcoMoon.io -->
<svg version="1.1" xmlns="http://www.w3.org/2000/svg" width="32" height="32" viewBox="0 0 32 32">
<title>clipboard</title>
<path d="M28 7v22c0 0.833-0.292 1.542-0.875 2.125s-1.292 0.875-2.125 0.875h-18c-0.833 0-1.542-0.292-2.125-0.875s-0.875-1.292-0.875-2.125v-22c0-0.833 0.292-1.542 0.875-2.125s1.292-0.875 2.125-0.875h5c0-1.083 0.396-2.021 1.188-2.813 0.791-0.791 1.729-1.187 2.812-1.187s2.021 0.396 2.813 1.188c0.791 0.791 1.187 1.729 1.187 2.812h5c0.833 0 1.542 0.292 2.125 0.875s0.875 1.292 0.875 2.125zM16 2.5c-0.417 0-0.771 0.146-1.063 0.438-0.291 0.291-0.437 0.645-0.437 1.062s0.146 0.771 0.438 1.063c0.291 0.291 0.645 0.437 1.062 0.437s0.771-0.146 1.063-0.438c0.291-0.291 0.437-0.645 0.437-1.062s-0.146-0.771-0.438-1.063c-0.291-0.291-0.645-0.437-1.062-0.437zM22 9.625v-1.25c0-0.083-0.042-0.167-0.125-0.25s-0.167-0.125-0.25-0.125h-11.25c-0.083 0-0.167 0.042-0.25 0.125s-0.125 0.167-0.125 0.25v1.25c0 0.083 0.042 0.167 0.125 0.25s0.167 0.125 0.25 0.125h11.25c0.083 0 0.167-0.042 0.25-0.125s0.125-0.167 0.125-0.25z"></path>
</svg>
