<!-- Generated by IcoMoon.io -->
<svg version="1.1" xmlns="http://www.w3.org/2000/svg" width="32" height="32" viewBox="0 0 32 32">
<title>clipboard-tasks-o</title>
<path d="M25 32h-18c-1.657 0-3-1.343-3-3v-22c0-1.657 1.343-3 3-3h5c0-2.206 1.794-4 4-4s4 1.794 4 4h5c1.657 0 3 1.343 3 3v22c0 1.657-1.343 3-3 3zM10 7h-2.625c-0.206 0-0.375 0.169-0.375 0.375v21.25c0 0.206 0.169 0.375 0.375 0.375h17.25c0.206 0 0.375-0.169 0.375-0.375v-21.25c0-0.206-0.169-0.375-0.375-0.375h-2.625v2.25c0 0.414-0.336 0.75-0.75 0.75h-10.5c-0.414 0-0.75-0.336-0.75-0.75v-2.25zM10.090 23.469c-0.416 0-0.776 0.145-1.078 0.437s-0.453 0.646-0.453 1.063c0 0.416 0.151 0.77 0.453 1.062s0.662 0.438 1.078 0.438c0.417 0 0.771-0.146 1.063-0.438s0.437-0.646 0.437-1.062c0-0.417-0.146-0.771-0.437-1.063-0.292-0.292-0.646-0.437-1.063-0.437zM23.59 26.094h-9c-0.146 0-0.265-0.047-0.359-0.141s-0.141-0.214-0.141-0.359v-1.25c0-0.146 0.047-0.266 0.141-0.36s0.213-0.14 0.359-0.14h9c0.146 0 0.266 0.046 0.36 0.14s0.14 0.214 0.14 0.36v1.25c0 0.145-0.047 0.265-0.14 0.359-0.094 0.094-0.214 0.141-0.36 0.141zM12.965 18.125c0.084-0.084 0.125-0.177 0.125-0.281 0-0.105-0.031-0.188-0.093-0.25l-0.532-0.532c-0.083-0.083-0.177-0.125-0.281-0.125s-0.187 0.042-0.25 0.125l-2 1.969-0.719-0.687c-0.062-0.063-0.146-0.094-0.25-0.094s-0.198 0.031-0.281 0.094l-0.5 0.5c-0.062 0.083-0.094 0.171-0.094 0.265s0.042 0.182 0.125 0.266l1.469 1.469c0.083 0.083 0.177 0.125 0.281 0.125s0.198-0.042 0.282-0.125l0.468-0.469 2.282-2.25h-0.032zM23.59 20.094h-9c-0.146 0-0.265-0.047-0.359-0.141s-0.141-0.214-0.141-0.359v-1.25c0-0.146 0.047-0.266 0.141-0.36s0.213-0.14 0.359-0.14h9c0.146 0 0.266 0.046 0.36 0.14s0.14 0.214 0.14 0.36v1.25c0 0.145-0.047 0.265-0.14 0.359-0.094 0.094-0.214 0.141-0.36 0.141zM12.965 12.125c0.084-0.084 0.125-0.172 0.125-0.266s-0.031-0.182-0.093-0.265l-0.532-0.532c-0.083-0.062-0.177-0.093-0.281-0.093s-0.187 0.031-0.25 0.093l-2 2-0.719-0.687c-0.062-0.084-0.146-0.125-0.25-0.125s-0.198 0.041-0.281 0.125l-0.5 0.469c-0.062 0.083-0.094 0.177-0.094 0.281s0.042 0.187 0.125 0.25l1.469 1.5c0.083 0.062 0.177 0.094 0.281 0.094s0.198-0.032 0.282-0.094l0.468-0.5 2.282-2.25h-0.032zM23.59 14.094h-9c-0.146 0-0.265-0.047-0.359-0.141s-0.141-0.214-0.141-0.359v-1.25c0-0.146 0.047-0.266 0.141-0.36s0.213-0.14 0.359-0.14h9c0.146 0 0.266 0.046 0.36 0.14s0.14 0.214 0.14 0.36v1.25c0 0.145-0.047 0.265-0.14 0.359-0.094 0.094-0.214 0.141-0.36 0.141zM16.010 2.5c0.826 0.005 1.49 0.672 1.49 1.5 0 0.831-0.669 1.5-1.5 1.5s-1.5-0.669-1.5-1.5c0-0.828 0.663-1.495 1.49-1.5h0.020z"></path>
</svg>
