<!-- Generated by IcoMoon.io -->
<svg version="1.1" xmlns="http://www.w3.org/2000/svg" width="32" height="32" viewBox="0 0 32 32">
<title>clock</title>
<path d="M16 0.5c-2.792 0-5.375 0.698-7.75 2.094s-4.26 3.281-5.656 5.656c-1.396 2.375-2.094 4.958-2.094 7.75s0.698 5.375 2.094 7.75c1.396 2.375 3.281 4.26 5.656 5.656s4.958 2.094 7.75 2.094c2.792 0 5.375-0.698 7.75-2.094s4.26-3.281 5.656-5.656c1.396-2.375 2.094-4.958 2.094-7.75s-0.698-5.375-2.094-7.75c-1.396-2.375-3.281-4.26-5.656-5.656s-4.958-2.094-7.75-2.094zM19.563 22.375l-5.5-4c-0.209-0.167-0.313-0.375-0.313-0.625v-10.5c0-0.208 0.073-0.385 0.219-0.531s0.323-0.219 0.531-0.219h3c0.208 0 0.385 0.073 0.531 0.219s0.219 0.323 0.219 0.531v8.625l4 2.875c0.167 0.125 0.26 0.292 0.281 0.5s-0.031 0.396-0.156 0.563l-1.75 2.375c-0.125 0.166-0.292 0.27-0.5 0.312s-0.396 0-0.563-0.125z"></path>
</svg>
