<!-- Generated by IcoMoon.io -->
<svg version="1.1" xmlns="http://www.w3.org/2000/svg" width="32" height="32" viewBox="0 0 32 32">
<title>clone-o</title>
<path d="M29 0h-20c-0.833 0-1.542 0.292-2.125 0.875s-0.875 1.292-0.875 2.125v3h-3c-0.833 0-1.542 0.292-2.125 0.875s-0.875 1.292-0.875 2.125v20c0 0.833 0.292 1.542 0.875 2.125s1.292 0.875 2.125 0.875h20c0.833 0 1.542-0.292 2.125-0.875s0.875-1.292 0.875-2.125v-3h3c0.833 0 1.542-0.292 2.125-0.875s0.875-1.292 0.875-2.125v-20c0-0.833-0.292-1.542-0.875-2.125s-1.292-0.875-2.125-0.875zM22.625 29h-19.25c-0.083 0-0.167-0.042-0.25-0.125s-0.125-0.167-0.125-0.25v-19.25c0-0.083 0.042-0.167 0.125-0.25s0.167-0.125 0.25-0.125h2.625v14c0 0.833 0.292 1.542 0.875 2.125s1.292 0.875 2.125 0.875h14v2.625c0 0.083-0.042 0.167-0.125 0.25s-0.167 0.125-0.25 0.125zM28.625 23h-19.25c-0.083 0-0.167-0.042-0.25-0.125s-0.125-0.167-0.125-0.25v-19.25c0-0.083 0.042-0.167 0.125-0.25s0.167-0.125 0.25-0.125h19.25c0.083 0 0.167 0.042 0.25 0.125s0.125 0.167 0.125 0.25v19.25c0 0.083-0.042 0.167-0.125 0.25s-0.167 0.125-0.25 0.125z"></path>
</svg>
