<!-- Generated by IcoMoon.io -->
<svg version="1.1" xmlns="http://www.w3.org/2000/svg" width="32" height="32" viewBox="0 0 32 32">
<title>clone</title>
<path d="M29 0c0.833 0 1.542 0.292 2.125 0.875s0.875 1.292 0.875 2.125v18c0 0.833-0.292 1.542-0.875 2.125s-1.292 0.875-2.125 0.875h-18c-0.833 0-1.542-0.292-2.125-0.875s-0.875-1.292-0.875-2.125v-18c0-0.833 0.292-1.542 0.875-2.125s1.292-0.875 2.125-0.875h18zM24 26v3c0 0.833-0.292 1.542-0.875 2.125s-1.292 0.875-2.125 0.875h-18c-0.833 0-1.542-0.292-2.125-0.875s-0.875-1.292-0.875-2.125v-18c0-0.833 0.292-1.542 0.875-2.125s1.292-0.875 2.125-0.875h3v13c0 1.375 0.49 2.552 1.469 3.531s2.156 1.469 3.531 1.469h13z"></path>
</svg>
