<!-- Generated by IcoMoon.io -->
<svg version="1.1" xmlns="http://www.w3.org/2000/svg" width="40" height="32" viewBox="0 0 40 32">
<title>cloud</title>
<path d="M33.625 14.188c0.25-0.709 0.375-1.438 0.375-2.188 0-1.667-0.583-3.083-1.75-4.25s-2.583-1.75-4.25-1.75c-1.208 0-2.312 0.333-3.312 1-0.875-1.5-2.084-2.708-3.625-3.625-1.542-0.917-3.219-1.375-5.032-1.375s-3.489 0.448-5.031 1.344-2.76 2.114-3.656 3.656c-0.896 1.542-1.344 3.208-1.344 5v0.5c-1.75 0.625-3.187 1.708-4.312 3.25s-1.688 3.292-1.688 5.25c0 1.625 0.406 3.125 1.219 4.5 0.812 1.375 1.906 2.469 3.281 3.281 1.375 0.813 2.875 1.219 4.5 1.219h23c1.458 0 2.802-0.354 4.031-1.063 1.229-0.708 2.198-1.677 2.907-2.906 0.708-1.229 1.062-2.573 1.062-4.031 0-1.917-0.604-3.604-1.812-5.063-1.209-1.458-2.73-2.375-4.563-2.75z"></path>
</svg>
