<!-- Generated by IcoMoon.io -->
<svg version="1.1" xmlns="http://www.w3.org/2000/svg" width="40" height="32" viewBox="0 0 40 32">
<title>code</title>
<path d="M17.438 31.95c0.208 0.083 0.395 0.073 0.562-0.031 0.167-0.105 0.292-0.261 0.375-0.469l8.5-29.375c0.083-0.208 0.073-0.396-0.031-0.563-0.104-0.166-0.261-0.291-0.469-0.375l-3.812-1.125c-0.209-0.041-0.396-0.010-0.563 0.094s-0.292 0.261-0.375 0.469l-8.5 29.375c-0.083 0.208-0.073 0.396 0.031 0.562 0.104 0.167 0.261 0.292 0.469 0.375l3.813 1.063zM10.313 24.95l2.687-2.875c0.167-0.167 0.24-0.354 0.219-0.563-0.021-0.208-0.094-0.375-0.219-0.5l-5.687-5 5.687-5c0.125-0.125 0.198-0.291 0.219-0.5s-0.052-0.395-0.219-0.562l-2.687-2.875c-0.125-0.167-0.292-0.25-0.5-0.25s-0.396 0.062-0.563 0.187l-9 8.438c-0.167 0.167-0.25 0.354-0.25 0.562s0.083 0.396 0.25 0.563l9 8.437c0.167 0.125 0.354 0.188 0.563 0.188 0.208 0 0.375-0.083 0.5-0.25zM30.75 25.012l9-8.437c0.167-0.167 0.25-0.354 0.25-0.563s-0.083-0.395-0.25-0.562l-9-8.438c-0.167-0.125-0.344-0.187-0.531-0.187-0.188 0-0.365 0.083-0.531 0.25l-2.688 2.875c-0.167 0.167-0.24 0.354-0.219 0.562s0.094 0.375 0.219 0.5l5.688 5-5.688 5c-0.125 0.125-0.198 0.292-0.219 0.5-0.021 0.209 0.052 0.396 0.219 0.563l2.688 2.875c0.125 0.167 0.291 0.25 0.5 0.25 0.208 0 0.395-0.063 0.562-0.188z"></path>
</svg>
