<!-- Generated by IcoMoon.io -->
<svg version="1.1" xmlns="http://www.w3.org/2000/svg" width="32" height="32" viewBox="0 0 32 32">
<title>code-branch</title>
<path d="M28 9c0-1.375-0.49-2.552-1.469-3.531s-2.156-1.469-3.531-1.469c-1.375 0-2.552 0.49-3.531 1.469s-1.469 2.156-1.469 3.531c0 1.125 0.333 2.125 1 3s1.542 1.479 2.625 1.813c-0.042 0.999-0.281 1.77-0.719 2.312-0.437 0.542-1.156 0.938-2.156 1.188-0.625 0.125-1.688 0.25-3.188 0.375-1.166 0.125-2.041 0.25-2.624 0.375-0.959 0.166-1.771 0.395-2.438 0.687v-9c1.042-0.292 1.885-0.875 2.531-1.75s0.969-1.875 0.969-3c0-1.375-0.49-2.552-1.469-3.531s-2.156-1.469-3.531-1.469c-1.375 0-2.552 0.49-3.531 1.469s-1.469 2.156-1.469 3.531c0 1.125 0.323 2.125 0.969 3s1.489 1.458 2.531 1.75v12.5c-1.042 0.292-1.885 0.875-2.531 1.75s-0.969 1.875-0.969 3c0 1.375 0.49 2.552 1.469 3.531s2.156 1.469 3.531 1.469c1.375 0 2.552-0.49 3.531-1.469s1.469-2.156 1.469-3.531c0-1.042-0.292-1.99-0.875-2.844s-1.354-1.468-2.312-1.843c0.208-0.334 0.52-0.605 0.937-0.813s1.021-0.396 1.813-0.563c0.458-0.041 1.208-0.125 2.25-0.25h0.062c1.792-0.166 3.125-0.375 4-0.625 1.458-0.416 2.583-1.104 3.375-2.062 0.875-1.083 1.333-2.5 1.375-4.25 1-0.333 1.813-0.938 2.438-1.813s0.937-1.854 0.937-2.937zM9 4c0.292 0 0.531 0.094 0.719 0.281 0.187 0.188 0.281 0.427 0.281 0.719s-0.094 0.531-0.281 0.719c-0.188 0.187-0.427 0.281-0.719 0.281s-0.531-0.094-0.719-0.281c-0.187-0.188-0.281-0.427-0.281-0.719s0.094-0.531 0.281-0.719c0.188-0.187 0.427-0.281 0.719-0.281zM9 28c-0.292 0-0.531-0.094-0.719-0.281-0.187-0.188-0.281-0.427-0.281-0.719s0.094-0.531 0.281-0.719c0.188-0.187 0.427-0.281 0.719-0.281s0.531 0.094 0.719 0.281c0.187 0.188 0.281 0.427 0.281 0.719s-0.094 0.531-0.281 0.719c-0.188 0.187-0.427 0.281-0.719 0.281zM23 8c0.292 0 0.531 0.094 0.719 0.281 0.187 0.188 0.281 0.427 0.281 0.719s-0.094 0.531-0.281 0.719c-0.188 0.187-0.427 0.281-0.719 0.281s-0.531-0.094-0.719-0.281c-0.187-0.188-0.281-0.427-0.281-0.719s0.094-0.531 0.281-0.719c0.188-0.187 0.427-0.281 0.719-0.281z"></path>
</svg>
