<!-- Generated by IcoMoon.io -->
<svg version="1.1" xmlns="http://www.w3.org/2000/svg" width="32" height="32" viewBox="0 0 32 32">
<title>comment-o</title>
<path d="M16 2c-2.917 0-5.594 0.583-8.031 1.75-2.438 1.167-4.375 2.74-5.813 4.719s-2.156 4.156-2.156 6.531c0 2.917 1.104 5.542 3.313 7.875-0.375 1.042-0.98 2.125-1.813 3.25-0.542 0.75-0.906 1.219-1.094 1.406-0.187 0.188-0.312 0.427-0.375 0.719-0.062 0.292-0.031 0.573 0.094 0.844s0.313 0.489 0.563 0.656c0.25 0.167 0.52 0.25 0.812 0.25 3.083 0 5.979-0.958 8.688-2.875 1.916 0.583 3.854 0.875 5.812 0.875 2.917 0 5.594-0.583 8.031-1.75 2.438-1.167 4.375-2.74 5.813-4.719s2.156-4.156 2.156-6.531-0.719-4.552-2.156-6.531c-1.438-1.979-3.375-3.552-5.813-4.719s-5.114-1.75-8.031-1.75zM16 25c-1.667 0-3.292-0.25-4.875-0.75l-1.437-0.438-1.25 0.813c-1.125 0.833-2.313 1.458-3.563 1.875 0.5-0.875 0.917-1.729 1.25-2.563l0.625-1.75-1.25-1.375c-1.667-1.75-2.5-3.687-2.5-5.812 0-1.792 0.583-3.458 1.75-5s2.75-2.76 4.75-3.656c2-0.896 4.167-1.344 6.5-1.344s4.5 0.448 6.5 1.344c2 0.896 3.583 2.114 4.75 3.656s1.75 3.208 1.75 5c0 1.792-0.583 3.458-1.75 5s-2.75 2.76-4.75 3.656c-2 0.896-4.167 1.344-6.5 1.344z"></path>
</svg>
