<!-- Generated by IcoMoon.io -->
<svg version="1.1" xmlns="http://www.w3.org/2000/svg" width="36" height="32" viewBox="0 0 36 32">
<title>comments-dollar</title>
<path d="M26 12c0-1.792-0.583-3.458-1.75-5s-2.74-2.76-4.719-3.656c-1.979-0.896-4.156-1.344-6.531-1.344s-4.552 0.448-6.531 1.344c-1.979 0.896-3.552 2.114-4.719 3.656s-1.75 3.208-1.75 5c0 2.125 0.792 4.042 2.375 5.75-0.333 0.792-0.812 1.583-1.437 2.375-0.292 0.458-0.563 0.813-0.813 1.063-0.125 0.125-0.146 0.291-0.062 0.5 0.083 0.208 0.229 0.312 0.437 0.312 1.917 0 3.771-0.521 5.563-1.563 2.125 1.042 4.437 1.563 6.937 1.563 2.375 0 4.552-0.448 6.531-1.344s3.552-2.114 4.719-3.656c1.167-1.542 1.75-3.208 1.75-5zM12 18v-1c-0.708-0.042-1.354-0.292-1.937-0.75-0.125-0.083-0.198-0.198-0.219-0.344s0.031-0.281 0.156-0.406l0.75-0.688c0.167-0.166 0.375-0.177 0.625-0.031s0.521 0.219 0.813 0.219h1.75c0.208 0 0.385-0.083 0.531-0.25s0.219-0.354 0.219-0.562c0-0.209-0.053-0.386-0.157-0.532s-0.239-0.239-0.406-0.281l-2.812-0.812c-0.584-0.209-1.063-0.563-1.438-1.063s-0.562-1.062-0.562-1.687c0-0.75 0.26-1.396 0.781-1.938s1.156-0.833 1.906-0.875v-1c0-0.125 0.052-0.24 0.156-0.344s0.219-0.156 0.344-0.156h1c0.125 0 0.24 0.052 0.344 0.156s0.156 0.219 0.156 0.344v1c0.708 0.042 1.354 0.292 1.938 0.75 0.125 0.083 0.197 0.198 0.218 0.344s-0.031 0.281-0.156 0.406l-0.75 0.688c-0.167 0.166-0.375 0.177-0.625 0.031s-0.521-0.219-0.812-0.219h-1.75c-0.209 0-0.386 0.083-0.532 0.25s-0.218 0.354-0.218 0.562c0 0.209 0.052 0.386 0.156 0.532s0.239 0.239 0.406 0.281l2.813 0.812c0.583 0.209 1.062 0.563 1.437 1.063s0.563 1.062 0.563 1.687c0 0.75-0.261 1.396-0.782 1.938s-1.156 0.833-1.906 0.875v1c0 0.125-0.052 0.24-0.156 0.344s-0.219 0.156-0.344 0.156h-1c-0.125 0-0.24-0.052-0.344-0.156s-0.156-0.219-0.156-0.344zM33.625 25.75c1.583-1.708 2.375-3.615 2.375-5.719s-0.75-3.989-2.25-5.656c-1.5-1.667-3.437-2.875-5.812-3.625 0.041 0.417 0.062 0.833 0.062 1.25 0 2.167-0.677 4.167-2.031 6s-3.177 3.292-5.469 4.375c-2.292 1.083-4.792 1.625-7.5 1.625-0.583 0-1.25-0.042-2-0.125 1 1.833 2.583 3.313 4.75 4.438s4.583 1.687 7.25 1.687c2.5 0 4.813-0.521 6.938-1.563 1.791 1.042 3.645 1.563 5.562 1.563 0.208 0 0.354-0.104 0.438-0.313 0.083-0.208 0.062-0.395-0.063-0.562-0.25-0.208-0.521-0.542-0.812-1-0.625-0.792-1.105-1.583-1.438-2.375z"></path>
</svg>
