<!-- Generated by IcoMoon.io -->
<svg version="1.1" xmlns="http://www.w3.org/2000/svg" width="36" height="32" viewBox="0 0 36 32">
<title>comments</title>
<path d="M26 12c0-1.792-0.583-3.458-1.75-5s-2.74-2.76-4.719-3.656c-1.979-0.896-4.156-1.344-6.531-1.344s-4.552 0.448-6.531 1.344c-1.979 0.896-3.552 2.114-4.719 3.656s-1.75 3.208-1.75 5c0 2.125 0.792 4.042 2.375 5.75-0.333 0.792-0.812 1.583-1.437 2.375-0.334 0.5-0.584 0.833-0.75 1s-0.209 0.354-0.125 0.563c0.083 0.208 0.229 0.312 0.437 0.312 1.917 0 3.771-0.521 5.563-1.563 2.125 1.042 4.437 1.563 6.937 1.563 2.375 0 4.552-0.448 6.531-1.344s3.552-2.114 4.719-3.656c1.167-1.542 1.75-3.208 1.75-5zM33.625 25.75c1.583-1.708 2.375-3.604 2.375-5.688s-0.75-3.968-2.25-5.656c-1.5-1.687-3.437-2.906-5.812-3.656 0.041 0.375 0.062 0.792 0.062 1.25 0 2.167-0.677 4.167-2.031 6s-3.177 3.292-5.469 4.375c-2.292 1.083-4.792 1.625-7.5 1.625-0.583 0-1.25-0.042-2-0.125 1 1.833 2.583 3.313 4.75 4.438s4.583 1.687 7.25 1.687c2.5 0 4.813-0.521 6.938-1.563 1.791 1.042 3.645 1.563 5.562 1.563 0.208 0 0.354-0.104 0.438-0.313 0.083-0.208 0.041-0.395-0.125-0.562-0.167-0.167-0.417-0.479-0.75-0.938-0.625-0.833-1.105-1.645-1.438-2.437z"></path>
</svg>
