<!-- Generated by IcoMoon.io -->
<svg version="1.1" xmlns="http://www.w3.org/2000/svg" width="32" height="32" viewBox="0 0 32 32">
<title>comment</title>
<path d="M16 2c-2.917 0-5.594 0.583-8.031 1.75-2.438 1.167-4.375 2.74-5.813 4.719s-2.156 4.156-2.156 6.531c0 1.542 0.313 3 0.938 4.375s1.5 2.646 2.625 3.813c-0.334 1.291-1 2.666-2 4.125-0.584 0.833-1.063 1.437-1.438 1.812-0.125 0.167-0.146 0.354-0.062 0.563 0.083 0.208 0.229 0.312 0.437 0.312 1.833 0 3.625-0.375 5.375-1.125 1.208-0.542 2.354-1.229 3.438-2.063 2.124 0.792 4.354 1.188 6.687 1.188 2.917 0 5.594-0.583 8.031-1.75 2.438-1.167 4.375-2.74 5.813-4.719s2.156-4.156 2.156-6.531-0.719-4.552-2.156-6.531c-1.438-1.979-3.375-3.552-5.813-4.719s-5.114-1.75-8.031-1.75z"></path>
</svg>
