<!-- Generated by IcoMoon.io -->
<svg version="1.1" xmlns="http://www.w3.org/2000/svg" width="32" height="32" viewBox="0 0 32 32">
<title>comment-alt-o</title>
<path d="M28.080 0h-24c-1.083 0-2.021 0.396-2.812 1.188-0.792 0.791-1.188 1.729-1.188 2.812v18c0 1.083 0.396 2.021 1.188 2.813s1.729 1.187 2.812 1.187h6v5.25c0 0.208 0.073 0.385 0.219 0.531s0.312 0.219 0.5 0.219c0.187 0 0.344-0.042 0.469-0.125l7.812-5.875h9c1.083 0 2.021-0.396 2.813-1.188s1.187-1.729 1.187-2.812v-18c0-1.083-0.396-2.021-1.187-2.813-0.792-0.791-1.73-1.187-2.813-1.187zM29.080 22c0 0.292-0.094 0.531-0.281 0.719-0.188 0.187-0.427 0.281-0.719 0.281h-10l-5 3.75v-3.75h-9c-0.292 0-0.531-0.094-0.719-0.281-0.187-0.188-0.281-0.427-0.281-0.719v-18c0-0.292 0.094-0.531 0.281-0.719s0.427-0.281 0.719-0.281h24c0.292 0 0.531 0.094 0.719 0.281 0.187 0.188 0.281 0.427 0.281 0.719v18z"></path>
</svg>
