<!-- Generated by IcoMoon.io -->
<svg version="1.1" xmlns="http://www.w3.org/2000/svg" width="32" height="32" viewBox="0 0 32 32">
<title>comment-dollar</title>
<path d="M16 2c-2.917 0-5.594 0.583-8.031 1.75-2.438 1.167-4.375 2.74-5.813 4.719s-2.156 4.156-2.156 6.531c0 1.542 0.313 3 0.938 4.375s1.5 2.646 2.625 3.813c-0.334 1.291-1 2.666-2 4.125-0.5 0.75-0.98 1.354-1.438 1.812-0.125 0.167-0.146 0.354-0.062 0.563 0.083 0.208 0.229 0.312 0.437 0.312 1.833 0 3.625-0.375 5.375-1.125 1.208-0.542 2.354-1.229 3.438-2.063 2.124 0.792 4.354 1.188 6.687 1.188 2.917 0 5.594-0.583 8.031-1.75 2.438-1.167 4.375-2.74 5.813-4.719s2.156-4.156 2.156-6.531-0.719-4.552-2.156-6.531c-1.438-1.979-3.375-3.552-5.813-4.719s-5.114-1.75-8.031-1.75zM17.5 20.875v1.125c0 0.292-0.094 0.531-0.281 0.719-0.188 0.187-0.427 0.281-0.719 0.281h-1c-0.292 0-0.531-0.094-0.719-0.281-0.187-0.188-0.281-0.427-0.281-0.719v-1.125c-0.75-0.083-1.417-0.313-2-0.688-0.167-0.125-0.26-0.312-0.281-0.562s0.052-0.458 0.219-0.625l1.062-1.063c0.25-0.25 0.542-0.291 0.875-0.125 0.208 0.084 0.438 0.125 0.688 0.125h2c0.166 0 0.302-0.052 0.406-0.156s0.156-0.219 0.156-0.344c0-0.291-0.125-0.458-0.375-0.5l-3.125-0.937c-0.708-0.208-1.312-0.573-1.812-1.094s-0.792-1.135-0.875-1.844c-0.125-1 0.114-1.885 0.718-2.656s1.386-1.198 2.344-1.281v-1.125c0-0.292 0.094-0.531 0.281-0.719 0.188-0.187 0.427-0.281 0.719-0.281h1c0.292 0 0.531 0.094 0.719 0.281 0.187 0.188 0.281 0.427 0.281 0.719v1.125c0.75 0.083 1.417 0.313 2 0.688 0.167 0.124 0.26 0.312 0.281 0.562s-0.052 0.458-0.218 0.625l-1.063 1.063c-0.25 0.249-0.542 0.291-0.875 0.124-0.208-0.083-0.437-0.125-0.687-0.125h-2c-0.167 0-0.303 0.053-0.407 0.157s-0.156 0.218-0.156 0.343c0 0.292 0.125 0.459 0.375 0.5l3.125 0.938c0.708 0.208 1.313 0.573 1.813 1.094s0.791 1.135 0.875 1.843c0.125 1-0.115 1.886-0.719 2.657s-1.386 1.198-2.344 1.281z"></path>
</svg>
