<!-- Generated by IcoMoon.io -->
<svg version="1.1" xmlns="http://www.w3.org/2000/svg" width="32" height="32" viewBox="0 0 32 32">
<title>comment-alt</title>
<path d="M28-0.004h-24c-1.083 0-2.021 0.396-2.813 1.187-0.791 0.792-1.187 1.73-1.187 2.813v18c0 1.083 0.396 2.021 1.188 2.812 0.791 0.792 1.729 1.188 2.812 1.188h6v5.25c0 0.292 0.135 0.51 0.406 0.656s0.531 0.136 0.781-0.031l7.813-5.875h9c1.083 0 2.021-0.396 2.813-1.188s1.187-1.729 1.187-2.812v-18c0-1.083-0.396-2.021-1.188-2.813-0.791-0.791-1.729-1.187-2.812-1.187z"></path>
</svg>
