<!-- Generated by IcoMoon.io -->
<svg version="1.1" xmlns="http://www.w3.org/2000/svg" width="32" height="32" viewBox="0 0 32 32">
<title>compass</title>
<path d="M14.563 14.563c-0.376 0.416-0.563 0.895-0.563 1.437s0.198 1.010 0.594 1.406c0.396 0.396 0.864 0.594 1.406 0.594s1.010-0.198 1.406-0.594c0.396-0.396 0.594-0.864 0.594-1.406s-0.198-1.010-0.594-1.406c-0.396-0.396-0.864-0.594-1.406-0.594s-1.021 0.188-1.437 0.563zM16 0.5c-2.792 0-5.375 0.698-7.75 2.094s-4.26 3.281-5.656 5.656c-1.396 2.375-2.094 4.958-2.094 7.75s0.698 5.375 2.094 7.75c1.396 2.375 3.281 4.26 5.656 5.656s4.958 2.094 7.75 2.094c2.792 0 5.375-0.698 7.75-2.094s4.26-3.281 5.656-5.656c1.396-2.375 2.094-4.958 2.094-7.75s-0.698-5.375-2.094-7.75c-1.396-2.375-3.281-4.26-5.656-5.656s-4.958-2.094-7.75-2.094zM23.875 9.75l-4.125 9c-0.208 0.458-0.542 0.792-1 1l-9 4.125c-0.333 0.167-0.656 0.177-0.969 0.031s-0.541-0.375-0.687-0.687c-0.146-0.313-0.136-0.636 0.031-0.969l4.125-9c0.208-0.458 0.542-0.792 1-1l9-4.125c0.333-0.167 0.656-0.177 0.969-0.031 0.312 0.146 0.541 0.375 0.687 0.687 0.146 0.313 0.136 0.636-0.031 0.969z"></path>
</svg>
