<!-- Generated by IcoMoon.io -->
<svg version="1.1" xmlns="http://www.w3.org/2000/svg" width="32" height="32" viewBox="0 0 32 32">
<title>copy-o</title>
<path d="M29.125 4.125l-3.25-3.25c-0.583-0.583-1.292-0.875-2.125-0.875h-10.75c-0.833 0-1.542 0.292-2.125 0.875s-0.875 1.292-0.875 2.125v3h-5c-0.833 0-1.542 0.292-2.125 0.875s-0.875 1.292-0.875 2.125v20c0 0.833 0.292 1.542 0.875 2.125s1.292 0.875 2.125 0.875h14c0.833 0 1.542-0.292 2.125-0.875s0.875-1.292 0.875-2.125v-3h5c0.833 0 1.542-0.292 2.125-0.875s0.875-1.292 0.875-2.125v-16.75c0-0.833-0.292-1.542-0.875-2.125zM18.625 29h-13.25c-0.083 0-0.167-0.042-0.25-0.125s-0.125-0.167-0.125-0.25v-19.25c0-0.083 0.042-0.167 0.125-0.25s0.167-0.125 0.25-0.125h4.625v14c0 0.833 0.292 1.542 0.875 2.125s1.292 0.875 2.125 0.875h6v2.625c0 0.083-0.042 0.167-0.125 0.25s-0.167 0.125-0.25 0.125zM26.625 23h-13.25c-0.083 0-0.167-0.042-0.25-0.125s-0.125-0.167-0.125-0.25v-19.25c0-0.083 0.042-0.167 0.125-0.25s0.167-0.125 0.25-0.125h6.625v5.5c0 0.417 0.146 0.771 0.438 1.063s0.645 0.437 1.062 0.437h5.5v12.625c0 0.083-0.042 0.167-0.125 0.25s-0.167 0.125-0.25 0.125zM27 7h-4v-4h0.625c0.083 0 0.167 0.042 0.25 0.125l3 3c0.083 0.083 0.125 0.167 0.125 0.25v0.625z"></path>
</svg>
