<!-- Generated by IcoMoon.io -->
<svg version="1.1" xmlns="http://www.w3.org/2000/svg" width="32" height="32" viewBox="0 0 32 32">
<title>copy</title>
<path d="M11.5 28c-0.958 0-1.781-0.344-2.469-1.031-0.687-0.688-1.031-1.511-1.031-2.469v-18.5h-4.5c-0.417 0-0.771 0.146-1.063 0.438s-0.437 0.645-0.437 1.062v23c0 0.417 0.146 0.771 0.437 1.063s0.646 0.437 1.063 0.437h17c0.417 0 0.771-0.146 1.063-0.438s0.437-0.645 0.437-1.062v-2.5h-10.5zM22 6.5v-6.5h-10.5c-0.417 0-0.771 0.146-1.063 0.438-0.291 0.291-0.437 0.645-0.437 1.062v23c0 0.417 0.146 0.771 0.438 1.063s0.645 0.437 1.062 0.437h17c0.417 0 0.771-0.146 1.063-0.438s0.437-0.645 0.437-1.062v-16.5h-6.5c-0.417 0-0.771-0.146-1.063-0.438s-0.437-0.645-0.437-1.062zM29.563 4.562l-4.125-4.125c-0.292-0.291-0.646-0.437-1.063-0.437h-0.375v6h6v-0.375c0-0.417-0.146-0.771-0.438-1.063z"></path>
</svg>
