<!-- Generated by IcoMoon.io -->
<svg version="1.1" xmlns="http://www.w3.org/2000/svg" width="36" height="32" viewBox="0 0 36 32">
<title>credit-card</title>
<path d="M0 16h36v11c0 0.833-0.292 1.542-0.875 2.125s-1.292 0.875-2.125 0.875h-30c-0.833 0-1.542-0.292-2.125-0.875s-0.875-1.292-0.875-2.125v-11zM12 25.25c0 0.208 0.073 0.385 0.219 0.531s0.323 0.219 0.531 0.219h8.5c0.208 0 0.385-0.073 0.531-0.219s0.219-0.323 0.219-0.531v-2.5c0-0.208-0.073-0.385-0.219-0.531s-0.323-0.219-0.531-0.219h-8.5c-0.208 0-0.385 0.073-0.531 0.219s-0.219 0.323-0.219 0.531v2.5zM4 25.25c0 0.208 0.073 0.385 0.219 0.531s0.323 0.219 0.531 0.219h4.5c0.208 0 0.385-0.073 0.531-0.219s0.219-0.323 0.219-0.531v-2.5c0-0.208-0.073-0.385-0.219-0.531s-0.323-0.219-0.531-0.219h-4.5c-0.208 0-0.385 0.073-0.531 0.219s-0.219 0.323-0.219 0.531v2.5zM36 5v3h-36v-3c0-0.833 0.292-1.542 0.875-2.125s1.292-0.875 2.125-0.875h30c0.833 0 1.542 0.292 2.125 0.875s0.875 1.292 0.875 2.125z"></path>
</svg>
