<!-- Generated by IcoMoon.io -->
<svg version="1.1" xmlns="http://www.w3.org/2000/svg" width="32" height="32" viewBox="0 0 32 32">
<title>crosshairs</title>
<path d="M31.25 14h-1.875c-0.458-2.917-1.74-5.427-3.844-7.531s-4.614-3.386-7.531-3.844v-1.875c0-0.208-0.073-0.385-0.219-0.531s-0.323-0.219-0.531-0.219h-2.5c-0.208 0-0.385 0.073-0.531 0.219s-0.219 0.323-0.219 0.531v1.875c-2.917 0.458-5.427 1.74-7.531 3.844s-3.386 4.614-3.844 7.531h-1.875c-0.208 0-0.385 0.073-0.531 0.219s-0.219 0.323-0.219 0.531v2.5c0 0.208 0.073 0.385 0.219 0.531s0.323 0.219 0.531 0.219h1.875c0.458 2.917 1.74 5.427 3.844 7.531s4.614 3.386 7.531 3.844v1.875c0 0.208 0.073 0.385 0.219 0.531s0.323 0.219 0.531 0.219h2.5c0.208 0 0.385-0.073 0.531-0.219s0.219-0.323 0.219-0.531v-1.875c2.917-0.458 5.427-1.74 7.531-3.844s3.386-4.614 3.844-7.531h1.875c0.208 0 0.385-0.073 0.531-0.219s0.219-0.323 0.219-0.531v-2.5c0-0.208-0.073-0.385-0.219-0.531s-0.323-0.219-0.531-0.219zM18 25.313v-2.563c0-0.208-0.073-0.385-0.219-0.531s-0.323-0.219-0.531-0.219h-2.5c-0.208 0-0.385 0.073-0.531 0.219s-0.219 0.323-0.219 0.531v2.562c-1.833-0.416-3.406-1.281-4.719-2.593-1.312-1.313-2.177-2.886-2.593-4.719h2.562c0.208 0 0.385-0.073 0.531-0.219s0.219-0.323 0.219-0.531v-2.5c0-0.208-0.073-0.385-0.219-0.531s-0.323-0.219-0.531-0.219h-2.562c0.416-1.833 1.281-3.406 2.593-4.719 1.313-1.312 2.886-2.177 4.719-2.594v2.563c0 0.208 0.073 0.385 0.219 0.531s0.323 0.219 0.531 0.219h2.5c0.208 0 0.385-0.073 0.531-0.219s0.219-0.323 0.219-0.531v-2.563c1.833 0.417 3.406 1.282 4.719 2.594 1.312 1.313 2.177 2.886 2.593 4.719h-2.562c-0.208 0-0.385 0.073-0.531 0.219s-0.219 0.323-0.219 0.531v2.5c0 0.208 0.073 0.385 0.219 0.531s0.323 0.219 0.531 0.219h2.563c-0.417 1.833-1.282 3.406-2.594 4.719-1.313 1.312-2.886 2.177-4.719 2.593zM18 16.001c0-0.542-0.198-1.010-0.594-1.406s-0.864-0.594-1.406-0.594c-0.542 0-1.010 0.198-1.406 0.594s-0.594 0.864-0.594 1.406c0 0.542 0.198 1.010 0.594 1.406s0.864 0.594 1.406 0.594c0.542 0 1.010-0.198 1.406-0.594s0.594-0.864 0.594-1.406z"></path>
</svg>
