<!-- Generated by IcoMoon.io -->
<svg version="1.1" xmlns="http://www.w3.org/2000/svg" width="40" height="32" viewBox="0 0 40 32">
<title>crown</title>
<path d="M33 28h-26c-0.292 0-0.531 0.094-0.719 0.281-0.187 0.188-0.281 0.427-0.281 0.719v2c0 0.292 0.094 0.531 0.281 0.719 0.188 0.187 0.427 0.281 0.719 0.281h26c0.292 0 0.531-0.094 0.719-0.281 0.187-0.188 0.281-0.427 0.281-0.719v-2c0-0.292-0.094-0.531-0.281-0.719-0.188-0.187-0.427-0.281-0.719-0.281zM37 8c-0.833 0-1.542 0.292-2.125 0.875s-0.875 1.292-0.875 2.125c0 0.417 0.083 0.833 0.25 1.25l-4.5 2.688c-0.5 0.291-1.021 0.364-1.562 0.218-0.542-0.146-0.938-0.448-1.188-0.906l-5.125-8.938c0.75-0.624 1.125-1.395 1.125-2.312 0-0.833-0.292-1.542-0.875-2.125s-1.292-0.875-2.125-0.875c-0.833 0-1.542 0.292-2.125 0.875s-0.875 1.292-0.875 2.125c0 0.917 0.375 1.688 1.125 2.313l-5.125 8.937c-0.25 0.458-0.656 0.76-1.219 0.906s-1.073 0.073-1.531-0.219l-4.5-2.687c0.167-0.417 0.25-0.833 0.25-1.25 0-0.833-0.292-1.542-0.875-2.125s-1.292-0.875-2.125-0.875c-0.833 0-1.542 0.292-2.125 0.875s-0.875 1.292-0.875 2.125c0 0.833 0.292 1.542 0.875 2.125s1.292 0.875 2.125 0.875l0.5-0.063 4.5 12.063h24l4.5-12.063 0.5 0.063c0.833 0 1.542-0.292 2.125-0.875s0.875-1.292 0.875-2.125c0-0.833-0.292-1.542-0.875-2.125s-1.292-0.875-2.125-0.875z"></path>
</svg>
