<!-- Generated by IcoMoon.io -->
<svg version="1.1" xmlns="http://www.w3.org/2000/svg" width="32" height="32" viewBox="0 0 32 32">
<title>cubes</title>
<path d="M30.563 15.641l-6.063-2.25v-6.813c0-0.458-0.135-0.875-0.406-1.25s-0.615-0.646-1.032-0.812l-6.25-2.375c-0.541-0.209-1.083-0.209-1.625 0l-6.25 2.375c-0.416 0.166-0.76 0.437-1.031 0.812s-0.406 0.792-0.406 1.25v6.813l-6.063 2.25c-0.416 0.166-0.76 0.448-1.031 0.843s-0.406 0.823-0.406 1.282v6.875c0 0.416 0.115 0.812 0.344 1.187s0.531 0.646 0.906 0.813l6.25 3.125c0.667 0.333 1.333 0.333 2 0l6.5-3.25 6.5 3.25c0.667 0.333 1.333 0.333 2 0l6.25-3.125c0.375-0.167 0.677-0.438 0.906-0.813s0.344-0.771 0.344-1.187v-6.875c0-0.459-0.135-0.886-0.406-1.282-0.271-0.395-0.615-0.677-1.032-0.843zM22.376 13.453l-5.313 2v-4.312l5.313-2.313v4.625zM9.626 6.516l6.375-2.375 6.375 2.375v0.062l-6.375 2.563-6.375-2.563v-0.062zM14.876 24.703l-5.313 2.688v-4.938l5.313-2.437v4.687zM14.876 17.703l-6.375 2.625-6.375-2.625 6.375-2.437 6.375 2.437zM29.876 24.703l-5.313 2.688v-4.938l5.313-2.437v4.687zM29.876 17.703l-6.375 2.625-6.375-2.625 6.375-2.437 6.375 2.437z"></path>
</svg>
