<!-- Generated by IcoMoon.io -->
<svg version="1.1" xmlns="http://www.w3.org/2000/svg" width="32" height="32" viewBox="0 0 32 32">
<title>cube</title>
<path d="M14.938 0.469l-13.001 4.875c-0.583 0.25-1.052 0.625-1.406 1.125s-0.531 1.062-0.531 1.687v14.063c0 0.583 0.146 1.114 0.437 1.593 0.292 0.48 0.709 0.844 1.25 1.094l13 6.5c0.417 0.209 0.855 0.313 1.313 0.313s0.896-0.104 1.313-0.313l13-6.5c0.541-0.25 0.958-0.614 1.25-1.094 0.291-0.479 0.437-1.010 0.437-1.593v-14.063c0-0.625-0.177-1.187-0.531-1.687s-0.823-0.875-1.407-1.125l-13-4.875c-0.708-0.25-1.416-0.25-2.125 0zM16.001 4.344l12 4.5v0.062l-12 4.875-12-4.875v-0.062l12-4.5zM18.001 26.594v-9.313l10-4.062v8.375l-10 5z"></path>
</svg>
