<!-- Generated by IcoMoon.io -->
<svg version="1.1" xmlns="http://www.w3.org/2000/svg" width="32" height="32" viewBox="0 0 32 32">
<title>cut</title>
<path d="M19.375 16l10.375-10.375c0.167-0.167 0.25-0.354 0.25-0.563s-0.083-0.375-0.25-0.5c-1-1.041-2.229-1.562-3.688-1.562-1.458 0-2.687 0.521-3.687 1.563l-7.25 7.187-1.563-1.563c0.292-0.708 0.438-1.437 0.438-2.187 0-1.667-0.583-3.083-1.75-4.25s-2.583-1.75-4.25-1.75c-1.667 0-3.083 0.583-4.25 1.75s-1.75 2.583-1.75 4.25c0 1.667 0.583 3.083 1.75 4.25s2.583 1.75 4.25 1.75c0.292 0 0.563-0.021 0.813-0.063l2.062 2.063-2.063 2.063c-0.249-0.042-0.52-0.063-0.812-0.063-1.667 0-3.083 0.583-4.25 1.75s-1.75 2.583-1.75 4.25c0 1.667 0.583 3.083 1.75 4.25s2.583 1.75 4.25 1.75c1.667 0 3.083-0.583 4.25-1.75s1.75-2.583 1.75-4.25c0-0.75-0.146-1.479-0.438-2.188l1.563-1.562 7.25 7.188c1 1.041 2.229 1.562 3.688 1.562 1.458 0 2.687-0.521 3.687-1.563 0.167-0.125 0.25-0.291 0.25-0.5 0-0.208-0.083-0.395-0.25-0.562l-10.375-10.375zM8 10c-0.542 0-1.010-0.198-1.406-0.594s-0.594-0.864-0.594-1.406c0-0.542 0.198-1.010 0.594-1.406s0.864-0.594 1.406-0.594c0.542 0 1.010 0.198 1.406 0.594s0.594 0.864 0.594 1.406c0 0.542-0.198 1.010-0.594 1.406s-0.864 0.594-1.406 0.594zM8 26c-0.542 0-1.010-0.198-1.406-0.594s-0.594-0.864-0.594-1.406c0-0.542 0.198-1.010 0.594-1.406s0.864-0.594 1.406-0.594c0.542 0 1.010 0.198 1.406 0.594s0.594 0.864 0.594 1.406c0 0.542-0.198 1.010-0.594 1.406s-0.864 0.594-1.406 0.594z"></path>
</svg>
