<!-- Generated by IcoMoon.io -->
<svg version="1.1" xmlns="http://www.w3.org/2000/svg" width="32" height="32" viewBox="0 0 32 32">
<title>database</title>
<path d="M30 4.563v2.875c0 0.833-0.625 1.593-1.875 2.281-1.25 0.687-2.948 1.239-5.094 1.656s-4.489 0.625-7.031 0.625c-2.542 0-4.885-0.208-7.031-0.625s-3.844-0.969-5.094-1.656c-1.25-0.688-1.875-1.448-1.875-2.281v-2.875c0-0.834 0.625-1.594 1.875-2.282s2.948-1.239 5.094-1.656 4.489-0.625 7.031-0.625c2.542 0 4.885 0.208 7.031 0.625s3.844 0.969 5.094 1.656c1.25 0.688 1.875 1.448 1.875 2.282zM30 11v6.438c0 0.833-0.625 1.593-1.875 2.281s-2.948 1.239-5.094 1.656-4.489 0.625-7.031 0.625c-2.542 0-4.885-0.208-7.031-0.625s-3.844-0.969-5.094-1.656c-1.25-0.688-1.875-1.448-1.875-2.281v-6.438c1.458 1 3.479 1.771 6.063 2.313 2.416 0.499 5.062 0.749 7.937 0.749s5.521-0.25 7.938-0.75c2.583-0.541 4.604-1.312 6.062-2.312zM30 21v6.438c0 0.833-0.625 1.593-1.875 2.281s-2.948 1.239-5.094 1.656-4.489 0.625-7.031 0.625c-2.542 0-4.885-0.208-7.031-0.625s-3.844-0.969-5.094-1.656c-1.25-0.688-1.875-1.448-1.875-2.281v-6.438c1.458 1 3.479 1.771 6.063 2.313 2.416 0.5 5.062 0.75 7.937 0.75s5.521-0.25 7.938-0.75c2.583-0.542 4.604-1.313 6.062-2.313z"></path>
</svg>
