<!-- Generated by IcoMoon.io -->
<svg version="1.1" xmlns="http://www.w3.org/2000/svg" width="36" height="32" viewBox="0 0 36 32">
<title>desktop</title>
<path d="M33 0h-30c-0.833 0-1.542 0.292-2.125 0.875s-0.875 1.292-0.875 2.125v20c0 0.833 0.292 1.542 0.875 2.125s1.292 0.875 2.125 0.875h12l-1 3h-4.5c-0.417 0-0.771 0.146-1.062 0.438-0.292 0.291-0.438 0.645-0.438 1.062s0.146 0.771 0.438 1.063c0.291 0.291 0.645 0.437 1.062 0.437h17c0.417 0 0.771-0.146 1.063-0.438s0.437-0.645 0.437-1.062-0.146-0.771-0.437-1.063c-0.292-0.291-0.646-0.437-1.063-0.437h-4.5l-1-3h12c0.833 0 1.542-0.292 2.125-0.875s0.875-1.292 0.875-2.125v-20c0-0.833-0.292-1.542-0.875-2.125s-1.292-0.875-2.125-0.875zM32 22h-28v-18h28v18z"></path>
</svg>
