<!-- Generated by IcoMoon.io -->
<svg version="1.1" xmlns="http://www.w3.org/2000/svg" width="32" height="32" viewBox="0 0 32 32">
<title>dna</title>
<path d="M2 30.875c-0.042 0.292 0.042 0.552 0.25 0.781s0.458 0.344 0.75 0.344h2c0.25 0 0.469-0.083 0.656-0.25 0.188-0.167 0.302-0.375 0.344-0.625 0.083-0.375 0.167-0.75 0.25-1.125h19.5c0.125 0.5 0.198 0.875 0.219 1.125s0.125 0.458 0.312 0.625c0.188 0.167 0.406 0.25 0.656 0.25h2.063c0.292 0 0.542-0.115 0.75-0.344s0.292-0.489 0.25-0.781c-0.25-1.833-0.792-3.667-1.625-5.5-1.333-2.833-3.271-5.333-5.813-7.5-1.125 0.792-2.354 1.542-3.687 2.25 0.208 0.125 0.479 0.333 0.813 0.625l0.25 0.25h-7.938c1.417-1.208 3.042-2.271 4.875-3.188 4.667-2.333 8.167-5.416 10.5-9.25 1.417-2.416 2.292-4.895 2.625-7.437 0.042-0.292-0.042-0.552-0.25-0.781s-0.458-0.344-0.75-0.344h-2c-0.25 0-0.479 0.083-0.688 0.25-0.208 0.167-0.312 0.375-0.312 0.625-0.083 0.333-0.167 0.708-0.25 1.125h-19.5c-0.083-0.417-0.167-0.792-0.25-1.125 0-0.25-0.104-0.458-0.313-0.625s-0.437-0.25-0.687-0.25h-2c-0.292 0-0.542 0.115-0.75 0.344s-0.292 0.489-0.25 0.781c0.25 2.167 0.958 4.312 2.125 6.437 1.75 3.334 4.375 6.146 7.875 8.438-3.5 2.292-6.125 5.104-7.875 8.438-1.167 2.124-1.875 4.27-2.125 6.437zM16 13.75c-1.5-0.833-2.833-1.75-4-2.75h8c-1.167 1-2.5 1.917-4 2.75zM24.188 6c-0.376 0.667-0.813 1.333-1.313 2h-13.75c-0.5-0.667-0.938-1.333-1.313-2h16.375zM7.813 26c0.375-0.667 0.813-1.333 1.313-2h13.687c0.542 0.667 0.98 1.333 1.313 2h-16.313z"></path>
</svg>
