<!-- Generated by IcoMoon.io -->
<svg version="1.1" xmlns="http://www.w3.org/2000/svg" width="32" height="32" viewBox="0 0 32 32">
<title>dollar</title>
<path d="M20.068 14.563l-6.75-1.938c-0.375-0.125-0.687-0.354-0.937-0.688-0.25-0.333-0.375-0.687-0.375-1.062 0-0.542 0.177-0.99 0.531-1.344s0.781-0.531 1.281-0.531h4.188c0.792 0 1.5 0.229 2.125 0.688 0.208 0.124 0.427 0.166 0.656 0.124s0.427-0.125 0.594-0.25l2.125-2.187c0.25-0.208 0.354-0.458 0.312-0.75s-0.187-0.542-0.437-0.75c-1.583-1.25-3.375-1.875-5.375-1.875v-3c0-0.292-0.094-0.531-0.281-0.719-0.188-0.187-0.427-0.281-0.719-0.281h-2c-0.292 0-0.531 0.094-0.719 0.281s-0.281 0.427-0.281 0.719v3h-0.125c-1.333 0-2.542 0.344-3.625 1.031-1.083 0.688-1.917 1.604-2.5 2.75s-0.833 2.386-0.75 3.719c0.167 1.417 0.729 2.667 1.687 3.75s2.146 1.833 3.563 2.25l6.437 1.875c0.375 0.125 0.688 0.354 0.938 0.688 0.25 0.333 0.375 0.687 0.375 1.062 0 0.542-0.177 0.99-0.531 1.344s-0.782 0.531-1.282 0.531h-4.187c-0.792 0-1.5-0.208-2.125-0.625-0.208-0.167-0.427-0.229-0.656-0.188-0.229 0.042-0.427 0.125-0.594 0.25l-2.125 2.125c-0.25 0.25-0.354 0.521-0.313 0.813 0.042 0.292 0.167 0.542 0.375 0.75 1.625 1.25 3.438 1.875 5.438 1.875v3c0 0.292 0.094 0.531 0.281 0.719 0.188 0.187 0.427 0.281 0.719 0.281h2c0.292 0 0.531-0.094 0.719-0.281 0.187-0.188 0.281-0.427 0.281-0.719v-3c1.5-0.042 2.854-0.469 4.062-1.281 1.209-0.813 2.063-1.907 2.563-3.282 0.417-1.25 0.49-2.489 0.219-3.718s-0.834-2.302-1.688-3.219c-0.854-0.917-1.885-1.563-3.094-1.938z"></path>
</svg>
