<!-- Generated by IcoMoon.io -->
<svg version="1.1" xmlns="http://www.w3.org/2000/svg" width="32" height="32" viewBox="0 0 32 32">
<title>download</title>
<path d="M13.5 0h5c0.417 0 0.771 0.146 1.063 0.438 0.291 0.291 0.437 0.645 0.437 1.062v10.5h5.5c0.542 0 0.917 0.26 1.125 0.781s0.125 0.969-0.25 1.344l-9.5 9.5c-0.25 0.25-0.542 0.375-0.875 0.375s-0.625-0.125-0.875-0.375l-9.5-9.5c-0.375-0.375-0.458-0.823-0.25-1.344s0.583-0.781 1.125-0.781h5.5v-10.5c0-0.417 0.146-0.771 0.438-1.063s0.645-0.437 1.062-0.437zM32 23.5v7c0 0.417-0.146 0.771-0.438 1.063s-0.645 0.437-1.062 0.437h-29c-0.417 0-0.771-0.146-1.063-0.438s-0.437-0.645-0.437-1.062v-7c0-0.417 0.146-0.771 0.437-1.063 0.292-0.291 0.646-0.437 1.063-0.437h9.188l3.062 3.063c0.625 0.625 1.375 0.937 2.25 0.937s1.625-0.313 2.25-0.938l3.063-3.062h9.187c0.417 0 0.771 0.146 1.063 0.438s0.437 0.645 0.437 1.062zM24.25 29c0-0.333-0.125-0.625-0.375-0.875s-0.542-0.375-0.875-0.375c-0.333 0-0.625 0.125-0.875 0.375s-0.375 0.542-0.375 0.875c0 0.333 0.125 0.625 0.375 0.875s0.542 0.375 0.875 0.375c0.333 0 0.625-0.125 0.875-0.375s0.375-0.542 0.375-0.875zM28.25 29c0-0.333-0.125-0.625-0.375-0.875s-0.542-0.375-0.875-0.375c-0.333 0-0.625 0.125-0.875 0.375s-0.375 0.542-0.375 0.875c0 0.333 0.125 0.625 0.375 0.875s0.542 0.375 0.875 0.375c0.333 0 0.625-0.125 0.875-0.375s0.375-0.542 0.375-0.875z"></path>
</svg>
