<!-- Generated by IcoMoon.io -->
<svg version="1.1" xmlns="http://www.w3.org/2000/svg" width="36" height="32" viewBox="0 0 36 32">
<title>edit-o</title>
<path d="M25.125 21.563l2-2c0.167-0.167 0.354-0.209 0.563-0.125 0.208 0.083 0.312 0.25 0.312 0.5v9.062c0 0.833-0.292 1.542-0.875 2.125s-1.292 0.875-2.125 0.875h-22c-0.833 0-1.542-0.292-2.125-0.875s-0.875-1.292-0.875-2.125v-22c0-0.833 0.292-1.542 0.875-2.125s1.292-0.875 2.125-0.875h17.125c0.208 0 0.354 0.104 0.438 0.313 0.083 0.208 0.041 0.395-0.125 0.562l-2 2c-0.084 0.083-0.188 0.125-0.313 0.125h-15.125v22h22v-7.125c0-0.125 0.042-0.229 0.125-0.313zM34.938 8.938l-16.438 16.438-5.625 0.625c-0.833 0.083-1.542-0.167-2.125-0.75s-0.833-1.292-0.75-2.125l0.625-5.625 16.438-16.438c0.708-0.708 1.572-1.062 2.593-1.062s1.886 0.354 2.594 1.062l2.688 2.688c0.708 0.708 1.062 1.573 1.062 2.594s-0.354 1.885-1.062 2.593zM28.75 10.876l-3.625-3.625-11.625 11.625-0.437 4.063 4.062-0.438 11.625-11.625zM32.813 5.876l-2.688-2.688c-0.125-0.124-0.281-0.187-0.469-0.187-0.187 0-0.343 0.063-0.468 0.188l-1.938 1.937 3.625 3.625 1.938-1.938c0.125-0.125 0.187-0.281 0.187-0.468s-0.062-0.344-0.187-0.469z"></path>
</svg>
