<!-- Generated by IcoMoon.io -->
<svg version="1.1" xmlns="http://www.w3.org/2000/svg" width="36" height="32" viewBox="0 0 36 32">
<title>edit</title>
<path d="M25.188 5.188c-0.125-0.125-0.271-0.188-0.438-0.188s-0.312 0.063-0.437 0.188l-13.688 13.687-0.625 5.75c-0.042 0.417 0.073 0.76 0.344 1.031s0.614 0.386 1.031 0.344l5.75-0.625 13.688-13.688c0.125-0.124 0.187-0.27 0.187-0.437s-0.062-0.313-0.187-0.438l-5.625-5.624zM35.313 3.75l-3.063-3.062c-0.5-0.459-1.083-0.688-1.75-0.688s-1.229 0.229-1.687 0.688l-2.25 2.25c-0.125 0.125-0.188 0.27-0.188 0.437s0.063 0.313 0.188 0.438l5.625 5.625c0.125 0.125 0.27 0.187 0.437 0.187s0.313-0.062 0.438-0.187l2.25-2.25c0.458-0.459 0.687-1.021 0.687-1.688s-0.229-1.25-0.687-1.75zM24 21.625v6.375h-20v-20h14.375c0.208 0 0.375-0.063 0.5-0.188l2.5-2.562c0.25-0.208 0.313-0.469 0.188-0.781-0.125-0.313-0.355-0.469-0.688-0.469h-17.875c-0.833 0-1.542 0.292-2.125 0.875s-0.875 1.292-0.875 2.125v22c0 0.833 0.292 1.542 0.875 2.125s1.292 0.875 2.125 0.875h22c0.833 0 1.542-0.292 2.125-0.875s0.875-1.292 0.875-2.125v-9.875c0-0.333-0.156-0.563-0.469-0.688-0.312-0.125-0.573-0.062-0.781 0.188l-2.5 2.5c-0.167 0.125-0.25 0.292-0.25 0.5z"></path>
</svg>
