<!-- Generated by IcoMoon.io -->
<svg version="1.1" xmlns="http://www.w3.org/2000/svg" width="32" height="32" viewBox="0 0 32 32">
<title>ellipsis-h</title>
<path d="M20.5 16c0-1.25-0.438-2.313-1.313-3.188s-1.937-1.312-3.187-1.312-2.313 0.438-3.188 1.313c-0.874 0.874-1.312 1.937-1.312 3.187s0.438 2.313 1.313 3.188c0.874 0.875 1.937 1.312 3.187 1.312s2.313-0.438 3.188-1.313c0.875-0.875 1.312-1.937 1.312-3.187zM27 11.5c-1.25 0-2.313 0.438-3.188 1.313s-1.312 1.937-1.312 3.187 0.438 2.313 1.313 3.188c0.875 0.875 1.937 1.312 3.187 1.312s2.313-0.438 3.188-1.313c0.875-0.875 1.312-1.937 1.312-3.187s-0.438-2.313-1.313-3.188c-0.875-0.874-1.937-1.312-3.187-1.312zM5 11.5c-1.25 0-2.313 0.438-3.188 1.313-0.874 0.874-1.312 1.937-1.312 3.187s0.438 2.313 1.313 3.188c0.875 0.875 1.937 1.312 3.187 1.312s2.313-0.438 3.188-1.313c0.874-0.875 1.312-1.937 1.312-3.187s-0.438-2.313-1.313-3.188c-0.874-0.874-1.937-1.312-3.187-1.312z"></path>
</svg>
