<!-- Generated by IcoMoon.io -->
<svg version="1.1" xmlns="http://www.w3.org/2000/svg" width="32" height="32" viewBox="0 0 32 32">
<title>envelope-o</title>
<path d="M29 4h-26c-0.833 0-1.542 0.292-2.125 0.875s-0.875 1.292-0.875 2.125v18c0 0.833 0.292 1.542 0.875 2.125s1.292 0.875 2.125 0.875h26c0.833 0 1.542-0.292 2.125-0.875s0.875-1.292 0.875-2.125v-18c0-0.833-0.292-1.542-0.875-2.125s-1.292-0.875-2.125-0.875zM29 7v2.563c-1.458 1.208-4.271 3.416-8.438 6.624l-0.562 0.5c-0.833 0.709-1.5 1.209-2 1.5-0.792 0.542-1.458 0.813-2 0.813s-1.208-0.271-2-0.813c-0.5-0.291-1.167-0.791-2-1.5l-0.562-0.5c-4.167-3.25-6.98-5.458-8.438-6.625v-2.562h26zM3 25v-11.625l7.188 5.75c1.083 0.875 1.937 1.5 2.562 1.875 1.167 0.667 2.25 1 3.25 1s2.063-0.333 3.188-1c0.666-0.375 1.52-1 2.562-1.875l7.25-5.75v11.625h-26z"></path>
</svg>
