<!-- Generated by IcoMoon.io -->
<svg version="1.1" xmlns="http://www.w3.org/2000/svg" width="32" height="32" viewBox="0 0 32 32">
<title>envelope</title>
<path d="M31.375 11.938c0.125-0.126 0.26-0.146 0.406-0.063s0.219 0.208 0.219 0.375v12.75c0 0.833-0.292 1.542-0.875 2.125s-1.292 0.875-2.125 0.875h-26c-0.833 0-1.542-0.292-2.125-0.875s-0.875-1.292-0.875-2.125v-12.75c0-0.167 0.073-0.281 0.219-0.344s0.281-0.052 0.406 0.031c1.375 1.042 4.583 3.396 9.625 7.063l0.625 0.563c1 0.75 1.792 1.291 2.375 1.625 1 0.541 1.917 0.812 2.75 0.812s1.75-0.292 2.75-0.875c0.625-0.333 1.417-0.875 2.375-1.625l0.625-0.5c4.917-3.542 8.125-5.896 9.625-7.063zM16 20.001c-0.542 0-1.208-0.25-2-0.75-0.458-0.25-1.104-0.708-1.938-1.375l-0.624-0.438c-5.125-3.75-8.605-6.333-10.438-7.75l-0.437-0.312c-0.375-0.292-0.563-0.688-0.563-1.188v-1.187c0-0.833 0.292-1.542 0.875-2.125s1.292-0.875 2.125-0.875h26c0.833 0 1.542 0.292 2.125 0.875s0.875 1.292 0.875 2.125v1.187c0 0.5-0.188 0.896-0.563 1.188l-0.312 0.25c-1.792 1.417-5.313 4.021-10.563 7.812l-0.624 0.438c-0.834 0.667-1.48 1.125-1.938 1.375-0.792 0.5-1.458 0.75-2 0.75z"></path>
</svg>
