<!-- Generated by IcoMoon.io -->
<svg version="1.1" xmlns="http://www.w3.org/2000/svg" width="32" height="32" viewBox="0 0 32 32">
<title>exchange-alt</title>
<path d="M0 10.5v-1c0-0.417 0.146-0.771 0.438-1.063 0.291-0.291 0.645-0.437 1.062-0.437h22.5v-3c0-0.417 0.146-0.771 0.438-1.062s0.645-0.438 1.062-0.438 0.771 0.146 1.063 0.438l5 5c0.291 0.291 0.437 0.645 0.437 1.062s-0.146 0.771-0.438 1.063l-5 5c-0.291 0.291-0.645 0.437-1.062 0.437s-0.771-0.146-1.063-0.438c-0.291-0.291-0.437-0.645-0.437-1.062v-3h-22.5c-0.417 0-0.771-0.146-1.063-0.438s-0.437-0.645-0.437-1.062zM30.5 20c0.417 0 0.771 0.146 1.063 0.438s0.437 0.645 0.437 1.062v1c0 0.417-0.146 0.771-0.438 1.063s-0.645 0.437-1.062 0.437h-22.5v3c0 0.417-0.146 0.771-0.438 1.063s-0.645 0.437-1.062 0.437-0.771-0.146-1.063-0.438l-5-5c-0.291-0.291-0.437-0.645-0.437-1.062s0.146-0.771 0.437-1.063l5.001-5c0.291-0.291 0.645-0.437 1.062-0.437s0.771 0.146 1.062 0.437c0.292 0.292 0.438 0.646 0.438 1.063v3h22.5z"></path>
</svg>
