<!-- Generated by IcoMoon.io -->
<svg version="1.1" xmlns="http://www.w3.org/2000/svg" width="32" height="32" viewBox="0 0 32 32">
<title>exclamation</title>
<path d="M21 27c0 1.375-0.49 2.552-1.469 3.531s-2.156 1.469-3.531 1.469c-1.375 0-2.552-0.49-3.531-1.469s-1.469-2.156-1.469-3.531c0-1.375 0.49-2.552 1.469-3.531s2.156-1.469 3.531-1.469c1.375 0 2.552 0.49 3.531 1.469s1.469 2.156 1.469 3.531zM11.563 1.562c0-0.416 0.145-0.781 0.437-1.093 0.292-0.313 0.646-0.469 1.063-0.469h5.875c0.416 0 0.77 0.156 1.062 0.469s0.438 0.677 0.438 1.093l-0.875 17.001c0 0.416-0.146 0.76-0.438 1.031s-0.646 0.406-1.062 0.406h-4.125c-0.417 0-0.771-0.135-1.063-0.406s-0.437-0.615-0.437-1.032l-0.875-17z"></path>
</svg>
