<!-- Generated by IcoMoon.io -->
<svg version="1.1" xmlns="http://www.w3.org/2000/svg" width="36" height="32" viewBox="0 0 36 32">
<title>exclamation-triangle</title>
<path d="M35.625 27.508c0.333 0.666 0.438 1.344 0.313 2.031-0.125 0.688-0.459 1.271-1 1.75-0.542 0.479-1.188 0.719-1.938 0.719h-30c-0.75 0-1.396-0.24-1.937-0.719s-0.875-1.062-1-1.75c-0.125-0.687-0.021-1.365 0.312-2.031l15-26c0.375-0.667 0.906-1.115 1.594-1.344 0.687-0.229 1.375-0.229 2.062 0s1.219 0.677 1.594 1.344l15 26zM18 22.133c-0.792 0-1.469 0.281-2.031 0.844-0.563 0.562-0.844 1.239-0.844 2.031s0.281 1.469 0.844 2.031c0.562 0.563 1.239 0.844 2.031 0.844s1.469-0.281 2.031-0.844c0.563-0.562 0.844-1.24 0.844-2.031 0-0.792-0.281-1.469-0.844-2.031-0.562-0.563-1.239-0.844-2.031-0.844zM15.25 11.82l0.5 8.5c0 0.167 0.073 0.323 0.219 0.469s0.323 0.219 0.531 0.219h3c0.208 0 0.385-0.073 0.531-0.219s0.219-0.302 0.219-0.469l0.5-8.5c0-0.25-0.073-0.448-0.219-0.593-0.146-0.146-0.323-0.219-0.531-0.219h-4c-0.208 0-0.385 0.073-0.531 0.219s-0.219 0.343-0.219 0.593z"></path>
</svg>
