<!-- Generated by IcoMoon.io -->
<svg version="1.1" xmlns="http://www.w3.org/2000/svg" width="32" height="32" viewBox="0 0 32 32">
<title>expand</title>
<path d="M2 11.25c0 0.208 0.073 0.385 0.219 0.531s0.323 0.219 0.531 0.219h2.5c0.208 0 0.385-0.073 0.531-0.219s0.219-0.323 0.219-0.531v-5.25h5.25c0.208 0 0.385-0.073 0.531-0.219s0.219-0.323 0.219-0.531v-2.5c0-0.208-0.073-0.385-0.219-0.531s-0.323-0.219-0.531-0.219h-7.75c-0.417 0-0.771 0.146-1.063 0.438s-0.437 0.645-0.437 1.062v7.75zM20 2.75v2.5c0 0.208 0.073 0.385 0.219 0.531s0.323 0.219 0.531 0.219h5.25v5.25c0 0.208 0.073 0.385 0.219 0.531s0.323 0.219 0.531 0.219h2.5c0.208 0 0.385-0.073 0.531-0.219s0.219-0.323 0.219-0.531v-7.75c0-0.417-0.146-0.771-0.438-1.063s-0.645-0.437-1.062-0.437h-7.75c-0.208 0-0.385 0.073-0.531 0.219s-0.219 0.323-0.219 0.531zM29.25 20h-2.5c-0.208 0-0.385 0.073-0.531 0.219s-0.219 0.323-0.219 0.531v5.25h-5.25c-0.208 0-0.385 0.073-0.531 0.219s-0.219 0.323-0.219 0.531v2.5c0 0.208 0.073 0.385 0.219 0.531s0.323 0.219 0.531 0.219h7.75c0.417 0 0.771-0.146 1.063-0.438s0.437-0.645 0.437-1.062v-7.75c0-0.208-0.073-0.385-0.219-0.531s-0.323-0.219-0.531-0.219zM12 29.25v-2.5c0-0.208-0.073-0.385-0.219-0.531s-0.323-0.219-0.531-0.219h-5.25v-5.25c0-0.208-0.073-0.385-0.219-0.531s-0.323-0.219-0.531-0.219h-2.5c-0.208 0-0.385 0.073-0.531 0.219s-0.219 0.323-0.219 0.531v7.75c0 0.417 0.146 0.771 0.438 1.063s0.645 0.437 1.062 0.437h7.75c0.208 0 0.385-0.073 0.531-0.219s0.219-0.323 0.219-0.531z"></path>
</svg>
