<!-- Generated by IcoMoon.io -->
<svg version="1.1" xmlns="http://www.w3.org/2000/svg" width="32" height="32" viewBox="0 0 32 32">
<title>expand-arrows-alt</title>
<path d="M30 21.5v7c0 0.417-0.146 0.771-0.438 1.063s-0.645 0.437-1.062 0.437h-7c-0.417 0-0.771-0.146-1.063-0.438s-0.437-0.645-0.437-1.062 0.146-0.771 0.438-1.063l2.25-2.25-6.688-6.687-6.688 6.688 2.25 2.25c0.292 0.291 0.438 0.645 0.438 1.062s-0.146 0.771-0.438 1.063c-0.291 0.291-0.645 0.437-1.062 0.437h-7c-0.417 0-0.771-0.146-1.063-0.438s-0.437-0.645-0.437-1.062v-7c0-0.417 0.146-0.771 0.437-1.063s0.646-0.437 1.063-0.437 0.771 0.146 1.062 0.438l2.25 2.25 6.75-6.688-6.75-6.688-2.25 2.25c-0.291 0.292-0.645 0.438-1.062 0.438s-0.771-0.146-1.063-0.438c-0.291-0.291-0.437-0.645-0.437-1.062v-7c0-0.417 0.146-0.771 0.437-1.063s0.646-0.437 1.063-0.437h7c0.417 0 0.771 0.146 1.063 0.437s0.437 0.646 0.437 1.063-0.146 0.771-0.438 1.062l-2.249 2.25 6.687 6.688 6.688-6.688-2.25-2.25c-0.292-0.291-0.438-0.645-0.438-1.062s0.146-0.771 0.438-1.063c0.291-0.291 0.645-0.437 1.062-0.437h7c0.417 0 0.771 0.146 1.063 0.437s0.437 0.646 0.437 1.063v7c0 0.417-0.146 0.771-0.438 1.062-0.291 0.292-0.645 0.438-1.062 0.438s-0.771-0.146-1.063-0.438l-2.25-2.25-6.687 6.688 6.688 6.688 2.25-2.25c0.291-0.292 0.645-0.438 1.062-0.438s0.771 0.146 1.063 0.438c0.291 0.291 0.437 0.645 0.437 1.062z"></path>
</svg>
