<!-- Generated by IcoMoon.io -->
<svg version="1.1" xmlns="http://www.w3.org/2000/svg" width="36" height="32" viewBox="0 0 36 32">
<title>external-link</title>
<path d="M36 1.5v8c0 0.417-0.146 0.771-0.437 1.063-0.292 0.291-0.646 0.437-1.063 0.437s-0.771-0.146-1.062-0.438l-2.25-2.249-15.188 15.25c-0.292 0.291-0.646 0.437-1.062 0.437-0.417 0-0.771-0.146-1.063-0.438l-1.437-1.437c-0.292-0.292-0.438-0.646-0.438-1.063s0.146-0.77 0.438-1.062l15.25-15.188-2.25-2.249c-0.292-0.292-0.438-0.646-0.438-1.063s0.146-0.771 0.438-1.062c0.291-0.292 0.645-0.438 1.062-0.438h8c0.417 0 0.771 0.146 1.063 0.438 0.291 0.291 0.437 0.645 0.437 1.062zM25.438 16.938c0.291-0.334 0.645-0.49 1.062-0.469s0.771 0.166 1.063 0.437c0.291 0.271 0.437 0.636 0.437 1.094v11c0 0.833-0.292 1.542-0.875 2.125s-1.292 0.875-2.125 0.875h-22c-0.833 0-1.542-0.292-2.125-0.875s-0.875-1.292-0.875-2.125v-22c0-0.833 0.292-1.542 0.875-2.125s1.292-0.875 2.125-0.875h18.5c0.417 0 0.771 0.146 1.063 0.438s0.437 0.645 0.437 1.062-0.146 0.771-0.437 1.063l-1 1c-0.292 0.291-0.646 0.437-1.063 0.437h-16.5v20h20v-9c0-0.417 0.146-0.771 0.438-1.063l1-1z"></path>
</svg>
