<!-- Generated by IcoMoon.io -->
<svg version="1.1" xmlns="http://www.w3.org/2000/svg" width="36" height="32" viewBox="0 0 36 32">
<title>eye-o</title>
<path d="M35.563 14.5c-1.792-3.042-4.23-5.458-7.313-7.25-3.125-1.833-6.542-2.75-10.25-2.75s-7.125 0.917-10.25 2.75c-3.083 1.792-5.521 4.208-7.312 7.25-0.292 0.458-0.438 0.958-0.438 1.5s0.146 1.042 0.438 1.5c1.791 3.042 4.229 5.458 7.312 7.25 3.125 1.833 6.542 2.75 10.25 2.75s7.125-0.917 10.25-2.75c3.083-1.792 5.521-4.208 7.313-7.25 0.291-0.458 0.437-0.958 0.437-1.5s-0.146-1.042-0.437-1.5zM18 24.5c-3.167 0-6.073-0.771-8.719-2.313s-4.739-3.604-6.281-6.187c1.417-2.375 3.313-4.313 5.688-5.813s4.979-2.375 7.812-2.625c0.667 0.667 1 1.48 1 2.438s-0.344 1.781-1.031 2.469c-0.688 0.687-1.511 1.031-2.469 1.031s-1.781-0.344-2.469-1.031c-0.687-0.688-1.031-1.511-1.031-2.469-0.667 1.25-1 2.583-1 4 0 1.542 0.385 2.958 1.156 4.25s1.802 2.323 3.094 3.094c1.292 0.771 2.708 1.156 4.25 1.156s2.958-0.385 4.25-1.156c1.292-0.771 2.323-1.802 3.094-3.094s1.156-2.708 1.156-4.25c0-1.917-0.583-3.646-1.75-5.188 1.75 0.75 3.323 1.74 4.719 2.969s2.573 2.636 3.531 4.219c-1.542 2.583-3.635 4.646-6.281 6.188s-5.552 2.312-8.719 2.312z"></path>
</svg>
