<!-- Generated by IcoMoon.io -->
<svg version="1.1" xmlns="http://www.w3.org/2000/svg" width="36" height="32" viewBox="0 0 36 32">
<title>eye-slash</title>
<path d="M17.938 24.5l2 2.937c-0.625 0.042-1.271 0.063-1.938 0.063-3.708 0-7.125-0.917-10.25-2.75-3.083-1.792-5.521-4.208-7.312-7.25-0.292-0.458-0.438-0.958-0.438-1.5s0.146-1.042 0.438-1.5c1.5-2.583 3.5-4.729 6-6.438l3.562 5.125c-0.333 0.917-0.5 1.855-0.5 2.813 0 1.542 0.375 2.958 1.125 4.25s1.771 2.323 3.063 3.094c1.291 0.771 2.708 1.156 4.25 1.156zM35.563 17.5c-0.959 1.708-2.167 3.229-3.625 4.562-1.459 1.334-3.063 2.438-4.813 3.313l2.625 3.687c0.208 0.334 0.281 0.709 0.219 1.125-0.063 0.417-0.261 0.73-0.594 0.938l-0.812 0.625c-0.334 0.208-0.709 0.281-1.125 0.219-0.417-0.063-0.75-0.261-1-0.594l-20.188-28.438c-0.208-0.333-0.281-0.708-0.219-1.125 0.063-0.416 0.261-0.729 0.594-0.937l0.813-0.625c0.333-0.208 0.708-0.281 1.125-0.219s0.75 0.261 1 0.594l3.187 4.562c1.708-0.458 3.458-0.687 5.25-0.687 3.708 0 7.125 0.917 10.25 2.75 3.083 1.792 5.521 4.208 7.313 7.25 0.291 0.458 0.437 0.958 0.437 1.5s-0.146 1.042-0.437 1.5zM26.5 16c0-1.542-0.385-2.958-1.156-4.25s-1.802-2.323-3.094-3.094c-1.292-0.771-2.708-1.156-4.25-1.156-1.083 0-2.146 0.208-3.187 0.625l1.25 1.687c0.791-0.25 1.625-0.343 2.5-0.281 0.875 0.063 1.708 0.302 2.5 0.719-0.75 0-1.386 0.26-1.907 0.781s-0.781 1.156-0.781 1.906c0 0.75 0.26 1.386 0.781 1.907s1.157 0.781 1.907 0.781c0.75 0 1.385-0.26 1.906-0.781s0.781-1.157 0.781-1.907c0.583 1.084 0.833 2.25 0.75 3.5s-0.5 2.396-1.25 3.438l1.188 1.687c1.375-1.583 2.062-3.437 2.062-5.562zM16.375 22.312c-1.542-0.416-2.771-1.27-3.687-2.562-0.917-1.292-1.313-2.75-1.188-4.375l4.875 6.937z"></path>
</svg>
