<!-- Generated by IcoMoon.io -->
<svg version="1.1" xmlns="http://www.w3.org/2000/svg" width="36" height="32" viewBox="0 0 36 32">
<title>eye-slash-o</title>
<path d="M17.063 22.437c-1.667-0.166-3.136-0.77-4.407-1.812s-2.177-2.333-2.718-3.875c-0.542-1.542-0.605-3.125-0.188-4.75l7.313 10.437zM18.5 24.5l2 2.875c-0.833 0.083-1.667 0.125-2.5 0.125-3.708 0-7.125-0.917-10.25-2.75-3.083-1.792-5.521-4.208-7.312-7.25-0.292-0.458-0.438-0.958-0.438-1.5s0.146-1.042 0.438-1.5c1.583-2.708 3.708-4.938 6.375-6.688l1.687 2.438c-2.292 1.5-4.125 3.417-5.5 5.75 1.542 2.583 3.635 4.646 6.281 6.187 2.646 1.542 5.552 2.313 8.719 2.313h0.5zM35.563 17.5c-1.042 1.792-2.323 3.375-3.844 4.75s-3.219 2.5-5.094 3.375l3 4.312c0.125 0.167 0.167 0.344 0.125 0.532s-0.146 0.343-0.312 0.468l-1.313 0.938c-0.167 0.125-0.354 0.167-0.562 0.125s-0.355-0.146-0.438-0.313l-20.75-29.625c-0.125-0.166-0.167-0.343-0.125-0.531 0.042-0.187 0.146-0.344 0.313-0.469l1.312-0.937c0.167-0.125 0.354-0.167 0.563-0.125 0.208 0.042 0.354 0.146 0.437 0.312l3.5 4.938c1.833-0.5 3.708-0.75 5.625-0.75 3.708 0 7.125 0.917 10.25 2.75 3.083 1.792 5.521 4.208 7.313 7.25 0.291 0.458 0.437 0.958 0.437 1.5s-0.146 1.042-0.437 1.5zM33 16c-1.417-2.375-3.312-4.313-5.687-5.813s-4.98-2.375-7.813-2.625c-0.667 0.667-1 1.48-1 2.438s0.344 1.781 1.031 2.469c0.688 0.687 1.511 1.031 2.469 1.031s1.781-0.344 2.469-1.031c0.687-0.688 1.031-1.511 1.031-2.469 0.958 1.792 1.229 3.708 0.813 5.75-0.417 2.042-1.459 3.708-3.125 5l1.687 2.375c1.708-0.75 3.26-1.729 4.656-2.938 1.396-1.208 2.552-2.604 3.469-4.187z"></path>
</svg>
