<!-- Generated by IcoMoon.io -->
<svg version="1.1" xmlns="http://www.w3.org/2000/svg" width="36" height="32" viewBox="0 0 36 32">
<title>eye</title>
<path d="M35.563 14.5c-1.792-3.042-4.23-5.458-7.313-7.25-3.125-1.833-6.542-2.75-10.25-2.75s-7.125 0.917-10.25 2.75c-3.083 1.792-5.521 4.208-7.312 7.25-0.292 0.458-0.438 0.958-0.438 1.5s0.146 1.042 0.438 1.5c1.791 3.042 4.229 5.458 7.312 7.25 3.125 1.833 6.542 2.75 10.25 2.75s7.125-0.917 10.25-2.75c3.083-1.792 5.521-4.208 7.313-7.25 0.291-0.458 0.437-0.958 0.437-1.5s-0.146-1.042-0.437-1.5zM18 24.5c-1.542 0-2.958-0.385-4.25-1.156s-2.323-1.802-3.094-3.094c-0.771-1.292-1.156-2.708-1.156-4.25s0.385-2.958 1.156-4.25c0.771-1.292 1.802-2.323 3.094-3.094s2.708-1.156 4.25-1.156c1.542 0 2.958 0.385 4.25 1.156s2.323 1.802 3.094 3.094c0.771 1.292 1.156 2.708 1.156 4.25s-0.385 2.958-1.156 4.25c-0.771 1.292-1.802 2.323-3.094 3.094s-2.708 1.156-4.25 1.156zM24.5 16c0-1.792-0.635-3.323-1.906-4.594s-2.802-1.906-4.594-1.906c-1.083 0-2.104 0.25-3.062 0.75 0.75 0 1.385 0.26 1.906 0.781s0.781 1.157 0.781 1.907c0 0.75-0.26 1.385-0.781 1.906s-1.156 0.781-1.906 0.781c-0.75 0-1.386-0.26-1.907-0.781s-0.781-1.156-0.781-1.906c-0.5 0.958-0.75 1.979-0.75 3.062 0 1.792 0.635 3.323 1.906 4.594s2.802 1.906 4.594 1.906c1.792 0 3.323-0.635 4.594-1.906s1.906-2.802 1.906-4.594z"></path>
</svg>
