<!-- Generated by IcoMoon.io -->
<svg version="1.1" xmlns="http://www.w3.org/2000/svg" width="32" height="32" viewBox="0 0 32 32">
<title>factor</title>
<path d="M26.113 31.996c-1.604-3.835-2.166-6.352-2.033-8.948 0.045-0.897 0.536-1.904 1.547-3.269 1.011-1.368 2.558-4.577 2.972-7.196s-0.384-6.245-1.961-8.324c-1.832-2.41-5.056-4.068-8.386-4.224-3.523-0.163-6.363 0.213-8.621 1.654s-3.242 3.668-3.6 5.603c-0.357 1.935-0.893 2.273-0.353 3.509 0.441 1.011 0.068 2.010-0.707 3.052-0.776 1.041-1.764 2.269-1.673 2.923 0.088 0.654 0.894 0.802 1.19 0.92s1.045 0.11 0.376 1.577c-0.286 0.628-0.496 1.226 0.487 1.487-0.559 0.338-0.547 0.766-0.551 0.99s0.464 0.549 0.625 0.75c0.212 0.265 0.042 0.28-0.131 1-0.239 0.981-0.175 1.962 0.772 2.137 1.82 0.334 2.873-0.031 4.048-0.012 0.714 0.012 1.46 0.437 1.661 1.053 0.296 0.916 0.494 2.289 0.357 3.478-0.106 0.932-0.277 1.266-0.566 1.844 1.182-0.004 14.547-0.004 14.547-0.004zM10.434 9.269l0.381 0.546c0.299 0.431 0.597 0.807 0.895 1.127 0.42 0.442 0.801 0.746 1.144 0.912 0.42 0.199 0.762 0.166 1.027-0.1 0.067-0.066 0.116-0.171 0.149-0.314 0.012-0.078 0.028-0.216 0.050-0.415 0.022-0.287 0.061-0.502 0.116-0.646 0.067-0.243 0.188-0.453 0.365-0.63 0.298-0.298 0.627-0.428 0.986-0.389 0.359 0.038 0.688 0.207 0.986 0.505s0.464 0.624 0.497 0.978-0.088 0.668-0.364 0.945c-0.155 0.154-0.332 0.265-0.531 0.331-0.103 0.042-0.263 0.076-0.478 0.103l-0.088 0.010c-0.215 0.027-0.374 0.061-0.478 0.103-0.177 0.066-0.326 0.16-0.447 0.281-0.343 0.343-0.293 0.779 0.149 1.31 0.254 0.32 0.773 0.784 1.558 1.392 0.431 0.342 0.718 0.585 0.861 0.729l0.232-0.398c0.199-0.287 0.398-0.541 0.597-0.762 0.276-0.299 0.536-0.492 0.779-0.58 0.309-0.111 0.58-0.050 0.812 0.182 0.122 0.122 0.216 0.271 0.282 0.447l0.215 1.045c0.067 0.198 0.177 0.375 0.332 0.53 0.287 0.287 0.607 0.414 0.961 0.381s0.679-0.199 0.978-0.497c0.298-0.298 0.469-0.624 0.514-0.978 0.044-0.398-0.083-0.746-0.382-1.044-0.165-0.166-0.364-0.298-0.596-0.398-0.144-0.055-0.343-0.11-0.597-0.165-0.177-0.045-0.309-0.078-0.398-0.1-0.11-0.044-0.204-0.105-0.281-0.182-0.221-0.221-0.216-0.514 0.016-0.879 0.199-0.287 0.542-0.618 1.028-0.994 0.342-0.254 0.74-0.519 1.193-0.795l0.597-0.332-0.696-0.331c-0.542-0.254-1.017-0.52-1.426-0.796-0.563-0.387-0.95-0.751-1.16-1.094-0.254-0.408-0.226-0.768 0.083-1.077 0.133-0.132 0.287-0.232 0.464-0.298 0.099-0.033 0.268-0.064 0.506-0.091 0.237-0.028 0.417-0.069 0.538-0.125 0.199-0.066 0.37-0.171 0.514-0.315 0.287-0.287 0.414-0.607 0.381-0.961-0.033-0.353-0.199-0.679-0.497-0.978s-0.63-0.475-0.994-0.53c-0.398-0.044-0.741 0.077-1.028 0.365-0.177 0.177-0.309 0.386-0.398 0.629-0.066 0.133-0.121 0.332-0.165 0.597-0.045 0.177-0.078 0.298-0.1 0.365-0.044 0.132-0.099 0.232-0.166 0.298-0.486 0.486-1.198 0.227-2.138-0.779-0.464-0.508-0.883-1.061-1.259-1.657l-5.519 5.519z"></path>
</svg>
