<!-- Generated by IcoMoon.io -->
<svg version="1.1" xmlns="http://www.w3.org/2000/svg" width="36" height="32" viewBox="0 0 36 32">
<title>feedback</title>
<path d="M8.742 29.664c-1.505 0.923-4.722 2.405-7.452 2.334-0.45-0.012-0.985-0.329-1.2-0.819-0.169-0.388-0.072-0.971 0.257-1.367 0.018-0.022 1.339-1.647 2.153-3.311l-0.006-0.010c-1.564-1.52-2.494-3.424-2.494-5.49 0-4.968 5.377-9 12-9s12 4.032 12 9c0 4.967-5.377 9-12 9-1.129 0-2.222-0.118-3.258-0.337zM8.437 20.25h-1.874c-0.157 0-0.29 0.055-0.399 0.164s-0.164 0.242-0.164 0.398v5.625c0 0.157 0.055 0.29 0.164 0.399s0.242 0.164 0.399 0.164h1.874c0.157 0 0.29-0.055 0.399-0.164s0.164-0.242 0.164-0.399v-5.625c0-0.156-0.055-0.289-0.164-0.398s-0.399-0.164-0.399-0.164zM14.227 19.125c0.031-0.156 0.132-0.399 0.304-0.727 0.156-0.281 0.266-0.5 0.328-0.656 0.094-0.281 0.141-0.562 0.141-0.844 0-0.75-0.211-1.281-0.633-1.593-0.281-0.203-0.633-0.305-1.055-0.305-0.203 0-0.382 0.172-0.539 0.516-0.078 0.187-0.164 0.461-0.257 0.82v0.023c-0.079 0.344-0.149 0.594-0.211 0.75-0.094 0.266-0.219 0.477-0.375 0.633-0.25 0.235-0.563 0.625-0.938 1.172-0.453 0.656-0.836 1.149-1.148 1.477-0.063 0.047-0.094 0.109-0.094 0.187v5.016c0 0.078 0.027 0.144 0.082 0.199s0.121 0.082 0.199 0.082c0.266 0 0.668 0.121 1.207 0.363s0.965 0.41 1.278 0.504c0.531 0.172 1.046 0.258 1.546 0.258h0.071c0.687 0 1.195-0.031 1.523-0.094 0.547-0.094 0.922-0.289 1.125-0.586s0.258-0.648 0.164-1.054c0.188-0.219 0.321-0.493 0.399-0.821s0.070-0.64-0.024-0.937c0.203-0.266 0.321-0.571 0.352-0.914 0.031-0.344-0.016-0.664-0.141-0.961h0.024c0.125-0.141 0.23-0.313 0.316-0.516s0.129-0.414 0.129-0.633c0-0.359-0.137-0.675-0.41-0.949-0.274-0.273-0.606-0.41-0.996-0.41h-2.367zM7.5 26.062c0.156 0 0.289-0.054 0.398-0.164 0.11-0.109 0.164-0.242 0.164-0.398s-0.054-0.289-0.164-0.398c-0.109-0.11-0.242-0.165-0.398-0.165s-0.289 0.055-0.398 0.165c-0.11 0.109-0.164 0.242-0.164 0.398s0.054 0.289 0.164 0.398c0.109 0.11 0.242 0.164 0.398 0.164zM12.002 8.851c0.106-4.898 5.441-8.851 11.998-8.851 6.623 0 12 4.033 12 9 0 2.066-0.93 3.971-2.494 5.49l-0.006 0.010c0.814 1.664 2.135 3.289 2.153 3.312 0.329 0.396 0.426 0.979 0.257 1.366-0.215 0.49-0.75 0.807-1.2 0.819-2.73 0.071-5.947-1.41-7.452-2.333-0.339 0.071-0.684 0.132-1.034 0.181-0.393-1.008-0.953-1.967-1.645-2.857 1.068-0.045 2.086-0.215 3.021-0.488h0.117c1.125 0.964 3.126 1.668 3.126 1.668-0.447-0.793-0.949-1.546-1.272-2.457 2.088-1.099 3.429-2.801 3.429-4.711 0-3.311-4.033-6-9-6s-9 2.689-9 6c0 0.065 0.002 0.13 0.005 0.194-0.955-0.202-1.925-0.32-2.893-0.343-0.037 0-0.074 0-0.11 0z"></path>
</svg>
