<!-- Generated by IcoMoon.io -->
<svg version="1.1" xmlns="http://www.w3.org/2000/svg" width="32" height="32" viewBox="0 0 32 32">
<title>female</title>
<path d="M16 0c1.125 0 2.073 0.385 2.844 1.156s1.156 1.719 1.156 2.844c0 1.125-0.385 2.073-1.156 2.844s-1.719 1.156-2.844 1.156c-1.125 0-2.073-0.385-2.844-1.156s-1.156-1.719-1.156-2.844c0-1.125 0.385-2.073 1.156-2.844s1.719-1.156 2.844-1.156zM23.437 22.125c0.125 0.5 0.042 0.938-0.25 1.313-0.291 0.375-0.687 0.562-1.187 0.562h-3.5v6.5c0 0.417-0.146 0.771-0.438 1.063s-0.645 0.437-1.062 0.437h-2c-0.417 0-0.771-0.146-1.063-0.438s-0.437-0.645-0.437-1.062v-6.5h-3.5c-0.5 0-0.896-0.188-1.188-0.563s-0.375-0.812-0.25-1.312l3-12c0.084-0.333 0.261-0.604 0.532-0.813 0.271-0.208 0.573-0.312 0.906-0.312h0.687c0.75 0.333 1.521 0.5 2.313 0.5s1.562-0.167 2.312-0.5h0.688c0.333 0 0.635 0.104 0.906 0.313 0.271 0.208 0.448 0.479 0.531 0.812l3 12z"></path>
</svg>
