<!-- Generated by IcoMoon.io -->
<svg version="1.1" xmlns="http://www.w3.org/2000/svg" width="32" height="32" viewBox="0 0 32 32">
<title>file-invoice-dollar</title>
<path d="M27.563 6.563l-6.125-6.126c-0.292-0.291-0.646-0.437-1.063-0.437h-0.375v8h8v-0.375c0-0.417-0.146-0.771-0.438-1.062zM18.001 8.5v-8.5h-12.5c-0.417 0-0.771 0.146-1.063 0.438-0.291 0.291-0.437 0.645-0.437 1.062v29c0 0.417 0.146 0.771 0.438 1.063s0.645 0.437 1.062 0.437h21c0.417 0 0.771-0.146 1.063-0.438s0.437-0.645 0.437-1.062v-20.5h-8.5c-0.417 0-0.771-0.146-1.063-0.438s-0.437-0.645-0.437-1.062zM8.001 4.5c0-0.125 0.052-0.24 0.156-0.344s0.219-0.156 0.344-0.156h5c0.125 0 0.24 0.052 0.344 0.156s0.156 0.219 0.156 0.344v1c0 0.125-0.052 0.24-0.156 0.344s-0.219 0.156-0.344 0.156h-5c-0.125 0-0.24-0.052-0.344-0.156s-0.156-0.219-0.156-0.344v-1zM8.001 9.5v-1c0-0.125 0.052-0.24 0.156-0.344s0.219-0.156 0.344-0.156h5c0.125 0 0.24 0.052 0.344 0.156s0.156 0.219 0.156 0.344v1c0 0.125-0.052 0.24-0.156 0.344s-0.219 0.156-0.344 0.156h-5c-0.125 0-0.24-0.052-0.344-0.156s-0.156-0.219-0.156-0.344zM17.001 26v1.5c0 0.125-0.052 0.24-0.156 0.344s-0.219 0.156-0.344 0.156h-1c-0.125 0-0.24-0.052-0.344-0.156s-0.156-0.219-0.156-0.344v-1.5c-0.708-0.042-1.354-0.292-1.938-0.75-0.124-0.083-0.197-0.198-0.218-0.344s0.031-0.281 0.156-0.406l0.75-0.688c0.167-0.166 0.375-0.177 0.625-0.031s0.521 0.219 0.813 0.219h1.749c0.209 0 0.386-0.083 0.532-0.25s0.218-0.354 0.218-0.563c0-0.208-0.052-0.385-0.156-0.531s-0.239-0.239-0.406-0.281l-2.813-0.813c-0.583-0.208-1.062-0.562-1.437-1.062s-0.563-1.063-0.563-1.688c0-0.75 0.261-1.395 0.782-1.937s1.156-0.833 1.906-0.875v-1.5c0-0.125 0.052-0.24 0.156-0.344s0.219-0.156 0.344-0.156h1c0.125 0 0.24 0.052 0.344 0.156s0.156 0.219 0.156 0.344v1.5c0.708 0.042 1.354 0.292 1.937 0.75 0.125 0.083 0.198 0.198 0.219 0.344s-0.031 0.281-0.156 0.406l-0.75 0.687c-0.167 0.167-0.375 0.178-0.625 0.032s-0.521-0.219-0.813-0.219h-1.75c-0.208 0-0.385 0.083-0.531 0.25s-0.219 0.354-0.219 0.562c0 0.209 0.053 0.386 0.157 0.532s0.239 0.239 0.406 0.281l2.812 0.812c0.584 0.209 1.063 0.563 1.438 1.063s0.562 1.062 0.562 1.687c0 0.75-0.26 1.396-0.781 1.938s-1.156 0.833-1.906 0.875z"></path>
</svg>
