<!-- Generated by IcoMoon.io -->
<svg version="1.1" xmlns="http://www.w3.org/2000/svg" width="32" height="32" viewBox="0 0 32 32">
<title>file-code</title>
<path d="M28 7.625v0.375h-8v-8h0.375c0.417 0 0.771 0.146 1.063 0.438l6.125 6.125c0.291 0.291 0.437 0.645 0.437 1.062zM28 10v20.5c0 0.417-0.146 0.771-0.438 1.063s-0.645 0.437-1.062 0.437h-21c-0.417 0-0.771-0.146-1.063-0.438s-0.437-0.645-0.437-1.062v-29c0-0.417 0.146-0.771 0.438-1.063s0.645-0.437 1.062-0.437h12.5v8.5c0 0.417 0.146 0.771 0.438 1.063s0.645 0.437 1.062 0.437h8.5zM12.937 23.75c0.042-0.083 0.063-0.177 0.063-0.281s-0.042-0.177-0.125-0.219l-2.5-2.25 2.5-2.25c0.083-0.042 0.125-0.115 0.125-0.219s-0.021-0.198-0.063-0.281l-1.249-1.313c-0.042-0.041-0.115-0.062-0.219-0.062s-0.177 0.021-0.219 0.063l-4.063 3.812c-0.083 0.083-0.125 0.167-0.125 0.25s0.042 0.167 0.125 0.25l4.063 3.813c0.042 0.041 0.115 0.062 0.219 0.062s0.177-0.021 0.219-0.063l1.25-1.312zM14.937 28.188c0.083 0.041 0.166 0.031 0.25-0.032s0.125-0.135 0.125-0.218l3.875-13.188c0-0.083-0.021-0.167-0.063-0.25s-0.104-0.146-0.188-0.187l-1.75-0.5c-0.083-0.042-0.166-0.032-0.25 0.031-0.083 0.062-0.125 0.135-0.125 0.219l-3.875 13.187c0 0.083 0.021 0.167 0.063 0.25s0.104 0.146 0.187 0.188l1.75 0.5zM24.937 21.25c0.084-0.083 0.125-0.167 0.125-0.25s-0.041-0.167-0.125-0.25l-4.062-3.813c-0.042-0.041-0.115-0.062-0.219-0.062s-0.177 0.021-0.218 0.063l-1.25 1.312c-0.042 0.083-0.063 0.177-0.063 0.281s0.042 0.177 0.125 0.219l2.5 2.25-2.5 2.25c-0.083 0.042-0.125 0.115-0.125 0.219s0.021 0.198 0.063 0.281l1.25 1.313c0.041 0.041 0.114 0.062 0.218 0.062s0.177-0.021 0.219-0.063l4.063-3.812z"></path>
</svg>
