<!-- Generated by IcoMoon.io -->
<svg version="1.1" xmlns="http://www.w3.org/2000/svg" width="32" height="32" viewBox="0 0 32 32">
<title>file-review-o</title>
<path d="M25.1 32h-18.2c-2.152 0-3.9-1.748-3.9-3.9v-24.2c0-2.152 1.747-3.9 3.9-3.9h18.2c2.153 0 3.9 1.748 3.9 3.9v24.2c0 2.152-1.748 3.9-3.9 3.9zM26 3h-20v26h20v-26zM12.875 23.188c0.083-0.084 0.125-0.177 0.125-0.282 0-0.104-0.031-0.187-0.094-0.25l-0.531-0.531c-0.083-0.083-0.177-0.125-0.281-0.125s-0.188 0.042-0.25 0.125l-2 1.969-0.719-0.688c-0.063-0.062-0.146-0.093-0.25-0.093s-0.198 0.031-0.281 0.093l-0.5 0.5c-0.063 0.084-0.094 0.172-0.094 0.266s0.042 0.182 0.125 0.266l1.469 1.468c0.083 0.084 0.177 0.125 0.281 0.125s0.198-0.041 0.281-0.125l0.469-0.468 2.281-2.25h-0.031zM23.5 25.156h-9c-0.146 0-0.266-0.047-0.359-0.14-0.094-0.094-0.141-0.214-0.141-0.36v-1.25c0-0.145 0.047-0.265 0.141-0.359s0.213-0.141 0.359-0.141h9c0.146 0 0.266 0.047 0.359 0.141s0.141 0.214 0.141 0.359v1.25c0 0.146-0.047 0.266-0.141 0.36-0.093 0.093-0.213 0.14-0.359 0.14zM11.523 15.999l0.838-0.837c0.091-0.092 0.137-0.204 0.137-0.337s-0.046-0.249-0.137-0.351l-0.337-0.336c-0.102-0.092-0.219-0.138-0.351-0.138s-0.245 0.046-0.336 0.138l-0.838 0.837-0.836-0.836c-0.091-0.092-0.203-0.138-0.336-0.138-0.132 0-0.249 0.046-0.351 0.138l-0.337 0.336c-0.091 0.102-0.137 0.219-0.137 0.352 0 0.132 0.046 0.244 0.137 0.336l0.836 0.836-0.837 0.838c-0.092 0.092-0.138 0.204-0.138 0.336 0 0.133 0.046 0.25 0.138 0.352l0.336 0.336c0.102 0.092 0.219 0.138 0.351 0.138s0.245-0.046 0.336-0.138l0.838-0.838 0.84 0.839c0.091 0.092 0.203 0.138 0.336 0.138 0.132 0 0.249-0.046 0.351-0.138l0.336-0.336c0.092-0.102 0.138-0.219 0.138-0.351 0-0.133-0.046-0.245-0.138-0.337l-0.839-0.839zM23.5 17.141h-9c-0.146 0-0.266-0.047-0.359-0.141s-0.141-0.213-0.141-0.359v-1.25c0-0.146 0.047-0.266 0.141-0.36s0.213-0.14 0.359-0.14h9c0.146 0 0.266 0.047 0.359 0.14s0.141 0.214 0.141 0.36v1.25c0 0.146-0.047 0.265-0.141 0.359s-0.213 0.141-0.359 0.141zM12.875 7.187c0.083-0.083 0.125-0.177 0.125-0.281s-0.031-0.187-0.094-0.25l-0.531-0.531c-0.083-0.083-0.177-0.125-0.281-0.125s-0.188 0.042-0.25 0.125l-2 1.969-0.719-0.688c-0.063-0.062-0.146-0.094-0.25-0.094s-0.198 0.032-0.281 0.094l-0.5 0.5c-0.063 0.084-0.094 0.172-0.094 0.266s0.042 0.182 0.125 0.265l1.469 1.469c0.083 0.084 0.177 0.125 0.281 0.125s0.198-0.041 0.281-0.125l0.469-0.469 2.281-2.25h-0.031zM23.5 9.156h-9c-0.146 0-0.266-0.047-0.359-0.14s-0.141-0.214-0.141-0.36v-1.25c0-0.146 0.047-0.265 0.141-0.359s0.213-0.141 0.359-0.141h9c0.146 0 0.266 0.047 0.359 0.141s0.141 0.213 0.141 0.359v1.25c0 0.146-0.047 0.266-0.141 0.36s-0.213 0.14-0.359 0.14z"></path>
</svg>
