<!-- Generated by IcoMoon.io -->
<svg version="1.1" xmlns="http://www.w3.org/2000/svg" width="32" height="32" viewBox="0 0 32 32">
<title>file-import-o</title>
<path d="M8 18.083v-15.083c0-1.656 1.344-3 3-3h12.756c0.794 0 1.556 0.319 2.119 0.881l5.244 5.244c0.563 0.556 0.881 1.325 0.881 2.119v20.756c0 1.656-1.344 3-3 3h-18c-1.656 0-3-1.344-3-3v-6.917h-7c-0.292 0-0.531-0.093-0.719-0.281s-0.281-0.427-0.281-0.719v-2c0-0.291 0.094-0.531 0.281-0.718s0.427-0.282 0.719-0.282h7zM21 3h-10v15.083h-3v4h3v6.917h18v-18h-6.5c-0.831 0-1.5-0.669-1.5-1.5v-6.5zM11 18.083h5v-4.062c0-0.459 0.208-0.771 0.625-0.938s0.771-0.083 1.063 0.25l6 6c0.208 0.209 0.312 0.459 0.312 0.75 0 0.292-0.104 0.542-0.312 0.75l-6 6c-0.292 0.334-0.646 0.417-1.063 0.25-0.417-0.166-0.625-0.479-0.625-0.937v-4.063h-5v-4zM24 3.244v4.756h4.756l-4.756-4.756z"></path>
</svg>
