<!-- Generated by IcoMoon.io -->
<svg version="1.1" xmlns="http://www.w3.org/2000/svg" width="32" height="32" viewBox="0 0 32 32">
<title>file-excel</title>
<path d="M18 8.5c0 0.417 0.146 0.771 0.438 1.063s0.645 0.437 1.062 0.437h8.5v20.5c0 0.417-0.146 0.771-0.438 1.063s-0.645 0.437-1.062 0.437h-21c-0.417 0-0.771-0.146-1.063-0.438s-0.437-0.645-0.437-1.062v-29c0-0.417 0.146-0.771 0.438-1.063s0.645-0.437 1.062-0.437h12.5v8.5zM21.75 15.188c0.167-0.292 0.177-0.563 0.031-0.813s-0.364-0.375-0.656-0.375h-2.188c-0.291 0-0.5 0.125-0.625 0.375l-2.312 4.313c-0.375-0.834-0.708-1.5-1-2-0.375-0.667-0.813-1.438-1.313-2.313-0.124-0.25-0.333-0.375-0.624-0.375h-2.188c-0.292 0-0.51 0.135-0.656 0.406s-0.136 0.532 0.031 0.782l3.75 5.812-3.75 5.875c-0.167 0.25-0.177 0.5-0.031 0.75s0.364 0.375 0.656 0.375h2.188c0.291 0 0.5-0.125 0.625-0.375l1.187-2.063c0.542-1.083 0.917-1.833 1.125-2.25l2.313 4.313c0.125 0.25 0.333 0.375 0.625 0.375h2.187c0.292 0 0.51-0.125 0.656-0.375s0.136-0.521-0.031-0.813l-3.75-5.812 3.75-5.875v0.063zM28 7.625v0.375h-8v-8h0.375c0.417 0 0.771 0.146 1.063 0.438l6.125 6.125c0.291 0.291 0.437 0.645 0.437 1.062z"></path>
</svg>
