<!-- Generated by IcoMoon.io -->
<svg version="1.1" xmlns="http://www.w3.org/2000/svg" width="32" height="32" viewBox="0 0 32 32">
<title>file-user-o</title>
<path d="M25 32h-18c-1.656 0-3-1.344-3-3v-26c0-1.656 1.344-3 3-3h12.756c0.794 0 1.556 0.319 2.119 0.881l5.244 5.244c0.563 0.556 0.881 1.325 0.881 2.119v20.756c0 1.656-1.344 3-3 3zM17 3h-10v26h18v-18h-6.5c-0.831 0-1.5-0.669-1.5-1.5v-6.5zM20.813 27h-9.625c-0.725 0-1.313-0.588-1.313-1.313v-0.7c0-2.029 1.646-3.675 3.675-3.675 0.787 0 1.162 0.438 2.45 0.438s1.665-0.438 2.45-0.438c2.029 0 3.675 1.647 3.675 3.675v0.7c0 0.725-0.588 1.313-1.313 1.313zM16.001 20.875c2.174 0 3.938-1.764 3.938-3.938s-1.764-3.937-3.938-3.937-3.937 1.764-3.937 3.938c0 2.173 1.763 3.937 3.937 3.937zM14.501 11.25h-5c-0.146 0-0.266-0.047-0.359-0.141s-0.141-0.213-0.141-0.359v-1.25c0-0.146 0.047-0.266 0.141-0.359s0.213-0.141 0.359-0.141h5c0.146 0 0.266 0.047 0.359 0.141s0.141 0.213 0.141 0.359v1.25c0 0.146-0.047 0.266-0.141 0.359s-0.213 0.141-0.359 0.141zM20.001 3.244v4.756h4.756l-4.756-4.756zM14.501 7.25h-5c-0.146 0-0.266-0.047-0.359-0.141-0.094-0.093-0.141-0.213-0.141-0.359v-1.25c0-0.146 0.047-0.266 0.141-0.359 0.093-0.094 0.213-0.141 0.359-0.141h5c0.146 0 0.266 0.047 0.359 0.141 0.094 0.093 0.141 0.213 0.141 0.359v1.25c0 0.146-0.047 0.266-0.141 0.359-0.093 0.094-0.213 0.141-0.359 0.141z"></path>
</svg>
