<!-- Generated by IcoMoon.io -->
<svg version="1.1" xmlns="http://www.w3.org/2000/svg" width="32" height="32" viewBox="0 0 32 32">
<title>file-invoice-dollar-o</title>
<path d="M25 32h-18c-1.656 0-3-1.344-3-3v-26c0-1.656 1.344-3 3-3h12.756c0.794 0 1.556 0.319 2.119 0.881l5.244 5.244c0.563 0.556 0.881 1.325 0.881 2.119v20.756c0 1.656-1.344 3-3 3zM17 3h-10v26h18v-18h-6.5c-0.831 0-1.5-0.669-1.5-1.5v-6.5zM16.5 27h-1c-0.125 0-0.24-0.052-0.344-0.156s-0.156-0.219-0.156-0.344v-1.5c-0.708-0.042-1.354-0.292-1.938-0.75-0.124-0.083-0.197-0.198-0.218-0.344s0.031-0.281 0.156-0.406l0.75-0.688c0.167-0.166 0.375-0.177 0.625-0.031s0.521 0.219 0.813 0.219h1.749c0.209 0 0.386-0.083 0.532-0.25s0.218-0.354 0.218-0.563c0-0.208-0.052-0.385-0.156-0.531s-0.239-0.239-0.406-0.281l-2.813-0.813c-0.583-0.208-1.062-0.562-1.437-1.062s-0.563-1.063-0.563-1.688c0-0.75 0.261-1.395 0.782-1.937s1.156-0.833 1.906-0.875v-1.5c0-0.125 0.052-0.24 0.156-0.344s0.219-0.156 0.344-0.156h1c0.125 0 0.24 0.052 0.344 0.156s0.156 0.219 0.156 0.344v1.5c0.708 0.042 1.354 0.292 1.937 0.75 0.125 0.083 0.198 0.198 0.219 0.344s-0.031 0.281-0.156 0.406l-0.75 0.687c-0.167 0.167-0.375 0.178-0.625 0.032s-0.521-0.219-0.813-0.219h-1.75c-0.208 0-0.385 0.083-0.531 0.25s-0.219 0.354-0.219 0.562c0 0.209 0.053 0.386 0.157 0.532s0.239 0.239 0.406 0.281l2.812 0.812c0.584 0.209 1.063 0.563 1.438 1.063s0.562 1.062 0.562 1.687c0 0.75-0.26 1.396-0.781 1.938s-1.156 0.833-1.906 0.875v1.5c0 0.125-0.052 0.24-0.156 0.344s-0.219 0.156-0.344 0.156zM14.5 11.25h-5c-0.146 0-0.266-0.047-0.359-0.141s-0.141-0.213-0.141-0.359v-1.25c0-0.146 0.047-0.266 0.141-0.359s0.213-0.141 0.359-0.141h5c0.146 0 0.266 0.047 0.359 0.141s0.141 0.213 0.141 0.359v1.25c0 0.146-0.047 0.266-0.141 0.359s-0.213 0.141-0.359 0.141zM20 3.244v4.756h4.756l-4.756-4.756zM14.5 7.25h-5c-0.146 0-0.266-0.047-0.359-0.141-0.094-0.093-0.141-0.213-0.141-0.359v-1.25c0-0.146 0.047-0.266 0.141-0.359 0.093-0.094 0.213-0.141 0.359-0.141h5c0.146 0 0.266 0.047 0.359 0.141 0.094 0.093 0.141 0.213 0.141 0.359v1.25c0 0.146-0.047 0.266-0.141 0.359-0.093 0.094-0.213 0.141-0.359 0.141z"></path>
</svg>
