<!-- Generated by IcoMoon.io -->
<svg version="1.1" xmlns="http://www.w3.org/2000/svg" width="32" height="32" viewBox="0 0 32 32">
<title>file-plus-o</title>
<path d="M25 32h-18c-1.656 0-3-1.344-3-3v-26c0-1.656 1.344-3 3-3h12.756c0.794 0 1.556 0.319 2.119 0.881l5.244 5.244c0.563 0.556 0.881 1.325 0.881 2.119v20.756c0 1.656-1.344 3-3 3zM17 3h-10v26h18v-18h-6.5c-0.831 0-1.5-0.669-1.5-1.5v-6.5zM16.75 27h-1.5c-0.208 0-0.385-0.073-0.531-0.219s-0.219-0.323-0.219-0.531v-4.75h-4.75c-0.208 0-0.385-0.073-0.531-0.219s-0.219-0.323-0.219-0.531v-1.5c0-0.208 0.073-0.385 0.219-0.531s0.323-0.219 0.531-0.219h4.75v-4.75c0-0.208 0.073-0.385 0.219-0.531s0.323-0.219 0.531-0.219h1.5c0.208 0 0.385 0.073 0.531 0.219s0.219 0.323 0.219 0.531v4.75h4.75c0.208 0 0.385 0.073 0.531 0.219s0.219 0.323 0.219 0.531v1.5c0 0.208-0.073 0.385-0.219 0.531s-0.323 0.219-0.531 0.219h-4.75v4.75c0 0.208-0.073 0.385-0.219 0.531s-0.323 0.219-0.531 0.219zM20 3.244v4.756h4.756l-4.756-4.756z"></path>
</svg>
