<!-- Generated by IcoMoon.io -->
<svg version="1.1" xmlns="http://www.w3.org/2000/svg" width="32" height="32" viewBox="0 0 32 32">
<title>file-alt</title>
<path d="M18 8.5c0 0.417 0.146 0.771 0.438 1.063s0.645 0.437 1.062 0.437h8.5v20.5c0 0.417-0.146 0.771-0.438 1.063s-0.645 0.437-1.062 0.437h-21c-0.417 0-0.771-0.146-1.063-0.438s-0.437-0.645-0.437-1.062v-29c0-0.417 0.146-0.771 0.438-1.063s0.645-0.437 1.062-0.437h12.5v8.5zM22 22.75c0-0.208-0.073-0.385-0.219-0.531s-0.323-0.219-0.531-0.219h-10.5c-0.208 0-0.385 0.073-0.531 0.219s-0.219 0.323-0.219 0.531v0.5c0 0.208 0.073 0.385 0.219 0.531s0.323 0.219 0.531 0.219h10.5c0.208 0 0.385-0.073 0.531-0.219s0.219-0.323 0.219-0.531v-0.5zM22 18.75c0-0.208-0.073-0.385-0.219-0.531s-0.323-0.219-0.531-0.219h-10.5c-0.208 0-0.385 0.073-0.531 0.219s-0.219 0.323-0.219 0.531v0.5c0 0.208 0.073 0.385 0.219 0.531s0.323 0.219 0.531 0.219h10.5c0.208 0 0.385-0.073 0.531-0.219s0.219-0.323 0.219-0.531v-0.5zM22 14.75c0-0.208-0.073-0.385-0.219-0.531s-0.323-0.219-0.531-0.219h-10.5c-0.208 0-0.385 0.073-0.531 0.219s-0.219 0.323-0.219 0.531v0.5c0 0.208 0.073 0.385 0.219 0.531s0.323 0.219 0.531 0.219h10.5c0.208 0 0.385-0.073 0.531-0.219s0.219-0.323 0.219-0.531v-0.5zM28 7.625v0.375h-8v-8h0.375c0.417 0 0.771 0.146 1.063 0.438l6.125 6.125c0.291 0.291 0.437 0.645 0.437 1.062z"></path>
</svg>
