<!-- Generated by IcoMoon.io -->
<svg version="1.1" xmlns="http://www.w3.org/2000/svg" width="36" height="32" viewBox="0 0 36 32">
<title>file-export-o</title>
<path d="M21 32h-18c-1.656 0-3-1.344-3-3v-26c0-1.656 1.344-3 3-3h12.756c0.794 0 1.556 0.319 2.119 0.881l5.244 5.244c0.563 0.556 0.881 1.325 0.881 2.119v9.756h-3v4h3v7c0 1.656-1.344 3-3 3zM13 3h-10v26h18v-7h-8c-0.292 0-0.531-0.094-0.719-0.281-0.187-0.188-0.281-0.427-0.281-0.719v-2c0-0.292 0.094-0.531 0.281-0.719 0.188-0.187 0.427-0.281 0.719-0.281h8v-7h-6.5c-0.831 0-1.5-0.669-1.5-1.5v-6.5zM24 18h4v-4.063c0-0.458 0.208-0.77 0.625-0.937s0.771-0.083 1.063 0.25l6 6c0.208 0.208 0.312 0.458 0.312 0.75s-0.104 0.542-0.312 0.75l-6 6c-0.292 0.333-0.646 0.417-1.063 0.25s-0.625-0.479-0.625-0.938v-4.062h-4v-4zM16 3.244v4.756h4.756l-4.756-4.756z"></path>
</svg>
