<!-- Generated by IcoMoon.io -->
<svg version="1.1" xmlns="http://www.w3.org/2000/svg" width="32" height="32" viewBox="0 0 32 32">
<title>file-word</title>
<path d="M18 8.5c0 0.417 0.146 0.771 0.438 1.063s0.645 0.437 1.062 0.437h8.5v20.5c0 0.417-0.146 0.771-0.438 1.063s-0.645 0.437-1.062 0.437h-21c-0.417 0-0.771-0.146-1.063-0.438s-0.437-0.645-0.437-1.062v-29c0-0.417 0.146-0.771 0.438-1.063s0.645-0.437 1.062-0.437h12.5v8.5zM21.563 16c-0.167 0-0.323 0.052-0.469 0.156s-0.219 0.24-0.219 0.407c-0.625 2.875-1.042 4.937-1.25 6.187-0.083 0.708-0.125 1.292-0.125 1.75v0.188c-0.083-0.625-0.708-3.334-1.875-8.125-0.042-0.167-0.125-0.303-0.25-0.407s-0.271-0.156-0.437-0.156h-1.813c-0.208 0-0.375 0.052-0.5 0.156s-0.208 0.24-0.25 0.407l-0.562 2.375c-0.792 3.166-1.209 4.937-1.25 5.312-0.084-1.125-0.542-3.667-1.375-7.625 0-0.208-0.073-0.365-0.219-0.469s-0.302-0.156-0.469-0.156h-1.562c-0.25 0-0.448 0.094-0.594 0.281s-0.177 0.407-0.094 0.657l2.313 10.5c0.041 0.166 0.135 0.302 0.281 0.406s0.302 0.156 0.469 0.156h2.312c0.167 0 0.323-0.052 0.469-0.156s0.239-0.24 0.281-0.406l1.375-5.688c0.125-0.458 0.188-0.875 0.188-1.25h0.062l0.063 0.625c0.083 0.5 0.354 1.646 0.812 3.438l0.688 2.875c0.041 0.166 0.135 0.302 0.281 0.406s0.302 0.156 0.469 0.156h2.375c0.166 0 0.322-0.052 0.468-0.156s0.24-0.24 0.282-0.406l2.375-10.5c0.041-0.25-0.011-0.469-0.157-0.657s-0.343-0.281-0.593-0.281h-1.5zM28 7.625v0.375h-8v-8h0.375c0.417 0 0.771 0.146 1.063 0.438l6.125 6.125c0.291 0.291 0.437 0.645 0.437 1.062z"></path>
</svg>
