<!-- Generated by IcoMoon.io -->
<svg version="1.1" xmlns="http://www.w3.org/2000/svg" width="32" height="32" viewBox="0 0 32 32">
<title>file-pdf-o</title>
<path d="M27.125 6.125l-5.25-5.25c-0.583-0.583-1.292-0.875-2.125-0.875h-12.75c-0.833 0-1.542 0.292-2.125 0.875s-0.875 1.292-0.875 2.125v26c0 0.833 0.292 1.542 0.875 2.125s1.292 0.875 2.125 0.875h18c0.833 0 1.542-0.292 2.125-0.875s0.875-1.292 0.875-2.125v-20.75c0-0.833-0.292-1.542-0.875-2.125zM24.75 8h-4.75v-4.75l4.75 4.75zM7 29v-26h10v6.5c0 0.417 0.146 0.771 0.438 1.063s0.645 0.437 1.062 0.437h6.5v18h-18zM22.625 20c-0.542-0.542-1.875-0.667-4-0.375-1.042-0.625-1.813-1.604-2.313-2.938v-0.062c0.417-1.667 0.521-2.792 0.313-3.375-0.083-0.542-0.313-0.906-0.688-1.094-0.374-0.187-0.77-0.208-1.187-0.062s-0.667 0.406-0.75 0.781c-0.25 0.792-0.104 2.187 0.438 4.187-0.834 1.917-1.584 3.459-2.251 4.625-1.916 1-2.979 1.959-3.187 2.875-0.042 0.292 0.042 0.594 0.25 0.907s0.531 0.489 0.969 0.531c0.437 0.042 0.927-0.167 1.469-0.625 0.666-0.583 1.375-1.5 2.125-2.75l0.75-0.25c1.583-0.542 2.75-0.875 3.5-1 0.583 0.333 1.197 0.594 1.843 0.781 0.646 0.188 1.209 0.282 1.688 0.282s0.833-0.146 1.062-0.438c0.229-0.292 0.344-0.635 0.344-1.031s-0.125-0.719-0.375-0.969zM10.25 24.875c0.167-0.5 0.729-1.167 1.688-2l0.249-0.188c-0.375 0.584-0.729 1.063-1.062 1.438-0.25 0.292-0.458 0.5-0.625 0.625s-0.25 0.167-0.25 0.125zM15.375 12.937c0.208 0.001 0.312 0.355 0.312 1.063s-0.062 1.208-0.187 1.5c-0.167-0.375-0.25-0.896-0.25-1.563s0.042-0.999 0.125-0.999zM13.812 21.499c0.5-0.833 1.021-1.979 1.563-3.438 0.5 0.959 1.125 1.709 1.875 2.25-0.667 0.125-1.563 0.417-2.688 0.875l-0.749 0.313zM22.062 21.186c-0.042 0.042-0.105 0.063-0.188 0.063-0.125 0.042-0.333 0.021-0.625-0.063-0.417-0.083-0.917-0.25-1.5-0.5 0.667-0.041 1.188-0.031 1.563 0.032s0.614 0.146 0.718 0.25 0.115 0.177 0.032 0.218z"></path>
</svg>
