<!-- Generated by IcoMoon.io -->
<svg version="1.1" xmlns="http://www.w3.org/2000/svg" width="32" height="32" viewBox="0 0 32 32">
<title>file-import</title>
<path d="M1 18c-0.292 0-0.531 0.094-0.719 0.281-0.187 0.188-0.281 0.427-0.281 0.719v2c0 0.292 0.094 0.531 0.281 0.719 0.188 0.187 0.427 0.281 0.719 0.281h7v-4h-7zM22 8.5v-8.5h-12.5c-0.417 0-0.771 0.146-1.063 0.438-0.291 0.291-0.437 0.645-0.437 1.062v16.5h8v-4.063c0-0.458 0.208-0.77 0.625-0.937s0.771-0.083 1.063 0.25l6 6c0.208 0.208 0.312 0.458 0.312 0.75s-0.104 0.542-0.313 0.75l-6 6c-0.291 0.333-0.645 0.417-1.062 0.25s-0.625-0.479-0.625-0.938v-4.062h-8v8.5c0 0.417 0.146 0.771 0.438 1.063s0.645 0.437 1.062 0.437h21c0.417 0 0.771-0.146 1.063-0.438s0.437-0.645 0.437-1.062v-20.5h-8.5c-0.417 0-0.771-0.146-1.063-0.438s-0.437-0.645-0.437-1.062zM31.563 6.562l-6.126-6.125c-0.291-0.291-0.645-0.437-1.062-0.437h-0.375v8h8v-0.375c0-0.417-0.146-0.771-0.438-1.063z"></path>
</svg>
