<!-- Generated by IcoMoon.io -->
<svg version="1.1" xmlns="http://www.w3.org/2000/svg" width="32" height="32" viewBox="0 0 32 32">
<title>file-invoice</title>
<path d="M22 16h-12v4h12v-4zM27.563 6.562l-6.125-6.124c-0.292-0.292-0.646-0.438-1.063-0.438h-0.375v8h8v-0.375c0-0.417-0.146-0.771-0.438-1.062zM18.001 8.499v-8.5h-12.5c-0.417 0-0.771 0.146-1.063 0.438-0.291 0.291-0.437 0.645-0.437 1.062v29c0 0.417 0.146 0.771 0.438 1.063s0.645 0.437 1.062 0.437h21c0.417 0 0.771-0.146 1.063-0.438s0.437-0.645 0.437-1.062v-20.5h-8.5c-0.417 0-0.771-0.146-1.063-0.438s-0.437-0.645-0.437-1.062zM8.001 4.499c0-0.125 0.052-0.24 0.156-0.344s0.219-0.156 0.344-0.156h5c0.125 0 0.24 0.052 0.344 0.156s0.156 0.219 0.156 0.344v1c0 0.125-0.052 0.24-0.156 0.344s-0.219 0.156-0.344 0.156h-5c-0.125 0-0.24-0.052-0.344-0.156s-0.156-0.219-0.156-0.344v-1zM8.001 8.499c0-0.125 0.052-0.24 0.156-0.344s0.219-0.156 0.344-0.156h5c0.125 0 0.24 0.052 0.344 0.156s0.156 0.219 0.156 0.344v1c0 0.125-0.052 0.24-0.156 0.344s-0.219 0.156-0.344 0.156h-5c-0.125 0-0.24-0.052-0.344-0.156s-0.156-0.219-0.156-0.344v-1zM24.001 27.499c0 0.125-0.052 0.24-0.156 0.344s-0.219 0.156-0.344 0.156h-5c-0.125 0-0.24-0.052-0.344-0.156s-0.156-0.219-0.156-0.344v-1c0-0.125 0.052-0.24 0.156-0.344s0.219-0.156 0.344-0.156h5c0.125 0 0.24 0.052 0.344 0.156s0.156 0.219 0.156 0.344v1zM24.001 14.999v6c0 0.292-0.094 0.531-0.281 0.719-0.188 0.187-0.427 0.281-0.719 0.281h-14c-0.292 0-0.531-0.094-0.719-0.281-0.187-0.188-0.281-0.427-0.281-0.719v-6c0-0.292 0.094-0.531 0.281-0.719s0.427-0.281 0.719-0.281h14c0.292 0 0.531 0.094 0.719 0.281 0.187 0.188 0.281 0.427 0.281 0.719z"></path>
</svg>
