<!-- Generated by IcoMoon.io -->
<svg version="1.1" xmlns="http://www.w3.org/2000/svg" width="36" height="32" viewBox="0 0 36 32">
<title>file-signature</title>
<path d="M13.625 26.5c-0.125-0.25-0.333-0.375-0.625-0.375s-0.5 0.125-0.625 0.375l-0.5 0.938c-0.167 0.416-0.479 0.604-0.937 0.562s-0.75-0.271-0.875-0.688l-1.063-3.125-0.687 1.938c-0.167 0.583-0.49 1.042-0.969 1.375s-1.011 0.5-1.594 0.5h-0.75c-0.292 0-0.531-0.094-0.719-0.281-0.187-0.188-0.281-0.427-0.281-0.719s0.094-0.531 0.281-0.719c0.188-0.187 0.427-0.281 0.719-0.281h0.75c0.333 0 0.563-0.167 0.688-0.5l1.125-3.375c0.125-0.333 0.312-0.594 0.562-0.781 0.25-0.188 0.542-0.282 0.875-0.282s0.625 0.094 0.875 0.282c0.25 0.187 0.438 0.448 0.563 0.781l0.875 2.563c0.625-0.5 1.375-0.657 2.25-0.469s1.5 0.635 1.875 1.344c0.125 0.25 0.312 0.395 0.562 0.437v-5.125l8-7.938v-2.937h-8.5c-0.417 0-0.771-0.146-1.062-0.438-0.292-0.291-0.438-0.645-0.438-1.062v-8.5h-12.5c-0.417 0-0.771 0.146-1.062 0.438-0.292 0.291-0.438 0.645-0.438 1.062v29c0 0.417 0.146 0.771 0.438 1.063 0.291 0.291 0.645 0.437 1.062 0.437h21c0.417 0 0.771-0.146 1.063-0.438s0.437-0.645 0.437-1.062v-2.5h-8c-0.5 0-0.958-0.135-1.375-0.406s-0.75-0.636-1-1.094zM24 7.625c0-0.417-0.146-0.771-0.437-1.063l-6.125-6.125c-0.292-0.291-0.646-0.437-1.063-0.437h-0.375v8h8v-0.375zM18 21.688v4.312h4.313l10.125-10.188-4.25-4.25-10.188 10.125zM35.563 10.438l-2-2c-0.334-0.291-0.719-0.437-1.157-0.437s-0.802 0.146-1.093 0.437l-1.75 1.75 4.25 4.25 1.75-1.75c0.291-0.291 0.437-0.656 0.437-1.093 0-0.438-0.146-0.823-0.437-1.157z"></path>
</svg>
