<!-- Generated by IcoMoon.io -->
<svg version="1.1" xmlns="http://www.w3.org/2000/svg" width="32" height="32" viewBox="0 0 32 32">
<title>file-download</title>
<path d="M18 8.5v-8.5h-12.5c-0.417 0-0.771 0.146-1.063 0.438-0.291 0.291-0.437 0.645-0.437 1.062v29c0 0.417 0.146 0.771 0.438 1.063s0.645 0.437 1.062 0.437h21c0.417 0 0.771-0.146 1.063-0.438s0.437-0.645 0.437-1.062v-20.5h-8.5c-0.417 0-0.771-0.146-1.063-0.438s-0.437-0.645-0.437-1.062zM22.75 21.688l-6 5.999c-0.208 0.209-0.458 0.313-0.75 0.313s-0.542-0.104-0.75-0.313l-6-6c-0.333-0.291-0.417-0.645-0.25-1.062s0.479-0.625 0.938-0.625h4.062v-5c0-0.292 0.094-0.531 0.281-0.719s0.427-0.281 0.719-0.281h2c0.292 0 0.531 0.094 0.719 0.281 0.187 0.188 0.281 0.427 0.281 0.719v5h4.063c0.458 0 0.77 0.208 0.937 0.625s0.083 0.771-0.25 1.062zM27.563 6.563l-6.125-6.125c-0.292-0.291-0.646-0.437-1.063-0.437h-0.375v8h8v-0.375c0-0.417-0.146-0.771-0.438-1.063z"></path>
</svg>
