<!-- Generated by IcoMoon.io -->
<svg version="1.1" xmlns="http://www.w3.org/2000/svg" width="36" height="32" viewBox="0 0 36 32">
<title>file-export</title>
<path d="M24 7.625c0-0.417-0.146-0.771-0.437-1.063l-6.125-6.125c-0.292-0.291-0.646-0.437-1.063-0.437h-0.375v8h8v-0.375zM12 21v-2c0-0.292 0.094-0.531 0.281-0.719 0.188-0.187 0.427-0.281 0.719-0.281h11v-8h-8.5c-0.417 0-0.771-0.146-1.062-0.438-0.292-0.291-0.438-0.645-0.438-1.062v-8.5h-12.5c-0.417 0-0.771 0.146-1.062 0.438-0.292 0.291-0.438 0.645-0.438 1.062v29c0 0.417 0.146 0.771 0.438 1.063 0.291 0.291 0.645 0.437 1.062 0.437h21c0.417 0 0.771-0.146 1.063-0.438s0.437-0.645 0.437-1.062v-8.5h-11c-0.292 0-0.531-0.094-0.719-0.281-0.187-0.188-0.281-0.427-0.281-0.719zM35.688 19.25l-6-6c-0.292-0.333-0.646-0.417-1.063-0.25s-0.625 0.479-0.625 0.938v4.062h-4v4h4v4.063c0 0.458 0.208 0.77 0.625 0.937s0.771 0.083 1.063-0.25l6-6c0.208-0.208 0.312-0.458 0.312-0.75s-0.104-0.542-0.312-0.75z"></path>
</svg>
