<!-- Generated by IcoMoon.io -->
<svg version="1.1" xmlns="http://www.w3.org/2000/svg" width="32" height="32" viewBox="0 0 32 32">
<title>file-word-o</title>
<path d="M27.125 6.125l-5.25-5.25c-0.583-0.583-1.292-0.875-2.125-0.875h-12.75c-0.833 0-1.542 0.292-2.125 0.875s-0.875 1.292-0.875 2.125v26c0 0.833 0.292 1.542 0.875 2.125s1.292 0.875 2.125 0.875h18c0.833 0 1.542-0.292 2.125-0.875s0.875-1.292 0.875-2.125v-20.75c0-0.833-0.292-1.542-0.875-2.125zM24.75 8h-4.75v-4.75l4.75 4.75zM7 29v-26h10v6.5c0 0.417 0.146 0.771 0.438 1.063s0.645 0.437 1.062 0.437h6.5v18h-18zM20.75 16c-0.167 0-0.323 0.052-0.469 0.156s-0.239 0.24-0.281 0.407l-0.625 3.062c-0.417 2.042-0.646 3.188-0.688 3.438l-1.5-6.5c-0.041-0.167-0.125-0.303-0.25-0.407s-0.291-0.156-0.5-0.156h-0.812c-0.167 0-0.323 0.052-0.469 0.156s-0.239 0.24-0.281 0.407l-0.75 3.187c-0.5 1.958-0.75 3.063-0.75 3.313l-1.25-6.438c-0.042-0.208-0.125-0.365-0.25-0.469s-0.292-0.156-0.5-0.156h-1.063c-0.208 0-0.395 0.094-0.562 0.281s-0.208 0.407-0.125 0.657l2.062 8.5c0.042 0.166 0.125 0.302 0.25 0.406s0.292 0.156 0.5 0.156h1.563c0.167 0 0.312-0.052 0.437-0.156s0.209-0.24 0.25-0.406l1.125-4.5c0.125-0.375 0.188-0.73 0.188-1.063l0.188 1.125 1.125 4.438c0.041 0.166 0.135 0.302 0.281 0.406s0.302 0.156 0.469 0.156h1.5c0.208 0 0.375-0.052 0.5-0.156s0.208-0.24 0.25-0.406l2.187-8.5c0.042-0.25-0.010-0.469-0.156-0.657s-0.344-0.281-0.594-0.281h-1z"></path>
</svg>
