<!-- Generated by IcoMoon.io -->
<svg version="1.1" xmlns="http://www.w3.org/2000/svg" width="32" height="32" viewBox="0 0 32 32">
<title>file-contract</title>
<path d="M18 8.5v-8.5h-12.5c-0.417 0-0.771 0.146-1.063 0.438-0.291 0.291-0.437 0.645-0.437 1.062v29c0 0.417 0.146 0.771 0.438 1.063s0.645 0.437 1.062 0.437h21c0.417 0 0.771-0.146 1.063-0.438s0.437-0.645 0.437-1.062v-20.5h-8.5c-0.417 0-0.771-0.146-1.063-0.438s-0.437-0.645-0.437-1.062zM8 4.5c0-0.125 0.052-0.24 0.156-0.344s0.219-0.156 0.344-0.156h5c0.125 0 0.24 0.052 0.344 0.156s0.156 0.219 0.156 0.344v1c0 0.125-0.052 0.24-0.156 0.344s-0.219 0.156-0.344 0.156h-5c-0.125 0-0.24-0.052-0.344-0.156s-0.156-0.219-0.156-0.344v-1zM8 8.5c0-0.125 0.052-0.24 0.156-0.344s0.219-0.156 0.344-0.156h5c0.125 0 0.24 0.052 0.344 0.156s0.156 0.219 0.156 0.344v1c0 0.125-0.052 0.24-0.156 0.344s-0.219 0.156-0.344 0.156h-5c-0.125 0-0.24-0.052-0.344-0.156s-0.156-0.219-0.156-0.344v-1zM20.063 24h2.937c0.292 0 0.531 0.094 0.719 0.281 0.187 0.188 0.281 0.427 0.281 0.719s-0.094 0.531-0.281 0.719c-0.188 0.187-0.427 0.281-0.719 0.281h-2.938c-0.541 0-1.020-0.135-1.437-0.406s-0.75-0.636-1-1.094c-0.125-0.25-0.333-0.375-0.625-0.375s-0.5 0.125-0.625 0.375l-0.5 0.938c-0.167 0.375-0.458 0.562-0.875 0.562h-0.063c-0.458-0.042-0.75-0.271-0.875-0.688l-1.062-3.125-0.688 1.938c-0.166 0.583-0.489 1.042-0.968 1.375s-1.011 0.5-1.594 0.5h-0.75c-0.292 0-0.531-0.094-0.719-0.281-0.187-0.188-0.281-0.427-0.281-0.719s0.094-0.531 0.281-0.719c0.188-0.187 0.427-0.281 0.719-0.281h0.75c0.333 0 0.562-0.167 0.687-0.5l1.125-3.375c0.125-0.333 0.313-0.594 0.563-0.781 0.25-0.188 0.542-0.282 0.875-0.282s0.625 0.094 0.875 0.282c0.25 0.187 0.437 0.448 0.562 0.781l0.875 2.563c0.625-0.5 1.375-0.657 2.25-0.469s1.5 0.635 1.875 1.344c0.125 0.291 0.334 0.437 0.625 0.437zM27.563 6.562l-6.125-6.125c-0.291-0.291-0.645-0.437-1.062-0.437h-0.375v8h8v-0.375c0-0.417-0.146-0.771-0.438-1.063z"></path>
</svg>
