<!-- Generated by IcoMoon.io -->
<svg version="1.1" xmlns="http://www.w3.org/2000/svg" width="32" height="32" viewBox="0 0 32 32">
<title>file-pdf</title>
<path d="M15.375 16c-0.167-0.458-0.25-1.063-0.25-1.813s0.042-1.124 0.125-1.124c0.25 0 0.375 0.406 0.375 1.218 0 0.813-0.083 1.386-0.25 1.719zM15.25 18.938c0.583 1.083 1.313 1.937 2.188 2.562-0.75 0.167-1.771 0.5-3.063 1l-0.875 0.375c0.542-1 1.125-2.313 1.75-3.938zM9.375 26.751c0.208-0.542 0.854-1.313 1.938-2.313l0.25-0.187c-0.417 0.625-0.813 1.167-1.188 1.625-0.25 0.333-0.479 0.573-0.687 0.719s-0.313 0.198-0.313 0.156zM19.5 10.001h8.5v20.5c0 0.417-0.146 0.771-0.438 1.063s-0.645 0.437-1.062 0.437h-21c-0.417 0-0.771-0.146-1.063-0.438s-0.437-0.645-0.437-1.062v-29c0-0.417 0.146-0.771 0.438-1.063s0.645-0.437 1.062-0.437h12.5v8.5c0 0.417 0.146 0.771 0.438 1.063s0.645 0.437 1.062 0.437zM19 20.751c-1.208-0.75-2.104-1.875-2.688-3.375l0.063-0.063c0.208-0.875 0.333-1.541 0.375-2 0.125-0.833 0.125-1.479 0-1.937-0.125-0.583-0.406-0.979-0.844-1.188-0.437-0.208-0.885-0.239-1.344-0.093s-0.729 0.427-0.812 0.843c-0.167 0.542-0.188 1.23-0.063 2.063 0.084 0.708 0.271 1.625 0.563 2.75-0.958 2.25-1.813 4.042-2.563 5.375-1.208 0.583-2.145 1.208-2.812 1.875-0.917 0.917-1.125 1.708-0.625 2.375 0.167 0.208 0.385 0.365 0.656 0.469s0.511 0.156 0.719 0.156c0.542 0 1.115-0.302 1.719-0.906s1.302-1.594 2.094-2.969l0.937-0.313c1.833-0.625 3.167-1 4-1.125 0.667 0.375 1.365 0.667 2.094 0.875 0.729 0.209 1.364 0.313 1.906 0.313s0.958-0.167 1.25-0.5c0.292-0.333 0.427-0.719 0.406-1.156-0.021-0.438-0.156-0.782-0.406-1.032-0.667-0.625-2.208-0.77-4.625-0.437zM27.563 6.563c0.291 0.292 0.437 0.646 0.437 1.063v0.375h-8v-8h0.375c0.417 0 0.771 0.146 1.062 0.438l6.125 6.125zM22.751 22.563c-0.167 0.041-0.417 0.041-0.75 0-0.458-0.125-1.042-0.334-1.75-0.625 0.75-0.042 1.375-0.021 1.875 0.062 0.375 0.042 0.625 0.125 0.75 0.25s0.146 0.208 0.062 0.25l-0.187 0.063z"></path>
</svg>
