<!-- Generated by IcoMoon.io -->
<svg version="1.1" xmlns="http://www.w3.org/2000/svg" width="32" height="32" viewBox="0 0 32 32">
<title>file-alt-o</title>
<path d="M22 15.5v1.75c0 0.208-0.073 0.385-0.219 0.531s-0.323 0.219-0.531 0.219h-10.5c-0.208 0-0.385-0.073-0.531-0.219s-0.219-0.323-0.219-0.531v-1.75c0-0.208 0.073-0.385 0.219-0.531s0.323-0.219 0.531-0.219h10.5c0.208 0 0.385 0.073 0.531 0.219s0.219 0.323 0.219 0.531zM21.25 20c0.208 0 0.385 0.073 0.531 0.219s0.219 0.323 0.219 0.531v1.75c0 0.208-0.073 0.385-0.219 0.531s-0.323 0.219-0.531 0.219h-10.5c-0.208 0-0.385-0.073-0.531-0.219s-0.219-0.323-0.219-0.531v-1.75c0-0.208 0.073-0.385 0.219-0.531s0.323-0.219 0.531-0.219h10.5zM28 8.25v20.75c0 0.833-0.292 1.542-0.875 2.125s-1.292 0.875-2.125 0.875h-18c-0.833 0-1.542-0.292-2.125-0.875s-0.875-1.292-0.875-2.125v-26c0-0.833 0.292-1.542 0.875-2.125s1.292-0.875 2.125-0.875h12.75c0.833 0 1.542 0.292 2.125 0.875l5.25 5.25c0.583 0.583 0.875 1.292 0.875 2.125zM20 3.25v4.75h4.75l-4.75-4.75zM25 29v-18h-6.5c-0.417 0-0.771-0.146-1.063-0.438s-0.437-0.645-0.437-1.062v-6.5h-10v26h18z"></path>
</svg>
