<!-- Generated by IcoMoon.io -->
<svg version="1.1" xmlns="http://www.w3.org/2000/svg" width="32" height="32" viewBox="0 0 32 32">
<title>file-plus</title>
<path d="M27.563 6.563l-6.125-6.126c-0.292-0.291-0.646-0.437-1.063-0.437h-0.375v8h8v-0.375c0-0.417-0.146-0.771-0.438-1.062zM18.001 8.5v-8.5h-12.5c-0.417 0-0.771 0.146-1.063 0.438-0.291 0.291-0.437 0.645-0.437 1.062v29c0 0.417 0.146 0.771 0.438 1.063s0.645 0.437 1.062 0.437h21c0.417 0 0.771-0.146 1.063-0.438s0.437-0.645 0.437-1.062v-20.5h-8.5c-0.417 0-0.771-0.146-1.063-0.438s-0.437-0.645-0.437-1.062zM22.001 18.5v3c0 0.125-0.052 0.24-0.156 0.344s-0.219 0.156-0.344 0.156h-3.5v3.5c0 0.125-0.052 0.24-0.156 0.344s-0.219 0.156-0.344 0.156h-3c-0.125 0-0.24-0.052-0.344-0.156s-0.156-0.219-0.156-0.344v-3.5h-3.5c-0.125 0-0.24-0.052-0.344-0.156s-0.156-0.219-0.156-0.344v-3c0-0.125 0.052-0.24 0.156-0.344s0.219-0.156 0.344-0.156h3.5v-3.5c0-0.125 0.052-0.24 0.156-0.344s0.219-0.156 0.344-0.156h3c0.125 0 0.24 0.052 0.344 0.156s0.156 0.219 0.156 0.344v3.5h3.5c0.125 0 0.24 0.052 0.344 0.156s0.156 0.219 0.156 0.344z"></path>
</svg>
