<!-- Generated by IcoMoon.io -->
<svg version="1.1" xmlns="http://www.w3.org/2000/svg" width="36" height="32" viewBox="0 0 36 32">
<title>file-signature-o</title>
<path d="M21 32h-18c-1.656 0-3-1.344-3-3v-26c0-1.656 1.344-3 3-3h12.756c0.794 0 1.556 0.319 2.119 0.881l5.244 5.244c0.563 0.556 0.881 1.325 0.881 2.119v2.661l-3 2.981v-2.886h-6.5c-0.831 0-1.5-0.669-1.5-1.5v-6.5h-10v26h18v-1l3-3v4c0 1.656-1.344 3-3 3zM16 22.931v-1.243l10.188-10.125 4.25 4.25-10.125 10.187h-4.313v-0.026c-0.308-0.051-0.535-0.193-0.7-0.359-0.203-0.203-0.425-0.671-0.675-1.133-0.125-0.252-0.333-0.378-0.625-0.378s-0.5 0.126-0.625 0.378l-0.5 0.945c-0.167 0.42-0.479 0.609-0.937 0.567s-0.75-0.273-0.875-0.693l-1.063-3.15-0.687 1.953c-0.167 0.588-0.49 1.050-0.969 1.386-0.458 0.321-0.963 0.489-1.594 0.504h-0.75c-0.292 0-0.531-0.094-0.719-0.283-0.187-0.189-0.281-0.431-0.281-0.725s0.094-0.536 0.281-0.725c0.188-0.189 0.427-0.283 0.719-0.283h0.75c0.333 0 0.563-0.168 0.688-0.504l1.125-3.403c0.125-0.336 0.312-0.598 0.562-0.787s0.542-0.284 0.875-0.284c0.333 0 0.625 0.095 0.875 0.284s0.438 0.451 0.563 0.787l0.875 2.584c0.625-0.504 1.375-0.662 2.25-0.473 0.594 0.129 1.073 0.378 1.437 0.749zM18 23.978l1.48 0.022 8.134-8.183-1.431-1.431-8.183 8.134v1.458zM34.563 9.438l-2-2c-0.334-0.292-0.719-0.438-1.157-0.438s-0.802 0.146-1.093 0.438l-2.75 2.75 4.25 4.25 2.75-2.75c0.291-0.292 0.437-0.657 0.437-1.094 0-0.438-0.146-0.823-0.437-1.156zM30.391 10.188l1.421 1.421 1.047-1.047-1.421-1.421-1.047 1.047zM16 3.244v4.756h4.756l-4.756-4.756z"></path>
</svg>
