<!-- Generated by IcoMoon.io -->
<svg version="1.1" xmlns="http://www.w3.org/2000/svg" width="32" height="32" viewBox="0 0 32 32">
<title>file-excel-o</title>
<path d="M27.125 6.125l-5.25-5.25c-0.583-0.583-1.292-0.875-2.125-0.875h-12.75c-0.833 0-1.542 0.292-2.125 0.875s-0.875 1.292-0.875 2.125v26c0 0.833 0.292 1.542 0.875 2.125s1.292 0.875 2.125 0.875h18c0.833 0 1.542-0.292 2.125-0.875s0.875-1.292 0.875-2.125v-20.75c0-0.833-0.292-1.542-0.875-2.125zM24.75 8h-4.75v-4.75l4.75 4.75zM7 29v-26h10v6.5c0 0.417 0.146 0.771 0.438 1.063s0.645 0.437 1.062 0.437h6.5v18h-18zM20.25 14h-1.813c-0.291 0-0.5 0.125-0.625 0.375-0.833 1.5-1.437 2.708-1.812 3.625l-0.563-1.188c-0.208-0.458-0.604-1.27-1.187-2.437-0.167-0.25-0.396-0.375-0.688-0.375h-1.812c-0.292 0-0.51 0.125-0.656 0.375s-0.136 0.5 0.031 0.75l2.875 4.875-2.875 4.875c-0.167 0.25-0.177 0.5-0.031 0.75s0.364 0.375 0.656 0.375h1.813c0.291 0 0.499-0.125 0.624-0.375 0.792-1.417 1.355-2.5 1.688-3.25l0.125-0.375 0.625 1.313c0.208 0.458 0.604 1.229 1.188 2.312 0.125 0.25 0.333 0.375 0.625 0.375h1.812c0.292 0 0.51-0.125 0.656-0.375s0.136-0.5-0.031-0.75l-2.875-4.875c0.458-0.708 1.417-2.333 2.875-4.875 0.167-0.25 0.177-0.5 0.031-0.75s-0.364-0.375-0.656-0.375z"></path>
</svg>
