<!-- Generated by IcoMoon.io -->
<svg version="1.1" xmlns="http://www.w3.org/2000/svg" width="32" height="32" viewBox="0 0 32 32">
<title>film</title>
<path d="M30.5 4h-0.5v1.25c0 0.208-0.073 0.385-0.219 0.531s-0.323 0.219-0.531 0.219h-2.5c-0.208 0-0.385-0.073-0.531-0.219s-0.219-0.323-0.219-0.531v-1.25h-20v1.25c0 0.208-0.073 0.385-0.219 0.531s-0.323 0.219-0.531 0.219h-2.5c-0.208 0-0.385-0.073-0.531-0.219s-0.219-0.323-0.219-0.531v-1.25h-0.5c-0.417 0-0.771 0.146-1.062 0.438s-0.438 0.645-0.438 1.062v21c0 0.417 0.146 0.771 0.438 1.063 0.291 0.291 0.645 0.437 1.062 0.437h0.5v-1.25c0-0.208 0.073-0.385 0.219-0.531s0.323-0.219 0.531-0.219h2.5c0.208 0 0.385 0.073 0.531 0.219s0.219 0.323 0.219 0.531v1.25h20v-1.25c0-0.208 0.073-0.385 0.219-0.531s0.323-0.219 0.531-0.219h2.5c0.208 0 0.385 0.073 0.531 0.219s0.219 0.323 0.219 0.531v1.25h0.5c0.417 0 0.771-0.146 1.063-0.437 0.291-0.292 0.437-0.646 0.437-1.063v-21c0-0.417-0.146-0.771-0.437-1.062-0.292-0.292-0.646-0.438-1.063-0.438zM6 23.25c0 0.208-0.073 0.385-0.219 0.531s-0.323 0.219-0.531 0.219h-2.5c-0.208 0-0.385-0.073-0.531-0.219s-0.219-0.323-0.219-0.531v-2.5c0-0.208 0.073-0.385 0.219-0.531s0.323-0.219 0.531-0.219h2.5c0.208 0 0.385 0.073 0.531 0.219s0.219 0.323 0.219 0.531v2.5zM6 17.25c0 0.208-0.073 0.385-0.219 0.531s-0.323 0.219-0.531 0.219h-2.5c-0.208 0-0.385-0.073-0.531-0.219s-0.219-0.323-0.219-0.531v-2.5c0-0.208 0.073-0.385 0.219-0.531s0.323-0.219 0.531-0.219h2.5c0.208 0 0.385 0.073 0.531 0.219s0.219 0.323 0.219 0.531v2.5zM6 11.25c0 0.208-0.073 0.385-0.219 0.531s-0.323 0.219-0.531 0.219h-2.5c-0.208 0-0.385-0.073-0.531-0.219s-0.219-0.323-0.219-0.531v-2.5c0-0.208 0.073-0.385 0.219-0.531s0.323-0.219 0.531-0.219h2.5c0.208 0 0.385 0.073 0.531 0.219s0.219 0.323 0.219 0.531v2.5zM23 24.25c0 0.208-0.073 0.385-0.219 0.531s-0.323 0.219-0.531 0.219h-12.5c-0.208 0-0.385-0.073-0.531-0.219s-0.219-0.323-0.219-0.531v-6c0-0.208 0.073-0.385 0.219-0.531s0.323-0.219 0.531-0.219h12.5c0.208 0 0.385 0.073 0.531 0.219s0.219 0.323 0.219 0.531v6zM23 13.75c0 0.208-0.073 0.385-0.219 0.531s-0.323 0.219-0.531 0.219h-12.5c-0.208 0-0.385-0.073-0.531-0.219s-0.219-0.323-0.219-0.531v-6c0-0.208 0.073-0.385 0.219-0.531s0.323-0.219 0.531-0.219h12.5c0.208 0 0.385 0.073 0.531 0.219s0.219 0.323 0.219 0.531v6zM30 23.25c0 0.208-0.073 0.385-0.219 0.531s-0.323 0.219-0.531 0.219h-2.5c-0.208 0-0.385-0.073-0.531-0.219s-0.219-0.323-0.219-0.531v-2.5c0-0.208 0.073-0.385 0.219-0.531s0.323-0.219 0.531-0.219h2.5c0.208 0 0.385 0.073 0.531 0.219s0.219 0.323 0.219 0.531v2.5zM30 17.25c0 0.208-0.073 0.385-0.219 0.531s-0.323 0.219-0.531 0.219h-2.5c-0.208 0-0.385-0.073-0.531-0.219s-0.219-0.323-0.219-0.531v-2.5c0-0.208 0.073-0.385 0.219-0.531s0.323-0.219 0.531-0.219h2.5c0.208 0 0.385 0.073 0.531 0.219s0.219 0.323 0.219 0.531v2.5zM30 11.25c0 0.208-0.073 0.385-0.219 0.531s-0.323 0.219-0.531 0.219h-2.5c-0.208 0-0.385-0.073-0.531-0.219s-0.219-0.323-0.219-0.531v-2.5c0-0.208 0.073-0.385 0.219-0.531s0.323-0.219 0.531-0.219h2.5c0.208 0 0.385 0.073 0.531 0.219s0.219 0.323 0.219 0.531v2.5z"></path>
</svg>
