<!-- Generated by IcoMoon.io -->
<svg version="1.1" xmlns="http://www.w3.org/2000/svg" width="32" height="32" viewBox="0 0 32 32">
<title>filter</title>
<path d="M30.5-0.013h-29c-0.417 0-0.771 0.146-1.063 0.438-0.291 0.291-0.437 0.645-0.437 1.062s0.146 0.771 0.437 1.063l11.563 11.562v12.875c0 0.5 0.208 0.917 0.625 1.25l5 3.5c0.5 0.333 1.021 0.365 1.563 0.094s0.812-0.719 0.812-1.344v-16.375l11.563-11.562c0.291-0.292 0.437-0.646 0.437-1.063s-0.146-0.771-0.438-1.062c-0.291-0.292-0.645-0.438-1.062-0.438z"></path>
</svg>
