<!-- Generated by IcoMoon.io -->
<svg version="1.1" xmlns="http://www.w3.org/2000/svg" width="32" height="32" viewBox="0 0 32 32">
<title>fire</title>
<path d="M17.5 1.504c0-0.5-0.167-0.885-0.5-1.156s-0.729-0.386-1.188-0.344c-0.458 0.042-0.812 0.271-1.062 0.688-1.583 2.25-2.479 4.25-2.688 6-0.208 1.416 0.042 2.708 0.751 3.875 0.416 0.708 1.229 1.645 2.437 2.812 0.917 0.917 1.542 1.625 1.875 2.125 0.583 0.792 0.875 1.625 0.875 2.5 0 1.125-0.396 2.073-1.188 2.844s-1.739 1.156-2.843 1.156-2.042-0.396-2.813-1.187c-0.771-0.792-1.156-1.75-1.156-2.875v-5.313c0-0.458-0.146-0.823-0.438-1.094s-0.645-0.416-1.062-0.437-0.771 0.135-1.063 0.469c-0.958 1-1.75 2.166-2.375 3.5-0.708 1.583-1.062 3.229-1.062 4.937 0 2.167 0.542 4.167 1.625 6s2.542 3.292 4.375 4.375c1.833 1.083 3.833 1.625 6 1.625s4.167-0.542 6-1.625c1.833-1.083 3.292-2.542 4.375-4.375s1.625-3.833 1.625-6c0-1.833-0.313-3.542-0.938-5.125-0.541-1.25-1.333-2.479-2.375-3.687-0.625-0.709-1.604-1.688-2.937-2.938-1.458-1.333-2.438-2.375-2.938-3.125-0.875-1.167-1.312-2.375-1.312-3.625z"></path>
</svg>
