<!-- Generated by IcoMoon.io -->
<svg version="1.1" xmlns="http://www.w3.org/2000/svg" width="32" height="32" viewBox="0 0 32 32">
<title>flag</title>
<path d="M21.625 6.189c-0.708 0-1.479-0.104-2.313-0.312-0.5-0.125-1.25-0.354-2.25-0.688-1.166-0.375-2.062-0.646-2.687-0.812-1.083-0.25-2.125-0.375-3.125-0.375-1.458 0-2.875 0.25-4.25 0.75 0.208-0.459 0.292-0.959 0.25-1.5-0.042-0.875-0.385-1.625-1.031-2.25s-1.427-0.959-2.344-1c-1-0.042-1.854 0.281-2.563 0.969-0.708 0.687-1.062 1.531-1.062 2.531 0 0.583 0.135 1.125 0.406 1.625s0.636 0.916 1.094 1.25v24.125c0 0.416 0.146 0.771 0.437 1.062 0.292 0.292 0.646 0.438 1.063 0.438h1c0.417 0 0.771-0.146 1.063-0.438s0.437-0.646 0.437-1.062v-5.875c2.167-0.959 4.542-1.438 7.125-1.438 0.708 0 1.479 0.104 2.313 0.313 0.499 0.125 1.249 0.354 2.249 0.687 1.167 0.417 2.063 0.688 2.688 0.813 1.083 0.25 2.125 0.375 3.125 0.375 2.625 0 5.167-0.854 7.625-2.563 0.583-0.375 0.875-0.916 0.875-1.625v-15.187c0-0.75-0.313-1.313-0.938-1.688s-1.25-0.416-1.875-0.125c-2.875 1.334-5.312 2-7.312 2z"></path>
</svg>
