<!-- Generated by IcoMoon.io -->
<svg version="1.1" xmlns="http://www.w3.org/2000/svg" width="32" height="32" viewBox="0 0 32 32">
<title>flag-o</title>
<path d="M21 5.002c-0.625 0-1.313-0.083-2.063-0.25-0.458-0.125-1.166-0.333-2.125-0.625-1.166-0.375-2.083-0.625-2.75-0.75-1.083-0.25-2.145-0.375-3.187-0.375-1.708 0-3.375 0.313-5 0.938 0.125-0.417 0.167-0.855 0.125-1.313-0.083-0.708-0.396-1.312-0.938-1.812s-1.166-0.771-1.875-0.813c-0.875-0.042-1.625 0.229-2.25 0.813s-0.937 1.312-0.937 2.187c0 0.542 0.135 1.042 0.406 1.5s0.636 0.833 1.094 1.125v25.375c0 0.292 0.094 0.531 0.281 0.719 0.188 0.187 0.427 0.281 0.719 0.281h1c0.292 0 0.531-0.094 0.719-0.281 0.187-0.188 0.281-0.427 0.281-0.719v-5.187c1.333-0.625 2.521-1.063 3.563-1.313 1.291-0.333 2.77-0.5 4.437-0.5 0.625 0 1.313 0.083 2.063 0.25 0.458 0.125 1.166 0.333 2.124 0.625 1.167 0.375 2.084 0.625 2.75 0.75 1.084 0.25 2.146 0.375 3.188 0.375 2.792 0 5.458-0.833 8-2.5 0.417-0.292 0.75-0.656 1-1.094 0.25-0.437 0.375-0.906 0.375-1.406v-15c0-0.708-0.208-1.323-0.625-1.844s-0.948-0.875-1.594-1.062c-0.646-0.188-1.302-0.136-1.968 0.156-2.709 1.167-4.98 1.75-6.813 1.75zM29 21.002c-0.792 0.542-1.708 1-2.75 1.375-1.208 0.417-2.417 0.625-3.625 0.625-0.833 0-1.708-0.104-2.625-0.312-0.583-0.125-1.406-0.355-2.469-0.688-1.062-0.333-1.864-0.562-2.406-0.687-0.917-0.209-1.792-0.313-2.625-0.313-1.375 0-2.812 0.135-4.312 0.406s-2.73 0.636-3.688 1.094v-14.5c0.792-0.542 1.708-1 2.75-1.375 1.208-0.417 2.417-0.625 3.625-0.625 0.833 0 1.708 0.104 2.625 0.313 0.583 0.125 1.406 0.354 2.469 0.687s1.864 0.563 2.406 0.688c0.917 0.208 1.792 0.312 2.625 0.312 1.25 0 2.667-0.229 4.25-0.687 1.375-0.334 2.625-0.771 3.75-1.313v15z"></path>
</svg>
