<!-- Generated by IcoMoon.io -->
<svg version="1.1" xmlns="http://www.w3.org/2000/svg" width="32" height="32" viewBox="0 0 32 32">
<title>flask</title>
<path d="M29.313 25.188l-7.313-11.75v-9.438h0.5c0.417 0 0.771-0.146 1.063-0.437s0.437-0.646 0.437-1.063v-1c0-0.417-0.146-0.771-0.438-1.062s-0.645-0.438-1.062-0.438h-13c-0.417 0-0.771 0.146-1.063 0.438-0.291 0.291-0.437 0.645-0.437 1.062v1c0 0.417 0.146 0.771 0.438 1.063s0.645 0.437 1.062 0.437h0.5v9.438l-7.312 11.75c-0.584 0.958-0.792 1.979-0.625 3.062s0.656 1.979 1.468 2.688c0.813 0.708 1.782 1.062 2.907 1.062h19.125c1.125 0 2.093-0.365 2.906-1.094s1.302-1.625 1.469-2.687c0.166-1.063-0.042-2.073-0.625-3.031zM10.625 20l3-4.875c0.25-0.333 0.375-0.708 0.375-1.125v-10h4v10c0 0.417 0.125 0.792 0.375 1.125l3 4.875h-10.75z"></path>
</svg>
