<!-- Generated by IcoMoon.io -->
<svg version="1.1" xmlns="http://www.w3.org/2000/svg" width="32" height="32" viewBox="0 0 32 32">
<title>folder-plus</title>
<path d="M29 8h-12l-4-4h-10c-0.833 0-1.542 0.292-2.125 0.875s-0.875 1.292-0.875 2.125v18c0 0.833 0.292 1.542 0.875 2.125s1.292 0.875 2.125 0.875h26c0.833 0 1.542-0.292 2.125-0.875s0.875-1.292 0.875-2.125v-14c0-0.833-0.292-1.542-0.875-2.125s-1.292-0.875-2.125-0.875zM23 18.5c0 0.292-0.094 0.531-0.281 0.719-0.188 0.187-0.427 0.281-0.719 0.281h-4.5v4.5c0 0.292-0.094 0.531-0.281 0.719-0.188 0.187-0.427 0.281-0.719 0.281h-1c-0.292 0-0.531-0.094-0.719-0.281-0.187-0.188-0.281-0.427-0.281-0.719v-4.5h-4.5c-0.292 0-0.531-0.094-0.719-0.281-0.187-0.188-0.281-0.427-0.281-0.719v-1c0-0.292 0.094-0.531 0.281-0.719 0.188-0.187 0.427-0.281 0.719-0.281h4.5v-4.5c0-0.292 0.094-0.531 0.281-0.719s0.427-0.281 0.719-0.281h1c0.292 0 0.531 0.094 0.719 0.281 0.187 0.188 0.281 0.427 0.281 0.719v4.5h4.5c0.292 0 0.531 0.094 0.719 0.281 0.187 0.188 0.281 0.427 0.281 0.719v1z"></path>
</svg>
