<!-- Generated by IcoMoon.io -->
<svg version="1.1" xmlns="http://www.w3.org/2000/svg" width="36" height="32" viewBox="0 0 36 32">
<title>folder-open-o</title>
<path d="M33.008 14h-3v-3c0-0.833-0.292-1.542-0.875-2.125-0.584-0.583-1.292-0.875-2.125-0.875h-10l-4-4h-10c-0.834 0-1.542 0.292-2.125 0.875-0.584 0.583-0.875 1.292-0.875 2.125v18c0 0.833 0.291 1.542 0.875 2.125 0.583 0.583 1.291 0.875 2.125 0.875h25c0.5 0 0.979-0.125 1.437-0.375s0.834-0.604 1.125-1.063l5-8c0.375-0.625 0.5-1.302 0.375-2.031s-0.458-1.333-1-1.812c-0.541-0.479-1.187-0.719-1.937-0.719zM3.383 7h8.375l4 4h10.875c0.083 0 0.166 0.042 0.25 0.125 0.083 0.083 0.125 0.167 0.125 0.25v2.625h-17.5c-0.542 0-1.042 0.125-1.5 0.375s-0.813 0.604-1.063 1.062l-3.937 6.5v-14.562c0-0.083 0.041-0.167 0.125-0.25s0.166-0.125 0.25-0.125zM28.008 25h-23.5l4.812-8h23.688l-5 8z"></path>
</svg>
