<!-- Generated by IcoMoon.io -->
<svg version="1.1" xmlns="http://www.w3.org/2000/svg" width="32" height="32" viewBox="0 0 32 32">
<title>folder-o</title>
<path d="M29 8h-12l-3.438-3.438c-0.374-0.374-0.833-0.562-1.374-0.562h-9.188c-0.833 0-1.542 0.292-2.125 0.875s-0.875 1.292-0.875 2.125v18c0 0.833 0.292 1.542 0.875 2.125s1.292 0.875 2.125 0.875h26c0.833 0 1.542-0.292 2.125-0.875s0.875-1.292 0.875-2.125v-14c0-0.833-0.292-1.542-0.875-2.125s-1.292-0.875-2.125-0.875zM29 25h-26v-18h8.75l3.438 3.438c0.374 0.374 0.833 0.562 1.374 0.562h12.438v14z"></path>
</svg>
