<!-- Generated by IcoMoon.io -->
<svg version="1.1" xmlns="http://www.w3.org/2000/svg" width="36" height="32" viewBox="0 0 36 32">
<title>folder-open</title>
<path d="M35.797 18.25l-4.563 7.75c-0.333 0.625-0.812 1.115-1.437 1.469s-1.292 0.531-2 0.531h-25c-0.583 0-1.021-0.25-1.313-0.75-0.291-0.5-0.291-1 0-1.5l4.563-7.75c0.333-0.625 0.812-1.115 1.437-1.469s1.292-0.531 2-0.531h25c0.584 0 1.021 0.25 1.313 0.75s0.292 1 0 1.5zM9.484 14c-1.083 0-2.083 0.271-3 0.813s-1.645 1.27-2.187 2.187l-4.313 7.375v-17.375c0-0.833 0.292-1.542 0.875-2.125 0.584-0.583 1.292-0.875 2.125-0.875h10l4 4h10c0.834 0 1.542 0.292 2.125 0.875 0.584 0.583 0.875 1.292 0.875 2.125v3h-20.5z"></path>
</svg>
