<!-- Generated by IcoMoon.io -->
<svg version="1.1" xmlns="http://www.w3.org/2000/svg" width="32" height="32" viewBox="0 0 32 32">
<title>font</title>
<path d="M11.5 26h-1.5l1.688-5.063h8.625l1.624 5.063h-1.437c-0.292 0-0.531 0.094-0.719 0.281-0.187 0.188-0.281 0.427-0.281 0.719v2c0 0.292 0.094 0.531 0.281 0.719 0.188 0.187 0.427 0.281 0.719 0.281h8.5c0.292 0 0.531-0.094 0.719-0.281 0.187-0.188 0.281-0.427 0.281-0.719v-2c0-0.292-0.094-0.531-0.281-0.719-0.188-0.187-0.427-0.281-0.719-0.281h-1.688l-8.125-23.313c-0.041-0.208-0.156-0.375-0.343-0.5s-0.386-0.187-0.594-0.187h-4.5c-0.208 0-0.406 0.062-0.594 0.187s-0.302 0.292-0.344 0.5l-8.125 23.313h-1.687c-0.292 0-0.531 0.094-0.719 0.281-0.187 0.188-0.281 0.427-0.281 0.719v2c0 0.292 0.094 0.531 0.281 0.719 0.188 0.187 0.427 0.281 0.719 0.281h8.5c0.292 0 0.531-0.094 0.719-0.281 0.187-0.188 0.281-0.427 0.281-0.719v-2c0-0.292-0.094-0.531-0.281-0.719-0.188-0.187-0.427-0.281-0.719-0.281zM15.5 9c0.208-0.708 0.375-1.417 0.5-2.125 0.083 0.708 0.25 1.417 0.5 2.125l2.563 7.75h-6.188l2.625-7.75z"></path>
</svg>
