<!-- Generated by IcoMoon.io -->
<svg version="1.1" xmlns="http://www.w3.org/2000/svg" width="32" height="32" viewBox="0 0 32 32">
<title>form-custom-o</title>
<path d="M29 30h-26c-0.833 0-1.542-0.292-2.125-0.875s-0.875-1.292-0.875-2.125v-22c0-0.833 0.292-1.542 0.875-2.125s1.292-0.875 2.125-0.875h26c0.833 0 1.542 0.292 2.125 0.875s0.875 1.292 0.875 2.125v22c0 0.833-0.292 1.542-0.875 2.125s-1.292 0.875-2.125 0.875zM28.625 5h-25.25c-0.083 0-0.167 0.042-0.25 0.125s-0.125 0.167-0.125 0.25v21.25c0 0.083 0.042 0.167 0.125 0.25s0.167 0.125 0.25 0.125h25.25c0.083 0 0.167-0.042 0.25-0.125s0.125-0.167 0.125-0.25v-21.25c0-0.083-0.042-0.167-0.125-0.25s-0.167-0.125-0.25-0.125zM19.25 23.5h-12.5c-0.208 0-0.385-0.073-0.531-0.219s-0.219-0.323-0.219-0.531v-1.5c0-0.208 0.073-0.385 0.219-0.531s0.323-0.219 0.531-0.219h12.5c0.208 0 0.385 0.073 0.531 0.219s0.219 0.323 0.219 0.531v1.5c0 0.208-0.073 0.385-0.219 0.531s-0.323 0.219-0.531 0.219zM25.75 22.65h-3.5c-0.069 0-0.128-0.027-0.177-0.081s-0.073-0.12-0.073-0.198v-0.742c0-0.078 0.024-0.144 0.073-0.198s0.108-0.081 0.177-0.081h3.5c0.069 0 0.128 0.027 0.177 0.081s0.073 0.12 0.073 0.198v0.742c0 0.078-0.024 0.144-0.073 0.198s-0.108 0.081-0.177 0.081zM24.425 14.009c0.017 0 0.145 0.027 0.199 0.082s0.082 0.121 0.082 0.199v1.063h1.013c0.078 0 0.144 0.027 0.199 0.082 0.055 0.054 0.082 0.121 0.082 0.199v0.75c0 0.093-0.027 0.144-0.082 0.199s-0.121 0.082-0.199 0.082h-1.013v1.063c0 0.078-0.027 0.144-0.082 0.199-0.054 0.054-0.121 0.082-0.199 0.082h-0.75c-0.078 0-0.145-0.027-0.199-0.082s-0.082-0.121-0.082-0.199v-1.063h-1.113c-0.078 0-0.144-0.027-0.199-0.082s-0.082-0.121-0.082-0.199v-0.75c0-0.078 0.027-0.145 0.082-0.199s0.121-0.082 0.199-0.082h1.113v-1.063c0-0.078 0.027-0.144 0.082-0.199 0.054-0.055 0.121-0.082 0.199-0.082h0.75zM19.25 14.5c0.208 0 0.385 0.073 0.531 0.219s0.219 0.323 0.219 0.531v1.5c0 0.208-0.073 0.385-0.219 0.531s-0.323 0.219-0.531 0.219h-12.5c-0.208 0-0.385-0.073-0.531-0.219s-0.219-0.323-0.219-0.531v-1.5c0-0.208 0.073-0.385 0.219-0.531s0.323-0.219 0.531-0.219h12.5zM10.25 10c0-0.625-0.219-1.156-0.656-1.594s-0.969-0.656-1.594-0.656-1.156 0.219-1.594 0.656c-0.437 0.438-0.656 0.969-0.656 1.594s0.219 1.156 0.656 1.594c0.438 0.437 0.969 0.656 1.594 0.656s1.156-0.219 1.594-0.656c0.437-0.438 0.656-0.969 0.656-1.594zM24.425 12h-0.75c-0.078 0-0.145-0.027-0.199-0.082s-0.082-0.121-0.082-0.199v-1.063h-1.113c-0.078 0-0.144-0.027-0.199-0.082-0.055-0.054-0.082-0.121-0.082-0.199v-0.75c0-0.078 0.027-0.145 0.082-0.199s0.121-0.082 0.199-0.082h1.113v-1.063c0-0.078 0.027-0.144 0.082-0.199 0.054-0.055 0.121-0.082 0.199-0.082h0.75c0.017 0 0.145 0.027 0.199 0.082s0.082 0.121 0.082 0.199v1.063h1.013c0.078 0 0.144 0.027 0.199 0.082 0.055 0.054 0.082 0.121 0.082 0.199v0.75c0 0.093-0.027 0.145-0.082 0.199s-0.121 0.082-0.199 0.082h-1.013v1.063c0 0.078-0.027 0.144-0.082 0.199-0.054 0.055-0.121 0.082-0.199 0.082zM19.25 11.5h-6.5c-0.208 0-0.385-0.073-0.531-0.219s-0.219-0.323-0.219-0.531v-1.5c0-0.208 0.073-0.385 0.219-0.531s0.323-0.219 0.531-0.219h6.5c0.208 0 0.385 0.073 0.531 0.219s0.219 0.323 0.219 0.531v1.5c0 0.208-0.073 0.385-0.219 0.531s-0.323 0.219-0.531 0.219z"></path>
</svg>
