<!-- Generated by IcoMoon.io -->
<svg version="1.1" xmlns="http://www.w3.org/2000/svg" width="32" height="32" viewBox="0 0 32 32">
<title>gavel</title>
<path d="M31.563 12.438l-1.438-1.376c-0.292-0.291-0.646-0.437-1.063-0.437s-0.77 0.146-1.062 0.437l-0.313 0.313-7.062-7.063 0.312-0.312c0.292-0.292 0.438-0.646 0.438-1.063s-0.146-0.77-0.438-1.062l-1.375-1.438c-0.291-0.291-0.645-0.437-1.062-0.437s-0.771 0.146-1.063 0.437l-7.812 7.75c-0.292 0.334-0.438 0.698-0.438 1.094s0.146 0.74 0.438 1.031l1.437 1.438c0.292 0.292 0.646 0.437 1.063 0.437s0.771-0.145 1.062-0.437l0.313-0.375 2.5 2.5-5.063 5.062-0.375-0.375c-0.375-0.375-0.843-0.562-1.406-0.562-0.562 0-1.031 0.188-1.406 0.563l-7.188 7.187c-0.375 0.375-0.562 0.844-0.562 1.406 0 0.563 0.187 1.032 0.562 1.407l2.875 2.875c0.375 0.375 0.844 0.562 1.407 0.562s1.031-0.188 1.406-0.563l7.187-7.187c0.375-0.375 0.563-0.844 0.563-1.406 0-0.563-0.188-1.032-0.563-1.407l-0.375-0.375 5.063-5.062 2.5 2.5-0.375 0.313c-0.292 0.291-0.438 0.645-0.438 1.062s0.146 0.771 0.438 1.063l1.437 1.437c0.292 0.292 0.636 0.438 1.032 0.438s0.76-0.146 1.093-0.438l7.75-7.813c0.292-0.291 0.438-0.645 0.438-1.062s-0.146-0.771-0.438-1.063z"></path>
</svg>
