<!-- Generated by IcoMoon.io -->
<svg version="1.1" xmlns="http://www.w3.org/2000/svg" width="32" height="32" viewBox="0 0 32 32">
<title>gear</title>
<path d="M27.813 18.188l2.625 1.562c0.166 0.083 0.281 0.208 0.343 0.375s0.073 0.333 0.032 0.5c-0.709 2.208-1.855 4.167-3.438 5.875-0.125 0.125-0.271 0.208-0.438 0.25s-0.333 0.021-0.5-0.063l-2.625-1.562c-1.125 0.958-2.395 1.688-3.812 2.188v3.062c0 0.167-0.052 0.323-0.156 0.469s-0.24 0.239-0.407 0.281c-2.291 0.5-4.583 0.5-6.875 0-0.166-0.042-0.302-0.135-0.406-0.281s-0.156-0.302-0.156-0.469v-3.063c-1.417-0.5-2.688-1.229-3.813-2.187l-2.624 1.563c-0.167 0.083-0.334 0.104-0.5 0.062s-0.313-0.125-0.438-0.25c-1.583-1.708-2.729-3.667-3.437-5.875-0.042-0.167-0.032-0.333 0.031-0.5s0.177-0.292 0.344-0.375l2.625-1.563c-0.25-1.458-0.25-2.916 0-4.374l-2.625-1.563c-0.167-0.083-0.282-0.208-0.344-0.375-0.063-0.167-0.073-0.333-0.031-0.5 0.708-2.208 1.854-4.167 3.437-5.875 0.125-0.125 0.271-0.208 0.438-0.25s0.333-0.021 0.5 0.063l2.625 1.562c1.125-0.958 2.395-1.688 3.812-2.188v-3.062c0-0.167 0.052-0.323 0.156-0.469s0.24-0.239 0.406-0.281c2.292-0.5 4.584-0.5 6.875 0 0.167 0.042 0.303 0.135 0.407 0.281s0.156 0.302 0.156 0.469v3.063c1.417 0.5 2.688 1.229 3.813 2.187l2.625-1.562c0.166-0.084 0.333-0.105 0.5-0.063 0.166 0.042 0.312 0.125 0.437 0.25 1.583 1.708 2.729 3.667 3.438 5.875 0.041 0.167 0.031 0.333-0.032 0.5s-0.177 0.292-0.343 0.375l-2.625 1.563c0.25 1.458 0.25 2.916 0 4.374zM21 16.001c0-1.375-0.49-2.552-1.469-3.531s-2.156-1.469-3.531-1.469c-1.375 0-2.552 0.49-3.531 1.469s-1.469 2.156-1.469 3.531c0 1.375 0.49 2.552 1.469 3.531s2.156 1.469 3.531 1.469c1.375 0 2.552-0.49 3.531-1.469s1.469-2.156 1.469-3.531z"></path>
</svg>
