<!-- Generated by IcoMoon.io -->
<svg version="1.1" xmlns="http://www.w3.org/2000/svg" width="40" height="32" viewBox="0 0 40 32">
<title>gears</title>
<path d="M32.009 11.992l-0.5 0.875c-0.083 0.167-0.219 0.281-0.406 0.344-0.188 0.062-0.365 0.073-0.532 0.031-0.75-0.292-1.416-0.688-2-1.188-0.166-0.125-0.26-0.281-0.281-0.468-0.021-0.188 0.011-0.365 0.094-0.532l0.5-0.875c-0.417-0.5-0.75-1.062-1-1.687h-1c-0.208 0-0.385-0.063-0.531-0.188s-0.219-0.291-0.219-0.5c-0.167-0.75-0.188-1.52-0.063-2.312 0.042-0.167 0.136-0.313 0.282-0.438s0.323-0.187 0.531-0.187h1c0.25-0.625 0.583-1.208 1-1.75l-0.5-0.875c-0.083-0.167-0.115-0.344-0.094-0.531s0.115-0.344 0.281-0.469c0.584-0.458 1.25-0.833 2-1.125 0.167-0.083 0.344-0.094 0.532-0.031 0.187 0.062 0.323 0.177 0.406 0.343l0.5 0.938c0.667-0.125 1.333-0.125 2 0l0.5-0.938c0.083-0.166 0.219-0.281 0.406-0.343 0.188-0.063 0.365-0.052 0.531 0.031 0.75 0.25 1.417 0.625 2 1.125 0.167 0.125 0.261 0.281 0.282 0.469s-0.011 0.364-0.094 0.531l-0.5 0.875c0.417 0.542 0.75 1.125 1 1.75h1c0.208 0 0.385 0.062 0.531 0.187s0.219 0.271 0.219 0.438c0.167 0.792 0.167 1.562 0 2.312 0 0.209-0.073 0.375-0.219 0.5s-0.323 0.188-0.531 0.188h-1c-0.25 0.625-0.583 1.187-1 1.687l0.5 0.875c0.083 0.167 0.115 0.344 0.094 0.532-0.021 0.187-0.115 0.343-0.282 0.468-0.583 0.5-1.25 0.896-2 1.188-0.166 0.042-0.343 0.031-0.531-0.031s-0.323-0.177-0.406-0.344l-0.5-0.875c-0.667 0.125-1.333 0.125-2 0zM31.384 8.304c0.75 0.584 1.51 0.761 2.281 0.532s1.271-0.729 1.5-1.5c0.229-0.771 0.052-1.552-0.531-2.344-0.75-0.583-1.51-0.75-2.281-0.5s-1.271 0.76-1.5 1.531c-0.229 0.771-0.052 1.531 0.531 2.281zM24.134 17.929l2.125 1.063c0.333 0.167 0.562 0.427 0.687 0.781s0.105 0.698-0.062 1.031c-0.375 1.084-1.25 2.459-2.625 4.125-0.25 0.25-0.552 0.407-0.906 0.469s-0.677 0.011-0.969-0.156l-1.813-1.063c-1.041 0.875-2.187 1.542-3.437 2v2.125c0 0.334-0.125 0.646-0.375 0.938s-0.542 0.458-0.875 0.5c-1.583 0.292-3.167 0.292-4.75 0-0.375-0.042-0.677-0.208-0.906-0.5s-0.344-0.604-0.344-0.938v-2.125c-1.292-0.458-2.438-1.125-3.438-2l-1.812 1.063c-0.333 0.167-0.677 0.219-1.031 0.156-0.354-0.062-0.636-0.219-0.844-0.469-1.333-1.625-2.208-3-2.625-4.125-0.167-0.333-0.188-0.677-0.063-1.031s0.355-0.614 0.688-0.781l2.062-1.063c-0.25-1.333-0.25-2.645 0-3.937l-2.062-1.063c-0.333-0.208-0.563-0.479-0.688-0.812s-0.104-0.667 0.063-1c0.417-1.125 1.292-2.5 2.625-4.125 0.208-0.292 0.49-0.469 0.844-0.531 0.354-0.063 0.698 0.010 1.031 0.218l1.812 1c1.042-0.875 2.188-1.52 3.438-1.937v-2.125c0-0.375 0.115-0.698 0.344-0.969s0.531-0.427 0.906-0.469c1.583-0.291 3.167-0.312 4.75-0.062 0.333 0.083 0.625 0.26 0.875 0.531s0.375 0.594 0.375 0.969v2.125c1.25 0.458 2.396 1.104 3.437 1.937l1.813-1c0.292-0.208 0.615-0.281 0.969-0.218s0.656 0.239 0.906 0.531c1.333 1.583 2.208 2.958 2.625 4.125 0.125 0.333 0.135 0.667 0.031 1s-0.323 0.604-0.656 0.812l-2.125 1.063c0.25 1.292 0.25 2.604 0 3.937zM16.821 19.242c0.875-1.125 1.271-2.313 1.188-3.563-0.083-1.125-0.521-2.093-1.313-2.906-0.791-0.812-1.77-1.26-2.937-1.344-1.25-0.083-2.438 0.334-3.563 1.25-0.875 1.125-1.27 2.313-1.187 3.563 0.042 1.125 0.469 2.094 1.281 2.906 0.813 0.813 1.781 1.24 2.906 1.281 1.25 0.084 2.459-0.312 3.625-1.187zM32.009 30.679l-0.5 0.875c-0.083 0.167-0.219 0.282-0.406 0.344-0.188 0.063-0.365 0.073-0.532 0.031-0.75-0.291-1.416-0.687-2-1.187-0.166-0.125-0.26-0.281-0.281-0.469-0.021-0.187 0.011-0.364 0.094-0.531l0.5-0.875c-0.417-0.5-0.75-1.063-1-1.688h-1c-0.208 0-0.385-0.062-0.531-0.187s-0.219-0.292-0.219-0.5c-0.167-0.75-0.188-1.521-0.063-2.313 0.042-0.166 0.136-0.312 0.282-0.437s0.323-0.188 0.531-0.188h1c0.25-0.625 0.583-1.208 1-1.75l-0.5-0.875c-0.083-0.166-0.115-0.343-0.094-0.531s0.115-0.344 0.281-0.469c0.584-0.5 1.25-0.875 2-1.125 0.167-0.083 0.344-0.093 0.532-0.031s0.323 0.177 0.406 0.344l0.5 0.875c0.667-0.083 1.333-0.063 2 0.062l0.5-0.937c0.083-0.167 0.219-0.281 0.406-0.344 0.188-0.062 0.365-0.052 0.531 0.031 0.75 0.25 1.417 0.625 2 1.125 0.167 0.125 0.261 0.282 0.282 0.469s-0.011 0.365-0.094 0.531l-0.5 0.875c0.417 0.542 0.75 1.125 1 1.75h1c0.208 0 0.385 0.063 0.531 0.188s0.219 0.271 0.219 0.437c0.167 0.792 0.167 1.563 0 2.313 0 0.208-0.073 0.375-0.219 0.5s-0.323 0.187-0.531 0.187h-1c-0.25 0.625-0.583 1.188-1 1.688l0.5 0.875c0.083 0.167 0.115 0.344 0.094 0.531-0.021 0.188-0.115 0.344-0.282 0.469-0.583 0.5-1.25 0.896-2 1.187-0.166 0.042-0.343 0.032-0.531-0.031s-0.323-0.177-0.406-0.344l-0.5-0.875c-0.667 0.125-1.333 0.125-2 0zM31.384 26.992c0.75 0.583 1.51 0.75 2.281 0.5s1.271-0.75 1.5-1.5c0.229-0.75 0.052-1.521-0.531-2.313-0.75-0.583-1.51-0.75-2.281-0.5s-1.271 0.761-1.5 1.532c-0.229 0.771-0.052 1.531 0.531 2.281z"></path>
</svg>
