<!-- Generated by IcoMoon.io -->
<svg version="1.1" xmlns="http://www.w3.org/2000/svg" width="32" height="32" viewBox="0 0 32 32">
<title>gift</title>
<path d="M2 28c0 0.542 0.198 1.010 0.594 1.406s0.864 0.594 1.406 0.594h10v-10h-12v8zM30 10h-2.625c0.417-0.833 0.625-1.667 0.625-2.5 0-1.5-0.542-2.792-1.625-3.875s-2.375-1.625-3.875-1.625c-1.25 0-2.375 0.354-3.375 1.063-0.917 0.625-1.938 1.687-3.063 3.187-1.125-1.5-2.145-2.563-3.062-3.188-1-0.708-2.125-1.062-3.375-1.062-1.5 0-2.792 0.542-3.875 1.625s-1.625 2.375-1.625 3.875c0 0.875 0.208 1.708 0.625 2.5h-2.75c-0.542 0-1.010 0.198-1.406 0.594s-0.594 0.864-0.594 1.406v5c0 0.292 0.094 0.531 0.281 0.719 0.188 0.187 0.427 0.281 0.719 0.281h30c0.292 0 0.531-0.094 0.719-0.281 0.187-0.188 0.281-0.427 0.281-0.719v-5c0-0.542-0.198-1.010-0.594-1.406s-0.864-0.594-1.406-0.594zM9.625 10c-0.708 0-1.302-0.24-1.781-0.719s-0.719-1.073-0.719-1.781c0-0.708 0.24-1.302 0.719-1.781s1.073-0.719 1.781-0.719c0.5 0 0.917 0.083 1.25 0.25 0.458 0.208 0.979 0.646 1.563 1.313 0.666 0.75 1.52 1.895 2.562 3.437h-5.375zM22.5 10h-5.375c1.042-1.542 1.896-2.688 2.563-3.438 0.583-0.666 1.104-1.104 1.562-1.312 0.333-0.167 0.75-0.25 1.25-0.25 0.708 0 1.302 0.24 1.781 0.719s0.719 1.073 0.719 1.781c0 0.708-0.24 1.302-0.719 1.781s-1.073 0.719-1.781 0.719zM18 30h10c0.542 0 1.010-0.198 1.406-0.594s0.594-0.864 0.594-1.406v-8h-12v10z"></path>
</svg>
