<!-- Generated by IcoMoon.io -->
<svg version="1.1" xmlns="http://www.w3.org/2000/svg" width="32" height="32" viewBox="0 0 32 32">
<title>globe</title>
<path d="M21.563 10c-0.5-2.833-1.25-5.125-2.25-6.875s-2.105-2.625-3.313-2.625c-1.208 0-2.312 0.875-3.312 2.625s-1.73 4.042-2.188 6.875h11.063zM10 16c0 1.333 0.063 2.667 0.188 4h11.625c0.125-1.333 0.187-2.667 0.187-4s-0.063-2.667-0.188-4h-11.625c-0.125 1.333-0.187 2.667-0.187 4zM30.313 10c-0.917-2.125-2.24-3.969-3.969-5.531s-3.698-2.677-5.907-3.344c1.459 2.083 2.5 5.042 3.125 8.875h6.75zM11.563 1.125c-2.208 0.667-4.177 1.781-5.906 3.344s-3.052 3.406-3.969 5.531h6.75c0.584-3.833 1.625-6.792 3.125-8.875zM30.939 12h-7.126c0.125 1.375 0.188 2.708 0.188 4s-0.063 2.625-0.188 4h7.125c0.375-1.333 0.563-2.667 0.563-4s-0.188-2.667-0.563-4zM8.002 16c0-1.292 0.063-2.625 0.188-4h-7.126c-0.375 1.375-0.562 2.708-0.562 4s0.187 2.625 0.562 4h7.126c-0.126-1.417-0.188-2.75-0.188-4zM10.502 22c0.458 2.833 1.188 5.125 2.188 6.875s2.104 2.625 3.312 2.625 2.313-0.875 3.313-2.625c1-1.75 1.729-4.042 2.187-6.875h-11zM20.44 30.875c2.208-0.667 4.177-1.781 5.906-3.344 1.729-1.562 3.052-3.406 3.968-5.531h-6.75c-0.583 3.833-1.625 6.792-3.125 8.875zM1.69 22c0.917 2.125 2.24 3.969 3.969 5.531 1.729 1.563 3.698 2.677 5.906 3.344-1.458-2.083-2.5-5.042-3.125-8.875h-6.75z"></path>
</svg>
