<!-- Generated by IcoMoon.io -->
<svg version="1.1" xmlns="http://www.w3.org/2000/svg" width="32" height="32" viewBox="0 0 32 32">
<title>globe-americas</title>
<path d="M16 0.5c-2.792 0-5.375 0.698-7.75 2.094s-4.26 3.281-5.656 5.656c-1.396 2.375-2.094 4.958-2.094 7.75s0.698 5.375 2.094 7.75c1.396 2.375 3.281 4.26 5.656 5.656s4.958 2.094 7.75 2.094c2.792 0 5.375-0.698 7.75-2.094s4.26-3.281 5.656-5.656c1.396-2.375 2.094-4.958 2.094-7.75s-0.698-5.375-2.094-7.75c-1.396-2.375-3.281-4.26-5.656-5.656s-4.958-2.094-7.75-2.094zM21.125 22.875c-0.333 0.292-0.583 0.521-0.75 0.688s-0.271 0.395-0.313 0.687l-0.062 0.25c-0.083 0.333-0.167 0.583-0.25 0.75l-1.063 2.938c-0.916 0.208-1.812 0.312-2.687 0.312v-1.688c0.042-0.416-0.073-0.947-0.344-1.593s-0.614-1.177-1.031-1.594c-0.417-0.417-0.625-0.896-0.625-1.438v-2c0-0.375-0.094-0.718-0.281-1.031s-0.427-0.552-0.719-0.719c-1.292-0.708-2.302-1.25-3.031-1.625s-1.406-0.833-2.031-1.375l-0.063-0.062c-0.417-0.375-0.792-0.813-1.125-1.313l-2.125-3.187c0.625-1.417 1.49-2.677 2.594-3.781s2.385-1.969 3.844-2.594l1.5 0.75c0.333 0.167 0.656 0.156 0.968-0.031 0.313-0.188 0.469-0.469 0.469-0.844v-0.688c0.5-0.083 1-0.145 1.5-0.187l1.813 1.813c0.166 0.166 0.25 0.395 0.25 0.687s-0.084 0.521-0.25 0.688l-0.938 0.937c-0.125 0.125-0.188 0.25-0.188 0.375s0.063 0.25 0.188 0.375l0.25 0.25c0.125 0.125 0.188 0.25 0.188 0.375s-0.063 0.25-0.188 0.375l-0.5 0.5c-0.083 0.083-0.188 0.125-0.313 0.125h-0.562c-0.167 0-0.292 0.042-0.375 0.125l-0.625 0.625c-0.167 0.167-0.188 0.354-0.063 0.563l0.938 1.937c0.083 0.167 0.083 0.333 0 0.5s-0.229 0.25-0.438 0.25h-0.374c-0.125 0-0.23-0.042-0.313-0.125l-0.562-0.5c-0.292-0.25-0.625-0.313-1-0.188l-1.938 0.626c-0.333 0.125-0.5 0.354-0.5 0.687s0.146 0.563 0.438 0.688l0.687 0.375c0.583 0.291 1.208 0.437 1.875 0.437 0.167 0 0.354 0.104 0.563 0.313 0.125 0.166 0.333 0.416 0.625 0.75 0.375 0.541 0.645 0.854 0.812 0.937h4.188c0.541 0 1 0.188 1.375 0.563l0.875 0.875c0.375 0.375 0.562 0.833 0.562 1.375 0 0.791-0.292 1.479-0.875 2.062zM26.563 17.125c-0.375-0.083-0.667-0.292-0.875-0.625l-1.125-1.688c-0.167-0.249-0.25-0.52-0.25-0.812s0.083-0.563 0.25-0.813l1.187-1.874c0.167-0.209 0.375-0.375 0.625-0.5l0.813-0.375c0.875 1.75 1.312 3.604 1.312 5.562 0 0.458-0.042 1-0.125 1.625l-1.813-0.5z"></path>
</svg>
