<!-- Generated by IcoMoon.io -->
<svg version="1.1" xmlns="http://www.w3.org/2000/svg" width="40" height="32" viewBox="0 0 40 32">
<title>graduation-cap</title>
<path d="M38.875 9.578l-17.437-5.375c-0.959-0.292-1.917-0.292-2.875 0l-17.438 5.375c-0.5 0.167-0.833 0.448-1 0.844s-0.167 0.792 0 1.187c0.167 0.396 0.5 0.677 1 0.844l3 0.938c-0.708 0.875-1.083 1.854-1.125 2.937-0.667 0.375-1 0.917-1 1.625s0.292 1.271 0.875 1.688l-1.625 7.187c-0.042 0.292 0.031 0.563 0.219 0.813 0.187 0.25 0.448 0.375 0.781 0.375h3.5c0.333 0 0.594-0.125 0.781-0.375 0.188-0.25 0.261-0.521 0.219-0.813l-1.625-7.187c0.583-0.417 0.875-0.969 0.875-1.657s-0.333-1.239-1-1.656c0.083-0.958 0.521-1.729 1.313-2.312l12.25 3.75c0.958 0.333 1.916 0.333 2.875 0l17.437-5.313c0.5-0.167 0.833-0.448 1-0.844s0.167-0.791 0-1.187-0.5-0.677-1-0.844zM22.063 19.703c-1.375 0.417-2.75 0.417-4.125 0l-9.063-2.75-0.875 7.063c0 0.708 0.542 1.375 1.625 2s2.542 1.114 4.375 1.468c1.833 0.355 3.833 0.532 6 0.532s4.167-0.177 6-0.532c1.833-0.354 3.292-0.843 4.375-1.468s1.625-1.292 1.625-2l-0.875-7.063-9.062 2.75z"></path>
</svg>
