<!-- Generated by IcoMoon.io -->
<svg version="1.1" xmlns="http://www.w3.org/2000/svg" width="36" height="32" viewBox="0 0 36 32">
<title>hand-holding-usd</title>
<path d="M22 20c0.625 0 1.135 0.24 1.531 0.719s0.552 1.010 0.469 1.593c-0.083 0.5-0.333 0.907-0.75 1.219s-0.875 0.469-1.375 0.469h-4.875c-0.292 0-0.531 0.094-0.719 0.281-0.187 0.188-0.281 0.427-0.281 0.719s0.094 0.531 0.281 0.719c0.188 0.187 0.427 0.281 0.719 0.281h7.375c0.958 0 1.792-0.292 2.5-0.875l5.813-4.625c0.375-0.333 0.822-0.5 1.343-0.5s0.948 0.167 1.282 0.5c0.5 0.417 0.739 0.937 0.718 1.562s-0.281 1.125-0.781 1.5l-9.437 7.563c-0.75 0.583-1.584 0.875-2.5 0.875h-22.313c-0.292 0-0.531-0.094-0.719-0.281-0.187-0.188-0.281-0.427-0.281-0.719v-6c0-0.292 0.094-0.531 0.281-0.719 0.188-0.187 0.427-0.281 0.719-0.281h3.438l2.937-2.375c1.333-1.083 2.875-1.625 4.625-1.625h10zM19.515 0c0.292 0 0.531 0.094 0.719 0.281 0.187 0.188 0.281 0.427 0.281 0.719v1.125c0.75 0.083 1.417 0.313 2 0.688 0.167 0.124 0.26 0.312 0.281 0.562s-0.052 0.458-0.219 0.625l-1.062 1.063c-0.25 0.25-0.542 0.291-0.875 0.125-0.208-0.084-0.438-0.125-0.688-0.125h-2c-0.166 0-0.302 0.052-0.406 0.156s-0.156 0.219-0.156 0.344c0 0.291 0.125 0.458 0.375 0.5l3.125 0.937c0.708 0.208 1.312 0.573 1.812 1.094s0.792 1.135 0.875 1.844c0.125 1-0.114 1.885-0.718 2.656-0.605 0.771-1.386 1.198-2.344 1.281v1.125c0 0.292-0.094 0.531-0.281 0.719-0.188 0.187-0.427 0.281-0.719 0.281h-1c-0.292 0-0.531-0.094-0.719-0.281-0.187-0.188-0.281-0.427-0.281-0.719v-1.125c-0.75-0.083-1.417-0.313-2-0.688-0.208-0.124-0.313-0.312-0.313-0.562s0.084-0.458 0.25-0.625l1.063-1.063c0.25-0.249 0.542-0.291 0.875-0.124 0.208 0.083 0.437 0.125 0.687 0.125h2c0.167-0.001 0.302-0.053 0.407-0.157 0.104-0.104 0.156-0.218 0.156-0.343 0-0.292-0.125-0.459-0.375-0.5l-3.125-0.938c-0.708-0.208-1.313-0.573-1.813-1.094s-0.791-1.135-0.875-1.843c-0.125-1 0.115-1.886 0.719-2.657s1.386-1.198 2.344-1.281v-1.125c0-0.292 0.094-0.531 0.281-0.719 0.188-0.187 0.427-0.281 0.719-0.281h1z"></path>
</svg>
