<!-- Generated by IcoMoon.io -->
<svg version="1.1" xmlns="http://www.w3.org/2000/svg" width="32" height="32" viewBox="0 0 32 32">
<title>hand-point-left</title>
<path d="M2.813 9.75h9.312c-0.375-0.542-0.667-1.063-0.875-1.563-0.292-0.666-0.344-1.322-0.156-1.968s0.541-1.177 1.062-1.594 1.136-0.625 1.844-0.625c1.167 0 2 0.604 2.5 1.813 0.333 0.791 1.313 1.708 2.938 2.75 1.25 0.833 2.52 1.52 3.812 2.062 0.542 0.25 0.969 0.625 1.281 1.125 0.313 0.5 0.469 1.042 0.469 1.625v10.75c0 0.375-0.125 0.698-0.375 0.969s-0.542 0.427-0.875 0.468c-0.542 0.125-1.083 0.292-1.625 0.5-0.333 0.125-0.792 0.334-1.375 0.625-0.833 0.459-1.5 0.75-2 0.875-0.833 0.292-1.75 0.438-2.75 0.438h-1c-1.667 0-2.906-0.375-3.719-1.125s-1.094-1.854-0.844-3.313c-0.583-0.333-1-0.895-1.25-1.687s-0.166-1.542 0.25-2.25c-0.75-0.625-1.135-1.375-1.156-2.25s0.24-1.604 0.781-2.188l-6.25 0.001c-0.75 0-1.406-0.271-1.968-0.813s-0.844-1.177-0.844-1.906 0.281-1.365 0.844-1.906c0.562-0.542 1.218-0.813 1.968-0.813zM27.501 11h3c0.417 0 0.771 0.146 1.063 0.438s0.437 0.645 0.437 1.062v12c0 0.417-0.146 0.771-0.438 1.063s-0.645 0.437-1.062 0.437h-3c-0.417 0-0.771-0.146-1.063-0.437-0.291-0.292-0.437-0.646-0.437-1.063v-12c0-0.417 0.146-0.771 0.438-1.062 0.291-0.292 0.645-0.438 1.062-0.438zM29.001 24.25c0.333 0 0.625-0.125 0.875-0.375s0.375-0.542 0.375-0.875c0-0.333-0.125-0.625-0.375-0.875s-0.542-0.375-0.875-0.375c-0.333 0-0.625 0.125-0.875 0.375s-0.375 0.542-0.375 0.875c0 0.333 0.125 0.625 0.375 0.875s0.542 0.375 0.875 0.375z"></path>
</svg>
