<!-- Generated by IcoMoon.io -->
<svg version="1.1" xmlns="http://www.w3.org/2000/svg" width="36" height="32" viewBox="0 0 36 32">
<title>handshake-o</title>
<path d="M30.438 7.998l-2.938-3c-0.708-0.666-1.542-1-2.5-1h-14.187c-0.959 0-1.771 0.334-2.438 1l-3 3h-7.375v16h4c0.542 0 1.010-0.198 1.406-0.593 0.396-0.396 0.594-0.865 0.594-1.407h0.563l5.312 4.75c0.958 0.792 2.042 1.209 3.25 1.25 1.208 0.042 2.313-0.291 3.313-1 0.791 0.667 1.645 1 2.562 1 1.25 0 2.271-0.5 3.063-1.5 0.708 0.292 1.427 0.344 2.156 0.157s1.344-0.594 1.844-1.219l1.625-2c0.333-0.417 0.562-0.896 0.687-1.438h3.625c0 0.542 0.198 1.011 0.594 1.407 0.396 0.395 0.864 0.593 1.406 0.593h4v-16h-7.562zM1 21.998c-0.292 0-0.531-0.104-0.719-0.312s-0.281-0.448-0.281-0.719 0.094-0.5 0.281-0.687c0.188-0.188 0.427-0.282 0.719-0.282s0.531 0.094 0.719 0.282c0.187 0.187 0.281 0.416 0.281 0.687s-0.094 0.51-0.281 0.719c-0.188 0.208-0.427 0.312-0.719 0.312zM25.375 21.561l-1.625 2c-0.083 0.083-0.198 0.135-0.344 0.156s-0.26-0.010-0.343-0.094l-1.5-1.187-1.875 2.25c-0.167 0.208-0.365 0.312-0.594 0.312s-0.406-0.041-0.531-0.125l-2.313-2-1 1.188c-0.417 0.541-0.969 0.854-1.656 0.937s-1.281-0.083-1.781-0.5l-6.063-5.5h-1.75v-8h2.625l3.875-3.875 0.313-0.125h3.562l-2.437 2.188c-0.917 0.875-1.396 1.927-1.438 3.156s0.354 2.302 1.188 3.219c0.375 0.375 0.875 0.708 1.5 1 0.75 0.333 1.5 0.479 2.25 0.437 0.958-0.083 1.812-0.479 2.562-1.187l0.563-0.438 6.75 5.438c0.083 0.083 0.135 0.198 0.156 0.344 0.021 0.145-0.011 0.281-0.094 0.406zM32 18.998h-4.312c-0.167-0.166-0.334-0.333-0.5-0.5l-6.438-5.187 0.813-0.75c0.208-0.167 0.312-0.386 0.312-0.656s-0.083-0.511-0.25-0.719l-0.687-0.75c-0.167-0.209-0.396-0.313-0.688-0.313s-0.542 0.084-0.75 0.25l-3.437 3.188c-0.292 0.25-0.657 0.385-1.094 0.406-0.438 0.021-0.792-0.125-1.063-0.437-0.271-0.313-0.406-0.678-0.406-1.094 0-0.417 0.167-0.75 0.5-1l4.063-3.75c0.5-0.459 1.062-0.688 1.687-0.688h5.25c0.125 0 0.25 0.042 0.375 0.125l3.813 3.875h2.812v8zM35 21.998c-0.292 0-0.531-0.104-0.719-0.312-0.187-0.209-0.281-0.448-0.281-0.719s0.094-0.5 0.281-0.687c0.188-0.188 0.427-0.282 0.719-0.282s0.531 0.094 0.719 0.282c0.187 0.187 0.281 0.416 0.281 0.687s-0.094 0.51-0.281 0.719c-0.188 0.208-0.427 0.312-0.719 0.312z"></path>
</svg>
