<!-- Generated by IcoMoon.io -->
<svg version="1.1" xmlns="http://www.w3.org/2000/svg" width="36" height="32" viewBox="0 0 36 32">
<title>hand-holding</title>
<path d="M35.296 20.5c-0.333-0.333-0.76-0.5-1.281-0.5s-0.969 0.167-1.344 0.5l-5.812 4.625c-0.709 0.583-1.542 0.875-2.5 0.875h-7.375c-0.292 0-0.531-0.094-0.719-0.281-0.187-0.188-0.281-0.427-0.281-0.719s0.094-0.531 0.281-0.719c0.188-0.187 0.427-0.281 0.719-0.281h4.875c0.5 0 0.958-0.156 1.375-0.469 0.416-0.312 0.666-0.718 0.75-1.218 0.083-0.584-0.073-1.115-0.469-1.594s-0.906-0.719-1.531-0.719h-10c-1.75 0-3.292 0.542-4.625 1.625l-2.938 2.375h-3.437c-0.292 0-0.531 0.094-0.719 0.281-0.187 0.188-0.281 0.427-0.281 0.719v6c0 0.292 0.094 0.531 0.281 0.719 0.188 0.187 0.427 0.281 0.719 0.281h22.312c0.917 0 1.75-0.292 2.5-0.875l9.438-7.562c0.5-0.375 0.76-0.875 0.781-1.5s-0.219-1.146-0.719-1.563z"></path>
</svg>
