<!-- Generated by IcoMoon.io -->
<svg version="1.1" xmlns="http://www.w3.org/2000/svg" width="32" height="32" viewBox="0 0 32 32">
<title>hand-pointer</title>
<path d="M30 15v6c0 0.208-0.021 0.396-0.063 0.563l-2 8.5c-0.125 0.583-0.416 1.052-0.875 1.406-0.458 0.354-0.979 0.531-1.562 0.531h-13c-0.833 0-1.5-0.333-2-1l-8-11c-0.417-0.583-0.573-1.219-0.469-1.906 0.104-0.688 0.438-1.229 1-1.625 0.563-0.396 1.188-0.542 1.875-0.438s1.219 0.427 1.594 0.969l2 2.75v-17.25c0-0.708 0.24-1.302 0.719-1.781s1.073-0.719 1.781-0.719c0.708 0 1.302 0.24 1.781 0.719s0.719 1.073 0.719 1.781v12.5h0.5v-2.5c0-0.708 0.24-1.302 0.719-1.781s1.073-0.719 1.781-0.719c0.708 0 1.302 0.24 1.781 0.719s0.719 1.073 0.719 1.781v2.5h0.5v-1.5c0-0.708 0.24-1.302 0.719-1.781s1.073-0.719 1.781-0.719c0.708 0 1.302 0.24 1.781 0.719s0.719 1.073 0.719 1.781v1.5h0.5c0-0.708 0.24-1.302 0.719-1.781s1.073-0.719 1.781-0.719c0.708 0 1.302 0.24 1.781 0.719s0.719 1.073 0.719 1.781zM14 20h-0.5v6h0.5v-6zM19.5 20h-0.5v6h0.5v-6zM25 20h-0.5v6h0.5v-6z"></path>
</svg>
