<!-- Generated by IcoMoon.io -->
<svg version="1.1" xmlns="http://www.w3.org/2000/svg" width="32" height="32" viewBox="0 0 32 32">
<title>hand-pointer-o</title>
<path d="M24.369 11.188c-0.584-0.751-1.344-1.23-2.282-1.438s-1.843-0.125-2.718 0.25c-0.459-0.458-1-0.802-1.625-1.031s-1.25-0.281-1.875-0.156v-4.625c0-1.167-0.407-2.157-1.219-2.969-0.813-0.813-1.792-1.219-2.938-1.219-1.145 0-2.125 0.406-2.937 1.219-0.813 0.812-1.219 1.802-1.219 2.969v10.062c-0.625-0.25-1.281-0.323-1.969-0.219-0.687 0.104-1.322 0.365-1.906 0.782-0.916 0.666-1.458 1.572-1.625 2.718s0.084 2.177 0.75 3.094l6.813 9.625c0.416 0.542 0.916 0.969 1.5 1.281 0.583 0.313 1.208 0.469 1.875 0.469h11.125c0.958 0 1.823-0.302 2.593-0.906 0.771-0.604 1.261-1.386 1.469-2.344l1.688-7.438c0.083-0.291 0.125-0.604 0.125-0.937v-5.25c0-0.958-0.282-1.802-0.844-2.531s-1.281-1.229-2.156-1.5-1.75-0.24-2.625 0.094zM7.056 17.5l1.688 2.375c0.291 0.375 0.666 0.49 1.125 0.344s0.687-0.469 0.687-0.969v-15.063c0-0.499 0.188-0.843 0.563-1.031s0.76-0.187 1.156 0c0.396 0.188 0.594 0.532 0.594 1.032v10.937c0 0.292 0.093 0.531 0.281 0.719 0.187 0.187 0.427 0.281 0.719 0.281h0.437c0.25 0 0.479-0.094 0.688-0.281 0.208-0.188 0.312-0.427 0.312-0.719v-2.188c0-0.499 0.188-0.843 0.563-1.031 0.375-0.187 0.75-0.187 1.125 0 0.375 0.188 0.562 0.532 0.562 1.032v2.187c0 0.292 0.104 0.531 0.313 0.719 0.208 0.187 0.437 0.281 0.687 0.281h0.438c0.291 0 0.531-0.094 0.718-0.281 0.188-0.188 0.282-0.427 0.282-0.719v-1.312c0-0.5 0.187-0.844 0.562-1.032 0.375-0.187 0.761-0.187 1.156 0 0.396 0.188 0.594 0.532 0.594 1.032v1.312c0 0.292 0.094 0.531 0.281 0.719 0.188 0.187 0.428 0.281 0.719 0.281h0.375c0.292 0 0.531-0.094 0.719-0.281 0.187-0.188 0.281-0.427 0.281-0.719 0-0.5 0.198-0.844 0.594-1.031s0.781-0.188 1.156 0c0.375 0.187 0.563 0.531 0.563 1.031v5.25l-0.063 0.25-1.687 7.438c-0.042 0.291-0.167 0.52-0.375 0.687-0.209 0.167-0.459 0.25-0.75 0.25h-11.125c-0.375 0-0.688-0.167-0.938-0.5l-6.812-9.625c-0.292-0.375-0.344-0.76-0.157-1.156s0.49-0.636 0.907-0.719c0.416-0.083 0.771 0.083 1.062 0.5zM12.994 25c0 0.292 0.083 0.531 0.25 0.719 0.166 0.187 0.375 0.281 0.625 0.281h0.375c0.25 0 0.458-0.094 0.625-0.281 0.166-0.188 0.25-0.427 0.25-0.719v-6c0-0.292-0.084-0.531-0.25-0.719-0.167-0.187-0.375-0.281-0.625-0.281h-0.375c-0.25 0-0.459 0.094-0.625 0.281-0.167 0.188-0.25 0.427-0.25 0.719v6zM17.744 25c0 0.292 0.083 0.531 0.25 0.719 0.166 0.187 0.375 0.281 0.625 0.281h0.375c0.208 0 0.406-0.094 0.593-0.281 0.188-0.188 0.282-0.427 0.282-0.719v-6c0-0.292-0.094-0.531-0.282-0.719-0.187-0.187-0.385-0.281-0.593-0.281h-0.375c-0.25 0-0.459 0.094-0.625 0.281-0.167 0.188-0.25 0.427-0.25 0.719v6zM22.431 25c0 0.292 0.084 0.531 0.25 0.719 0.167 0.187 0.375 0.281 0.625 0.281h0.375c0.25 0 0.459-0.094 0.625-0.281 0.167-0.188 0.25-0.427 0.25-0.719v-6c0-0.292-0.083-0.531-0.25-0.719-0.166-0.187-0.375-0.281-0.625-0.281h-0.375c-0.25 0-0.458 0.094-0.625 0.281-0.166 0.188-0.25 0.427-0.25 0.719v6z"></path>
</svg>
