<!-- Generated by IcoMoon.io -->
<svg version="1.1" xmlns="http://www.w3.org/2000/svg" width="32" height="32" viewBox="0 0 32 32">
<title>hand-point-right</title>
<path d="M32 12.5c0 0.708-0.281 1.333-0.844 1.875-0.562 0.542-1.218 0.813-1.968 0.813l-6.25-0.001c0.541 0.584 0.802 1.313 0.781 2.188s-0.406 1.625-1.156 2.25c0.416 0.708 0.5 1.458 0.25 2.25s-0.667 1.354-1.25 1.688c0.25 1.458-0.032 2.562-0.844 3.312s-2.052 1.125-3.719 1.125h-1c-1 0-1.917-0.146-2.75-0.438-0.5-0.125-1.167-0.416-2-0.875-0.583-0.291-1.042-0.5-1.375-0.625-0.542-0.208-1.083-0.375-1.625-0.5-0.333-0.041-0.625-0.197-0.875-0.468s-0.375-0.594-0.375-0.969v-10.75c0-0.583 0.156-1.125 0.469-1.625 0.312-0.5 0.739-0.875 1.281-1.125 1.292-0.542 2.563-1.229 3.813-2.063 1.625-1.041 2.604-1.958 2.937-2.749 0.5-1.209 1.333-1.813 2.5-1.813 0.708 0 1.323 0.208 1.844 0.625s0.875 0.948 1.062 1.594c0.188 0.646 0.136 1.302-0.156 1.969-0.208 0.5-0.5 1.020-0.875 1.562h9.313c0.749 0 1.406 0.271 1.968 0.813s0.844 1.187 0.844 1.937zM6 12.5v12c0 0.417-0.146 0.771-0.438 1.063s-0.645 0.437-1.062 0.437h-3c-0.417 0-0.771-0.146-1.063-0.438s-0.437-0.645-0.437-1.062v-12c0-0.417 0.146-0.771 0.437-1.063 0.292-0.291 0.646-0.437 1.063-0.437h3c0.417 0 0.771 0.146 1.063 0.438s0.437 0.645 0.437 1.062zM4.25 23c0-0.333-0.125-0.625-0.375-0.875s-0.542-0.375-0.875-0.375c-0.333 0-0.625 0.125-0.875 0.375s-0.375 0.542-0.375 0.875c0 0.333 0.125 0.625 0.375 0.875s0.542 0.375 0.875 0.375c0.333 0 0.625-0.125 0.875-0.375s0.375-0.542 0.375-0.875z"></path>
</svg>
