<!-- Generated by IcoMoon.io -->
<svg version="1.1" xmlns="http://www.w3.org/2000/svg" width="40" height="32" viewBox="0 0 40 32">
<title>hands</title>
<path d="M12.813 14.375c-0.334-0.417-0.771-0.667-1.313-0.75s-1.042 0.042-1.5 0.375c-0.458 0.333-0.719 0.771-0.781 1.313s0.073 1.041 0.406 1.499l2.375 3.188c0.125 0.167 0.177 0.375 0.156 0.625s-0.114 0.458-0.281 0.625l-0.813 0.813c-0.208 0.208-0.458 0.312-0.749 0.312s-0.521-0.125-0.688-0.375l-5.625-6.75v-9.25c0-0.542-0.198-1.010-0.594-1.406s-0.864-0.594-1.406-0.594c-0.542 0-1.010 0.198-1.406 0.594s-0.594 0.864-0.594 1.406v13.625c0 0.708 0.229 1.333 0.688 1.875l6.5 8.438c0.291 0.374 0.5 0.812 0.625 1.312 0.041 0.25 0.156 0.437 0.343 0.562s0.386 0.188 0.594 0.188h8.25c0.292 0 0.531-0.094 0.719-0.281 0.187-0.188 0.281-0.427 0.281-0.719v-7c0-1.792-0.542-3.396-1.625-4.813l-3.563-4.812zM38.001 4c-0.542 0-1.010 0.198-1.406 0.594s-0.594 0.864-0.594 1.406v9.25l-5.625 6.75c-0.167 0.25-0.396 0.375-0.688 0.375s-0.541-0.104-0.75-0.313l-0.812-0.812c-0.167-0.167-0.26-0.375-0.281-0.625s0.031-0.458 0.156-0.625l2.375-3.188c0.333-0.458 0.469-0.958 0.406-1.5-0.062-0.541-0.323-0.979-0.781-1.312s-0.958-0.458-1.5-0.375c-0.542 0.083-0.979 0.333-1.313 0.75l-3.562 4.812c-1.083 1.417-1.625 3.021-1.625 4.813v7c0 0.292 0.094 0.531 0.281 0.719 0.188 0.187 0.427 0.281 0.719 0.281h8.25c0.208 0 0.406-0.063 0.594-0.188 0.187-0.125 0.302-0.312 0.343-0.562 0.125-0.5 0.334-0.938 0.625-1.313l6.563-8.437c0.417-0.542 0.625-1.167 0.625-1.875v-13.625c0-0.542-0.198-1.010-0.594-1.406s-0.864-0.594-1.406-0.594z"></path>
</svg>
