<!-- Generated by IcoMoon.io -->
<svg version="1.1" xmlns="http://www.w3.org/2000/svg" width="32" height="32" viewBox="0 0 32 32">
<title>handshake</title>
<path d="M23.188 3.986h-5.375c-0.542 0-1 0.167-1.375 0.5l-6.125 5.687c-0.542 0.459-0.813 1.032-0.813 1.719 0 0.688 0.208 1.271 0.625 1.75s0.979 0.74 1.688 0.781c0.708 0.042 1.333-0.145 1.875-0.562l5-4.625c0.208-0.167 0.447-0.25 0.718-0.25s0.5 0.104 0.688 0.312c0.187 0.209 0.271 0.448 0.25 0.719s-0.136 0.511-0.344 0.719l-1.625 1.5 9.125 7.375c0.167 0.125 0.333 0.271 0.5 0.437v-12.062l-3.437-3.438c-0.375-0.375-0.834-0.562-1.375-0.562zM30 7.986v14c0 0.542 0.198 1.010 0.594 1.406s0.864 0.594 1.406 0.594h4v-16h-6zM33 21.986c-0.292 0-0.531-0.094-0.719-0.281-0.187-0.188-0.281-0.427-0.281-0.719s0.094-0.531 0.281-0.719c0.188-0.187 0.427-0.281 0.719-0.281s0.531 0.094 0.719 0.281c0.187 0.188 0.281 0.427 0.281 0.719s-0.094 0.531-0.281 0.719c-0.188 0.187-0.427 0.281-0.719 0.281zM-4 23.986h4c0.542 0 1.010-0.198 1.406-0.594s0.594-0.864 0.594-1.406v-14h-6v16zM-1 19.986c0.292 0 0.531 0.094 0.719 0.281 0.187 0.188 0.281 0.427 0.281 0.719s-0.094 0.531-0.281 0.719c-0.188 0.187-0.427 0.281-0.719 0.281s-0.531-0.094-0.719-0.281c-0.187-0.188-0.281-0.427-0.281-0.719s0.094-0.531 0.281-0.719c0.188-0.187 0.427-0.281 0.719-0.281zM26.25 21.173l-9.313-7.625-1.874 1.75c-0.959 0.834-2.053 1.219-3.282 1.157s-2.26-0.542-3.093-1.438c-0.834-0.896-1.23-1.969-1.188-3.219s0.521-2.291 1.438-3.125l5.125-4.687h-5.25c-0.542 0-1 0.187-1.375 0.562l-3.438 3.438v14h1.125l5.688 5.125c0.833 0.708 1.802 1 2.906 0.875s2.010-0.625 2.719-1.5l1.125 1c0.5 0.417 1.072 0.583 1.718 0.5s1.157-0.375 1.532-0.875l2-2.375 0.312 0.25c0.417 0.375 0.906 0.531 1.469 0.469 0.562-0.063 1.010-0.323 1.344-0.782l0.562-0.687c0.375-0.458 0.531-0.958 0.469-1.5-0.063-0.542-0.302-0.979-0.719-1.313z"></path>
</svg>
