<!-- Generated by IcoMoon.io -->
<svg version="1.1" xmlns="http://www.w3.org/2000/svg" width="32" height="32" viewBox="0 0 32 32">
<title>hashtag</title>
<path d="M29.563 11.375l0.437-2.5c0.042-0.208-0.010-0.406-0.156-0.594s-0.344-0.281-0.594-0.281h-4.688l0.938-5.125c0.042-0.208-0.010-0.406-0.156-0.594s-0.344-0.281-0.594-0.281h-2.563c-0.166 0-0.322 0.063-0.468 0.188s-0.219 0.27-0.219 0.437l-1 5.375h-6.125l0.875-5.125c0.042-0.208-0.010-0.406-0.156-0.594s-0.344-0.281-0.594-0.281h-2.5c-0.208 0-0.375 0.063-0.5 0.188s-0.208 0.27-0.25 0.437l-0.938 5.375h-5c-0.166 0-0.322 0.063-0.468 0.188s-0.219 0.27-0.219 0.437l-0.5 2.5c-0.042 0.208 0.021 0.406 0.187 0.594s0.355 0.281 0.563 0.281h4.687l-1.437 8h-4.938c-0.166 0-0.322 0.063-0.468 0.188s-0.24 0.27-0.282 0.437l-0.437 2.5c-0.042 0.208 0.010 0.406 0.156 0.594 0.146 0.187 0.344 0.281 0.594 0.281h4.687l-0.937 5.125c-0.042 0.208 0.010 0.406 0.156 0.594 0.146 0.187 0.344 0.281 0.594 0.281h2.562c0.167 0 0.323-0.063 0.469-0.188s0.219-0.27 0.219-0.437l1-5.375h6.125l-0.875 5.125c-0.042 0.208 0.010 0.406 0.156 0.594 0.146 0.187 0.344 0.281 0.594 0.281h2.5c0.208 0 0.375-0.063 0.5-0.188s0.208-0.27 0.25-0.437l0.937-5.375h5c0.167 0 0.323-0.063 0.469-0.188s0.219-0.27 0.219-0.437l0.5-2.5c0.042-0.208-0.021-0.406-0.188-0.594-0.166-0.187-0.354-0.281-0.562-0.281h-4.688l1.438-8h4.937c0.167 0 0.323-0.063 0.469-0.188s0.24-0.27 0.281-0.437zM18.376 20h-6.188l1.438-8h6.187l-1.437 8z"></path>
</svg>
