<!-- Generated by IcoMoon.io -->
<svg version="1.1" xmlns="http://www.w3.org/2000/svg" width="36" height="32" viewBox="0 0 36 32">
<title>hdd-o</title>
<path d="M35.438 14.75l-6.563-9.438c-0.25-0.416-0.594-0.739-1.031-0.968-0.438-0.229-0.906-0.344-1.406-0.344h-16.875c-0.5 0-0.969 0.115-1.407 0.344-0.437 0.229-0.781 0.552-1.031 0.969l-6.562 9.437c-0.375 0.5-0.563 1.063-0.563 1.688v8.562c0 0.833 0.292 1.542 0.875 2.125s1.292 0.875 2.125 0.875h30c0.833 0 1.542-0.292 2.125-0.875s0.875-1.292 0.875-2.125v-8.563c0-0.624-0.187-1.187-0.562-1.687zM9.563 7h16.875l4.875 7h-26.625l4.875-7zM33 25h-30v-8h30v8zM31 21c0-0.542-0.198-1.010-0.594-1.406s-0.864-0.594-1.406-0.594c-0.542 0-1.010 0.198-1.406 0.594s-0.594 0.864-0.594 1.406c0 0.542 0.198 1.010 0.594 1.406s0.864 0.594 1.406 0.594c0.542 0 1.010-0.198 1.406-0.594s0.594-0.864 0.594-1.406zM25 21c0-0.542-0.198-1.010-0.594-1.406s-0.864-0.594-1.406-0.594c-0.542 0-1.010 0.198-1.406 0.594s-0.594 0.864-0.594 1.406c0 0.542 0.198 1.010 0.594 1.406s0.864 0.594 1.406 0.594c0.542 0 1.010-0.198 1.406-0.594s0.594-0.864 0.594-1.406z"></path>
</svg>
