<!-- Generated by IcoMoon.io -->
<svg version="1.1" xmlns="http://www.w3.org/2000/svg" width="36" height="32" viewBox="0 0 36 32">
<title>hdd</title>
<path d="M36 19v6c0 0.833-0.292 1.542-0.875 2.125s-1.292 0.875-2.125 0.875h-30c-0.833 0-1.542-0.292-2.125-0.875s-0.875-1.292-0.875-2.125v-6c0-0.833 0.292-1.542 0.875-2.125s1.292-0.875 2.125-0.875h30c0.833 0 1.542 0.292 2.125 0.875s0.875 1.292 0.875 2.125zM3 14c-0.667 0-1.312 0.125-1.937 0.375l6.062-9.063c0.25-0.416 0.604-0.739 1.063-0.968 0.458-0.229 0.937-0.344 1.437-0.344h16.75c0.5 0 0.979 0.115 1.438 0.344 0.458 0.229 0.812 0.552 1.062 0.969l6.063 9.062c-0.625-0.25-1.271-0.375-1.938-0.375h-30zM30 20c-0.542 0-1.010 0.198-1.406 0.594s-0.594 0.864-0.594 1.406c0 0.542 0.198 1.010 0.594 1.406s0.864 0.594 1.406 0.594c0.542 0 1.010-0.198 1.406-0.594s0.594-0.864 0.594-1.406c0-0.542-0.198-1.010-0.594-1.406s-0.864-0.594-1.406-0.594zM24 20c-0.542 0-1.010 0.198-1.406 0.594s-0.594 0.864-0.594 1.406c0 0.542 0.198 1.010 0.594 1.406s0.864 0.594 1.406 0.594c0.542 0 1.010-0.198 1.406-0.594s0.594-0.864 0.594-1.406c0-0.542-0.198-1.010-0.594-1.406s-0.864-0.594-1.406-0.594z"></path>
</svg>
