<!-- Generated by IcoMoon.io -->
<svg version="1.1" xmlns="http://www.w3.org/2000/svg" width="32" height="32" viewBox="0 0 32 32">
<title>headset</title>
<path d="M12 13c0-0.542-0.198-1.010-0.594-1.406s-0.864-0.594-1.406-0.594h-1c-1.125 0-2.073 0.385-2.844 1.156s-1.156 1.719-1.156 2.844v3c0 1.125 0.385 2.073 1.156 2.844s1.719 1.156 2.844 1.156h1c0.542 0 1.010-0.198 1.406-0.594s0.594-0.864 0.594-1.406v-7zM23 22c1.125 0 2.073-0.385 2.844-1.156s1.156-1.719 1.156-2.844v-3c0-1.125-0.385-2.073-1.156-2.844s-1.719-1.156-2.844-1.156h-1c-0.542 0-1.010 0.198-1.406 0.594s-0.594 0.864-0.594 1.406v7c0 0.542 0.198 1.010 0.594 1.406s0.864 0.594 1.406 0.594h1zM16 0c-2.917 0-5.604 0.75-8.063 2.25-2.333 1.417-4.218 3.354-5.656 5.813s-2.198 5.104-2.281 7.937v1c0 0.292 0.094 0.531 0.281 0.719 0.188 0.187 0.427 0.281 0.719 0.281h1c0.292 0 0.531-0.094 0.719-0.281 0.187-0.188 0.281-0.427 0.281-0.719v-1c0-2.333 0.583-4.5 1.75-6.5s2.75-3.583 4.75-4.75c2-1.167 4.167-1.75 6.5-1.75s4.5 0.583 6.5 1.75c2 1.167 3.583 2.75 4.75 4.75s1.75 4.167 1.75 6.5v10.375c0 0.708-0.26 1.323-0.781 1.844s-1.136 0.781-1.844 0.781h-6.375c0-0.833-0.292-1.542-0.875-2.125s-1.292-0.875-2.125-0.875h-2c-0.833 0-1.542 0.292-2.125 0.875s-0.875 1.292-0.875 2.125c0 0.833 0.292 1.542 0.875 2.125s1.292 0.875 2.125 0.875h11.375c1.542 0 2.865-0.552 3.969-1.656s1.656-2.427 1.656-3.969v-10.375c-0.083-2.833-0.844-5.479-2.281-7.938-1.438-2.458-3.323-4.395-5.657-5.812-2.458-1.5-5.145-2.25-8.062-2.25z"></path>
</svg>
