<!-- Generated by IcoMoon.io -->
<svg version="1.1" xmlns="http://www.w3.org/2000/svg" width="32" height="32" viewBox="0 0 32 32">
<title>heart-o</title>
<path d="M28.618 4c-1.167-1-2.521-1.625-4.063-1.875s-3.073-0.125-4.594 0.375c-1.521 0.5-2.843 1.312-3.968 2.437-1.125-1.125-2.448-1.937-3.969-2.437s-3.052-0.625-4.594-0.375c-1.542 0.25-2.896 0.875-4.062 1.875-1.5 1.292-2.5 2.833-3 4.625-0.5 1.625-0.521 3.281-0.063 4.969 0.458 1.687 1.25 3.114 2.375 4.281l10.938 11.125c0.666 0.667 1.458 1 2.375 1s1.708-0.333 2.375-1l10.937-11.125c1.125-1.167 1.917-2.594 2.375-4.281 0.458-1.688 0.458-3.344 0-4.969-0.542-1.792-1.562-3.333-3.062-4.625zM27.18 15.75l-11 11.125c-0.125 0.167-0.25 0.167-0.375 0l-11-11.125c-0.75-0.792-1.281-1.76-1.594-2.906-0.312-1.146-0.302-2.282 0.032-3.407 0.333-1.208 1.020-2.25 2.062-3.125 1.208-1 2.635-1.437 4.281-1.312s3.052 0.792 4.219 2l2.188 2.187 2.187-2.187c1.167-1.208 2.573-1.875 4.219-2s3.073 0.312 4.281 1.312c1.042 0.875 1.729 1.917 2.063 3.125 0.333 1.125 0.343 2.261 0.031 3.407s-0.844 2.114-1.594 2.906z"></path>
</svg>
