<!-- Generated by IcoMoon.io -->
<svg version="1.1" xmlns="http://www.w3.org/2000/svg" width="32" height="32" viewBox="0 0 32 32">
<title>heart</title>
<path d="M28.875 3.941c-1.125-0.958-2.396-1.562-3.812-1.812-1.417-0.25-2.813-0.146-4.188 0.312-1.375 0.459-2.583 1.229-3.625 2.313l-1.25 1.25-1.25-1.25c-1.042-1.084-2.25-1.854-3.625-2.313-1.375-0.458-2.771-0.562-4.187-0.312-1.417 0.25-2.688 0.854-3.813 1.812-1.292 1.084-2.187 2.417-2.687 4s-0.573 3.177-0.219 4.781c0.354 1.605 1.114 3.011 2.281 4.219l12.063 12.438c0.416 0.416 0.895 0.625 1.437 0.625s1.021-0.209 1.438-0.625l12.062-12.5c1.167-1.167 1.927-2.552 2.281-4.157 0.354-1.604 0.282-3.197-0.218-4.781-0.5-1.583-1.396-2.916-2.688-4z"></path>
</svg>
