<!-- Generated by IcoMoon.io -->
<svg version="1.1" xmlns="http://www.w3.org/2000/svg" width="32" height="32" viewBox="0 0 32 32">
<title>history</title>
<path d="M31.5 16c0 2.792-0.698 5.375-2.094 7.75s-3.281 4.26-5.656 5.656c-2.375 1.396-4.958 2.094-7.75 2.094-1.792 0-3.521-0.302-5.188-0.906s-3.187-1.448-4.562-2.532c-0.333-0.291-0.51-0.656-0.531-1.093s0.135-0.823 0.468-1.157l0.688-0.687c0.25-0.25 0.573-0.385 0.969-0.406s0.739 0.073 1.031 0.281c2.083 1.667 4.458 2.5 7.125 2.5 2.083 0 4.010-0.51 5.781-1.531s3.167-2.417 4.188-4.188c1.021-1.771 1.531-3.698 1.531-5.781s-0.51-4.010-1.531-5.781c-1.021-1.771-2.417-3.167-4.188-4.188s-3.698-1.531-5.781-1.531c-1.5 0-2.927 0.271-4.281 0.812s-2.552 1.313-3.594 2.313l3.187 3.187c0.292 0.292 0.355 0.646 0.188 1.063s-0.479 0.625-0.938 0.625h-9.062c-0.292 0-0.531-0.094-0.719-0.281-0.187-0.188-0.281-0.427-0.281-0.719v-9.063c0-0.458 0.208-0.77 0.625-0.937s0.771-0.104 1.062 0.187l3.125 3.125c1.417-1.375 3.042-2.437 4.875-3.187 1.834-0.75 3.771-1.125 5.813-1.125 2.792 0 5.375 0.698 7.75 2.094s4.26 3.271 5.656 5.625c1.396 2.354 2.094 4.948 2.094 7.781zM20.187 20.875c-0.249 0.333-0.583 0.531-0.999 0.594-0.417 0.062-0.792-0.032-1.125-0.282l-4.063-3.187v-8.5c0-0.417 0.146-0.771 0.438-1.063s0.645-0.437 1.062-0.437h1c0.417 0 0.771 0.146 1.063 0.437s0.437 0.646 0.437 1.063v6.5l2.563 2c0.333 0.25 0.52 0.583 0.562 1s-0.063 0.792-0.313 1.125l-0.625 0.75z"></path>
</svg>
