<!-- Generated by IcoMoon.io -->
<svg version="1.1" xmlns="http://www.w3.org/2000/svg" width="32" height="32" viewBox="0 0 32 32">
<title>home</title>
<path d="M28.5 19.563v8.937c0 0.417-0.146 0.771-0.438 1.063s-0.645 0.437-1.062 0.437h-7.25c-0.208 0-0.385-0.073-0.531-0.219s-0.219-0.323-0.219-0.531v-7c0-0.208-0.073-0.385-0.219-0.531s-0.323-0.219-0.531-0.219h-4.5c-0.208 0-0.385 0.073-0.531 0.219s-0.219 0.323-0.219 0.531v7c0 0.208-0.073 0.385-0.219 0.531s-0.323 0.219-0.531 0.219h-7.25c-0.417 0-0.771-0.146-1.063-0.438s-0.437-0.645-0.437-1.062v-8.938c0-0.249 0.083-0.458 0.25-0.624l11.75-9.625c0.167-0.125 0.333-0.188 0.5-0.188s0.333 0.063 0.5 0.188l11.75 9.625c0.167 0.166 0.25 0.375 0.25 0.625zM33.75 15.75c0.125 0.125 0.198 0.292 0.219 0.5s-0.032 0.396-0.157 0.563l-1.562 1.937c-0.125 0.167-0.292 0.25-0.5 0.25s-0.396-0.063-0.563-0.188l-14.687-12.062c-0.167-0.125-0.333-0.188-0.5-0.188s-0.333 0.063-0.5 0.188l-14.688 12.062c-0.166 0.125-0.354 0.188-0.562 0.188s-0.375-0.083-0.5-0.25l-1.563-1.938c-0.125-0.166-0.177-0.354-0.156-0.562s0.094-0.375 0.219-0.5l15.875-13.063c0.542-0.458 1.167-0.687 1.875-0.687s1.354 0.229 1.937 0.688l5.563 4.625v-4.563c0-0.208 0.073-0.385 0.219-0.531s0.323-0.219 0.531-0.219h3.5c0.208 0 0.385 0.073 0.531 0.219s0.219 0.323 0.219 0.531v8.688l5.25 4.312z"></path>
</svg>
