<!-- Generated by IcoMoon.io -->
<svg version="1.1" xmlns="http://www.w3.org/2000/svg" width="36" height="32" viewBox="0 0 36 32">
<title>id-card</title>
<path d="M33.449 2h-30c-0.833 0-1.542 0.292-2.125 0.875s-0.875 1.292-0.875 2.125v1h36v-1c0-0.833-0.292-1.542-0.875-2.125s-1.292-0.875-2.125-0.875zM0.449 27c0 0.833 0.292 1.542 0.875 2.125s1.292 0.875 2.125 0.875h30c0.833 0 1.542-0.292 2.125-0.875s0.875-1.292 0.875-2.125v-19h-36v19zM22.449 12.5c0-0.125 0.052-0.24 0.156-0.344s0.219-0.156 0.344-0.156h9c0.125 0 0.239 0.052 0.344 0.156s0.156 0.219 0.156 0.344v1c0 0.125-0.052 0.24-0.156 0.344s-0.219 0.156-0.344 0.156h-9c-0.125 0-0.24-0.052-0.344-0.156s-0.156-0.219-0.156-0.344v-1zM22.449 16.5c0-0.125 0.052-0.24 0.156-0.344s0.219-0.156 0.344-0.156h9c0.125 0 0.239 0.052 0.344 0.156s0.156 0.219 0.156 0.344v1c0 0.125-0.052 0.24-0.156 0.344s-0.219 0.156-0.344 0.156h-9c-0.125 0-0.24-0.052-0.344-0.156s-0.156-0.219-0.156-0.344v-1zM22.449 20.5c0-0.125 0.052-0.24 0.156-0.344s0.219-0.156 0.344-0.156h9c0.125 0 0.239 0.052 0.344 0.156s0.156 0.219 0.156 0.344v1c0 0.125-0.052 0.24-0.156 0.344s-0.219 0.156-0.344 0.156h-9c-0.125 0-0.24-0.052-0.344-0.156s-0.156-0.219-0.156-0.344v-1zM11.449 12c1.083 0 2.021 0.396 2.812 1.188s1.188 1.729 1.188 2.812-0.396 2.021-1.188 2.813c-0.791 0.791-1.729 1.187-2.812 1.187s-2.021-0.396-2.813-1.188c-0.791-0.791-1.187-1.729-1.187-2.812s0.396-2.021 1.187-2.813c0.792-0.791 1.73-1.187 2.813-1.187zM4.636 24.75c0.25-0.792 0.73-1.448 1.438-1.969s1.5-0.781 2.375-0.781h0.5c0.792 0.333 1.625 0.5 2.5 0.5s1.708-0.167 2.5-0.5h0.5c0.875 0 1.667 0.26 2.375 0.781s1.187 1.177 1.437 1.969c0.084 0.333 0.021 0.625-0.187 0.875s-0.479 0.375-0.813 0.375h-11.625c-0.333 0-0.604-0.135-0.812-0.406s-0.271-0.552-0.188-0.844z"></path>
</svg>
