<!-- Generated by IcoMoon.io -->
<svg version="1.1" xmlns="http://www.w3.org/2000/svg" width="36" height="32" viewBox="0 0 36 32">
<title>id-card-edit</title>
<path d="M33 30h-30c-0.833 0-1.542-0.292-2.125-0.875s-0.875-1.292-0.875-2.125v-19h23.125c-2.231 3.34-4.271 6.394-4.277 6.403-0.565 0.772-0.355 1.393 0.017 5.45 0.070 0.773 0.686 1.551 1.278 1.944s1.537 0.646 2.272 0.417c3.317-1.034 4.466-1.201 5.049-2.053 0.016-0.023 5.256-7.864 8.128-12.161h0.408v19c0 0.833-0.292 1.542-0.875 2.125s-1.291 0.875-2.125 0.875zM8.5 22h-0.5c-0.875 0-1.667 0.26-2.375 0.781s-1.187 1.177-1.437 1.969c-0.084 0.292-0.021 0.573 0.187 0.844s0.479 0.406 0.813 0.406h11.625c0.333 0 0.604-0.125 0.812-0.375s0.271-0.542 0.188-0.875c-0.25-0.792-0.73-1.448-1.438-1.969s-1.5-0.781-2.375-0.781h-0.5c-0.792 0.333-1.625 0.5-2.5 0.5s-1.708-0.167-2.5-0.5zM20.535 15.514l0.315 3.824c0.024 0.335 0.171 0.593 0.441 0.773 0.269 0.18 0.563 0.217 0.882 0.111l3.654-1.173 6.776-10.142-5.291-3.535-6.777 10.142zM11 12c-1.083 0-2.021 0.396-2.812 1.187-0.792 0.792-1.188 1.73-1.188 2.813s0.396 2.021 1.188 2.812c0.791 0.792 1.729 1.188 2.812 1.188s2.021-0.396 2.813-1.187c0.791-0.792 1.187-1.73 1.187-2.813s-0.396-2.021-1.187-2.812c-0.792-0.792-1.73-1.188-2.813-1.188zM35.332 2.12l-2.793-1.866c-0.343-0.229-0.719-0.303-1.127-0.222-0.409 0.081-0.728 0.293-0.957 0.636l-2.063 3.087 5.292 3.536 2.062-3.087c0.229-0.343 0.303-0.719 0.222-1.128-0.081-0.408-0.293-0.727-0.636-0.956zM24.461 6h-24.461v-1c0-0.833 0.292-1.542 0.875-2.125s1.292-0.875 2.125-0.875h24.132l-2.671 4z"></path>
</svg>
