<!-- Generated by IcoMoon.io -->
<svg version="1.1" xmlns="http://www.w3.org/2000/svg" width="32" height="32" viewBox="0 0 32 32">
<title>image</title>
<path d="M29 28h-26c-0.833 0-1.542-0.292-2.125-0.875s-0.875-1.292-0.875-2.125v-18c0-0.833 0.292-1.542 0.875-2.125s1.292-0.875 2.125-0.875h26c0.833 0 1.542 0.292 2.125 0.875s0.875 1.292 0.875 2.125v18c0 0.833-0.292 1.542-0.875 2.125s-1.292 0.875-2.125 0.875zM7 7.5c-0.958 0-1.781 0.344-2.469 1.031-0.687 0.688-1.031 1.511-1.031 2.469s0.344 1.781 1.031 2.469c0.688 0.687 1.511 1.031 2.469 1.031s1.781-0.344 2.469-1.031c0.687-0.688 1.031-1.511 1.031-2.469s-0.344-1.781-1.031-2.469c-0.688-0.687-1.511-1.031-2.469-1.031zM4 24h24v-7l-5.5-5.5c-0.125-0.125-0.292-0.188-0.5-0.188s-0.375 0.063-0.5 0.188l-8.5 8.5-3.5-3.5c-0.125-0.125-0.292-0.188-0.5-0.188s-0.375 0.063-0.5 0.188l-4.5 4.5v3z"></path>
</svg>
