<!-- Generated by IcoMoon.io -->
<svg version="1.1" xmlns="http://www.w3.org/2000/svg" width="32" height="32" viewBox="0 0 32 32">
<title>image-o</title>
<path d="M29 4h-26c-0.833 0-1.542 0.292-2.125 0.875s-0.875 1.292-0.875 2.125v18c0 0.833 0.292 1.542 0.875 2.125s1.292 0.875 2.125 0.875h26c0.833 0 1.542-0.292 2.125-0.875s0.875-1.292 0.875-2.125v-18c0-0.833-0.292-1.542-0.875-2.125s-1.292-0.875-2.125-0.875zM28.625 25h-25.25c-0.083 0-0.167-0.042-0.25-0.125s-0.125-0.167-0.125-0.25v-17.25c0-0.083 0.042-0.167 0.125-0.25s0.167-0.125 0.25-0.125h25.25c0.083 0 0.167 0.042 0.25 0.125s0.125 0.167 0.125 0.25v17.25c0 0.083-0.042 0.167-0.125 0.25s-0.167 0.125-0.25 0.125zM8 9.5c-0.708 0-1.302 0.24-1.781 0.719s-0.719 1.073-0.719 1.781c0 0.708 0.24 1.302 0.719 1.781s1.073 0.719 1.781 0.719c0.708 0 1.302-0.24 1.781-0.719s0.719-1.073 0.719-1.781c0-0.708-0.24-1.302-0.719-1.781s-1.073-0.719-1.781-0.719zM6 22h20v-5l-5.5-5.5c-0.125-0.125-0.292-0.188-0.5-0.188s-0.375 0.063-0.5 0.188l-7.5 7.5-2.5-2.5c-0.125-0.125-0.292-0.188-0.5-0.188s-0.375 0.063-0.5 0.188l-2.5 2.5v3z"></path>
</svg>
