<!-- Generated by IcoMoon.io -->
<svg version="1.1" xmlns="http://www.w3.org/2000/svg" width="36" height="32" viewBox="0 0 36 32">
<title>images</title>
<path d="M30 26v1c0 0.833-0.292 1.542-0.875 2.125s-1.292 0.875-2.125 0.875h-24c-0.833 0-1.542-0.292-2.125-0.875s-0.875-1.292-0.875-2.125v-16c0-0.833 0.292-1.542 0.875-2.125s1.292-0.875 2.125-0.875h1v13c0 1.375 0.49 2.552 1.469 3.531s2.156 1.469 3.531 1.469h21zM36 21c0 0.833-0.292 1.542-0.875 2.125s-1.292 0.875-2.125 0.875h-24c-0.833 0-1.542-0.292-2.125-0.875s-0.875-1.292-0.875-2.125v-16c0-0.833 0.292-1.542 0.875-2.125s1.292-0.875 2.125-0.875h24c0.833 0 1.542 0.292 2.125 0.875s0.875 1.292 0.875 2.125v16zM16 8c0-0.833-0.292-1.542-0.875-2.125s-1.292-0.875-2.125-0.875c-0.833 0-1.542 0.292-2.125 0.875s-0.875 1.292-0.875 2.125c0 0.833 0.292 1.542 0.875 2.125s1.292 0.875 2.125 0.875c0.833 0 1.542-0.292 2.125-0.875s0.875-1.292 0.875-2.125zM10 20h22v-7l-5.5-5.5c-0.125-0.125-0.292-0.188-0.5-0.188s-0.375 0.063-0.5 0.188l-8.5 8.5-2.5-2.5c-0.125-0.125-0.292-0.188-0.5-0.188s-0.375 0.063-0.5 0.188l-3.5 3.5v3z"></path>
</svg>
