<!-- Generated by IcoMoon.io -->
<svg version="1.1" xmlns="http://www.w3.org/2000/svg" width="36" height="32" viewBox="0 0 36 32">
<title>inbox</title>
<path d="M35.5 15.25l-6.625-9.938c-0.25-0.416-0.604-0.739-1.062-0.968s-0.938-0.344-1.438-0.344h-16.75c-0.5 0-0.979 0.115-1.437 0.344s-0.813 0.552-1.063 0.969l-6.625 9.937c-0.333 0.5-0.5 1.063-0.5 1.688v8.062c0 0.833 0.292 1.542 0.875 2.125s1.292 0.875 2.125 0.875h30c0.833 0 1.542-0.292 2.125-0.875s0.875-1.292 0.875-2.125v-8.063c0-0.624-0.167-1.187-0.5-1.687zM10.125 8h15.75l5.313 8h-7.688l-2 4h-7l-2-4h-7.687l5.312-8z"></path>
</svg>
