<!-- Generated by IcoMoon.io -->
<svg version="1.1" xmlns="http://www.w3.org/2000/svg" width="32" height="32" viewBox="0 0 32 32">
<title>industry</title>
<path d="M29.688 10.25l-8.688 5.5v-4.25c0-0.583-0.26-1.021-0.781-1.313s-1.032-0.27-1.532 0.063l-8.687 5.5v-12.25c0-0.417-0.146-0.771-0.438-1.063s-0.645-0.437-1.062-0.437h-7c-0.417 0-0.771 0.146-1.063 0.437s-0.437 0.646-0.437 1.063v25c0 0.417 0.146 0.771 0.437 1.063 0.292 0.291 0.646 0.437 1.063 0.437h29c0.417 0 0.771-0.146 1.063-0.438s0.437-0.645 0.437-1.062v-17c0-0.583-0.26-1.021-0.781-1.313s-1.032-0.27-1.532 0.063z"></path>
</svg>
