<!-- Generated by IcoMoon.io -->
<svg version="1.1" xmlns="http://www.w3.org/2000/svg" width="32" height="32" viewBox="0 0 32 32">
<title>info</title>
<path d="M11.25 26.5h1.25v-9h-1.25c-0.333 0-0.625-0.125-0.875-0.375s-0.375-0.542-0.375-0.875v-3c0-0.333 0.125-0.625 0.375-0.875s0.542-0.375 0.875-0.375h7c0.333 0 0.625 0.125 0.875 0.375s0.375 0.542 0.375 0.875v13.25h1.25c0.333 0 0.625 0.125 0.875 0.375s0.375 0.542 0.375 0.875v3c0 0.333-0.125 0.625-0.375 0.875s-0.542 0.375-0.875 0.375h-9.5c-0.333 0-0.625-0.125-0.875-0.375s-0.375-0.542-0.375-0.875v-3c0-0.333 0.125-0.625 0.375-0.875s0.542-0.375 0.875-0.375zM16 0c1.25 0 2.313 0.438 3.188 1.313s1.312 1.937 1.312 3.187c0 1.25-0.438 2.313-1.313 3.188s-1.937 1.312-3.187 1.312-2.313-0.438-3.188-1.313c-0.874-0.875-1.312-1.937-1.312-3.187s0.438-2.313 1.313-3.188c0.874-0.874 1.937-1.312 3.187-1.312z"></path>
</svg>
