<!-- Generated by IcoMoon.io -->
<svg version="1.1" xmlns="http://www.w3.org/2000/svg" width="32" height="32" viewBox="0 0 32 32">
<title>italic</title>
<path d="M18.813 26h-2.125l3.875-20h2.562c0.208 0 0.406-0.073 0.594-0.219 0.187-0.146 0.302-0.343 0.343-0.593l0.438-2c0.042-0.292-0.031-0.563-0.219-0.813-0.187-0.25-0.448-0.375-0.781-0.375h-10c-0.25 0-0.458 0.073-0.625 0.219s-0.271 0.344-0.313 0.594l-0.437 2c-0.042 0.291 0.031 0.562 0.219 0.812s0.448 0.375 0.781 0.375h2.125l-3.875 20h-2.5c-0.208 0-0.406 0.073-0.594 0.219s-0.302 0.343-0.344 0.593l-0.437 2c-0.042 0.292 0.031 0.563 0.219 0.813 0.187 0.25 0.448 0.375 0.781 0.375h9.938c0.208 0 0.406-0.073 0.593-0.219s0.302-0.343 0.344-0.593l0.375-2c0.083-0.292 0.021-0.563-0.188-0.813-0.208-0.25-0.458-0.375-0.75-0.375z"></path>
</svg>
