<!-- Generated by IcoMoon.io -->
<svg version="1.1" xmlns="http://www.w3.org/2000/svg" width="32" height="32" viewBox="0 0 32 32">
<title>key</title>
<path d="M32 11c0 2-0.49 3.844-1.469 5.531-0.979 1.688-2.312 3.021-4 4s-3.531 1.469-5.531 1.469c-0.708 0-1.396-0.063-2.063-0.188l-1.5 1.688c-0.291 0.333-0.666 0.5-1.125 0.5h-2.312v2.5c0 0.417-0.146 0.771-0.438 1.063s-0.645 0.437-1.062 0.437h-2.5v2.5c0 0.417-0.146 0.771-0.438 1.063s-0.645 0.437-1.062 0.437h-7c-0.417 0-0.771-0.146-1.063-0.438s-0.437-0.645-0.437-1.062v-4.875c0-0.417 0.146-0.771 0.437-1.063l10.125-10.125c-0.375-1.125-0.562-2.27-0.562-3.437 0-2 0.49-3.844 1.469-5.531s2.312-3.021 4-4c1.687-0.979 3.531-1.469 5.531-1.469s3.844 0.49 5.531 1.469c1.688 0.979 3.021 2.312 4 4s1.469 3.531 1.469 5.531zM21 8c0 0.833 0.292 1.542 0.875 2.125s1.292 0.875 2.125 0.875c0.833 0 1.542-0.292 2.125-0.875s0.875-1.292 0.875-2.125c0-0.833-0.292-1.542-0.875-2.125s-1.292-0.875-2.125-0.875c-0.833 0-1.542 0.292-2.125 0.875s-0.875 1.292-0.875 2.125z"></path>
</svg>
