<!-- Generated by IcoMoon.io -->
<svg version="1.1" xmlns="http://www.w3.org/2000/svg" width="36" height="32" viewBox="0 0 36 32">
<title>keyboard</title>
<path d="M33 28h-30c-0.833 0-1.542-0.292-2.125-0.875s-0.875-1.292-0.875-2.125v-18c0-0.833 0.292-1.542 0.875-2.125s1.292-0.875 2.125-0.875h30c0.833 0 1.542 0.292 2.125 0.875s0.875 1.292 0.875 2.125v18c0 0.833-0.292 1.542-0.875 2.125s-1.292 0.875-2.125 0.875zM8 11.25v-2.5c0-0.208-0.073-0.385-0.219-0.531s-0.323-0.219-0.531-0.219h-2.5c-0.208 0-0.385 0.073-0.531 0.219s-0.219 0.323-0.219 0.531v2.5c0 0.208 0.073 0.385 0.219 0.531s0.323 0.219 0.531 0.219h2.5c0.208 0 0.385-0.073 0.531-0.219s0.219-0.323 0.219-0.531zM14 11.25v-2.5c0-0.208-0.073-0.385-0.219-0.531s-0.323-0.219-0.531-0.219h-2.5c-0.208 0-0.385 0.073-0.531 0.219s-0.219 0.323-0.219 0.531v2.5c0 0.208 0.073 0.385 0.219 0.531s0.323 0.219 0.531 0.219h2.5c0.208 0 0.385-0.073 0.531-0.219s0.219-0.323 0.219-0.531zM20 11.25v-2.5c0-0.208-0.073-0.385-0.219-0.531s-0.323-0.219-0.531-0.219h-2.5c-0.208 0-0.385 0.073-0.531 0.219s-0.219 0.323-0.219 0.531v2.5c0 0.208 0.073 0.385 0.219 0.531s0.323 0.219 0.531 0.219h2.5c0.208 0 0.385-0.073 0.531-0.219s0.219-0.323 0.219-0.531zM26 11.25v-2.5c0-0.208-0.073-0.385-0.219-0.531s-0.323-0.219-0.531-0.219h-2.5c-0.208 0-0.385 0.073-0.531 0.219s-0.219 0.323-0.219 0.531v2.5c0 0.208 0.073 0.385 0.219 0.531s0.323 0.219 0.531 0.219h2.5c0.208 0 0.385-0.073 0.531-0.219s0.219-0.323 0.219-0.531zM32 11.25v-2.5c0-0.208-0.073-0.385-0.219-0.531s-0.323-0.219-0.531-0.219h-2.5c-0.208 0-0.385 0.073-0.531 0.219s-0.219 0.323-0.219 0.531v2.5c0 0.208 0.073 0.385 0.219 0.531s0.323 0.219 0.531 0.219h2.5c0.208 0 0.385-0.073 0.531-0.219s0.219-0.323 0.219-0.531zM11 17.25v-2.5c0-0.208-0.073-0.385-0.219-0.531s-0.323-0.219-0.531-0.219h-2.5c-0.208 0-0.385 0.073-0.531 0.219s-0.219 0.323-0.219 0.531v2.5c0 0.208 0.073 0.385 0.219 0.531s0.323 0.219 0.531 0.219h2.5c0.208 0 0.385-0.073 0.531-0.219s0.219-0.323 0.219-0.531zM17 17.25v-2.5c0-0.208-0.073-0.385-0.219-0.531s-0.323-0.219-0.531-0.219h-2.5c-0.208 0-0.385 0.073-0.531 0.219s-0.219 0.323-0.219 0.531v2.5c0 0.208 0.073 0.385 0.219 0.531s0.323 0.219 0.531 0.219h2.5c0.208 0 0.385-0.073 0.531-0.219s0.219-0.323 0.219-0.531zM23 17.25v-2.5c0-0.208-0.073-0.385-0.219-0.531s-0.323-0.219-0.531-0.219h-2.5c-0.208 0-0.385 0.073-0.531 0.219s-0.219 0.323-0.219 0.531v2.5c0 0.208 0.073 0.385 0.219 0.531s0.323 0.219 0.531 0.219h2.5c0.208 0 0.385-0.073 0.531-0.219s0.219-0.323 0.219-0.531zM29 17.25v-2.5c0-0.208-0.073-0.385-0.219-0.531s-0.323-0.219-0.531-0.219h-2.5c-0.208 0-0.385 0.073-0.531 0.219s-0.219 0.323-0.219 0.531v2.5c0 0.208 0.073 0.385 0.219 0.531s0.323 0.219 0.531 0.219h2.5c0.208 0 0.385-0.073 0.531-0.219s0.219-0.323 0.219-0.531zM8 23.25v-2.5c0-0.208-0.073-0.385-0.219-0.531s-0.323-0.219-0.531-0.219h-2.5c-0.208 0-0.385 0.073-0.531 0.219s-0.219 0.323-0.219 0.531v2.5c0 0.208 0.073 0.385 0.219 0.531s0.323 0.219 0.531 0.219h2.5c0.208 0 0.385-0.073 0.531-0.219s0.219-0.323 0.219-0.531zM26 23.25v-2.5c0-0.208-0.073-0.385-0.219-0.531s-0.323-0.219-0.531-0.219h-14.5c-0.208 0-0.385 0.073-0.531 0.219s-0.219 0.323-0.219 0.531v2.5c0 0.208 0.073 0.385 0.219 0.531s0.323 0.219 0.531 0.219h14.5c0.208 0 0.385-0.073 0.531-0.219s0.219-0.323 0.219-0.531zM32 23.25v-2.5c0-0.208-0.073-0.385-0.219-0.531s-0.323-0.219-0.531-0.219h-2.5c-0.208 0-0.385 0.073-0.531 0.219s-0.219 0.323-0.219 0.531v2.5c0 0.208 0.073 0.385 0.219 0.531s0.323 0.219 0.531 0.219h2.5c0.208 0 0.385-0.073 0.531-0.219s0.219-0.323 0.219-0.531z"></path>
</svg>
