<!-- Generated by IcoMoon.io -->
<svg version="1.1" xmlns="http://www.w3.org/2000/svg" width="32" height="32" viewBox="0 0 32 32">
<title>landmark</title>
<path d="M31.375 5.75l-14.688-5.625c-0.458-0.167-0.916-0.167-1.374 0l-14.688 5.625c-0.167 0.083-0.312 0.208-0.437 0.375s-0.188 0.354-0.188 0.562v2.313c0 0.292 0.094 0.531 0.281 0.719s0.427 0.281 0.719 0.281h30c0.292 0 0.531-0.094 0.719-0.281 0.187-0.188 0.281-0.427 0.281-0.719v-2.313c0-0.208-0.062-0.395-0.187-0.562s-0.271-0.292-0.438-0.375zM4 12v10h-1c-0.292 0-0.531 0.094-0.719 0.281-0.187 0.188-0.281 0.427-0.281 0.719v3h28v-3c0-0.292-0.094-0.531-0.281-0.719-0.188-0.187-0.427-0.281-0.719-0.281h-1v-10h-4v10h-6v-10h-4v10h-6v-10h-4zM31 28h-30c-0.292 0-0.531 0.094-0.719 0.281-0.187 0.188-0.281 0.427-0.281 0.719v2c0 0.292 0.094 0.531 0.281 0.719 0.188 0.187 0.427 0.281 0.719 0.281h30c0.292 0 0.531-0.094 0.719-0.281 0.187-0.188 0.281-0.427 0.281-0.719v-2c0-0.292-0.094-0.531-0.281-0.719-0.188-0.187-0.427-0.281-0.719-0.281z"></path>
</svg>
