<!-- Generated by IcoMoon.io -->
<svg version="1.1" xmlns="http://www.w3.org/2000/svg" width="40" height="32" viewBox="0 0 40 32">
<title>language</title>
<path d="M19 26h-17.5c-0.417 0-0.771-0.146-1.062-0.438s-0.438-0.645-0.438-1.062v-17c0-0.417 0.146-0.771 0.438-1.063 0.291-0.291 0.645-0.437 1.062-0.437h17.5v20zM11.438 21.437c0.125 0.375 0.375 0.563 0.75 0.563h1.437c0.25 0 0.448-0.104 0.594-0.313 0.146-0.208 0.177-0.437 0.094-0.687l-3.563-10.563c-0.125-0.333-0.375-0.499-0.75-0.499h-2c-0.375 0-0.625 0.166-0.75 0.5l-3.562 10.562c-0.084 0.25-0.053 0.479 0.093 0.688 0.146 0.208 0.344 0.312 0.594 0.312h1.438c0.166 0 0.322-0.052 0.468-0.156s0.24-0.24 0.282-0.407l0.562-2h3.75l0.563 2zM9 12.687c0.167 0.709 0.333 1.396 0.5 2.063l0.688 2.375h-2.375l0.687-2.375c0.125-0.5 0.292-1.188 0.5-2.063zM38.5 26h-17.5v-20h17.5c0.417 0 0.771 0.146 1.063 0.438 0.291 0.291 0.437 0.645 0.437 1.062v17c0 0.417-0.146 0.771-0.437 1.063-0.292 0.291-0.646 0.437-1.063 0.437zM36.25 11.75h-4v-1c0-0.208-0.073-0.385-0.219-0.531s-0.323-0.219-0.531-0.219h-1c-0.208 0-0.385 0.073-0.531 0.219s-0.219 0.323-0.219 0.531v1h-4c-0.208 0-0.385 0.073-0.531 0.219s-0.219 0.323-0.219 0.531v1c0 0.208 0.073 0.385 0.219 0.531s0.323 0.219 0.531 0.219h7.125c-0.375 0.875-1 1.771-1.875 2.688-0.417-0.417-0.771-0.855-1.062-1.313-0.125-0.167-0.282-0.271-0.469-0.312-0.188-0.042-0.365 0-0.531 0.125l-0.875 0.5c-0.209 0.125-0.334 0.291-0.375 0.5-0.042 0.208 0 0.395 0.125 0.562 0.375 0.542 0.812 1.083 1.312 1.625-0.5 0.375-1.042 0.75-1.625 1.125-0.167 0.083-0.271 0.229-0.312 0.438-0.042 0.208-0.021 0.395 0.062 0.562l0.5 0.875c0.083 0.167 0.229 0.281 0.438 0.344 0.208 0.062 0.416 0.031 0.625-0.094 0.75-0.458 1.479-0.979 2.187-1.563 0.708 0.584 1.438 1.105 2.188 1.563 0.208 0.125 0.416 0.156 0.625 0.094 0.208-0.063 0.354-0.177 0.437-0.344l0.5-0.875c0.083-0.167 0.104-0.354 0.063-0.563-0.042-0.208-0.146-0.354-0.313-0.437-0.583-0.333-1.125-0.708-1.625-1.125 1.333-1.458 2.229-2.917 2.688-4.375h0.687c0.208 0 0.385-0.073 0.531-0.219s0.219-0.323 0.219-0.531v-1c0-0.208-0.073-0.385-0.219-0.531s-0.323-0.219-0.531-0.219z"></path>
</svg>
