<!-- Generated by IcoMoon.io -->
<svg version="1.1" xmlns="http://www.w3.org/2000/svg" width="40" height="32" viewBox="0 0 40 32">
<title>laptop</title>
<path d="M39 26h-15.125c-0.042 0.625-0.25 1.115-0.625 1.469s-0.854 0.531-1.437 0.531h-3.813c-0.542 0-1.021-0.219-1.437-0.656-0.417-0.438-0.625-0.886-0.625-1.344h-14.938c-0.292 0-0.531 0.094-0.719 0.281-0.187 0.188-0.281 0.427-0.281 0.719v1c0 1.083 0.396 2.021 1.188 2.813s1.729 1.187 2.812 1.187h32c1.083 0 2.021-0.396 2.813-1.188 0.791-0.791 1.187-1.729 1.187-2.812v-1c0-0.292-0.094-0.531-0.281-0.719-0.188-0.187-0.427-0.281-0.719-0.281zM36 3c0-0.833-0.292-1.542-0.875-2.125s-1.292-0.875-2.125-0.875h-26c-0.833 0-1.542 0.292-2.125 0.875s-0.875 1.292-0.875 2.125v21h32v-21zM32 20h-24v-16h24v16z"></path>
</svg>
