<!-- Generated by IcoMoon.io -->
<svg version="1.1" xmlns="http://www.w3.org/2000/svg" width="32" height="32" viewBox="0 0 32 32">
<title>layers</title>
<path d="M0.75 9.25l14.563 6.625c0.458 0.208 0.916 0.208 1.374 0l14.563-6.625c0.5-0.25 0.75-0.667 0.75-1.25s-0.25-1-0.75-1.25l-14.563-6.625c-0.458-0.208-0.916-0.208-1.374 0l-14.563 6.625c-0.5 0.25-0.75 0.667-0.75 1.25s0.25 1 0.75 1.25zM31.25 14.75l-3.625-1.625-10.125 4.562c-0.5 0.209-1 0.313-1.5 0.313s-1-0.104-1.5-0.313l-10.062-4.562-3.688 1.625c-0.5 0.25-0.75 0.677-0.75 1.281s0.25 1.011 0.75 1.219l14.563 6.625c0.458 0.208 0.916 0.208 1.375 0l14.562-6.625c0.5-0.208 0.75-0.615 0.75-1.219s-0.25-1.031-0.75-1.281zM31.25 22.75l-3.625-1.625-10.125 4.562c-0.5 0.209-1 0.313-1.5 0.313s-1-0.104-1.5-0.313l-10.125-4.562-3.625 1.625c-0.5 0.25-0.75 0.667-0.75 1.25s0.25 1 0.75 1.25l14.563 6.625c0.458 0.208 0.916 0.208 1.375 0l14.562-6.625c0.5-0.25 0.75-0.667 0.75-1.25s-0.25-1-0.75-1.25z"></path>
</svg>
