<!-- Generated by IcoMoon.io -->
<svg version="1.1" xmlns="http://www.w3.org/2000/svg" width="32" height="32" viewBox="0 0 32 32">
<title>library</title>
<path fill="#000" d="M32.020 29c0-0.552-0.449-1-1-1h-30.040c-0.551 0-1 0.448-1 1v2c0 0.552 0.449 1 1 1h30.040c0.551 0 1-0.448 1-1v-2z"></path>
<path fill="#000" d="M6.4 2c0.883 0 1.6 0.717 1.6 1.6v20.8c0 0.883-0.717 1.6-1.6 1.6h-4.8c-0.883 0-1.6-0.717-1.6-1.6v-20.8c0-0.883 0.717-1.6 1.6-1.6h4.8zM5.5 12c0.276 0 0.5-0.224 0.5-0.5v-1c0-0.276-0.224-0.5-0.5-0.5h-3c-0.276 0-0.5 0.224-0.5 0.5v1c0 0.276 0.224 0.5 0.5 0.5h3zM5.5 8c0.276 0 0.5-0.224 0.5-0.5v-1c0-0.276-0.224-0.5-0.5-0.5h-3c-0.276 0-0.5 0.224-0.5 0.5v1c0 0.276 0.224 0.5 0.5 0.5h3z"></path>
<path fill="#000" d="M16.406 2c0.883 0 1.6 0.717 1.6 1.6v20.8c0 0.883-0.717 1.6-1.6 1.6h-4.8c-0.883 0-1.6-0.717-1.6-1.6v-20.8c0-0.883 0.717-1.6 1.6-1.6h4.8zM15.506 12c0.276 0 0.5-0.224 0.5-0.5v-1c0-0.276-0.224-0.5-0.5-0.5h-3c-0.276 0-0.5 0.224-0.5 0.5v1c0 0.276 0.224 0.5 0.5 0.5h3zM15.506 8c0.276 0 0.5-0.224 0.5-0.5v-1c0-0.276-0.224-0.5-0.5-0.5h-3c-0.276 0-0.5 0.224-0.5 0.5v1c0 0.276 0.224 0.5 0.5 0.5h3z"></path>
<path fill="#444" d="M23.483 1.697c0.84-0.273 1.743 0.187 2.016 1.027l6.428 19.782c0.272 0.84-0.188 1.743-1.028 2.016l-4.565 1.484c-0.84 0.272-1.743-0.188-2.016-1.028l-6.427-19.782c-0.273-0.839 0.187-1.743 1.027-2.016l4.565-1.483zM25.717 11.486c0.263-0.086 0.406-0.368 0.321-0.63l-0.309-0.951c-0.085-0.263-0.367-0.407-0.63-0.321l-2.853 0.927c-0.263 0.085-0.406 0.367-0.321 0.63l0.309 0.951c0.085 0.262 0.367 0.406 0.63 0.321l2.853-0.927zM24.481 7.681c0.262-0.085 0.406-0.367 0.321-0.63l-0.309-0.951c-0.085-0.262-0.368-0.406-0.63-0.321l-2.853 0.927c-0.263 0.086-0.406 0.368-0.321 0.63l0.309 0.951c0.085 0.263 0.367 0.407 0.63 0.321l2.853-0.927z"></path>
</svg>
