<!-- Generated by IcoMoon.io -->
<svg version="1.1" xmlns="http://www.w3.org/2000/svg" width="32" height="32" viewBox="0 0 32 32">
<title>lightbulb</title>
<path d="M11 28.375c0 0.417 0.104 0.792 0.313 1.125l1.124 1.625c0.375 0.583 0.917 0.875 1.625 0.875h3.875c0.709 0 1.25-0.292 1.625-0.875l1.125-1.625c0.209-0.333 0.313-0.708 0.313-1.125v-2.375h-10v2.375zM5 11c0 1.375 0.24 2.677 0.719 3.906s1.156 2.344 2.031 3.344c0.583 0.667 1.167 1.5 1.75 2.5 0.708 1.167 1.208 2.229 1.5 3.188v0.062h10v-0.063c0.292-0.958 0.792-2.020 1.5-3.187 0.583-1 1.167-1.833 1.75-2.5 0.875-1 1.552-2.115 2.031-3.344s0.719-2.531 0.719-3.906c0-2-0.5-3.844-1.5-5.531s-2.344-3.021-4.031-4c-1.688-0.979-3.542-1.469-5.563-1.469s-3.885 0.521-5.594 1.562c-1.625 1-2.916 2.344-3.875 4.032s-1.437 3.489-1.437 5.406zM16 6c-1.375 0-2.552 0.49-3.531 1.469s-1.469 2.156-1.469 3.531c0 0.292-0.094 0.531-0.281 0.719s-0.427 0.281-0.719 0.281-0.531-0.094-0.719-0.281c-0.187-0.188-0.281-0.427-0.281-0.719 0-1.25 0.313-2.417 0.938-3.5s1.479-1.938 2.562-2.563c1.083-0.624 2.25-0.937 3.5-0.937 0.292 0 0.531 0.094 0.719 0.281 0.187 0.188 0.281 0.427 0.281 0.719s-0.094 0.531-0.281 0.719c-0.188 0.187-0.427 0.281-0.719 0.281z"></path>
</svg>
