<!-- Generated by IcoMoon.io -->
<svg version="1.1" xmlns="http://www.w3.org/2000/svg" width="32" height="32" viewBox="0 0 32 32">
<title>lightbulb-o</title>
<path d="M16 5c-1.667 0-3.083 0.583-4.25 1.75s-1.75 2.583-1.75 4.25c0 0.292 0.094 0.531 0.281 0.719s0.427 0.281 0.719 0.281 0.531-0.094 0.719-0.281c0.187-0.188 0.281-0.427 0.281-0.719 0-1.083 0.396-2.021 1.188-2.813s1.729-1.187 2.812-1.187c0.292 0 0.531-0.094 0.719-0.281 0.187-0.188 0.281-0.427 0.281-0.719s-0.094-0.531-0.281-0.719c-0.188-0.187-0.427-0.281-0.719-0.281zM11 28.688c0 0.208 0.063 0.395 0.188 0.562l1.499 2.313c0.209 0.291 0.5 0.437 0.875 0.437h4.875c0.375 0 0.667-0.146 0.875-0.438l1.5-2.312c0.125-0.167 0.188-0.354 0.188-0.563v-2.687h-10v2.688zM16 0c-2.083 0-3.979 0.521-5.688 1.563-1.625 1-2.916 2.343-3.875 4.031s-1.437 3.489-1.437 5.406c0 1.375 0.24 2.677 0.719 3.906s1.156 2.344 2.031 3.344c0.583 0.667 1.167 1.5 1.75 2.5 0.708 1.208 1.208 2.292 1.5 3.25h3c0-0.292-0.042-0.583-0.125-0.875-0.792-2.542-2.083-4.833-3.875-6.875-1.333-1.5-2-3.25-2-5.25 0-1.5 0.365-2.865 1.094-4.094s1.708-2.187 2.937-2.875c1.229-0.687 2.563-1.031 4-1.031 1.438 0 2.771 0.354 4 1.063s2.198 1.677 2.906 2.906c0.709 1.229 1.063 2.573 1.063 4.031 0 2-0.667 3.75-2 5.25-1.792 2.042-3.083 4.333-3.875 6.875-0.083 0.292-0.125 0.583-0.125 0.875h3c0.292-0.958 0.792-2.042 1.5-3.25 0.583-1 1.167-1.833 1.75-2.5 0.875-1 1.552-2.115 2.031-3.344s0.719-2.531 0.719-3.906c0-2-0.49-3.844-1.469-5.531s-2.312-3.021-4-4c-1.687-0.979-3.531-1.469-5.531-1.469z"></path>
</svg>
