<!-- Generated by IcoMoon.io -->
<svg version="1.1" xmlns="http://www.w3.org/2000/svg" width="32" height="32" viewBox="0 0 32 32">
<title>link</title>
<path d="M20.438 11.563c1.208 1.249 2.020 2.687 2.437 4.312s0.417 3.25 0 4.875c-0.417 1.625-1.229 3.042-2.437 4.25l-4.25 4.25c-1.209 1.208-2.625 2.021-4.25 2.438s-3.25 0.416-4.875 0c-1.625-0.417-3.053-1.24-4.282-2.469s-2.052-2.656-2.468-4.281c-0.417-1.625-0.417-3.25 0-4.875 0.416-1.625 1.229-3.042 2.437-4.25l2.375-2.375c0.292-0.292 0.635-0.355 1.031-0.188s0.615 0.458 0.657 0.875c0.041 1.125 0.25 2.229 0.625 3.313 0.125 0.375 0.041 0.708-0.25 1l-0.813 0.875c-0.875 0.875-1.323 1.927-1.344 3.156s0.407 2.291 1.282 3.187c0.875 0.896 1.937 1.344 3.187 1.344s2.313-0.438 3.188-1.313l4.187-4.187c0.875-0.875 1.313-1.938 1.313-3.188s-0.438-2.312-1.313-3.187c-0.208-0.208-0.437-0.396-0.687-0.563s-0.375-0.416-0.375-0.749c-0.042-0.75 0.187-1.375 0.687-1.875l1.375-1.313c0.167-0.167 0.365-0.26 0.594-0.281s0.448 0.031 0.656 0.156c0.458 0.333 0.896 0.688 1.313 1.063zM29.25 2.75c1.208 1.25 2.021 2.688 2.438 4.313s0.416 3.25 0 4.875c-0.417 1.625-1.23 3.041-2.438 4.25l-2.375 2.375c-0.292 0.291-0.635 0.354-1.031 0.187s-0.615-0.458-0.656-0.875c-0.042-1.125-0.25-2.229-0.625-3.313-0.125-0.374-0.042-0.708 0.25-0.999l0.812-0.875c0.875-0.875 1.323-1.928 1.344-3.157s-0.406-2.291-1.281-3.187c-0.875-0.896-1.938-1.344-3.188-1.344s-2.312 0.438-3.187 1.313l-4.188 4.187c-0.875 0.875-1.312 1.938-1.312 3.188s0.437 2.312 1.312 3.187c0.208 0.208 0.438 0.396 0.688 0.563s0.375 0.416 0.375 0.75c0.041 0.75-0.188 1.375-0.688 1.875l-1.375 1.312c-0.167 0.167-0.365 0.26-0.594 0.281s-0.448-0.031-0.656-0.156c-0.458-0.333-0.896-0.688-1.312-1.063-1.209-1.25-2.021-2.687-2.438-4.312s-0.417-3.25 0-4.875c0.417-1.625 1.229-3.042 2.438-4.25l4.25-4.25c1.208-1.208 2.625-2.021 4.25-2.438 1.625-0.416 3.25-0.416 4.875 0.001s3.062 1.229 4.312 2.437z"></path>
</svg>
