<!-- Generated by IcoMoon.io -->
<svg version="1.1" xmlns="http://www.w3.org/2000/svg" width="32" height="32" viewBox="0 0 32 32">
<title>list-alt</title>
<path d="M29 30h-26c-0.833 0-1.542-0.292-2.125-0.875s-0.875-1.292-0.875-2.125v-22c0-0.833 0.292-1.542 0.875-2.125s1.292-0.875 2.125-0.875h26c0.833 0 1.542 0.292 2.125 0.875s0.875 1.292 0.875 2.125v22c0 0.833-0.292 1.542-0.875 2.125s-1.292 0.875-2.125 0.875zM8 7.5c-0.708 0-1.302 0.24-1.781 0.719s-0.719 1.073-0.719 1.781c0 0.708 0.24 1.302 0.719 1.781s1.073 0.719 1.781 0.719c0.708 0 1.302-0.24 1.781-0.719s0.719-1.073 0.719-1.781c0-0.708-0.24-1.302-0.719-1.781s-1.073-0.719-1.781-0.719zM8 13.5c-0.708 0-1.302 0.24-1.781 0.719s-0.719 1.073-0.719 1.781c0 0.708 0.24 1.302 0.719 1.781s1.073 0.719 1.781 0.719c0.708 0 1.302-0.24 1.781-0.719s0.719-1.073 0.719-1.781c0-0.708-0.24-1.302-0.719-1.781s-1.073-0.719-1.781-0.719zM8 19.5c-0.708 0-1.302 0.24-1.781 0.719s-0.719 1.073-0.719 1.781c0 0.708 0.24 1.302 0.719 1.781s1.073 0.719 1.781 0.719c0.708 0 1.302-0.24 1.781-0.719s0.719-1.073 0.719-1.781c0-0.708-0.24-1.302-0.719-1.781s-1.073-0.719-1.781-0.719zM26 11v-2c0-0.208-0.073-0.385-0.219-0.531s-0.323-0.219-0.531-0.219h-12.5c-0.208 0-0.385 0.073-0.531 0.219s-0.219 0.323-0.219 0.531v2c0 0.208 0.073 0.385 0.219 0.531s0.323 0.219 0.531 0.219h12.5c0.208 0 0.385-0.073 0.531-0.219s0.219-0.323 0.219-0.531zM26 17v-2c0-0.208-0.073-0.385-0.219-0.531s-0.323-0.219-0.531-0.219h-12.5c-0.208 0-0.385 0.073-0.531 0.219s-0.219 0.323-0.219 0.531v2c0 0.208 0.073 0.385 0.219 0.531s0.323 0.219 0.531 0.219h12.5c0.208 0 0.385-0.073 0.531-0.219s0.219-0.323 0.219-0.531zM26 23v-2c0-0.208-0.073-0.385-0.219-0.531s-0.323-0.219-0.531-0.219h-12.5c-0.208 0-0.385 0.073-0.531 0.219s-0.219 0.323-0.219 0.531v2c0 0.208 0.073 0.385 0.219 0.531s0.323 0.219 0.531 0.219h12.5c0.208 0 0.385-0.073 0.531-0.219s0.219-0.323 0.219-0.531z"></path>
</svg>
