<!-- Generated by IcoMoon.io -->
<svg version="1.1" xmlns="http://www.w3.org/2000/svg" width="40" height="32" viewBox="0 0 40 32">
<title>list-alt-gear-o</title>
<path d="M38.285 24.495c0.1-0.703 0.084-1.406-0.050-2.11l1.306-0.753c0.167-0.101 0.234-0.251 0.201-0.452-0.335-1.072-0.905-2.026-1.708-2.863-0.134-0.134-0.285-0.151-0.452-0.051l-1.256 0.704c-0.569-0.469-1.189-0.821-1.859-1.055v-1.507c0-0.201-0.1-0.318-0.301-0.352-1.105-0.234-2.21-0.234-3.315 0-0.201 0.034-0.302 0.151-0.302 0.352v1.507c-0.669 0.234-1.289 0.586-1.858 1.055l-1.306-0.754c-0.168-0.067-0.318-0.033-0.452 0.101-0.77 0.837-1.323 1.791-1.658 2.863-0.033 0.201 0.034 0.351 0.201 0.452l1.256 0.753c-0.134 0.704-0.134 1.407 0 2.11l-1.256 0.754c-0.201 0.1-0.268 0.251-0.201 0.452 0.335 1.071 0.888 2.026 1.658 2.863 0.134 0.134 0.284 0.15 0.452 0.050l1.306-0.703c0.569 0.469 1.189 0.82 1.858 1.055v1.507c0 0.2 0.101 0.318 0.302 0.351 1.105 0.235 2.21 0.235 3.315 0 0.201-0.033 0.301-0.151 0.301-0.351v-1.507c0.67-0.235 1.29-0.586 1.859-1.055l1.256 0.703c0.167 0.1 0.318 0.084 0.452-0.050 0.803-0.837 1.373-1.792 1.708-2.863 0.033-0.201-0.034-0.352-0.201-0.452l-1.256-0.754zM24.138 28h-21.138c-0.833 0-1.542-0.292-2.125-0.875s-0.875-1.292-0.875-2.125v-22c0-0.833 0.292-1.542 0.875-2.125s1.292-0.875 2.125-0.875h26c0.833 0 1.542 0.292 2.125 0.875s0.875 1.292 0.875 2.125v10.95c-1.068 0.069-2.068 0.29-3 0.665v-11.24c0-0.083-0.042-0.167-0.125-0.25s-0.167-0.125-0.25-0.125h-25.25c-0.083 0-0.167 0.042-0.25 0.125s-0.125 0.167-0.125 0.25v21.25c0 0.083 0.042 0.167 0.125 0.25s0.167 0.125 0.25 0.125h19.767c0.159 1.075 0.491 2.075 0.996 3zM32.508 25.851c-0.669 0-1.239-0.234-1.707-0.703-0.469-0.469-0.704-1.038-0.704-1.708s0.235-1.239 0.704-1.708c0.468-0.468 1.038-0.711 1.707-0.728s1.248 0.218 1.733 0.703c0.486 0.486 0.729 1.063 0.729 1.733s-0.243 1.239-0.729 1.708c-0.485 0.469-1.063 0.703-1.733 0.703zM10.25 20c0-0.625-0.219-1.156-0.656-1.594-0.438-0.437-0.969-0.656-1.594-0.656s-1.156 0.219-1.594 0.656c-0.437 0.438-0.656 0.969-0.656 1.594s0.219 1.156 0.656 1.594c0.438 0.437 0.969 0.656 1.594 0.656s1.156-0.219 1.594-0.656c0.437-0.438 0.656-0.969 0.656-1.594zM23.221 21.5h-10.471c-0.208 0-0.385-0.073-0.531-0.219s-0.219-0.323-0.219-0.531v-1.5c0-0.208 0.073-0.385 0.219-0.531s0.323-0.219 0.531-0.219h11.655c-0.576 0.922-0.971 1.922-1.184 3zM10.25 14c0-0.625-0.219-1.156-0.656-1.594s-0.969-0.656-1.594-0.656-1.156 0.219-1.594 0.656c-0.437 0.438-0.656 0.969-0.656 1.594s0.219 1.156 0.656 1.594c0.438 0.437 0.969 0.656 1.594 0.656s1.156-0.219 1.594-0.656c0.437-0.438 0.656-0.969 0.656-1.594zM25.25 15.5h-12.5c-0.208 0-0.385-0.073-0.531-0.219s-0.219-0.323-0.219-0.531v-1.5c0-0.208 0.073-0.385 0.219-0.531s0.323-0.219 0.531-0.219h12.5c0.208 0 0.385 0.073 0.531 0.219s0.219 0.323 0.219 0.531v1.5c0 0.208-0.073 0.385-0.219 0.531s-0.323 0.219-0.531 0.219zM10.25 8c0-0.625-0.219-1.156-0.656-1.594-0.438-0.437-0.969-0.656-1.594-0.656s-1.156 0.219-1.594 0.656c-0.437 0.438-0.656 0.969-0.656 1.594s0.219 1.156 0.656 1.594c0.438 0.437 0.969 0.656 1.594 0.656s1.156-0.219 1.594-0.656c0.437-0.438 0.656-0.969 0.656-1.594zM25.25 9.5h-12.5c-0.208 0-0.385-0.073-0.531-0.219s-0.219-0.323-0.219-0.531v-1.5c0-0.208 0.073-0.385 0.219-0.531s0.323-0.219 0.531-0.219h12.5c0.208 0 0.385 0.073 0.531 0.219s0.219 0.323 0.219 0.531v1.5c0 0.208-0.073 0.385-0.219 0.531s-0.323 0.219-0.531 0.219z"></path>
</svg>
