<!-- Generated by IcoMoon.io -->
<svg version="1.1" xmlns="http://www.w3.org/2000/svg" width="32" height="32" viewBox="0 0 32 32">
<title>list-ol</title>
<path d="M0.125 8.75c0-0.5 0.25-0.75 0.75-0.75h0.938l-0.001-2.5 0.063-0.625-0.25 0.188c-0.125 0.166-0.281 0.239-0.469 0.218s-0.344-0.114-0.469-0.281l-0.375-0.375c-0.333-0.333-0.312-0.667 0.063-1l1.313-1.25c0.291-0.25 0.604-0.375 0.937-0.375h0.75c0.5 0 0.75 0.25 0.75 0.75v5.25h0.938c0.5 0 0.75 0.25 0.75 0.75v0.5c0 0.5-0.25 0.75-0.75 0.75h-4.188c-0.5 0-0.75-0.25-0.75-0.75v-0.5zM0.062 19.063c0.001-0.876 0.271-1.626 0.813-2.251 0.333-0.375 0.833-0.791 1.5-1.25 0.333-0.208 0.563-0.375 0.688-0.5s0.187-0.25 0.187-0.375c0-0.333-0.188-0.5-0.563-0.5-0.208 0-0.416 0.084-0.624 0.25-0.334 0.334-0.667 0.375-1 0.125l-0.5-0.437c-0.375-0.292-0.438-0.604-0.188-0.938 0.583-0.791 1.417-1.187 2.5-1.187 0.75 0 1.375 0.187 1.875 0.562 0.625 0.459 0.938 1.105 0.938 1.938 0 0.667-0.25 1.271-0.75 1.812-0.292 0.292-0.771 0.646-1.438 1.063-0.542 0.292-0.833 0.5-0.875 0.625h2.438c0.499 0 0.749 0.25 0.749 0.75v0.563c0 0.458-0.25 0.687-0.75 0.687h-4.25c-0.208 0-0.385-0.063-0.531-0.188s-0.219-0.291-0.219-0.5v-0.25zM0.312 28.438l0.313-0.625c0.25-0.375 0.583-0.437 1-0.187 0.292 0.125 0.583 0.188 0.875 0.188 0.625 0 0.938-0.178 0.938-0.532s-0.334-0.531-1.001-0.531h-0.312c-0.333 0-0.583-0.167-0.75-0.5l-0.063-0.125c-0.166-0.292-0.125-0.604 0.125-0.938l0.375-0.437c0.292-0.333 0.542-0.604 0.75-0.813v-0.062l-0.75 0.125h-0.812c-0.5 0-0.75-0.25-0.75-0.75v-0.563c0-0.458 0.25-0.687 0.75-0.687h3.625c0.5 0 0.75 0.229 0.75 0.688v0.25c0 0.333-0.125 0.625-0.375 0.875l-1.063 1.25c0.584 0.166 1.032 0.447 1.344 0.843s0.469 0.844 0.469 1.344c0 0.75-0.25 1.375-0.75 1.875-0.542 0.583-1.313 0.875-2.313 0.875-0.833 0-1.583-0.188-2.25-0.563-0.333-0.291-0.375-0.625-0.125-1zM8.937 8.251c-0.291 0-0.531-0.094-0.718-0.281-0.188-0.188-0.282-0.427-0.282-0.719v-2.5c0-0.292 0.094-0.531 0.282-0.719 0.187-0.187 0.427-0.281 0.718-0.281h22.001c0.291 0 0.531 0.094 0.718 0.281s0.281 0.427 0.281 0.719v2.5c0 0.292-0.093 0.531-0.281 0.719-0.187 0.187-0.427 0.281-0.719 0.281h-22zM8.937 18.251c-0.291 0-0.531-0.094-0.718-0.281-0.188-0.188-0.282-0.427-0.282-0.719v-2.5c0-0.292 0.094-0.531 0.282-0.719 0.187-0.187 0.427-0.281 0.718-0.281h22.001c0.291 0 0.531 0.094 0.718 0.281s0.281 0.427 0.281 0.719v2.5c0 0.292-0.093 0.531-0.281 0.719-0.187 0.187-0.427 0.281-0.719 0.281h-22zM8.937 28.251c-0.291 0-0.531-0.094-0.718-0.281-0.188-0.188-0.282-0.427-0.282-0.719v-2.5c0-0.292 0.094-0.531 0.282-0.719 0.187-0.187 0.427-0.281 0.718-0.281h22.001c0.291 0 0.531 0.094 0.718 0.281 0.188 0.188 0.281 0.427 0.281 0.719v2.5c0 0.292-0.093 0.531-0.281 0.719-0.187 0.187-0.427 0.281-0.719 0.281h-22z"></path>
</svg>
