<!-- Generated by IcoMoon.io -->
<svg version="1.1" xmlns="http://www.w3.org/2000/svg" width="32" height="32" viewBox="0 0 32 32">
<title>list-alt-o</title>
<path d="M29 2h-26c-0.833 0-1.542 0.292-2.125 0.875s-0.875 1.292-0.875 2.125v22c0 0.833 0.292 1.542 0.875 2.125s1.292 0.875 2.125 0.875h26c0.833 0 1.542-0.292 2.125-0.875s0.875-1.292 0.875-2.125v-22c0-0.833-0.292-1.542-0.875-2.125s-1.292-0.875-2.125-0.875zM28.625 27h-25.25c-0.083 0-0.167-0.042-0.25-0.125s-0.125-0.167-0.125-0.25v-21.25c0-0.083 0.042-0.167 0.125-0.25s0.167-0.125 0.25-0.125h25.25c0.083 0 0.167 0.042 0.25 0.125s0.125 0.167 0.125 0.25v21.25c0 0.083-0.042 0.167-0.125 0.25s-0.167 0.125-0.25 0.125zM26 21.25c0-0.208-0.073-0.385-0.219-0.531s-0.323-0.219-0.531-0.219h-12.5c-0.208 0-0.385 0.073-0.531 0.219s-0.219 0.323-0.219 0.531v1.5c0 0.208 0.073 0.385 0.219 0.531s0.323 0.219 0.531 0.219h12.5c0.208 0 0.385-0.073 0.531-0.219s0.219-0.323 0.219-0.531v-1.5zM26 15.25c0-0.208-0.073-0.385-0.219-0.531s-0.323-0.219-0.531-0.219h-12.5c-0.208 0-0.385 0.073-0.531 0.219s-0.219 0.323-0.219 0.531v1.5c0 0.208 0.073 0.385 0.219 0.531s0.323 0.219 0.531 0.219h12.5c0.208 0 0.385-0.073 0.531-0.219s0.219-0.323 0.219-0.531v-1.5zM26 9.25c0-0.208-0.073-0.385-0.219-0.531s-0.323-0.219-0.531-0.219h-12.5c-0.208 0-0.385 0.073-0.531 0.219s-0.219 0.323-0.219 0.531v1.5c0 0.208 0.073 0.385 0.219 0.531s0.323 0.219 0.531 0.219h12.5c0.208 0 0.385-0.073 0.531-0.219s0.219-0.323 0.219-0.531v-1.5zM10.25 10c0-0.625-0.219-1.156-0.656-1.594s-0.969-0.656-1.594-0.656-1.156 0.219-1.594 0.656c-0.437 0.438-0.656 0.969-0.656 1.594s0.219 1.156 0.656 1.594c0.438 0.437 0.969 0.656 1.594 0.656s1.156-0.219 1.594-0.656c0.437-0.438 0.656-0.969 0.656-1.594zM10.25 16c0-0.625-0.219-1.156-0.656-1.594s-0.969-0.656-1.594-0.656-1.156 0.219-1.594 0.656c-0.437 0.438-0.656 0.969-0.656 1.594s0.219 1.156 0.656 1.594c0.438 0.437 0.969 0.656 1.594 0.656s1.156-0.219 1.594-0.656c0.437-0.438 0.656-0.969 0.656-1.594zM10.25 22c0-0.625-0.219-1.156-0.656-1.594-0.438-0.437-0.969-0.656-1.594-0.656s-1.156 0.219-1.594 0.656c-0.437 0.438-0.656 0.969-0.656 1.594s0.219 1.156 0.656 1.594c0.438 0.437 0.969 0.656 1.594 0.656s1.156-0.219 1.594-0.656c0.437-0.438 0.656-0.969 0.656-1.594z"></path>
</svg>
