<!-- Generated by IcoMoon.io -->
<svg version="1.1" xmlns="http://www.w3.org/2000/svg" width="32" height="32" viewBox="0 0 32 32">
<title>list-ul</title>
<path d="M6 6c0-0.833-0.292-1.542-0.875-2.125s-1.292-0.875-2.125-0.875c-0.833 0-1.542 0.292-2.125 0.875s-0.875 1.292-0.875 2.125c0 0.833 0.292 1.542 0.875 2.125s1.292 0.875 2.125 0.875c0.833 0 1.542-0.292 2.125-0.875s0.875-1.292 0.875-2.125zM3 13c-0.833 0-1.542 0.292-2.125 0.875s-0.875 1.292-0.875 2.125c0 0.833 0.292 1.542 0.875 2.125s1.292 0.875 2.125 0.875c0.833 0 1.542-0.292 2.125-0.875s0.875-1.292 0.875-2.125c0-0.833-0.292-1.542-0.875-2.125s-1.292-0.875-2.125-0.875zM3 23c-0.833 0-1.542 0.292-2.125 0.875s-0.875 1.292-0.875 2.125c0 0.833 0.292 1.542 0.875 2.125s1.292 0.875 2.125 0.875c0.833 0 1.542-0.292 2.125-0.875s0.875-1.292 0.875-2.125c0-0.833-0.292-1.542-0.875-2.125s-1.292-0.875-2.125-0.875zM9 8.25h22c0.292 0 0.531-0.094 0.719-0.281 0.187-0.188 0.281-0.427 0.281-0.719v-2.5c0-0.292-0.094-0.531-0.281-0.719-0.188-0.187-0.427-0.281-0.719-0.281h-22c-0.292 0-0.531 0.094-0.719 0.281s-0.281 0.427-0.281 0.719v2.5c0 0.292 0.094 0.531 0.281 0.719s0.427 0.281 0.719 0.281zM9 18.25h22c0.292 0 0.531-0.094 0.719-0.281 0.187-0.188 0.281-0.427 0.281-0.719v-2.5c0-0.292-0.094-0.531-0.281-0.719-0.188-0.187-0.427-0.281-0.719-0.281h-22c-0.292 0-0.531 0.094-0.719 0.281s-0.281 0.427-0.281 0.719v2.5c0 0.292 0.094 0.531 0.281 0.719 0.188 0.187 0.427 0.281 0.719 0.281zM9 28.25h22c0.292 0 0.531-0.094 0.719-0.281 0.187-0.188 0.281-0.427 0.281-0.719v-2.5c0-0.292-0.094-0.531-0.281-0.719-0.188-0.187-0.427-0.281-0.719-0.281h-22c-0.292 0-0.531 0.094-0.719 0.281-0.187 0.188-0.281 0.427-0.281 0.719v2.5c0 0.292 0.094 0.531 0.281 0.719 0.188 0.187 0.427 0.281 0.719 0.281z"></path>
</svg>
