<!-- Generated by IcoMoon.io -->
<svg version="1.1" xmlns="http://www.w3.org/2000/svg" width="32" height="32" viewBox="0 0 32 32">
<title>list</title>
<path d="M8 7.25c0 0.292 0.094 0.531 0.281 0.719s0.427 0.281 0.719 0.281h22c0.292 0 0.531-0.094 0.719-0.281 0.187-0.188 0.281-0.427 0.281-0.719v-2.5c0-0.292-0.094-0.531-0.281-0.719-0.188-0.187-0.427-0.281-0.719-0.281h-22c-0.292 0-0.531 0.094-0.719 0.281s-0.281 0.427-0.281 0.719v2.5zM9 18.25h22c0.292 0 0.531-0.094 0.719-0.281 0.187-0.188 0.281-0.427 0.281-0.719v-2.5c0-0.292-0.094-0.531-0.281-0.719-0.188-0.187-0.427-0.281-0.719-0.281h-22c-0.292 0-0.531 0.094-0.719 0.281s-0.281 0.427-0.281 0.719v2.5c0 0.292 0.094 0.531 0.281 0.719 0.188 0.187 0.427 0.281 0.719 0.281zM9 28.25h22c0.292 0 0.531-0.094 0.719-0.281 0.187-0.188 0.281-0.427 0.281-0.719v-2.5c0-0.292-0.094-0.531-0.281-0.719-0.188-0.187-0.427-0.281-0.719-0.281h-22c-0.292 0-0.531 0.094-0.719 0.281-0.187 0.188-0.281 0.427-0.281 0.719v2.5c0 0.292 0.094 0.531 0.281 0.719 0.188 0.187 0.427 0.281 0.719 0.281zM1 9h4c0.292 0 0.531-0.094 0.719-0.281 0.187-0.188 0.281-0.427 0.281-0.719v-4c0-0.292-0.094-0.531-0.281-0.719-0.188-0.187-0.427-0.281-0.719-0.281h-4c-0.292 0-0.531 0.094-0.719 0.281s-0.281 0.427-0.281 0.719v4c0 0.292 0.094 0.531 0.281 0.719 0.188 0.187 0.427 0.281 0.719 0.281zM1 19h4c0.292 0 0.531-0.094 0.719-0.281 0.187-0.188 0.281-0.427 0.281-0.719v-4c0-0.292-0.094-0.531-0.281-0.719-0.188-0.187-0.427-0.281-0.719-0.281h-4c-0.292 0-0.531 0.094-0.719 0.281s-0.281 0.427-0.281 0.719v4c0 0.292 0.094 0.531 0.281 0.719 0.188 0.187 0.427 0.281 0.719 0.281zM1 29h4c0.292 0 0.531-0.094 0.719-0.281 0.187-0.188 0.281-0.427 0.281-0.719v-4c0-0.292-0.094-0.531-0.281-0.719-0.188-0.187-0.427-0.281-0.719-0.281h-4c-0.292 0-0.531 0.094-0.719 0.281-0.187 0.188-0.281 0.427-0.281 0.719v4c0 0.292 0.094 0.531 0.281 0.719 0.188 0.187 0.427 0.281 0.719 0.281z"></path>
</svg>
