<!-- Generated by IcoMoon.io -->
<svg version="1.1" xmlns="http://www.w3.org/2000/svg" width="32" height="32" viewBox="0 0 32 32">
<title>lock</title>
<path d="M27 14h-1.5v-4.5c0-1.708-0.427-3.292-1.281-4.75s-2.011-2.615-3.469-3.469c-1.458-0.854-3.042-1.281-4.75-1.281s-3.292 0.427-4.75 1.281c-1.458 0.854-2.615 2.011-3.469 3.469s-1.281 3.042-1.281 4.75v4.5h-1.5c-0.833 0-1.542 0.292-2.125 0.875s-0.875 1.292-0.875 2.125v12c0 0.833 0.292 1.542 0.875 2.125s1.292 0.875 2.125 0.875h22c0.833 0 1.542-0.292 2.125-0.875s0.875-1.292 0.875-2.125v-12c0-0.833-0.292-1.542-0.875-2.125s-1.292-0.875-2.125-0.875zM20.5 14h-9v-4.5c0-1.25 0.438-2.313 1.313-3.188 0.874-0.874 1.937-1.312 3.187-1.312s2.313 0.438 3.188 1.313c0.875 0.875 1.312 1.937 1.312 3.187v4.5z"></path>
</svg>
