<!-- Generated by IcoMoon.io -->
<svg version="1.1" xmlns="http://www.w3.org/2000/svg" width="36" height="32" viewBox="0 0 36 32">
<title>lock-open</title>
<path d="M26.5 0c-1.75 0-3.344 0.438-4.781 1.313-1.438 0.875-2.584 2.041-3.438 3.5s-1.281 3.041-1.281 4.75v4.437h-14c-0.833 0-1.542 0.292-2.125 0.875s-0.875 1.292-0.875 2.125v12c0 0.833 0.292 1.542 0.875 2.125s1.292 0.875 2.125 0.875h22c0.833 0 1.542-0.292 2.125-0.875s0.875-1.292 0.875-2.125v-12c0-0.833-0.292-1.542-0.875-2.125s-1.292-0.875-2.125-0.875h-3v-4.438c0-1.25 0.438-2.322 1.313-3.218s1.927-1.344 3.156-1.344c1.229 0 2.291 0.437 3.187 1.312s1.344 1.938 1.344 3.188v5c0 0.417 0.146 0.771 0.438 1.062 0.291 0.292 0.645 0.438 1.062 0.438h2c0.417 0 0.771-0.146 1.063-0.438 0.291-0.291 0.437-0.645 0.437-1.062v-5c0-1.708-0.427-3.292-1.281-4.75s-2.011-2.615-3.469-3.469c-1.458-0.854-3.042-1.281-4.75-1.281z"></path>
</svg>
