<!-- Generated by IcoMoon.io -->
<svg version="1.1" xmlns="http://www.w3.org/2000/svg" width="32" height="32" viewBox="0 0 32 32">
<title>male</title>
<path d="M16 0c1.125 0 2.073 0.385 2.844 1.156s1.156 1.719 1.156 2.844c0 1.125-0.385 2.073-1.156 2.844s-1.719 1.156-2.844 1.156c-1.125 0-2.073-0.385-2.844-1.156s-1.156-1.719-1.156-2.844c0-1.125 0.385-2.073 1.156-2.844s1.719-1.156 2.844-1.156zM19 9c0.833 0 1.542 0.292 2.125 0.875s0.875 1.292 0.875 2.125v8.5c0 0.417-0.146 0.771-0.438 1.063s-0.645 0.437-1.062 0.437h-1v8.5c0 0.417-0.146 0.771-0.438 1.063s-0.645 0.437-1.062 0.437h-4c-0.417 0-0.771-0.146-1.063-0.438s-0.437-0.645-0.437-1.062v-8.5h-1c-0.417 0-0.771-0.146-1.063-0.438s-0.437-0.645-0.437-1.062v-8.5c0-0.833 0.292-1.542 0.875-2.125s1.292-0.875 2.125-0.875h0.688c0.749 0.333 1.52 0.5 2.312 0.5s1.563-0.167 2.313-0.5h0.687z"></path>
</svg>
