<!-- Generated by IcoMoon.io -->
<svg version="1.1" xmlns="http://www.w3.org/2000/svg" width="32" height="32" viewBox="0 0 32 32">
<title>map-marker-alt</title>
<path d="M14.75 31.375c-1.083-1.583-2.479-3.583-4.188-6-2.083-3-3.458-5.021-4.125-6.063-0.958-1.5-1.604-2.76-1.937-3.781s-0.5-2.198-0.5-3.531c0-2.167 0.542-4.167 1.625-6s2.542-3.292 4.375-4.375c1.833-1.083 3.833-1.625 6-1.625s4.167 0.542 6 1.625c1.833 1.083 3.292 2.542 4.375 4.375s1.625 3.833 1.625 6c0 1.333-0.167 2.51-0.5 3.531s-0.979 2.281-1.938 3.781c-0.666 1.042-2.041 3.063-4.125 6.063l-4.187 6c-0.292 0.417-0.708 0.625-1.25 0.625s-0.958-0.208-1.25-0.625zM16 17c1.375 0 2.552-0.49 3.531-1.469s1.469-2.156 1.469-3.531c0-1.375-0.49-2.552-1.469-3.531s-2.156-1.469-3.531-1.469c-1.375 0-2.552 0.49-3.531 1.469s-1.469 2.156-1.469 3.531c0 1.375 0.49 2.552 1.469 3.531s2.156 1.469 3.531 1.469z"></path>
</svg>
