<!-- Generated by IcoMoon.io -->
<svg version="1.1" xmlns="http://www.w3.org/2000/svg" width="36" height="32" viewBox="0 0 36 32">
<title>map-marked-alt</title>
<path d="M18-0.004c-1.417 0-2.729 0.354-3.937 1.063s-2.167 1.666-2.875 2.875c-0.709 1.208-1.063 2.52-1.063 3.937 0 1.542 0.938 3.729 2.813 6.563 1.208 1.791 2.645 3.687 4.312 5.687 0.208 0.25 0.458 0.375 0.75 0.375s0.542-0.125 0.75-0.375c1.667-2 3.104-3.896 4.313-5.687 1.875-2.834 2.812-5.021 2.812-6.563 0-1.417-0.354-2.729-1.062-3.937-0.709-1.209-1.667-2.167-2.875-2.875-1.209-0.709-2.521-1.063-3.938-1.063zM18 10.496c-0.708 0-1.323-0.26-1.844-0.781s-0.781-1.136-0.781-1.844c0-0.708 0.26-1.323 0.781-1.844 0.521-0.52 1.136-0.781 1.844-0.781s1.323 0.261 1.844 0.781c0.521 0.521 0.781 1.136 0.781 1.844s-0.26 1.323-0.781 1.844c-0.521 0.521-1.136 0.781-1.844 0.781zM1.25 13.496c-0.375 0.167-0.677 0.417-0.906 0.75s-0.344 0.708-0.344 1.125v15.625c0 0.333 0.146 0.604 0.438 0.813 0.291 0.208 0.604 0.25 0.937 0.125l8.625-3.938v-14.562c-0.583-1.042-1.021-2.021-1.312-2.938l-7.438 3zM18 22.496c-0.917 0-1.687-0.354-2.312-1.062-1.375-1.667-2.605-3.271-3.688-4.813v11.375l12 4v-15.375c-1.083 1.542-2.312 3.146-3.687 4.813-0.625 0.708-1.396 1.062-2.313 1.062zM34.625 10.059l-8.625 3.937v18l8.75-3.5c0.375-0.167 0.677-0.417 0.906-0.75s0.344-0.708 0.344-1.125v-15.625c0-0.333-0.146-0.604-0.437-0.812-0.292-0.209-0.605-0.25-0.938-0.125z"></path>
</svg>
