<!-- Generated by IcoMoon.io -->
<svg version="1.1" xmlns="http://www.w3.org/2000/svg" width="32" height="32" viewBox="0 0 32 32">
<title>map-pin</title>
<path d="M14 19.813v9.812l1.375 2.063c0.167 0.208 0.375 0.312 0.625 0.312s0.458-0.104 0.625-0.313l1.375-2.062v-9.813c-0.708 0.126-1.375 0.188-2 0.188s-1.292-0.062-2-0.187zM16 0c-1.625 0-3.125 0.406-4.5 1.219s-2.469 1.906-3.281 3.281c-0.813 1.375-1.219 2.875-1.219 4.5s0.406 3.125 1.219 4.5c0.812 1.375 1.906 2.469 3.281 3.281 1.375 0.813 2.875 1.219 4.5 1.219s3.125-0.406 4.5-1.219c1.375-0.812 2.469-1.906 3.281-3.281 0.813-1.375 1.219-2.875 1.219-4.5s-0.406-3.125-1.219-4.5c-0.812-1.375-1.906-2.469-3.281-3.281s-2.875-1.219-4.5-1.219zM16 4.75c-1.167 0-2.167 0.417-3 1.25s-1.25 1.833-1.25 3c0 0.208-0.073 0.385-0.219 0.531s-0.323 0.219-0.531 0.219c-0.208 0-0.385-0.073-0.531-0.219s-0.219-0.323-0.219-0.531c0-1.583 0.563-2.937 1.688-4.062s2.479-1.688 4.062-1.688c0.208 0 0.385 0.073 0.531 0.219s0.219 0.323 0.219 0.531c0 0.208-0.073 0.385-0.219 0.531s-0.323 0.219-0.531 0.219z"></path>
</svg>
