<!-- Generated by IcoMoon.io -->
<svg version="1.1" xmlns="http://www.w3.org/2000/svg" width="36" height="32" viewBox="0 0 36 32">
<title>map-o</title>
<path d="M35 2c-0.125 0-0.25 0.021-0.375 0.063l-10.625 3.937-10.75-3.813c-0.417-0.124-0.833-0.187-1.25-0.187s-0.833 0.063-1.25 0.188l-9.5 3.312c-0.375 0.167-0.677 0.417-0.906 0.75s-0.344 0.708-0.344 1.125v21.625c0 0.292 0.104 0.531 0.313 0.719 0.208 0.187 0.437 0.281 0.687 0.281 0.125 0 0.25-0.021 0.375-0.063l10.625-3.937 10.75 3.813c0.833 0.25 1.667 0.25 2.5 0l9.5-3.313c0.375-0.167 0.677-0.417 0.906-0.75s0.344-0.708 0.344-1.125v-21.625c0-0.292-0.104-0.531-0.312-0.719-0.209-0.187-0.438-0.281-0.688-0.281zM14 5.625l8 2.875v17.875l-8-2.875v-17.875zM3 26.125v-18.063l8-2.75v17.876l-8 2.937zM33 23.937l-8 2.75v-17.875l8-2.937v18.062z"></path>
</svg>
