<!-- Generated by IcoMoon.io -->
<svg version="1.1" xmlns="http://www.w3.org/2000/svg" width="32" height="32" viewBox="0 0 32 32">
<title>map-signs</title>
<path d="M31.688 5.313l-2.688-2.75c-0.375-0.375-0.854-0.563-1.438-0.563h-9.562v-1c0-0.292-0.094-0.531-0.281-0.719-0.188-0.187-0.427-0.281-0.719-0.281h-2c-0.292 0-0.531 0.094-0.719 0.281s-0.281 0.427-0.281 0.719v1h-10.5c-0.417 0-0.771 0.146-1.063 0.438s-0.437 0.645-0.437 1.062v5c0 0.417 0.146 0.771 0.437 1.063s0.646 0.437 1.063 0.437h24.062c0.584 0 1.063-0.188 1.438-0.563l2.687-2.749c0.209-0.167 0.313-0.396 0.313-0.688s-0.104-0.521-0.313-0.687zM14.001 31c0 0.292 0.094 0.531 0.281 0.719 0.188 0.187 0.427 0.281 0.719 0.281h2c0.292 0 0.531-0.094 0.719-0.281 0.187-0.188 0.281-0.427 0.281-0.719v-7h-4v7zM28.501 14h-10.5v-2h-4v2h-9.563c-0.583 0-1.062 0.188-1.437 0.563l-2.688 2.749c-0.208 0.167-0.312 0.396-0.312 0.688s0.104 0.521 0.312 0.688l2.688 2.75c0.375 0.375 0.854 0.562 1.437 0.562h24.063c0.417 0 0.771-0.146 1.062-0.438 0.292-0.291 0.438-0.645 0.438-1.062v-5c0-0.417-0.146-0.771-0.438-1.063s-0.645-0.437-1.062-0.437z"></path>
</svg>
