<!-- Generated by IcoMoon.io -->
<svg version="1.1" xmlns="http://www.w3.org/2000/svg" width="36" height="32" viewBox="0 0 36 32">
<title>map</title>
<path d="M0 7.375v21.625c0 0.333 0.146 0.604 0.438 0.812 0.291 0.209 0.604 0.25 0.937 0.125l8.625-3.937v-24l-8.75 3.5c-0.375 0.167-0.677 0.417-0.906 0.75s-0.344 0.708-0.344 1.125zM12 26l12 4v-24l-12-4v24zM34.625 2.062l-8.625 3.938v24l8.75-3.5c0.375-0.167 0.677-0.417 0.906-0.75s0.344-0.708 0.344-1.125v-21.625c0-0.333-0.146-0.604-0.437-0.813-0.292-0.208-0.605-0.25-0.938-0.125z"></path>
</svg>
