<!-- Generated by IcoMoon.io -->
<svg version="1.1" xmlns="http://www.w3.org/2000/svg" width="32" height="32" viewBox="0 0 32 32">
<title>medal</title>
<path d="M14 8.188l-4.312-7.188c-0.209-0.333-0.459-0.583-0.75-0.75s-0.625-0.25-1-0.25h-6.938c-0.417 0-0.719 0.177-0.906 0.531s-0.156 0.698 0.094 1.031l6.937 9.938c1.958-1.792 4.25-2.896 6.875-3.313zM31 0.001h-6.937c-0.375 0-0.709 0.083-1 0.25-0.292 0.167-0.542 0.417-0.75 0.75l-4.313 7.187c2.625 0.417 4.917 1.521 6.875 3.313l6.938-9.938c0.25-0.333 0.281-0.677 0.093-1.031-0.187-0.354-0.489-0.531-0.906-0.531zM16 10.001c-2 0-3.844 0.49-5.531 1.469-1.688 0.979-3.021 2.312-4 4-0.979 1.687-1.469 3.531-1.469 5.531s0.49 3.844 1.469 5.531c0.979 1.688 2.312 3.021 4 4 1.687 0.979 3.531 1.469 5.531 1.469s3.844-0.49 5.531-1.469c1.688-0.979 3.021-2.312 4-4s1.469-3.531 1.469-5.531-0.49-3.844-1.469-5.531c-0.979-1.688-2.312-3.021-4-4s-3.531-1.469-5.531-1.469zM21.813 19.813l-2.375 2.313 0.562 3.25c0.042 0.292-0.062 0.531-0.312 0.719-0.25 0.187-0.5 0.218-0.75 0.093l-2.938-1.562-2.937 1.563c-0.25 0.125-0.5 0.093-0.75-0.094s-0.355-0.427-0.313-0.719l0.563-3.25-2.375-2.312c-0.209-0.209-0.261-0.448-0.157-0.719s0.302-0.427 0.594-0.469l3.25-0.5 1.5-2.937c0.125-0.292 0.333-0.438 0.625-0.438s0.5 0.146 0.625 0.438l1.5 2.937 3.25 0.5c0.292 0.042 0.49 0.198 0.594 0.469s0.052 0.51-0.156 0.719z"></path>
</svg>
