<!-- Generated by IcoMoon.io -->
<svg version="1.1" xmlns="http://www.w3.org/2000/svg" width="40" height="32" viewBox="0 0 40 32">
<title>microphone-alt-slash</title>
<path d="M39.625 28.625l-9.875-7.625c0.833-1.583 1.25-3.25 1.25-5v-3c0-0.292-0.094-0.531-0.281-0.719-0.188-0.187-0.427-0.281-0.719-0.281h-1c-0.292 0-0.531 0.094-0.719 0.281-0.187 0.188-0.281 0.427-0.281 0.719v3c0 1.083-0.229 2.125-0.687 3.125l-1.625-1.25c0.208-0.667 0.312-1.292 0.312-1.875h-2.75l-2.562-2h5.312v-2h-5.312c-0.209 0-0.375-0.052-0.5-0.156s-0.188-0.219-0.188-0.344v-1c0-0.125 0.063-0.24 0.188-0.344s0.291-0.156 0.5-0.156h5.312v-2h-5.312c-0.209 0-0.375-0.052-0.5-0.156s-0.188-0.219-0.188-0.344v-1c0-0.125 0.063-0.24 0.188-0.344s0.291-0.156 0.5-0.156h5.312c0-1.667-0.583-3.083-1.75-4.25s-2.583-1.75-4.25-1.75c-1.667 0-3.083 0.583-4.25 1.75s-1.75 2.583-1.75 4.25v2.812l-11.187-8.625c-0.209-0.166-0.448-0.229-0.719-0.187s-0.49 0.167-0.656 0.375l-1.25 1.562c-0.167 0.25-0.23 0.511-0.188 0.782s0.167 0.489 0.375 0.656l36.813 28.437c0.208 0.167 0.447 0.23 0.718 0.188s0.49-0.167 0.657-0.375l1.25-1.563c0.166-0.25 0.229-0.51 0.187-0.781s-0.167-0.489-0.375-0.656zM25 29h-3.5v-2.125c0.75-0.083 1.458-0.25 2.125-0.5l-3.125-2.438h-0.125c-0.5 0.042-0.896 0.042-1.187 0-1.709-0.166-3.188-0.843-4.438-2.031s-2.083-2.614-2.5-4.281l-3.25-2.563v0.438c0 1.875 0.406 3.635 1.219 5.281s1.948 3.011 3.406 4.094 3.083 1.75 4.875 2v2.125h-3.5c-0.292 0-0.531 0.094-0.719 0.281-0.187 0.188-0.281 0.427-0.281 0.719v1c0 0.292 0.094 0.531 0.281 0.719 0.188 0.187 0.427 0.281 0.719 0.281h10c0.292 0 0.531-0.094 0.719-0.281 0.187-0.188 0.281-0.427 0.281-0.719v-1c0-0.292-0.094-0.531-0.281-0.719-0.188-0.187-0.427-0.281-0.719-0.281z"></path>
</svg>
