<!-- Generated by IcoMoon.io -->
<svg version="1.1" xmlns="http://www.w3.org/2000/svg" width="32" height="32" viewBox="0 0 32 32">
<title>microphone-alt</title>
<path d="M26 12h-1c-0.292 0-0.531 0.094-0.719 0.281-0.187 0.188-0.281 0.427-0.281 0.719v3c0 1.542-0.406 2.948-1.219 4.219-0.812 1.271-1.885 2.25-3.218 2.937-1.334 0.688-2.792 0.948-4.375 0.782-1.334-0.125-2.553-0.584-3.657-1.375-1.104-0.792-1.968-1.803-2.593-3.032s-0.938-2.531-0.938-3.906v-2.625c0-0.292-0.094-0.531-0.281-0.719-0.188-0.187-0.427-0.281-0.719-0.281h-1c-0.292 0-0.531 0.094-0.719 0.281-0.187 0.188-0.281 0.427-0.281 0.719v2.5c0 1.875 0.406 3.635 1.219 5.281 0.812 1.646 1.948 3.011 3.406 4.094s3.083 1.75 4.875 2v2.125h-3.5c-0.292 0-0.531 0.094-0.719 0.281-0.187 0.188-0.281 0.427-0.281 0.719v1c0 0.292 0.094 0.531 0.281 0.719 0.188 0.187 0.427 0.281 0.719 0.281h10c0.292 0 0.531-0.094 0.719-0.281 0.187-0.188 0.281-0.427 0.281-0.719v-1c0-0.292-0.094-0.531-0.281-0.719-0.188-0.187-0.427-0.281-0.719-0.281h-3.5v-2.125c1.75-0.25 3.354-0.885 4.813-1.906 1.458-1.021 2.604-2.313 3.437-3.875s1.25-3.261 1.25-5.094v-3c0-0.292-0.094-0.531-0.281-0.719-0.188-0.187-0.427-0.281-0.719-0.281zM16 22c1.667 0 3.083-0.583 4.25-1.75s1.75-2.583 1.75-4.25h-5.312c-0.209 0-0.375-0.052-0.5-0.156s-0.188-0.219-0.188-0.344v-1c0-0.125 0.063-0.24 0.188-0.344s0.291-0.156 0.5-0.156h5.312v-2h-5.312c-0.209 0-0.375-0.052-0.5-0.156s-0.188-0.219-0.188-0.344v-1c0-0.125 0.063-0.24 0.188-0.344s0.291-0.156 0.5-0.156h5.312v-2h-5.312c-0.209 0-0.375-0.052-0.5-0.156s-0.188-0.219-0.188-0.344v-1c0-0.125 0.063-0.24 0.188-0.344s0.291-0.156 0.5-0.156h5.312c0-1.667-0.583-3.083-1.75-4.25s-2.583-1.75-4.25-1.75c-1.667 0-3.083 0.583-4.25 1.75s-1.75 2.583-1.75 4.25v10c0 1.667 0.583 3.083 1.75 4.25s2.583 1.75 4.25 1.75z"></path>
</svg>
