<!-- Generated by IcoMoon.io -->
<svg version="1.1" xmlns="http://www.w3.org/2000/svg" width="32" height="32" viewBox="0 0 32 32">
<title>minus-circle</title>
<path d="M16 0.5c-2.792 0-5.375 0.698-7.75 2.094s-4.26 3.281-5.656 5.656c-1.396 2.375-2.094 4.958-2.094 7.75s0.698 5.375 2.094 7.75c1.396 2.375 3.281 4.26 5.656 5.656s4.958 2.094 7.75 2.094c2.792 0 5.375-0.698 7.75-2.094s4.26-3.281 5.656-5.656c1.396-2.375 2.094-4.958 2.094-7.75s-0.698-5.375-2.094-7.75c-1.396-2.375-3.281-4.26-5.656-5.656s-4.958-2.094-7.75-2.094zM7.75 18.5c-0.208 0-0.385-0.073-0.531-0.219s-0.219-0.323-0.219-0.531v-3.5c0-0.208 0.073-0.385 0.219-0.531s0.323-0.219 0.531-0.219h16.5c0.208 0 0.385 0.073 0.531 0.219s0.219 0.323 0.219 0.531v3.5c0 0.208-0.073 0.385-0.219 0.531s-0.323 0.219-0.531 0.219h-16.5z"></path>
</svg>
