<!-- Generated by IcoMoon.io -->
<svg version="1.1" xmlns="http://www.w3.org/2000/svg" width="32" height="32" viewBox="0 0 32 32">
<title>mobile-alt</title>
<path d="M23 0h-14c-0.833 0-1.542 0.292-2.125 0.875s-0.875 1.292-0.875 2.125v26c0 0.833 0.292 1.542 0.875 2.125s1.292 0.875 2.125 0.875h14c0.833 0 1.542-0.292 2.125-0.875s0.875-1.292 0.875-2.125v-26c0-0.833-0.292-1.542-0.875-2.125s-1.292-0.875-2.125-0.875zM16 30c-0.542 0-1.010-0.198-1.406-0.594s-0.594-0.864-0.594-1.406c0-0.542 0.198-1.010 0.594-1.406s0.864-0.594 1.406-0.594c0.542 0 1.010 0.198 1.406 0.594s0.594 0.864 0.594 1.406c0 0.542-0.198 1.010-0.594 1.406s-0.864 0.594-1.406 0.594zM23 23.25c0 0.208-0.073 0.385-0.219 0.531s-0.323 0.219-0.531 0.219h-12.5c-0.208 0-0.385-0.073-0.531-0.219s-0.219-0.323-0.219-0.531v-19.5c0-0.208 0.073-0.385 0.219-0.531s0.323-0.219 0.531-0.219h12.5c0.208 0 0.385 0.073 0.531 0.219s0.219 0.323 0.219 0.531v19.5z"></path>
</svg>
