<!-- Generated by IcoMoon.io -->
<svg version="1.1" xmlns="http://www.w3.org/2000/svg" width="40" height="32" viewBox="0 0 40 32">
<title>money-check-alt</title>
<path d="M38 2h-36c-0.542 0-1.010 0.198-1.406 0.594s-0.594 0.864-0.594 1.406v24c0 0.542 0.198 1.010 0.594 1.406s0.864 0.594 1.406 0.594h36c0.542 0 1.010-0.198 1.406-0.594s0.594-0.864 0.594-1.406v-24c0-0.542-0.198-1.010-0.594-1.406s-0.864-0.594-1.406-0.594zM11 20.5v1c0 0.125-0.052 0.24-0.156 0.344s-0.219 0.156-0.344 0.156h-1c-0.125 0-0.24-0.052-0.344-0.156s-0.156-0.219-0.156-0.344v-1c-0.708-0.042-1.354-0.292-1.937-0.75-0.125-0.083-0.198-0.198-0.219-0.344s0.031-0.281 0.156-0.406l0.75-0.687c0.167-0.167 0.375-0.178 0.625-0.032s0.521 0.219 0.813 0.219h1.75c0.208 0 0.385-0.083 0.531-0.25s0.219-0.354 0.219-0.562c0-0.209-0.053-0.386-0.157-0.532s-0.239-0.239-0.406-0.281l-2.812-0.812c-0.584-0.209-1.063-0.563-1.438-1.063s-0.562-1.062-0.562-1.687c0-0.75 0.26-1.396 0.781-1.938s1.156-0.833 1.906-0.875v-1c0-0.125 0.052-0.24 0.156-0.344s0.219-0.156 0.344-0.156h1c0.125 0 0.24 0.052 0.344 0.156s0.156 0.219 0.156 0.344v1c0.708 0.042 1.354 0.292 1.938 0.75 0.125 0.083 0.197 0.198 0.218 0.344s-0.031 0.281-0.156 0.406l-0.75 0.688c-0.167 0.166-0.375 0.177-0.625 0.031s-0.521-0.219-0.812-0.219h-1.75c-0.209 0-0.386 0.083-0.532 0.25s-0.218 0.354-0.218 0.563c0 0.208 0.052 0.385 0.156 0.531s0.239 0.239 0.406 0.281l2.813 0.813c0.583 0.208 1.062 0.562 1.437 1.062s0.563 1.063 0.563 1.688c0 0.75-0.261 1.395-0.782 1.937s-1.156 0.833-1.906 0.875zM26 19.5c0 0.125-0.052 0.24-0.156 0.344s-0.219 0.156-0.344 0.156h-7c-0.125 0-0.24-0.052-0.344-0.156s-0.156-0.219-0.156-0.344v-1c0-0.125 0.052-0.24 0.156-0.344s0.219-0.156 0.344-0.156h7c0.125 0 0.24 0.052 0.344 0.156s0.156 0.219 0.156 0.344v1zM36 19.5c0 0.125-0.052 0.24-0.156 0.344s-0.219 0.156-0.344 0.156h-5c-0.125 0-0.24-0.052-0.344-0.156s-0.156-0.219-0.156-0.344v-1c0-0.125 0.052-0.24 0.156-0.344s0.219-0.156 0.344-0.156h5c0.125 0 0.24 0.052 0.344 0.156s0.156 0.219 0.156 0.344v1zM36 13.5c0 0.125-0.052 0.24-0.156 0.344s-0.219 0.156-0.344 0.156h-17c-0.125 0-0.24-0.052-0.344-0.156s-0.156-0.219-0.156-0.344v-1c0-0.125 0.052-0.24 0.156-0.344s0.219-0.156 0.344-0.156h17c0.125 0 0.24 0.052 0.344 0.156s0.156 0.219 0.156 0.344v1z"></path>
</svg>
