<!-- Generated by IcoMoon.io -->
<svg version="1.1" xmlns="http://www.w3.org/2000/svg" width="40" height="32" viewBox="0 0 40 32">
<title>money-bill</title>
<path d="M22 18h-1v-5.5c0-0.125-0.052-0.24-0.156-0.344s-0.219-0.156-0.344-0.156h-0.875c-0.292 0-0.563 0.083-0.813 0.25l-0.937 0.625c-0.125 0.083-0.198 0.198-0.219 0.344s0.011 0.26 0.094 0.344l0.5 0.875c0.083 0.083 0.198 0.145 0.344 0.187s0.281 0.021 0.406-0.062v3.437h-1c-0.125 0-0.24 0.052-0.344 0.156s-0.156 0.219-0.156 0.344v1c0 0.125 0.052 0.24 0.156 0.344s0.219 0.156 0.344 0.156h4c0.125 0 0.24-0.052 0.344-0.156s0.156-0.219 0.156-0.344v-1c0-0.125-0.052-0.24-0.156-0.344s-0.219-0.156-0.344-0.156zM38 4h-36c-0.542 0-1.010 0.198-1.406 0.594s-0.594 0.864-0.594 1.406v20c0 0.542 0.198 1.010 0.594 1.406s0.864 0.594 1.406 0.594h36c0.542 0 1.010-0.198 1.406-0.594s0.594-0.864 0.594-1.406v-20c0-0.542-0.198-1.010-0.594-1.406s-0.864-0.594-1.406-0.594zM3 25v-4c1.125 0 2.073 0.385 2.844 1.156s1.156 1.719 1.156 2.844h-4zM3 11v-4h4c0 1.125-0.385 2.073-1.156 2.844s-1.719 1.156-2.844 1.156zM20 23c-1.083 0-2.083-0.313-3-0.938s-1.646-1.479-2.188-2.562c-0.541-1.083-0.812-2.25-0.812-3.5s0.271-2.417 0.813-3.5c0.541-1.083 1.27-1.938 2.187-2.563s1.917-0.937 3-0.937 2.083 0.313 3 0.938c0.917 0.624 1.646 1.479 2.188 2.562s0.812 2.25 0.812 3.5-0.271 2.417-0.813 3.5c-0.541 1.083-1.27 1.938-2.187 2.563s-1.917 0.937-3 0.937zM37 25h-4c0-1.125 0.385-2.073 1.156-2.844s1.719-1.156 2.844-1.156v4zM37 11c-1.125 0-2.073-0.385-2.844-1.156s-1.156-1.719-1.156-2.844h4v4z"></path>
</svg>
