<!-- Generated by IcoMoon.io -->
<svg version="1.1" xmlns="http://www.w3.org/2000/svg" width="32" height="32" viewBox="0 0 32 32">
<title>mouse-pointer</title>
<path d="M24.871 20.551h-6.625l3.5 8.5c0.125 0.291 0.125 0.583 0 0.875-0.125 0.291-0.333 0.5-0.625 0.625l-3.062 1.375c-0.25 0.125-0.521 0.125-0.813 0s-0.5-0.334-0.625-0.625l-3.312-8.063-5.438 5.563c-0.333 0.375-0.729 0.458-1.187 0.25-0.459-0.209-0.688-0.563-0.688-1.063v-26.875c0-0.5 0.229-0.844 0.688-1.031 0.458-0.188 0.854-0.115 1.187 0.219l17.813 18.312c0.333 0.333 0.406 0.74 0.219 1.219-0.188 0.479-0.532 0.719-1.032 0.719z"></path>
</svg>
