<!-- Generated by IcoMoon.io -->
<svg version="1.1" xmlns="http://www.w3.org/2000/svg" width="32" height="32" viewBox="0 0 32 32">
<title>music</title>
<path d="M32 2.006c0-0.667-0.271-1.198-0.812-1.594-0.542-0.396-1.146-0.51-1.813-0.344l-20 5.938c-0.417 0.125-0.75 0.364-1 0.719-0.25 0.354-0.375 0.76-0.375 1.218v16.313c-0.708-0.167-1.375-0.25-2-0.25-1.667 0-3.083 0.385-4.25 1.156s-1.75 1.719-1.75 2.844c0 1.125 0.583 2.073 1.75 2.844 1.167 0.77 2.583 1.156 4.25 1.156s3.083-0.386 4.25-1.156c1.167-0.771 1.75-1.719 1.75-2.844v-14.625l16-4.688v11.563c-0.708-0.167-1.375-0.25-2-0.25-1.667 0-3.083 0.385-4.25 1.156s-1.75 1.719-1.75 2.844c0 1.125 0.583 2.073 1.75 2.844 1.167 0.77 2.583 1.156 4.25 1.156s3.083-0.386 4.25-1.156c1.167-0.771 1.75-1.719 1.75-2.844v-22z"></path>
</svg>
