<!-- Generated by IcoMoon.io -->
<svg version="1.1" xmlns="http://www.w3.org/2000/svg" width="36" height="32" viewBox="0 0 36 32">
<title>newspaper</title>
<path d="M34.5 4h-29c-0.417 0-0.771 0.146-1.062 0.438s-0.438 0.645-0.438 1.062v0.5h-2.5c-0.417 0-0.771 0.146-1.062 0.438s-0.438 0.645-0.438 1.062v17c0 0.958 0.344 1.781 1.031 2.469 0.688 0.687 1.511 1.031 2.469 1.031h29.5c0.833 0 1.542-0.292 2.125-0.875s0.875-1.292 0.875-2.125v-19.5c0-0.417-0.146-0.771-0.437-1.063-0.292-0.291-0.646-0.437-1.063-0.437zM3.5 25c-0.125 0-0.24-0.052-0.344-0.156s-0.156-0.219-0.156-0.344v-15.5h1v15.5c0 0.125-0.052 0.24-0.156 0.344s-0.219 0.156-0.344 0.156zM18.25 24h-9.5c-0.208 0-0.385-0.073-0.531-0.219s-0.219-0.323-0.219-0.531v-0.5c0-0.208 0.073-0.385 0.219-0.531s0.323-0.219 0.531-0.219h9.5c0.208 0 0.385 0.073 0.531 0.219s0.219 0.323 0.219 0.531v0.5c0 0.208-0.073 0.385-0.219 0.531s-0.323 0.219-0.531 0.219zM31.25 24h-9.5c-0.208 0-0.385-0.073-0.531-0.219s-0.219-0.323-0.219-0.531v-0.5c0-0.208 0.073-0.385 0.219-0.531s0.323-0.219 0.531-0.219h9.5c0.208 0 0.385 0.073 0.531 0.219s0.219 0.323 0.219 0.531v0.5c0 0.208-0.073 0.385-0.219 0.531s-0.323 0.219-0.531 0.219zM18.25 18h-9.5c-0.208 0-0.385-0.073-0.531-0.219s-0.219-0.323-0.219-0.531v-0.5c0-0.208 0.073-0.385 0.219-0.531s0.323-0.219 0.531-0.219h9.5c0.208 0 0.385 0.073 0.531 0.219s0.219 0.323 0.219 0.531v0.5c0 0.208-0.073 0.385-0.219 0.531s-0.323 0.219-0.531 0.219zM31.25 18h-9.5c-0.208 0-0.385-0.073-0.531-0.219s-0.219-0.323-0.219-0.531v-0.5c0-0.208 0.073-0.385 0.219-0.531s0.323-0.219 0.531-0.219h9.5c0.208 0 0.385 0.073 0.531 0.219s0.219 0.323 0.219 0.531v0.5c0 0.208-0.073 0.385-0.219 0.531s-0.323 0.219-0.531 0.219zM31.25 12h-22.5c-0.208 0-0.385-0.073-0.531-0.219s-0.219-0.323-0.219-0.531v-2.5c0-0.208 0.073-0.385 0.219-0.531s0.323-0.219 0.531-0.219h22.5c0.208 0 0.385 0.073 0.531 0.219s0.219 0.323 0.219 0.531v2.5c0 0.208-0.073 0.385-0.219 0.531s-0.323 0.219-0.531 0.219z"></path>
</svg>
