<!-- Generated by IcoMoon.io -->
<svg version="1.1" xmlns="http://www.w3.org/2000/svg" width="32" height="32" viewBox="0 0 32 32">
<title>note-o</title>
<path d="M11.218 0c0.444 0 0.804 0.36 0.804 0.804v1.134c2.659-0.011 5.319-0.011 7.978 0.001v-1.135c0-0.444 0.36-0.804 0.804-0.804h2.414c0.444 0 0.804 0.36 0.804 0.804v1.162c1.084 0.009 2.167 0.021 3.25 0.035 1.433 0.054 2.672 1.284 2.727 2.727 0.104 8.181 0.104 16.363 0 24.544-0.055 1.437-1.284 2.672-2.727 2.727-7.514 0.095-15.030 0.095-22.544 0-1.433-0.054-2.672-1.284-2.727-2.727-0.104-8.181-0.104-16.363 0-24.544 0.055-1.437 1.284-2.672 2.727-2.727 1.090-0.014 2.181-0.026 3.272-0.036v-1.161c0-0.444 0.36-0.804 0.804-0.804h2.414zM27 5h-2.978v1.196c0 0.444-0.36 0.804-0.804 0.804h-2.414c-0.444 0-0.804-0.36-0.804-0.804v-1.196h-7.978v1.196c0 0.444-0.36 0.804-0.804 0.804h-2.414c-0.444 0-0.804-0.36-0.804-0.804v-1.196h-3v24h22v-24zM23 26h-14c-0.549 0-1-0.337-1-0.75v-1.75c0-0.412 0.451-0.75 1-0.75h14c0.551 0 1 0.338 1 0.75v1.75c0 0.413-0.449 0.75-1 0.75zM23 19.625h-14c-0.549 0-1-0.337-1-0.75v-1.75c0-0.412 0.451-0.75 1-0.75h14c0.551 0 1 0.338 1 0.75v1.75c0 0.413-0.449 0.75-1 0.75zM23 13.25h-14c-0.549 0-1-0.337-1-0.75v-1.75c0-0.412 0.451-0.75 1-0.75h14c0.551 0 1 0.338 1 0.75v1.75c0 0.413-0.449 0.75-1 0.75z"></path>
</svg>
