<!-- Generated by IcoMoon.io -->
<svg version="1.1" xmlns="http://www.w3.org/2000/svg" width="40" height="32" viewBox="0 0 40 32">
<title>overview-o</title>
<path d="M20.429 32h-16.824c-1.99 0-3.605-1.615-3.605-3.605v-24.79c0-1.99 1.615-3.605 3.605-3.605h16.824c1.99 0 3.605 1.615 3.605 3.605v4.965c-0.422-0.046-0.85-0.070-1.284-0.070-0.589 0-1.733 0.127-1.733 0.127v-5.627h-18v26h11.894c1.73 1.551 3.921 2.597 6.342 2.905-0.265 0.062-0.54 0.095-0.824 0.095zM32.141 24.543c0.307-0.061 0.589-0.005 0.846 0.166l5.512 3.683c0.257 0.172 0.416 0.411 0.477 0.718s0.006 0.588-0.166 0.845l-1.032 1.544c-0.171 0.257-0.411 0.416-0.717 0.477-0.307 0.061-0.588 0.006-0.846-0.166l-5.512-3.683c-0.257-0.172-0.416-0.411-0.477-0.718l-0.146-0.735c-1.448 1.69-3.276 2.754-5.483 3.193-1.747 0.348-3.433 0.237-5.060-0.332s-3.014-1.495-4.161-2.78c-1.148-1.285-1.896-2.801-2.243-4.549-0.348-1.747-0.237-3.433 0.331-5.060s1.496-3.014 2.781-4.161c1.285-1.148 2.801-1.896 4.548-2.243s3.434-0.237 5.061 0.331c1.626 0.569 3.013 1.496 4.161 2.781s1.896 2.801 2.243 4.548c0.439 2.207 0.155 4.302-0.852 6.287l0.735-0.146zM28.948 19.061c-0.226-1.134-0.716-2.12-1.473-2.957s-1.665-1.445-2.728-1.823-2.161-0.455-3.295-0.229c-1.134 0.225-2.12 0.716-2.957 1.472-0.838 0.756-1.445 1.666-1.823 2.729s-0.455 2.161-0.229 3.295c0.225 1.134 0.716 2.12 1.472 2.957s1.666 1.445 2.729 1.823c1.063 0.378 2.161 0.454 3.295 0.229s2.12-0.716 2.957-1.472c0.837-0.757 1.445-1.666 1.823-2.729s0.454-2.161 0.229-3.295zM27.456 18.688l-5.499 5.453c-0.181 0.181-0.473 0.177-0.654-0.004l-3.176-3.203c-0.181-0.181-0.177-0.473 0.003-0.654l1.093-1.084c0.18-0.181 0.473-0.177 0.654 0.004l1.768 1.784 4.076-4.045c0.181-0.181 0.473-0.177 0.654 0.003l1.084 1.092c0.181 0.185 0.178 0.474-0.003 0.654v0zM13.25 15.25h-6.5c-0.412 0-0.75-0.337-0.75-0.75v-1.75c0-0.413 0.338-0.75 0.75-0.75h6.5c0.413 0 0.75 0.337 0.75 0.75v1.75c0 0.413-0.337 0.75-0.75 0.75zM17.25 9.25h-10.5c-0.412 0-0.75-0.337-0.75-0.75v-1.75c0-0.413 0.338-0.75 0.75-0.75h10.5c0.413 0 0.75 0.337 0.75 0.75v1.75c0 0.413-0.337 0.75-0.75 0.75z"></path>
</svg>
