<!-- Generated by IcoMoon.io -->
<svg version="1.1" xmlns="http://www.w3.org/2000/svg" width="32" height="32" viewBox="0 0 32 32">
<title>palette</title>
<path d="M12.754 0.33c-3.084 0.625-5.771 2.073-8.063 4.343-2.291 2.271-3.75 4.948-4.375 8.032-0.541 2.791-0.396 5.5 0.438 8.125 0.75 2.375 2.021 4.479 3.812 6.312 1.667 1.75 3.584 3.052 5.75 3.906 2.167 0.855 4.229 1.136 6.188 0.844 0.833-0.125 1.521-0.5 2.062-1.125 0.542-0.625 0.875-1.354 1-2.187s0-1.646-0.375-2.438c-0.5-0.916-0.635-1.854-0.406-2.812s0.729-1.75 1.5-2.375 1.656-0.938 2.656-0.938h5c1.125 0 2.084-0.396 2.875-1.187 0.792-0.792 1.188-1.75 1.188-2.875 0-3.25-0.896-6.198-2.688-8.844s-4.125-4.573-7-5.781c-3.041-1.334-6.229-1.667-9.562-1zM6.004 20.017c-0.542 0-1.011-0.198-1.406-0.594-0.396-0.395-0.594-0.864-0.594-1.406s0.198-1.010 0.594-1.406c0.395-0.396 0.864-0.594 1.406-0.594s1.010 0.198 1.406 0.594 0.594 0.865 0.594 1.406c0 0.542-0.198 1.011-0.594 1.406-0.396 0.396-0.865 0.594-1.406 0.594zM8.004 12.017c-0.542 0-1.011-0.198-1.406-0.594-0.396-0.395-0.594-0.864-0.594-1.406s0.198-1.010 0.594-1.406c0.395-0.396 0.864-0.594 1.406-0.594s1.010 0.198 1.406 0.594 0.594 0.865 0.594 1.406c0 0.542-0.198 1.011-0.594 1.406s-0.865 0.594-1.406 0.594zM16.004 8.017c-0.542 0-1.011-0.198-1.406-0.594s-0.594-0.864-0.594-1.406c0-0.541 0.198-1.010 0.594-1.406s0.864-0.594 1.406-0.594c0.541 0 1.010 0.198 1.406 0.594s0.594 0.865 0.594 1.406c0 0.542-0.198 1.011-0.594 1.406-0.396 0.396-0.865 0.594-1.406 0.594zM24.004 12.017c-0.542 0-1.011-0.198-1.406-0.594-0.396-0.395-0.594-0.864-0.594-1.406s0.198-1.010 0.594-1.406c0.395-0.396 0.864-0.594 1.406-0.594s1.010 0.198 1.406 0.594 0.594 0.865 0.594 1.406c0 0.542-0.198 1.011-0.594 1.406s-0.865 0.594-1.406 0.594z"></path>
</svg>
