<!-- Generated by IcoMoon.io -->
<svg version="1.1" xmlns="http://www.w3.org/2000/svg" width="32" height="32" viewBox="0 0 32 32">
<title>paper-plane</title>
<path d="M29.743 0.193l-28.937 16.75c-0.583 0.291-0.854 0.75-0.813 1.375s0.355 1.062 0.938 1.312l6.625 2.75 17.937-15.812c0.167-0.125 0.334-0.115 0.5 0.031 0.167 0.146 0.188 0.302 0.063 0.469l-15.063 18.375v5c0 0.5 0.157 0.885 0.469 1.156 0.313 0.271 0.688 0.406 1.125 0.406 0.438 0 0.802-0.187 1.094-0.562l3.937-4.813 7.813 3.25c0.417 0.208 0.844 0.188 1.281-0.062 0.438-0.25 0.698-0.605 0.781-1.063l4.5-27c0.084-0.625-0.135-1.115-0.656-1.469s-1.052-0.385-1.594-0.093z"></path>
</svg>
