<!-- Generated by IcoMoon.io -->
<svg version="1.1" xmlns="http://www.w3.org/2000/svg" width="32" height="32" viewBox="0 0 32 32">
<title>paperclip</title>
<path d="M4.676 29.129c-1.167-1.209-1.958-2.646-2.375-4.313s-0.406-3.323 0.031-4.968c0.438-1.646 1.261-3.073 2.469-4.282l13.062-13.437c0.917-0.917 1.99-1.542 3.219-1.875 1.229-0.334 2.448-0.334 3.656 0 1.209 0.333 2.271 0.958 3.188 1.875s1.531 1.989 1.844 3.219c0.312 1.229 0.312 2.458 0 3.687s-0.927 2.302-1.844 3.219l-11.438 11.687c-0.916 0.959-2.041 1.427-3.375 1.407-1.333-0.021-2.448-0.5-3.343-1.438-0.896-0.937-1.334-2.062-1.313-3.375s0.49-2.427 1.406-3.344l8.938-9.187c0.208-0.167 0.448-0.261 0.719-0.281 0.27-0.021 0.51 0.072 0.718 0.281l1.438 1.375c0.208 0.208 0.312 0.448 0.312 0.719s-0.104 0.51-0.312 0.718l-9 9.188c-0.125 0.166-0.198 0.364-0.219 0.594-0.021 0.229 0.042 0.416 0.188 0.562 0.145 0.146 0.312 0.219 0.5 0.219 0.187 0 0.343-0.084 0.468-0.25l11.438-11.625c0.625-0.667 0.937-1.438 0.937-2.313s-0.302-1.625-0.906-2.25c-0.604-0.625-1.323-0.937-2.156-0.937s-1.563 0.312-2.188 0.937l-13.125 13.375c-1.083 1.125-1.625 2.469-1.625 4.032s0.532 2.895 1.594 4c1.063 1.104 2.344 1.656 3.844 1.656s2.771-0.542 3.812-1.625l10.75-11c0.209-0.209 0.448-0.313 0.719-0.313s0.511 0.104 0.719 0.313l1.437 1.375c0.209 0.208 0.313 0.448 0.313 0.719 0 0.27-0.104 0.51-0.313 0.718l-10.75 11c-1.208 1.25-2.635 2.084-4.281 2.5s-3.281 0.407-4.906-0.031c-1.625-0.437-3.042-1.281-4.25-2.531z"></path>
</svg>
