<!-- Generated by IcoMoon.io -->
<svg version="1.1" xmlns="http://www.w3.org/2000/svg" width="32" height="32" viewBox="0 0 32 32">
<title>paper-plane-o</title>
<path d="M27.51 0.386l-26 15c-0.708 0.417-1.166 0.99-1.375 1.719-0.208 0.729-0.156 1.448 0.157 2.156 0.312 0.708 0.843 1.208 1.593 1.5l7.125 3v5.25c0 0.917 0.334 1.656 1 2.219 0.667 0.562 1.427 0.812 2.282 0.75 0.854-0.063 1.573-0.448 2.156-1.157l2.687-3.75 7 2.938c0.375 0.125 0.771 0.187 1.188 0.187 0.5 0 0.979-0.125 1.437-0.375 0.834-0.458 1.334-1.166 1.5-2.125l3.688-24.25c0.125-0.791-0.031-1.5-0.469-2.125-0.437-0.625-1.031-1.031-1.781-1.218s-1.479-0.094-2.188 0.281zM12.010 29.011v-4.063l2.313 0.938-2.313 3.125zM25.323 27.198l-9.625-3.937 8.75-12.688c0.208-0.291 0.25-0.593 0.125-0.906-0.125-0.312-0.354-0.521-0.688-0.625-0.333-0.104-0.645-0.031-0.937 0.219l-13.188 11.562-6.75-2.812 26-15-3.687 24.187z"></path>
</svg>
