<!-- Generated by IcoMoon.io -->
<svg version="1.1" xmlns="http://www.w3.org/2000/svg" width="32" height="32" viewBox="0 0 32 32">
<title>paragraph</title>
<path d="M27.5 2h-14.375c-1.833 0-3.521 0.448-5.063 1.344s-2.77 2.104-3.687 3.625-1.375 3.187-1.375 5c0 1.812 0.448 3.489 1.344 5.031s2.114 2.76 3.656 3.656c1.542 0.896 3.208 1.344 5 1.344v6.5c0 0.417 0.146 0.771 0.437 1.063 0.292 0.291 0.646 0.437 1.063 0.437h2c0.417 0 0.771-0.146 1.063-0.438s0.437-0.645 0.437-1.062v-21.5h2v21.5c0 0.417 0.146 0.771 0.438 1.063s0.645 0.437 1.062 0.437h2c0.417 0 0.771-0.146 1.063-0.438s0.437-0.645 0.437-1.062v-21.5h2.5c0.417 0 0.771-0.146 1.063-0.438s0.437-0.645 0.437-1.062v-2c0-0.417-0.146-0.771-0.438-1.063s-0.645-0.437-1.062-0.437z"></path>
</svg>
