<!-- Generated by IcoMoon.io -->
<svg version="1.1" xmlns="http://www.w3.org/2000/svg" width="32" height="32" viewBox="0 0 32 32">
<title>pencil-alt</title>
<path d="M31.136 8.864l-2.875 2.875c-0.166 0.166-0.354 0.25-0.562 0.25s-0.375-0.084-0.5-0.25l-6.938-6.938c-0.166-0.125-0.25-0.292-0.25-0.5s0.084-0.396 0.25-0.562l2.875-2.875c0.584-0.584 1.292-0.875 2.125-0.875 0.834 0 1.542 0.291 2.125 0.875l3.75 3.75c0.584 0.583 0.875 1.291 0.875 2.125s-0.291 1.541-0.875 2.125zM17.761 6.239c0.167-0.167 0.355-0.25 0.563-0.25s0.375 0.083 0.5 0.25l6.937 6.937c0.167 0.125 0.25 0.292 0.25 0.5s-0.083 0.396-0.25 0.563l-16.375 16.375-7.625 1.375c-0.5 0.083-0.937-0.063-1.312-0.438s-0.521-0.812-0.438-1.312l1.375-7.625 16.375-16.375zM7.761 21.239c0.167 0.166 0.375 0.25 0.625 0.25s0.459-0.084 0.625-0.25l9.625-9.625c0.167-0.167 0.25-0.375 0.25-0.625s-0.083-0.459-0.25-0.625c-0.166-0.167-0.375-0.25-0.625-0.25s-0.458 0.083-0.625 0.25l-9.625 9.625c-0.166 0.166-0.25 0.375-0.25 0.625s0.084 0.458 0.25 0.625zM5.511 23.489h-2.25l-0.75 4 2 2 4-0.75v-2.25h-3v-3z"></path>
</svg>
