<!-- Generated by IcoMoon.io -->
<svg version="1.1" xmlns="http://www.w3.org/2000/svg" width="32" height="32" viewBox="0 0 32 32">
<title>pencil-ruler</title>
<path d="M6.825 15.238l8.437-8.438-2.75-2.75-3.875 3.875c-0.083 0.083-0.197 0.125-0.343 0.125s-0.261-0.042-0.344-0.125l-0.688-0.687c-0.125-0.084-0.187-0.198-0.187-0.344s0.062-0.261 0.187-0.344l3.875-3.875-2.125-2.125c-0.375-0.375-0.843-0.562-1.406-0.562s-1.031 0.187-1.406 0.562l-5.625 5.625c-0.375 0.375-0.563 0.844-0.563 1.406 0 0.563 0.188 1.032 0.563 1.407l6.25 6.25zM31.137 7.925c0.584-0.583 0.875-1.292 0.875-2.125s-0.291-1.542-0.875-2.125l-2.812-2.812c-0.583-0.584-1.292-0.875-2.125-0.875s-1.542 0.291-2.125 0.875l-2.875 2.875 7.062 7.062 2.875-2.875zM19.762 5.175l-18.562 18.563-1.188 6.687c-0.083 0.458 0.042 0.854 0.375 1.188 0.334 0.333 0.73 0.458 1.188 0.375l6.687-1.188 18.563-18.562-7.063-7.063zM31.45 22.988l-2.125-2.125-3.875 3.875c-0.083 0.125-0.198 0.187-0.344 0.187s-0.26-0.062-0.344-0.187l-0.687-0.688c-0.083-0.083-0.125-0.198-0.125-0.344s0.042-0.26 0.125-0.343l3.875-3.875-2.75-2.75-8.438 8.375 6.25 6.312c0.375 0.375 0.844 0.563 1.407 0.563s1.031-0.188 1.406-0.563l5.625-5.625c0.375-0.375 0.562-0.844 0.562-1.406 0-0.563-0.187-1.031-0.562-1.406z"></path>
</svg>
