<!-- Generated by IcoMoon.io -->
<svg version="1.1" xmlns="http://www.w3.org/2000/svg" width="32" height="32" viewBox="0 0 32 32">
<title>phone</title>
<path d="M30.802 1.552l-6.5-1.5c-0.333-0.083-0.667-0.042-1 0.125s-0.562 0.396-0.687 0.688l-3 7c-0.125 0.333-0.146 0.656-0.063 0.968 0.083 0.313 0.25 0.573 0.5 0.782l3.75 3.125c-1.125 2.416-2.635 4.583-4.531 6.5-1.896 1.916-4.073 3.437-6.531 4.562l-3.063-3.75c-0.208-0.292-0.479-0.469-0.812-0.531-0.334-0.063-0.646-0.031-0.938 0.094l-7 3c-0.333 0.125-0.583 0.354-0.75 0.687s-0.208 0.667-0.125 1l1.5 6.5c0.042 0.375 0.208 0.667 0.5 0.875s0.604 0.313 0.938 0.313c5.25 0 10.125-1.313 14.625-3.938 4.375-2.583 7.854-6.062 10.437-10.437 2.625-4.5 3.938-9.375 3.938-14.625 0-0.334-0.105-0.646-0.313-0.938s-0.5-0.458-0.875-0.5z"></path>
</svg>
