<!-- Generated by IcoMoon.io -->
<svg version="1.1" xmlns="http://www.w3.org/2000/svg" width="32" height="32" viewBox="0 0 32 32">
<title>play-circle</title>
<path d="M16 0.5c-2.792 0-5.375 0.698-7.75 2.094s-4.26 3.281-5.656 5.656c-1.396 2.375-2.094 4.958-2.094 7.75s0.698 5.375 2.094 7.75c1.396 2.375 3.281 4.26 5.656 5.656s4.958 2.094 7.75 2.094c2.792 0 5.375-0.698 7.75-2.094s4.26-3.281 5.656-5.656c1.396-2.375 2.094-4.958 2.094-7.75s-0.698-5.375-2.094-7.75c-1.396-2.375-3.281-4.26-5.656-5.656s-4.958-2.094-7.75-2.094zM23.25 17.5l-11 6.313c-0.5 0.291-1 0.291-1.5 0-0.5-0.292-0.75-0.73-0.75-1.313v-13c0-0.583 0.25-1.021 0.75-1.313s1-0.291 1.5 0.001l11 6.687c0.5 0.292 0.75 0.729 0.75 1.313 0 0.583-0.25 1.020-0.75 1.312z"></path>
</svg>
