<!-- Generated by IcoMoon.io -->
<svg version="1.1" xmlns="http://www.w3.org/2000/svg" width="32" height="32" viewBox="0 0 32 32">
<title>plug</title>
<path d="M24 9v-7c0-0.542-0.198-1.010-0.594-1.406s-0.864-0.594-1.406-0.594c-0.542 0-1.010 0.198-1.406 0.594s-0.594 0.864-0.594 1.406v7h4zM27 10h-22c-0.292 0-0.531 0.094-0.719 0.281-0.187 0.188-0.281 0.427-0.281 0.719v2c0 0.292 0.094 0.531 0.281 0.719s0.427 0.281 0.719 0.281h1v2c0 2.417 0.76 4.542 2.281 6.375s3.427 2.979 5.719 3.438v6.187h4v-6.188c2.292-0.458 4.198-1.604 5.719-3.437s2.281-3.958 2.281-6.375v-2h1c0.292 0 0.531-0.094 0.719-0.281 0.187-0.188 0.281-0.427 0.281-0.719v-2c0-0.292-0.094-0.531-0.281-0.719-0.188-0.187-0.427-0.281-0.719-0.281zM12 9v-7c0-0.542-0.198-1.010-0.594-1.406s-0.864-0.594-1.406-0.594c-0.542 0-1.010 0.198-1.406 0.594s-0.594 0.864-0.594 1.406v7h4z"></path>
</svg>
