<!-- Generated by IcoMoon.io -->
<svg version="1.1" xmlns="http://www.w3.org/2000/svg" width="32" height="32" viewBox="0 0 32 32">
<title>plus</title>
<path d="M28 13h-9v-9c0-0.542-0.198-1.010-0.594-1.406s-0.864-0.594-1.406-0.594h-2c-0.542 0-1.010 0.198-1.406 0.594s-0.594 0.864-0.594 1.406v9h-9c-0.542 0-1.010 0.198-1.406 0.594s-0.594 0.864-0.594 1.406v2c0 0.542 0.198 1.010 0.594 1.406s0.864 0.594 1.406 0.594h9v9c0 0.542 0.198 1.010 0.594 1.406s0.864 0.594 1.406 0.594h2c0.542 0 1.010-0.198 1.406-0.594s0.594-0.864 0.594-1.406v-9h9c0.542 0 1.010-0.198 1.406-0.594s0.594-0.864 0.594-1.406v-2c0-0.542-0.198-1.010-0.594-1.406s-0.864-0.594-1.406-0.594z"></path>
</svg>
