<!-- Generated by IcoMoon.io -->
<svg version="1.1" xmlns="http://www.w3.org/2000/svg" width="32" height="32" viewBox="0 0 32 32">
<title>printer</title>
<path d="M28 12v-7.187c0-0.542-0.187-1-0.562-1.375l-2.875-2.875c-0.375-0.375-0.834-0.563-1.375-0.563h-17.188c-0.542 0-1.010 0.198-1.406 0.594s-0.594 0.864-0.594 1.406v10c-1.125 0-2.073 0.385-2.844 1.156s-1.156 1.719-1.156 2.844v7c0 0.292 0.094 0.531 0.281 0.719 0.188 0.187 0.427 0.281 0.719 0.281h3v6c0 0.542 0.198 1.010 0.594 1.406s0.864 0.594 1.406 0.594h20c0.542 0 1.010-0.198 1.406-0.594s0.594-0.864 0.594-1.406v-6h3c0.292 0 0.531-0.094 0.719-0.281 0.187-0.188 0.281-0.427 0.281-0.719v-7c0-1.125-0.385-2.073-1.156-2.844s-1.719-1.156-2.844-1.156zM24 28h-16v-6h16v6zM24 14h-16v-10h12v3c0 0.292 0.094 0.531 0.281 0.719 0.188 0.187 0.427 0.281 0.719 0.281h3v6zM27 18.5c-0.417 0-0.771-0.146-1.062-0.437-0.292-0.292-0.438-0.646-0.438-1.063s0.146-0.771 0.438-1.062c0.291-0.292 0.645-0.438 1.062-0.438s0.771 0.146 1.063 0.438c0.291 0.291 0.437 0.645 0.437 1.062s-0.146 0.771-0.437 1.063c-0.292 0.291-0.646 0.437-1.063 0.437z"></path>
</svg>
