<!-- Generated by IcoMoon.io -->
<svg version="1.1" xmlns="http://www.w3.org/2000/svg" width="40" height="32" viewBox="0 0 40 32">
<title>project-diagram</title>
<path d="M24 20h-8c-0.542 0-1.010 0.198-1.406 0.594s-0.594 0.864-0.594 1.406v8c0 0.542 0.198 1.010 0.594 1.406s0.864 0.594 1.406 0.594h8c0.542 0 1.010-0.198 1.406-0.594s0.594-0.864 0.594-1.406v-8c0-0.542-0.198-1.010-0.594-1.406s-0.864-0.594-1.406-0.594zM12 2c0-0.542-0.198-1.010-0.594-1.406s-0.864-0.594-1.406-0.594h-8c-0.542 0-1.010 0.198-1.406 0.594s-0.594 0.864-0.594 1.406v8c0 0.542 0.198 1.010 0.594 1.406s0.864 0.594 1.406 0.594h6l4.563 8c0.333-0.625 0.812-1.115 1.437-1.469s1.292-0.531 2-0.531l-4-7v-3h14v-4h-14v-2zM38 0h-8c-0.542 0-1.010 0.198-1.406 0.594s-0.594 0.864-0.594 1.406v8c0 0.542 0.198 1.010 0.594 1.406s0.864 0.594 1.406 0.594h8c0.542 0 1.010-0.198 1.406-0.594s0.594-0.864 0.594-1.406v-8c0-0.542-0.198-1.010-0.594-1.406s-0.864-0.594-1.406-0.594z"></path>
</svg>
