<!-- Generated by IcoMoon.io -->
<svg version="1.1" xmlns="http://www.w3.org/2000/svg" width="38" height="32" viewBox="0 0 38 32">
<title>puzzle-piece</title>
<path d="M33.438 18.059c-0.625 0-1.25 0.125-1.875 0.375-0.375 0.167-0.855 0.438-1.438 0.813-0.417 0.25-0.729 0.437-0.937 0.562-0.292 0.125-0.584 0.188-0.875 0.188-0.834 0-1.375-0.563-1.625-1.688-0.167-0.917-0.146-2.187 0.062-3.812 0.167-1.125 0.417-2.375 0.75-3.75l0.5-1.75-1.937 0.687c-1.5 0.542-2.896 0.938-4.188 1.188-1.792 0.333-3.208 0.375-4.25 0.125-1.25-0.292-1.875-1.021-1.875-2.188 0-0.5 0.104-0.979 0.313-1.437 0.125-0.25 0.385-0.625 0.781-1.125s0.656-0.917 0.781-1.25c0.25-0.5 0.375-1.021 0.375-1.563 0-1.083-0.365-1.927-1.094-2.531s-1.656-0.906-2.781-0.906c-1.125 0-2.083 0.291-2.875 0.875-0.833 0.666-1.25 1.541-1.25 2.625 0 0.666 0.146 1.312 0.438 1.937 0.125 0.375 0.395 0.854 0.812 1.438 0.25 0.416 0.417 0.708 0.5 0.875 0.167 0.333 0.25 0.625 0.25 0.875 0 1.833-1.833 2.687-5.5 2.562-1.833-0.083-3.667-0.333-5.5-0.75v20.813l1.75 0.312c1.375 0.25 2.646 0.396 3.813 0.438 1.625 0.041 2.916-0.105 3.875-0.438 1.166-0.417 1.75-1.125 1.75-2.125 0-0.25-0.105-0.542-0.313-0.875-0.125-0.167-0.354-0.458-0.687-0.875-0.5-0.583-0.834-1.062-1-1.437-0.334-0.584-0.5-1.209-0.5-1.875 0-1.125 0.375-1.99 1.125-2.594s1.687-0.906 2.812-0.906c1.125 0 2.052 0.302 2.781 0.906s1.094 1.427 1.094 2.469c0 0.583-0.125 1.125-0.375 1.625-0.125 0.291-0.385 0.687-0.781 1.187s-0.656 0.896-0.781 1.188c-0.209 0.458-0.313 0.916-0.313 1.375 0 1.291 0.917 2.020 2.75 2.187 1.083 0.125 2.938 0.021 5.563-0.312 1.458-0.167 2.458-0.25 3-0.25l-0.313-1.188c-0.167-0.917-0.271-1.771-0.312-2.562-0.042-1.084 0.083-1.938 0.375-2.563 0.375-0.792 1-1.187 1.875-1.187 0.458 0 0.916 0.104 1.375 0.312 0.291 0.125 0.687 0.385 1.187 0.781s0.896 0.657 1.188 0.782c0.5 0.25 1.041 0.375 1.625 0.375 1.083 0 1.927-0.365 2.531-1.094s0.906-1.656 0.906-2.781c0-1.125-0.292-2.063-0.875-2.813-0.667-0.833-1.562-1.25-2.687-1.25z"></path>
</svg>
