<!-- Generated by IcoMoon.io -->
<svg version="1.1" xmlns="http://www.w3.org/2000/svg" width="32" height="32" viewBox="0 0 32 32">
<title>question</title>
<path d="M16.025 0c-2.417 0-4.521 0.5-6.313 1.5-1.625 0.917-3.104 2.313-4.437 4.188-0.25 0.333-0.344 0.697-0.281 1.093 0.062 0.396 0.26 0.719 0.593 0.969l2.688 2.063c0.333 0.249 0.698 0.343 1.094 0.281 0.396-0.063 0.718-0.261 0.968-0.594 0.917-1.083 1.688-1.833 2.313-2.25 0.792-0.542 1.75-0.813 2.875-0.813 1.042 0 2 0.292 2.875 0.875 0.958 0.584 1.437 1.334 1.437 2.25 0 0.625-0.27 1.188-0.812 1.688-0.375 0.375-1.125 0.875-2.25 1.5l-0.125 0.062c-1.583 0.875-2.708 1.646-3.375 2.313-1.083 1.167-1.625 2.583-1.625 4.25v0.625c0 0.417 0.146 0.771 0.437 1.063 0.292 0.291 0.646 0.437 1.063 0.437h4.5c0.417 0 0.771-0.146 1.062-0.438 0.292-0.291 0.438-0.645 0.438-1.062v-0.375c0-0.458 0.25-0.896 0.75-1.313 0.292-0.25 0.875-0.625 1.75-1.125 1.083-0.625 1.896-1.145 2.437-1.562 0.875-0.708 1.563-1.5 2.063-2.375 0.583-1.042 0.875-2.25 0.875-3.625 0-1.75-0.563-3.396-1.688-4.938-1.041-1.416-2.406-2.552-4.093-3.406s-3.427-1.281-5.219-1.281zM15.4 23.312c-1.208 0-2.229 0.428-3.063 1.282s-1.25 1.875-1.25 3.062c0 1.188 0.417 2.209 1.25 3.063s1.855 1.281 3.063 1.281 2.229-0.427 3.062-1.281c0.834-0.854 1.25-1.875 1.25-3.063s-0.416-2.208-1.25-3.062c-0.833-0.854-1.854-1.282-3.062-1.282z"></path>
</svg>
