<!-- Generated by IcoMoon.io -->
<svg version="1.1" xmlns="http://www.w3.org/2000/svg" width="32" height="32" viewBox="0 0 32 32">
<title>question-circle</title>
<path d="M31.5 16c0 2.792-0.698 5.375-2.094 7.75s-3.281 4.26-5.656 5.656c-2.375 1.396-4.958 2.094-7.75 2.094s-5.375-0.698-7.75-2.094c-2.375-1.396-4.26-3.281-5.656-5.656s-2.094-4.958-2.094-7.75c0-2.792 0.698-5.375 2.094-7.75s3.281-4.26 5.656-5.656c2.375-1.396 4.958-2.094 7.75-2.094s5.375 0.698 7.75 2.094c2.375 1.396 4.26 3.281 5.656 5.656s2.094 4.958 2.094 7.75zM16.437 5.625c-1.666 0-3.104 0.354-4.312 1.063-1.125 0.625-2.125 1.604-3 2.937-0.125 0.167-0.167 0.344-0.125 0.531s0.146 0.344 0.313 0.469l2.187 1.625c0.125 0.125 0.292 0.177 0.5 0.156s0.375-0.114 0.5-0.281c0.667-0.792 1.188-1.333 1.563-1.625 0.583-0.417 1.25-0.625 2-0.625 0.708 0 1.364 0.198 1.968 0.594s0.907 0.885 0.907 1.469c0 0.458-0.188 0.854-0.563 1.187-0.25 0.208-0.729 0.521-1.437 0.938l-0.125 0.062c-1.042 0.583-1.771 1.104-2.188 1.563-0.75 0.791-1.125 1.729-1.125 2.812v0.25c0 0.208 0.073 0.385 0.219 0.531s0.323 0.219 0.531 0.219h3.5c0.208 0 0.385-0.073 0.531-0.219s0.219-0.323 0.219-0.531v-0.063c0-0.333 0.167-0.625 0.5-0.875 0.208-0.166 0.604-0.416 1.188-0.75 1.083-0.666 1.854-1.25 2.312-1.75 0.792-0.875 1.188-1.979 1.188-3.312 0-1.167-0.355-2.24-1.063-3.219s-1.625-1.75-2.75-2.312c-1.125-0.563-2.271-0.844-3.437-0.844zM15.999 21.125c-0.792 0-1.469 0.281-2.031 0.844-0.563 0.562-0.844 1.239-0.844 2.031s0.281 1.469 0.844 2.031c0.562 0.563 1.239 0.844 2.031 0.844s1.469-0.281 2.031-0.844c0.563-0.562 0.844-1.239 0.844-2.031s-0.281-1.469-0.844-2.031c-0.562-0.563-1.239-0.844-2.031-0.844z"></path>
</svg>
