<!-- Generated by IcoMoon.io -->
<svg version="1.1" xmlns="http://www.w3.org/2000/svg" width="32" height="32" viewBox="0 0 32 32">
<title>question-circle-o</title>
<path d="M16 0.5c-2.792 0-5.375 0.698-7.75 2.094s-4.26 3.281-5.656 5.656c-1.396 2.375-2.094 4.958-2.094 7.75s0.698 5.375 2.094 7.75c1.396 2.375 3.281 4.26 5.656 5.656s4.958 2.094 7.75 2.094c2.792 0 5.375-0.698 7.75-2.094s4.26-3.281 5.656-5.656c1.396-2.375 2.094-4.958 2.094-7.75s-0.698-5.375-2.094-7.75c-1.396-2.375-3.281-4.26-5.656-5.656s-4.958-2.094-7.75-2.094zM16 28.5c-2.25 0-4.333-0.563-6.25-1.688s-3.438-2.645-4.563-4.562c-1.125-1.917-1.687-4-1.687-6.25s0.563-4.333 1.688-6.25c1.125-1.917 2.645-3.438 4.562-4.563s4-1.687 6.25-1.687c2.25 0 4.333 0.563 6.25 1.688s3.438 2.645 4.563 4.562c1.125 1.917 1.687 4 1.687 6.25s-0.563 4.333-1.688 6.25c-1.125 1.917-2.645 3.438-4.562 4.563s-4 1.687-6.25 1.687zM22.688 12.562c0-1.041-0.303-1.979-0.907-2.812s-1.406-1.5-2.406-2c-1-0.5-2-0.75-3-0.75-1.417 0-2.625 0.281-3.625 0.844s-1.896 1.406-2.688 2.531c-0.083 0.167-0.114 0.354-0.093 0.563 0.021 0.208 0.114 0.374 0.281 0.499l1.75 1.313c0.167 0.125 0.344 0.167 0.531 0.125s0.344-0.125 0.469-0.25c0.542-0.708 1-1.188 1.375-1.438 0.458-0.291 1.010-0.437 1.656-0.437s1.229 0.167 1.75 0.5c0.521 0.333 0.782 0.75 0.782 1.25 0 0.375-0.146 0.708-0.438 1-0.25 0.208-0.688 0.5-1.313 0.875l-0.125 0.062c-0.875 0.5-1.5 0.938-1.875 1.313-0.666 0.667-1 1.479-1 2.437v0.563c0 0.208 0.073 0.385 0.219 0.531s0.323 0.219 0.531 0.219h2.875c0.209 0 0.386-0.073 0.532-0.219s0.218-0.323 0.218-0.531v-0.375c0-0.292 0.146-0.542 0.438-0.75 0.167-0.167 0.5-0.396 1-0.688 0.958-0.541 1.646-1.041 2.063-1.5 0.666-0.791 1-1.75 1-2.875zM18.625 23c0-0.708-0.26-1.323-0.781-1.844s-1.136-0.781-1.844-0.781c-0.708 0-1.323 0.26-1.844 0.781s-0.781 1.136-0.781 1.844c0 0.708 0.26 1.323 0.781 1.844s1.136 0.781 1.844 0.781c0.708 0 1.323-0.26 1.844-0.781s0.781-1.136 0.781-1.844z"></path>
</svg>
