<!-- Generated by IcoMoon.io -->
<svg version="1.1" xmlns="http://www.w3.org/2000/svg" width="32" height="32" viewBox="0 0 32 32">
<title>quote-left</title>
<path d="M29 16h-5v-4c0-1.083 0.396-2.021 1.188-2.813s1.729-1.187 2.812-1.187h0.5c0.417 0 0.771-0.146 1.063-0.437s0.437-0.646 0.437-1.063v-3c0-0.417-0.146-0.771-0.438-1.062s-0.645-0.438-1.062-0.438h-0.5c-1.792 0-3.458 0.448-5 1.344s-2.76 2.114-3.656 3.656c-0.896 1.542-1.344 3.208-1.344 5v15c0 0.833 0.292 1.542 0.875 2.125s1.292 0.875 2.125 0.875h8c0.833 0 1.542-0.292 2.125-0.875s0.875-1.292 0.875-2.125v-8c0-0.833-0.292-1.542-0.875-2.125s-1.292-0.875-2.125-0.875zM11 16h-5v-4c0-1.083 0.396-2.021 1.188-2.813s1.729-1.187 2.812-1.187h0.5c0.417 0 0.771-0.146 1.063-0.437s0.437-0.646 0.437-1.063v-3c0-0.417-0.146-0.771-0.438-1.062s-0.645-0.438-1.062-0.438h-0.5c-1.792 0-3.458 0.448-5 1.344s-2.76 2.114-3.656 3.656c-0.896 1.542-1.344 3.208-1.344 5v15c0 0.833 0.292 1.542 0.875 2.125s1.292 0.875 2.125 0.875h8c0.833 0 1.542-0.292 2.125-0.875s0.875-1.292 0.875-2.125v-8c0-0.833-0.292-1.542-0.875-2.125s-1.292-0.875-2.125-0.875z"></path>
</svg>
