<!-- Generated by IcoMoon.io -->
<svg version="1.1" xmlns="http://www.w3.org/2000/svg" width="32" height="32" viewBox="0 0 32 32">
<title>random</title>
<path d="M26.563 17.438c-0.292-0.292-0.646-0.438-1.063-0.438s-0.771 0.146-1.063 0.438c-0.291 0.291-0.437 0.645-0.437 1.062v2.5h-2l-3.313-3.563-3.312 3.625 4.375 4.688c0.167 0.167 0.354 0.25 0.563 0.25h3.687v2.5c0 0.417 0.146 0.771 0.438 1.063s0.645 0.437 1.062 0.437 0.771-0.146 1.063-0.438l5-5c0.291-0.291 0.437-0.645 0.437-1.062s-0.146-0.771-0.438-1.063l-5-5zM0.751 11.001h5.25l3.313 3.563 3.312-3.626-4.375-4.687c-0.167-0.167-0.354-0.25-0.563-0.25h-6.937c-0.208 0-0.385 0.073-0.531 0.219s-0.219 0.323-0.219 0.531v3.5c0 0.208 0.073 0.385 0.219 0.531s0.323 0.219 0.531 0.219zM24.001 11.001v2.5c0 0.417 0.146 0.771 0.438 1.063s0.645 0.437 1.062 0.437 0.771-0.146 1.063-0.438l5-4.999c0.291-0.292 0.437-0.646 0.437-1.063s-0.146-0.771-0.438-1.062l-5-5c-0.291-0.292-0.645-0.438-1.062-0.438s-0.771 0.146-1.063 0.438c-0.291 0.291-0.437 0.645-0.437 1.062v2.5h-3.688c-0.208 0-0.395 0.083-0.562 0.25l-13.75 14.75h-5.25c-0.208 0-0.385 0.073-0.531 0.219s-0.219 0.323-0.219 0.531v3.5c0 0.208 0.073 0.385 0.219 0.531s0.323 0.219 0.531 0.219h6.938c0.208 0 0.395-0.083 0.562-0.25l13.75-14.75h2z"></path>
</svg>
