<!-- Generated by IcoMoon.io -->
<svg version="1.1" xmlns="http://www.w3.org/2000/svg" width="32" height="32" viewBox="0 0 32 32">
<title>recycle</title>
<path d="M9.938 9.482c-0.042-0.292-0.188-0.511-0.438-0.656s-0.5-0.178-0.75-0.094l-6.875 1.562c-0.458 0.125-0.719 0.407-0.781 0.844-0.063 0.438 0.094 0.76 0.469 0.969l2.562 1.625-3.188 5.062c-0.833 1.292-1.124 2.657-0.874 4.094s0.927 2.646 2.031 3.625 2.406 1.469 3.906 1.469h3.25c0.208 0 0.385-0.073 0.531-0.219s0.219-0.323 0.219-0.531v-2.5c0-0.209-0.073-0.386-0.219-0.531-0.146-0.146-0.323-0.219-0.531-0.219h-3.25c-0.5 0-0.938-0.167-1.313-0.5-0.375-0.334-0.604-0.74-0.687-1.219s0.021-0.927 0.313-1.344l3.187-5.062 2.5 1.562c0.375 0.25 0.75 0.24 1.125-0.031s0.521-0.615 0.438-1.031l-1.626-6.875zM17.688 4.919l2.563 4.125-2.5 1.625c-0.375 0.209-0.531 0.532-0.469 0.969 0.063 0.438 0.323 0.719 0.782 0.844l6.875 1.562c0.25 0.084 0.489 0.052 0.718-0.093 0.229-0.146 0.386-0.365 0.469-0.657l1.563-6.875c0.125-0.416 0-0.76-0.375-1.031s-0.75-0.281-1.125-0.031l-2.5 1.562-2.625-4.125c-0.75-1.208-1.782-2.031-3.094-2.468-1.313-0.438-2.625-0.438-3.938 0-1.312 0.437-2.343 1.26-3.093 2.468l-1.125 1.813c-0.125 0.166-0.167 0.354-0.125 0.562s0.145 0.354 0.312 0.438l2.125 1.375c0.208 0.083 0.406 0.104 0.594 0.062s0.344-0.146 0.469-0.312l1.125-1.813c0.375-0.625 0.937-0.937 1.687-0.937s1.313 0.312 1.688 0.937zM31.063 18.794l-1.688-2.75c-0.125-0.166-0.292-0.271-0.5-0.312-0.208-0.042-0.396-0.021-0.562 0.062l-2.125 1.313c-0.167 0.125-0.271 0.291-0.313 0.5-0.042 0.208 0 0.396 0.125 0.562l1.688 2.75c0.291 0.417 0.395 0.865 0.312 1.344s-0.312 0.885-0.687 1.219c-0.375 0.333-0.813 0.5-1.313 0.5h-6v-3c0-0.459-0.208-0.771-0.625-0.938s-0.771-0.083-1.062 0.25l-5 5c-0.209 0.167-0.313 0.396-0.313 0.688s0.104 0.521 0.313 0.687l5 5c0.291 0.334 0.645 0.417 1.062 0.25 0.417-0.166 0.625-0.479 0.625-0.937v-3h6c1.5 0 2.802-0.49 3.906-1.469s1.782-2.187 2.032-3.625c0.25-1.437-0.042-2.802-0.875-4.094z"></path>
</svg>
