<!-- Generated by IcoMoon.io -->
<svg version="1.1" xmlns="http://www.w3.org/2000/svg" width="32" height="32" viewBox="0 0 32 32">
<title>redo</title>
<path d="M31 0.25h-2.938c-0.208 0-0.385 0.073-0.531 0.219s-0.219 0.344-0.219 0.594l0.25 5.125c-1.458-1.709-3.208-3.042-5.25-4s-4.229-1.438-6.562-1.438c-2.792 0-5.375 0.698-7.75 2.094s-4.26 3.281-5.656 5.656c-1.396 2.375-2.094 4.969-2.094 7.781 0 2.813 0.698 5.396 2.094 7.75s3.281 4.229 5.656 5.625c2.375 1.396 4.958 2.094 7.75 2.094 1.958 0 3.833-0.354 5.625-1.063 1.792-0.708 3.375-1.687 4.75-2.937 0.167-0.125 0.25-0.302 0.25-0.531s-0.063-0.407-0.188-0.532l-2.125-2.125c-0.166-0.166-0.343-0.25-0.531-0.25s-0.364 0.063-0.531 0.188c-0.958 0.875-2.063 1.552-3.313 2.031s-2.562 0.719-3.937 0.719c-2 0-3.844-0.49-5.531-1.469s-3.021-2.312-4-4c-0.979-1.687-1.469-3.531-1.469-5.531s0.49-3.844 1.469-5.531c0.979-1.688 2.312-3.021 4-4 1.687-0.979 3.531-1.469 5.531-1.469 1.875 0 3.615 0.437 5.219 1.312s2.906 2.063 3.906 3.563l-6.313-0.313c-0.25 0-0.447 0.073-0.593 0.219s-0.219 0.323-0.219 0.531v2.938c0 0.208 0.073 0.385 0.219 0.531s0.323 0.219 0.531 0.219h12.5c0.208 0 0.385-0.073 0.531-0.219s0.219-0.323 0.219-0.531v-12.5c0-0.208-0.073-0.385-0.219-0.531s-0.323-0.219-0.531-0.219z"></path>
</svg>
