<!-- Generated by IcoMoon.io -->
<svg version="1.1" xmlns="http://www.w3.org/2000/svg" width="32" height="32" viewBox="0 0 32 32">
<title>reply</title>
<path d="M0.5 11.884l11-9.5c0.333-0.292 0.698-0.417 1.094-0.375s0.729 0.198 1 0.468c0.271 0.271 0.406 0.615 0.406 1.032v5c5.708 0.083 9.958 0.854 12.75 2.312 3.5 1.834 5.25 4.938 5.25 9.313 0 1.833-0.521 3.666-1.563 5.5-0.958 1.708-2.166 3.083-3.625 4.125-0.291 0.208-0.593 0.281-0.906 0.218s-0.562-0.218-0.75-0.468c-0.187-0.25-0.219-0.542-0.094-0.875 0.917-2.959 1.105-5.282 0.563-6.969s-1.813-2.885-3.813-3.594c-1.791-0.666-4.395-1.021-7.812-1.062v5.5c0 0.416-0.135 0.76-0.406 1.031s-0.604 0.427-1 0.469c-0.396 0.041-0.761-0.084-1.094-0.375l-11-9.5c-0.333-0.292-0.5-0.667-0.5-1.125s0.167-0.834 0.5-1.125z"></path>
</svg>
