<!-- Generated by IcoMoon.io -->
<svg version="1.1" xmlns="http://www.w3.org/2000/svg" width="32" height="32" viewBox="0 0 32 32">
<title>retweet</title>
<path d="M35.375 21.5l-6.313 6.25c-0.291 0.292-0.645 0.438-1.062 0.438s-0.771-0.146-1.063-0.438l-6.312-6.25c-0.292-0.292-0.438-0.646-0.438-1.063s0.146-0.77 0.438-1.062l0.688-0.688c0.291-0.291 0.656-0.437 1.093-0.437s0.802 0.146 1.094 0.438l2.5 2.687v-11.375h-11.75c-0.375 0-0.729-0.146-1.063-0.438l-0.999-0.999c-0.292-0.292-0.428-0.646-0.407-1.063s0.167-0.771 0.438-1.062c0.271-0.292 0.614-0.438 1.031-0.438h15.25c0.417 0 0.771 0.146 1.063 0.438s0.437 0.645 0.437 1.062v13.875l2.5-2.688c0.292-0.291 0.656-0.437 1.094-0.437 0.437 0 0.802 0.146 1.093 0.438l0.688 0.687c0.292 0.292 0.438 0.646 0.438 1.063s-0.146 0.77-0.438 1.062zM19.812 23.438c0.292 0.291 0.428 0.645 0.407 1.062s-0.167 0.771-0.438 1.063c-0.271 0.291-0.614 0.437-1.031 0.437h-15.25c-0.417 0-0.771-0.146-1.063-0.438s-0.437-0.645-0.437-1.062v-13.875l-2.5 2.688c-0.292 0.291-0.656 0.437-1.094 0.437s-0.802-0.146-1.094-0.438l-0.687-0.687c-0.292-0.292-0.438-0.646-0.438-1.063s0.146-0.77 0.438-1.062l6.313-6.25c0.291-0.292 0.645-0.438 1.062-0.438s0.771 0.146 1.063 0.438l6.312 6.25c0.292 0.292 0.438 0.646 0.438 1.063s-0.146 0.77-0.438 1.062l-0.688 0.688c-0.291 0.291-0.656 0.437-1.093 0.437-0.438 0-0.802-0.146-1.094-0.438l-2.5-2.687v11.375h11.75c0.375 0 0.729 0.146 1.063 0.438l1 1z"></path>
</svg>
