<!-- Generated by IcoMoon.io -->
<svg version="1.1" xmlns="http://www.w3.org/2000/svg" width="32" height="32" viewBox="0 0 32 32">
<title>review-undo-o</title>
<path d="M18.934 32h-15.034c-2.152 0-3.9-1.748-3.9-3.9v-24.2c0-2.152 1.747-3.9 3.9-3.9h18.2c2.153 0 3.9 1.748 3.9 3.9v12.728c-0.487-0.084-0.989-0.128-1.5-0.128s-1.013 0.044-1.5 0.128v-13.628h-20v26h13.593c0.554 1.165 1.358 2.188 2.341 3zM24.5 18.5c-3.725 0-6.75 3.025-6.75 6.75s3.025 6.75 6.75 6.75c3.725 0 6.75-3.025 6.75-6.75s-3.025-6.75-6.75-6.75zM20.413 24.165l2.9-2.505c0.088-0.077 0.184-0.11 0.289-0.099 0.104 0.011 0.192 0.052 0.264 0.123s0.107 0.163 0.107 0.272v1.319c1.505 0.022 2.625 0.225 3.361 0.609 0.923 0.484 1.385 1.302 1.385 2.456 0 0.483-0.138 0.967-0.412 1.45-0.253 0.451-0.572 0.813-0.956 1.088-0.077 0.055-0.157 0.074-0.239 0.057-0.082-0.016-0.148-0.057-0.198-0.123-0.049-0.066-0.057-0.143-0.024-0.231 0.241-0.78 0.291-1.392 0.148-1.837s-0.478-0.761-1.005-0.948c-0.473-0.176-1.159-0.269-2.060-0.28v1.45c0 0.11-0.036 0.201-0.107 0.272-0.072 0.071-0.16 0.113-0.264 0.124-0.105 0.011-0.201-0.022-0.289-0.099l-2.9-2.505c-0.088-0.077-0.132-0.176-0.132-0.297s0.044-0.219 0.132-0.296zM9.875 23.188c0.083-0.084 0.125-0.177 0.125-0.282 0-0.104-0.031-0.187-0.094-0.25l-0.531-0.531c-0.083-0.083-0.177-0.125-0.281-0.125s-0.188 0.042-0.25 0.125l-2 1.969-0.719-0.688c-0.062-0.062-0.146-0.093-0.25-0.093s-0.198 0.031-0.281 0.093l-0.5 0.5c-0.063 0.084-0.094 0.172-0.094 0.266s0.042 0.182 0.125 0.266l1.469 1.468c0.083 0.084 0.177 0.125 0.281 0.125s0.198-0.041 0.281-0.125l0.469-0.468 2.281-2.25h-0.031zM15.751 25.156h-4.251c-0.146 0-0.266-0.047-0.359-0.14-0.094-0.094-0.141-0.214-0.141-0.36v-1.25c0-0.145 0.047-0.265 0.141-0.359s0.213-0.141 0.359-0.141h4.568c-0.199 0.718-0.309 1.472-0.317 2.25zM8.523 15.999l0.838-0.837c0.091-0.092 0.137-0.204 0.137-0.337s-0.046-0.249-0.137-0.351l-0.337-0.336c-0.102-0.092-0.219-0.138-0.351-0.138s-0.245 0.046-0.336 0.138l-0.838 0.837-0.836-0.836c-0.091-0.092-0.203-0.138-0.336-0.138-0.132 0-0.249 0.046-0.351 0.138l-0.337 0.336c-0.091 0.102-0.137 0.219-0.137 0.352 0 0.132 0.046 0.244 0.137 0.336l0.836 0.836-0.837 0.838c-0.092 0.092-0.138 0.204-0.138 0.336 0 0.133 0.046 0.25 0.138 0.352l0.336 0.336c0.102 0.092 0.219 0.138 0.351 0.138 0.133 0 0.245-0.046 0.336-0.138l0.838-0.838 0.84 0.839c0.091 0.092 0.203 0.138 0.336 0.138 0.132 0 0.249-0.046 0.351-0.138l0.336-0.336c0.092-0.102 0.138-0.219 0.138-0.351 0-0.133-0.046-0.245-0.138-0.337l-0.839-0.839zM20.5 17.141h-9c-0.146 0-0.266-0.047-0.359-0.141s-0.141-0.213-0.141-0.359v-1.25c0-0.146 0.047-0.266 0.141-0.36s0.213-0.14 0.359-0.14h9c0.146 0 0.266 0.047 0.359 0.14s0.141 0.214 0.141 0.36v1.25c0 0.146-0.047 0.265-0.141 0.359s-0.213 0.141-0.359 0.141zM9.875 7.188c0.083-0.084 0.125-0.178 0.125-0.282s-0.031-0.187-0.094-0.25l-0.531-0.531c-0.083-0.083-0.177-0.125-0.281-0.125s-0.188 0.042-0.25 0.125l-2 1.969-0.719-0.688c-0.062-0.062-0.146-0.093-0.25-0.093s-0.198 0.031-0.281 0.093l-0.5 0.5c-0.063 0.084-0.094 0.172-0.094 0.266s0.042 0.182 0.125 0.265l1.469 1.469c0.083 0.084 0.177 0.125 0.281 0.125s0.198-0.041 0.281-0.125l0.469-0.469 2.281-2.25h-0.031zM20.5 9.157h-9c-0.146 0-0.266-0.047-0.359-0.14s-0.141-0.214-0.141-0.36v-1.25c0-0.146 0.047-0.265 0.141-0.359s0.213-0.141 0.359-0.141h9c0.146 0 0.266 0.047 0.359 0.141s0.141 0.213 0.141 0.359v1.25c0 0.146-0.047 0.266-0.141 0.36s-0.213 0.14-0.359 0.14z"></path>
</svg>
