<!-- Generated by IcoMoon.io -->
<svg version="1.1" xmlns="http://www.w3.org/2000/svg" width="40" height="32" viewBox="0 0 40 32">
<title>review-shield-o</title>
<path d="M38.875 16.938l-7.187-2.813c-0.459-0.167-0.917-0.167-1.375 0l-7.188 2.813c-0.333 0.125-0.604 0.333-0.812 0.625-0.209 0.291-0.313 0.604-0.313 0.937 0 2.208 0.417 4.271 1.25 6.188 0.75 1.75 1.792 3.27 3.125 4.562 1.208 1.208 2.521 2.083 3.938 2.625 0.458 0.167 0.916 0.167 1.375 0 1.25-0.5 2.437-1.271 3.562-2.313 1.417-1.25 2.521-2.729 3.313-4.437 0.958-2 1.437-4.208 1.437-6.625 0-0.333-0.104-0.646-0.312-0.938-0.209-0.291-0.48-0.5-0.813-0.625zM22.1 32.001h-18.2c-2.152 0-3.9-1.748-3.9-3.9v-24.2c0-2.152 1.747-3.9 3.9-3.9h18.2c2.153 0 3.9 1.748 3.9 3.9v9.753c-0.754 0.296-2.028 0.797-3 1.182v-11.835h-20v26h20v-0.675c0.497 0.725 1.141 1.566 1.838 2.217 0.056 0.053 0.113 0.105 0.169 0.157-0.714 0.798-1.752 1.301-2.907 1.301zM31 28.876v-11.812l6 2.375c-0.167 2.416-0.937 4.541-2.312 6.375-1.084 1.416-2.313 2.437-3.688 3.062zM9.906 23.189l-2.281 2.25-0.469 0.468c-0.083 0.084-0.177 0.125-0.281 0.125s-0.198-0.041-0.281-0.125l-1.469-1.468c-0.083-0.084-0.125-0.172-0.125-0.266s0.031-0.182 0.094-0.266l0.5-0.5c0.083-0.062 0.177-0.093 0.281-0.093s0.188 0.031 0.25 0.093l0.719 0.688 2-1.969c0.062-0.083 0.146-0.125 0.25-0.125s0.198 0.042 0.281 0.125l0.531 0.531c0.063 0.063 0.094 0.146 0.094 0.25 0 0.105-0.042 0.198-0.125 0.282h0.031zM20.5 25.157h-9c-0.146 0-0.266-0.047-0.359-0.14-0.094-0.094-0.141-0.214-0.141-0.36v-1.25c0-0.145 0.047-0.265 0.141-0.359s0.213-0.141 0.359-0.141h9c0.146 0 0.266 0.047 0.359 0.141s0.141 0.214 0.141 0.359v1.25c0 0.146-0.047 0.266-0.141 0.36-0.093 0.093-0.213 0.14-0.359 0.14zM8.523 16l0.838-0.837c0.091-0.092 0.137-0.204 0.137-0.337s-0.046-0.249-0.137-0.351l-0.337-0.336c-0.102-0.092-0.219-0.138-0.351-0.138s-0.245 0.046-0.336 0.138l-0.838 0.837-0.836-0.836c-0.091-0.092-0.203-0.138-0.336-0.138-0.132 0-0.249 0.046-0.351 0.138l-0.337 0.336c-0.091 0.102-0.137 0.219-0.137 0.352 0 0.132 0.046 0.244 0.137 0.336l0.836 0.836-0.837 0.838c-0.092 0.092-0.138 0.204-0.138 0.336 0 0.133 0.046 0.25 0.138 0.352l0.336 0.336c0.102 0.092 0.219 0.138 0.351 0.138 0.133 0 0.245-0.046 0.336-0.138l0.838-0.838 0.84 0.839c0.091 0.092 0.203 0.138 0.336 0.138 0.132 0 0.249-0.046 0.351-0.138l0.336-0.336c0.092-0.102 0.138-0.219 0.138-0.351 0-0.133-0.046-0.245-0.138-0.337l-0.839-0.839zM20.5 17.142h-9c-0.146 0-0.266-0.047-0.359-0.141s-0.141-0.213-0.141-0.359v-1.25c0-0.146 0.047-0.266 0.141-0.36s0.213-0.14 0.359-0.14h9c0.146 0 0.266 0.047 0.359 0.14s0.141 0.214 0.141 0.36v1.25c0 0.146-0.047 0.265-0.141 0.359s-0.213 0.141-0.359 0.141zM9.906 7.189l-2.281 2.25-0.469 0.468c-0.083 0.084-0.177 0.125-0.281 0.125s-0.198-0.041-0.281-0.125l-1.469-1.468c-0.083-0.084-0.125-0.172-0.125-0.266s0.031-0.182 0.094-0.266l0.5-0.5c0.083-0.062 0.177-0.093 0.281-0.093s0.188 0.031 0.25 0.093l0.719 0.688 2-1.969c0.062-0.083 0.146-0.125 0.25-0.125s0.198 0.042 0.281 0.125l0.531 0.531c0.063 0.063 0.094 0.146 0.094 0.25s-0.042 0.198-0.125 0.282h0.031zM20.5 9.157h-9c-0.146 0-0.266-0.047-0.359-0.14s-0.141-0.214-0.141-0.36v-1.25c0-0.146 0.047-0.265 0.141-0.359s0.213-0.141 0.359-0.141h9c0.146 0 0.266 0.047 0.359 0.141s0.141 0.213 0.141 0.359v1.25c0 0.146-0.047 0.266-0.141 0.36s-0.213 0.14-0.359 0.14z"></path>
</svg>
