<!-- Generated by IcoMoon.io -->
<svg version="1.1" xmlns="http://www.w3.org/2000/svg" width="32" height="32" viewBox="0 0 32 32">
<title>review-copy-o</title>
<path d="M21.4 32h-16.8c-1.987 0-3.6-1.613-3.6-3.6v-18.8c0-1.987 1.613-3.6 3.6-3.6h2.4v-2.4c0-1.987 1.613-3.6 3.6-3.6h16.8c1.987 0 3.6 1.613 3.6 3.6v18.8c0 1.987-1.613 3.6-3.6 3.6h-2.4v2.4c0 1.987-1.613 3.6-3.6 3.6zM7 9h-3v20h18v-3h-11.4c-1.987 0-3.6-1.613-3.6-3.6v-13.4zM28 3h-18v20h18v-20zM16.875 18.25c0.083-0.083 0.125-0.177 0.125-0.281s-0.031-0.188-0.094-0.25l-0.531-0.531c-0.083-0.084-0.177-0.125-0.281-0.125s-0.188 0.041-0.25 0.125l-2 1.968-0.719-0.687c-0.062-0.063-0.146-0.094-0.25-0.094s-0.198 0.031-0.281 0.094l-0.5 0.5c-0.063 0.083-0.094 0.172-0.094 0.266s0.042 0.182 0.125 0.265l1.469 1.469c0.083 0.083 0.177 0.125 0.281 0.125s0.198-0.042 0.281-0.125l0.469-0.469 2.281-2.25h-0.031zM25.5 20.219h-7c-0.146 0-0.266-0.047-0.359-0.141s-0.141-0.213-0.141-0.359v-1.25c0-0.146 0.047-0.266 0.141-0.359s0.213-0.141 0.359-0.141h7c0.146 0 0.266 0.047 0.359 0.141s0.141 0.213 0.141 0.359v1.25c0 0.146-0.047 0.266-0.141 0.359s-0.213 0.141-0.359 0.141zM15.546 13.062l0.856-0.857c0.094-0.093 0.141-0.208 0.141-0.343s-0.047-0.256-0.141-0.36l-0.343-0.343c-0.105-0.094-0.224-0.141-0.36-0.141s-0.25 0.047-0.344 0.141l-0.856 0.856-0.854-0.855c-0.094-0.094-0.209-0.141-0.344-0.141s-0.255 0.047-0.36 0.141l-0.343 0.344c-0.094 0.104-0.141 0.224-0.141 0.359s0.047 0.25 0.141 0.344l0.854 0.855-0.856 0.856c-0.094 0.094-0.141 0.209-0.141 0.344s0.047 0.255 0.141 0.359l0.343 0.344c0.105 0.094 0.224 0.141 0.36 0.141s0.25-0.047 0.344-0.141l0.856-0.857 0.858 0.859c0.094 0.093 0.209 0.14 0.344 0.14s0.255-0.047 0.36-0.14l0.343-0.344c0.094-0.104 0.141-0.224 0.141-0.36s-0.047-0.25-0.141-0.343l-0.858-0.858zM25.5 14.203h-7c-0.146 0-0.266-0.047-0.359-0.14s-0.141-0.214-0.141-0.36v-1.25c0-0.146 0.047-0.265 0.141-0.359s0.213-0.141 0.359-0.141h7c0.146 0 0.266 0.047 0.359 0.141s0.141 0.213 0.141 0.359v1.25c0 0.146-0.047 0.266-0.141 0.36s-0.213 0.14-0.359 0.14zM16.875 6.187c0.083-0.083 0.125-0.177 0.125-0.281s-0.031-0.187-0.094-0.25l-0.531-0.531c-0.083-0.083-0.177-0.125-0.281-0.125s-0.188 0.042-0.25 0.125l-2 1.969-0.719-0.688c-0.062-0.062-0.146-0.094-0.25-0.094s-0.198 0.032-0.281 0.094l-0.5 0.5c-0.063 0.084-0.094 0.172-0.094 0.266s0.042 0.182 0.125 0.265l1.469 1.469c0.083 0.084 0.177 0.125 0.281 0.125s0.198-0.041 0.281-0.125l0.469-0.469 2.281-2.25h-0.031zM25.5 8.156h-7c-0.146 0-0.266-0.047-0.359-0.14-0.094-0.094-0.141-0.214-0.141-0.36v-1.25c0-0.146 0.047-0.265 0.141-0.359s0.213-0.141 0.359-0.141h7c0.146 0 0.266 0.047 0.359 0.141s0.141 0.213 0.141 0.359v1.25c0 0.146-0.047 0.266-0.141 0.36s-0.213 0.14-0.359 0.14z"></path>
</svg>
