<!-- Generated by IcoMoon.io -->
<svg version="1.1" xmlns="http://www.w3.org/2000/svg" width="32" height="32" viewBox="0 0 32 32">
<title>route</title>
<path d="M21.875 4.598c0.749-1.817 2.539-3.098 4.625-3.098 2.76 0 5 2.24 5 5s-2.24 5-5 5c-1.982 0-3.697-1.156-4.505-2.83-1.015 0.153-1.933 0.436-2.521 1.191-3.286 4.216 1.047 14.841-7.589 17.185-0.576 0.157-1.162 0.265-1.752 0.337-0.744 1.827-2.539 3.117-4.633 3.117-2.76 0-5-2.24-5-5s2.24-5 5-5c1.996 0 3.721 1.172 4.522 2.865 3.725-0.615 3.676-3.392 4.058-8.821 0.066-4.453 1.688-9.209 7.795-9.946zM5.5 24.5c-0.552 0-1 0.448-1 1s0.448 1 1 1c0.552 0 1-0.448 1-1s-0.448-1-1-1zM26.5 5.5c-0.552 0-1 0.448-1 1s0.448 1 1 1c0.552 0 1-0.448 1-1s-0.448-1-1-1z"></path>
</svg>
