<!-- Generated by IcoMoon.io -->
<svg version="1.1" xmlns="http://www.w3.org/2000/svg" width="32" height="32" viewBox="0 0 32 32">
<title>rss</title>
<path d="M10 26c0-1.125-0.385-2.073-1.156-2.844s-1.709-1.156-2.813-1.156c-1.104 0-2.052 0.385-2.843 1.156s-1.188 1.709-1.188 2.813 0.396 2.052 1.188 2.844c0.791 0.791 1.739 1.187 2.843 1.187s2.042-0.396 2.813-1.188c0.771-0.791 1.156-1.729 1.156-2.812zM21 28.938c-0.167-3.167-1.073-6.084-2.719-8.75s-3.802-4.823-6.468-6.469c-2.667-1.646-5.584-2.552-8.75-2.719-0.292 0-0.542 0.094-0.75 0.281s-0.313 0.427-0.313 0.719v3c0 0.292 0.094 0.531 0.281 0.719 0.188 0.187 0.407 0.281 0.657 0.281 2.291 0.167 4.406 0.844 6.343 2.031s3.5 2.75 4.688 4.688c1.187 1.937 1.864 4.052 2.031 6.344 0 0.25 0.094 0.468 0.281 0.656s0.427 0.281 0.719 0.281h3c0.292 0 0.531-0.104 0.719-0.312 0.187-0.209 0.281-0.459 0.281-0.75zM30 28.938c-0.167-4.792-1.479-9.23-3.938-13.313-2.416-4.042-5.625-7.25-9.625-9.625-4.125-2.5-8.583-3.833-13.375-4-0.291 0-0.541 0.094-0.75 0.281s-0.312 0.427-0.312 0.719v3c0 0.292 0.094 0.531 0.281 0.719 0.188 0.187 0.406 0.281 0.656 0.281 3.959 0.167 7.605 1.25 10.938 3.25 3.25 2 5.875 4.625 7.875 7.875 2 3.333 3.083 6.979 3.25 10.938 0 0.25 0.094 0.468 0.281 0.656 0.188 0.187 0.427 0.281 0.719 0.281h3c0.292 0 0.531-0.104 0.719-0.312 0.187-0.209 0.281-0.459 0.281-0.75z"></path>
</svg>
