<!-- Generated by IcoMoon.io -->
<svg version="1.1" xmlns="http://www.w3.org/2000/svg" width="40" height="32" viewBox="0 0 40 32">
<title>ruler</title>
<path d="M39.757 10.438l-5-8.438c-0.25-0.5-0.646-0.812-1.188-0.937s-1.042-0.063-1.5 0.187l-4.312 2.438 3.687 6.375c0.083 0.125 0.104 0.25 0.063 0.375-0.042 0.125-0.125 0.229-0.25 0.312l-0.813 0.438c-0.125 0.083-0.26 0.104-0.406 0.062s-0.24-0.104-0.281-0.187l-3.75-6.375-3.438 1.937 1.75 3c0.042 0.125 0.052 0.25 0.031 0.375s-0.093 0.208-0.218 0.25l-0.875 0.5c-0.125 0.083-0.25 0.104-0.375 0.063-0.125-0.042-0.23-0.125-0.313-0.25l-1.75-2.938-3.437 1.938 3.75 6.375c0.041 0.125 0.052 0.25 0.031 0.375s-0.094 0.229-0.219 0.312l-0.875 0.438c-0.125 0.083-0.25 0.104-0.375 0.062s-0.229-0.104-0.312-0.187l-3.688-6.375-3.5 1.937 1.75 3c0.083 0.083 0.104 0.198 0.063 0.344-0.042 0.146-0.125 0.239-0.25 0.281l-0.813 0.5c-0.125 0.083-0.26 0.104-0.406 0.063-0.146-0.042-0.24-0.125-0.281-0.25l-1.75-2.938-3.438 1.938 3.688 6.375c0.083 0.083 0.104 0.197 0.062 0.343s-0.125 0.24-0.25 0.282l-0.812 0.5c-0.125 0.083-0.261 0.104-0.407 0.062s-0.239-0.125-0.281-0.25l-3.75-6.312-4.312 2.437c-0.5 0.292-0.813 0.698-0.938 1.219s-0.062 1.010 0.188 1.469l5 8.437c0.25 0.5 0.645 0.813 1.187 0.938s1.042 0.062 1.5-0.188l31.063-17.625c0.458-0.25 0.76-0.646 0.906-1.187 0.146-0.542 0.094-1.042-0.156-1.5z"></path>
</svg>
