<!-- Generated by IcoMoon.io -->
<svg version="1.1" xmlns="http://www.w3.org/2000/svg" width="32" height="32" viewBox="0 0 32 32">
<title>save</title>
<path d="M29.125 8.125l-5.25-5.25c-0.583-0.583-1.292-0.875-2.125-0.875h-16.75c-0.833 0-1.542 0.292-2.125 0.875s-0.875 1.292-0.875 2.125v22c0 0.833 0.292 1.542 0.875 2.125s1.292 0.875 2.125 0.875h22c0.833 0 1.542-0.292 2.125-0.875s0.875-1.292 0.875-2.125v-16.75c0-0.833-0.292-1.542-0.875-2.125zM16 26c-1.125 0-2.073-0.385-2.844-1.156s-1.156-1.719-1.156-2.844c0-1.125 0.385-2.073 1.156-2.844s1.719-1.156 2.844-1.156c1.125 0 2.073 0.385 2.844 1.156s1.156 1.719 1.156 2.844c0 1.125-0.385 2.073-1.156 2.844s-1.719 1.156-2.844 1.156zM22 6.937v6.313c0 0.208-0.073 0.385-0.219 0.531s-0.323 0.219-0.531 0.219h-14.5c-0.208 0-0.385-0.073-0.531-0.219s-0.219-0.323-0.219-0.531v-6.5c0-0.208 0.073-0.385 0.219-0.531s0.323-0.219 0.531-0.219h14.313c0.166 0 0.333 0.083 0.499 0.25l0.188 0.188c0.167 0.166 0.25 0.333 0.25 0.5z"></path>
</svg>
