<!-- Generated by IcoMoon.io -->
<svg version="1.1" xmlns="http://www.w3.org/2000/svg" width="32" height="32" viewBox="0 0 32 32">
<title>save-o</title>
<path d="M29.125 8.125l-5.25-5.25c-0.583-0.583-1.292-0.875-2.125-0.875h-16.75c-0.833 0-1.542 0.292-2.125 0.875s-0.875 1.292-0.875 2.125v22c0 0.833 0.292 1.542 0.875 2.125s1.292 0.875 2.125 0.875h22c0.833 0 1.542-0.292 2.125-0.875s0.875-1.292 0.875-2.125v-16.75c0-0.833-0.292-1.542-0.875-2.125zM19 5v5h-8v-5h8zM26.625 27h-21.25c-0.083 0-0.167-0.042-0.25-0.125s-0.125-0.167-0.125-0.25v-21.25c0-0.083 0.042-0.167 0.125-0.25s0.167-0.125 0.25-0.125h2.625v6.5c0 0.417 0.146 0.771 0.438 1.063s0.645 0.437 1.062 0.437h11c0.417 0 0.771-0.146 1.063-0.438s0.437-0.645 0.437-1.062v-6.25l4.875 4.875c0.083 0.083 0.125 0.167 0.125 0.25v16.25c0 0.083-0.042 0.167-0.125 0.25s-0.167 0.125-0.25 0.125zM16 14.5c-1.5 0-2.792 0.542-3.875 1.625s-1.625 2.375-1.625 3.875c0 1.5 0.542 2.792 1.625 3.875s2.375 1.625 3.875 1.625c1.5 0 2.792-0.542 3.875-1.625s1.625-2.375 1.625-3.875c0-1.5-0.542-2.792-1.625-3.875s-2.375-1.625-3.875-1.625zM16 22.5c-0.708 0-1.302-0.24-1.781-0.719s-0.719-1.073-0.719-1.781c0-0.708 0.24-1.302 0.719-1.781s1.073-0.719 1.781-0.719c0.708 0 1.302 0.24 1.781 0.719s0.719 1.073 0.719 1.781c0 0.708-0.24 1.302-0.719 1.781s-1.073 0.719-1.781 0.719z"></path>
</svg>
