<!-- Generated by IcoMoon.io -->
<svg version="1.1" xmlns="http://www.w3.org/2000/svg" width="32" height="32" viewBox="0 0 32 32">
<title>search-dollar</title>
<path d="M31.563 27.688l-6.251-6.25c-0.291-0.292-0.645-0.438-1.062-0.438h-1c1.833-2.333 2.75-5 2.75-8 0-2.375-0.583-4.552-1.75-6.531s-2.74-3.552-4.719-4.719c-1.979-1.167-4.146-1.75-6.5-1.75s-4.531 0.583-6.531 1.75c-2 1.167-3.583 2.74-4.75 4.719s-1.75 4.146-1.75 6.5c0 2.354 0.583 4.531 1.75 6.531s2.74 3.583 4.719 4.75c1.979 1.167 4.156 1.75 6.531 1.75 3 0 5.667-0.917 8-2.75v1c0 0.417 0.146 0.771 0.438 1.063l6.25 6.25c0.291 0.291 0.645 0.437 1.062 0.437s0.771-0.146 1.063-0.438l1.75-1.75c0.291-0.291 0.437-0.645 0.437-1.062s-0.146-0.771-0.438-1.063zM13.001 22.001c-1.625 0-3.125-0.406-4.5-1.219-1.375-0.812-2.469-1.906-3.281-3.281s-1.219-2.875-1.219-4.5 0.406-3.125 1.219-4.5c0.812-1.375 1.906-2.469 3.281-3.281s2.875-1.219 4.5-1.219 3.125 0.406 4.5 1.219c1.375 0.812 2.469 1.906 3.281 3.281 0.813 1.375 1.219 2.875 1.219 4.5s-0.406 3.125-1.219 4.5c-0.812 1.375-1.906 2.469-3.281 3.281-1.375 0.813-2.875 1.219-4.5 1.219zM14.689 12.438l-2.813-0.812c-0.167-0.042-0.302-0.135-0.406-0.281s-0.156-0.323-0.156-0.531c0-0.209 0.072-0.396 0.218-0.563s0.323-0.25 0.532-0.25h1.75c0.291 0 0.562 0.073 0.812 0.219s0.458 0.135 0.625-0.031l0.75-0.688c0.125-0.125 0.177-0.26 0.156-0.406s-0.093-0.261-0.218-0.344c-0.584-0.458-1.23-0.708-1.938-0.75v-1c0-0.125-0.052-0.24-0.156-0.344s-0.219-0.156-0.344-0.156h-1c-0.125 0-0.24 0.052-0.344 0.156s-0.156 0.219-0.156 0.344v1c-0.75 0.042-1.385 0.333-1.906 0.875s-0.781 1.188-0.781 1.938c0 0.625 0.187 1.187 0.562 1.687s0.854 0.854 1.438 1.063l2.812 0.812c0.167 0.042 0.302 0.135 0.406 0.281s0.157 0.323 0.157 0.532c0 0.208-0.073 0.395-0.219 0.562s-0.323 0.25-0.531 0.25h-1.75c-0.292 0-0.563-0.073-0.813-0.219s-0.458-0.135-0.625 0.032l-0.75 0.687c-0.125 0.125-0.177 0.26-0.156 0.406s0.094 0.261 0.219 0.344c0.583 0.458 1.229 0.708 1.937 0.75v1c0 0.125 0.052 0.24 0.156 0.344s0.219 0.156 0.344 0.156h1c0.125 0 0.24-0.052 0.344-0.156s0.156-0.219 0.156-0.344v-1c0.75-0.042 1.385-0.333 1.906-0.875s0.782-1.187 0.782-1.937c0-0.625-0.188-1.188-0.563-1.688s-0.854-0.854-1.437-1.062z"></path>
</svg>
