<!-- Generated by IcoMoon.io -->
<svg version="1.1" xmlns="http://www.w3.org/2000/svg" width="32" height="32" viewBox="0 0 32 32">
<title>search</title>
<path d="M31.563 27.688l-6.251-6.25c-0.291-0.292-0.645-0.438-1.062-0.438h-1c1.833-2.333 2.75-5 2.75-8 0-2.375-0.583-4.552-1.75-6.531s-2.74-3.552-4.719-4.719c-1.979-1.167-4.156-1.75-6.531-1.75s-4.552 0.583-6.531 1.75c-1.979 1.167-3.552 2.74-4.719 4.719s-1.75 4.156-1.75 6.531c0 2.375 0.583 4.552 1.75 6.531s2.74 3.552 4.719 4.719c1.979 1.167 4.156 1.75 6.531 1.75 3 0 5.667-0.917 8-2.75v1c0 0.417 0.146 0.771 0.438 1.063l6.25 6.25c0.291 0.291 0.645 0.437 1.062 0.437s0.771-0.146 1.063-0.438l1.75-1.75c0.291-0.291 0.437-0.645 0.437-1.062s-0.146-0.771-0.438-1.063zM13.001 21.001c-1.458 0-2.802-0.354-4.031-1.063-1.229-0.708-2.198-1.677-2.907-2.906s-1.062-2.573-1.062-4.031 0.354-2.802 1.062-4.031c0.709-1.229 1.678-2.198 2.907-2.907s2.573-1.062 4.031-1.062 2.802 0.354 4.031 1.062c1.229 0.709 2.198 1.678 2.907 2.907 0.708 1.229 1.062 2.573 1.062 4.031s-0.354 2.802-1.063 4.031c-0.708 1.229-1.677 2.198-2.906 2.906-1.229 0.709-2.573 1.063-4.031 1.063z"></path>
</svg>
