<!-- Generated by IcoMoon.io -->
<svg version="1.1" xmlns="http://www.w3.org/2000/svg" width="32" height="32" viewBox="0 0 32 32">
<title>search-plue</title>
<path d="M19 12v2c0 0.208-0.073 0.385-0.219 0.531s-0.323 0.219-0.531 0.219h-3.5v3.5c0 0.208-0.073 0.385-0.219 0.531s-0.323 0.219-0.531 0.219h-2c-0.208 0-0.385-0.073-0.531-0.219s-0.219-0.323-0.219-0.531v-3.5h-3.5c-0.208 0-0.385-0.073-0.531-0.219s-0.219-0.323-0.219-0.531v-2c0-0.208 0.073-0.385 0.219-0.531s0.323-0.219 0.531-0.219h3.5v-3.5c0-0.208 0.073-0.385 0.219-0.531s0.323-0.219 0.531-0.219h2c0.208 0 0.385 0.073 0.531 0.219s0.219 0.323 0.219 0.531v3.5h3.5c0.208 0 0.385 0.073 0.531 0.219s0.219 0.323 0.219 0.531zM31.563 29.813l-1.751 1.75c-0.291 0.291-0.645 0.437-1.062 0.437s-0.771-0.146-1.063-0.438l-6.25-6.25c-0.291-0.291-0.437-0.645-0.437-1.062v-1c-2.333 1.833-5 2.75-8 2.75-2.375 0-4.552-0.583-6.531-1.75s-3.552-2.74-4.719-4.719c-1.167-1.979-1.75-4.156-1.75-6.531s0.583-4.552 1.75-6.531c1.167-1.979 2.74-3.552 4.719-4.719s4.156-1.75 6.531-1.75c2.375 0 4.552 0.583 6.531 1.75s3.552 2.74 4.719 4.719c1.167 1.979 1.75 4.156 1.75 6.531 0 3-0.917 5.667-2.75 8h1c0.417 0 0.771 0.146 1.063 0.438l6.25 6.25c0.291 0.291 0.437 0.645 0.437 1.062s-0.146 0.771-0.438 1.063zM21.501 13c0-1.542-0.385-2.958-1.156-4.25s-1.802-2.323-3.094-3.094c-1.292-0.771-2.708-1.156-4.25-1.156s-2.958 0.385-4.25 1.156c-1.292 0.771-2.323 1.802-3.094 3.094s-1.156 2.708-1.156 4.25c0 1.542 0.385 2.958 1.156 4.25s1.802 2.323 3.094 3.094c1.292 0.771 2.708 1.156 4.25 1.156s2.958-0.385 4.25-1.156c1.292-0.771 2.323-1.802 3.094-3.094s1.156-2.708 1.156-4.25z"></path>
</svg>
