<!-- Generated by IcoMoon.io -->
<svg version="1.1" xmlns="http://www.w3.org/2000/svg" width="32" height="32" viewBox="0 0 32 32">
<title>seedling</title>
<path d="M4 8h-4c0 2.542 0.625 4.885 1.875 7.031s2.948 3.844 5.094 5.094c2.146 1.25 4.489 1.875 7.031 1.875v9c0 0.292 0.094 0.531 0.281 0.719 0.188 0.187 0.427 0.281 0.719 0.281h2c0.292 0 0.531-0.094 0.719-0.281 0.187-0.188 0.281-0.427 0.281-0.719v-9c0-2.542-0.625-4.885-1.875-7.031s-2.948-3.844-5.094-5.094c-2.146-1.25-4.489-1.875-7.031-1.875zM28 4c-2.583 0-4.958 0.656-7.125 1.969-2.167 1.312-3.875 3.052-5.125 5.219 1.792 1.958 3.021 4.208 3.688 6.749 2.333-0.25 4.458-1.020 6.375-2.312s3.427-2.958 4.531-5 1.656-4.25 1.656-6.625h-4z"></path>
</svg>
