<!-- Generated by IcoMoon.io -->
<svg version="1.1" xmlns="http://www.w3.org/2000/svg" width="32" height="32" viewBox="0 0 32 32">
<title>server</title>
<path d="M30 10h-28c-0.542 0-1.010-0.198-1.406-0.594s-0.594-0.864-0.594-1.406v-4c0-0.542 0.198-1.010 0.594-1.406s0.864-0.594 1.406-0.594h28c0.542 0 1.010 0.198 1.406 0.594s0.594 0.864 0.594 1.406v4c0 0.542-0.198 1.010-0.594 1.406s-0.864 0.594-1.406 0.594zM27 4.5c-0.417 0-0.771 0.146-1.063 0.438s-0.437 0.645-0.437 1.062 0.146 0.771 0.438 1.063c0.291 0.291 0.645 0.437 1.062 0.437s0.771-0.146 1.063-0.438c0.291-0.291 0.437-0.645 0.437-1.062s-0.146-0.771-0.438-1.063c-0.291-0.291-0.645-0.437-1.062-0.437zM23 4.5c-0.417 0-0.771 0.146-1.063 0.438s-0.437 0.645-0.437 1.062 0.146 0.771 0.438 1.063c0.291 0.291 0.645 0.437 1.062 0.437s0.771-0.146 1.063-0.438c0.291-0.291 0.437-0.645 0.437-1.062s-0.146-0.771-0.438-1.063c-0.291-0.291-0.645-0.437-1.062-0.437zM30 20h-28c-0.542 0-1.010-0.198-1.406-0.594s-0.594-0.864-0.594-1.406v-4c0-0.542 0.198-1.010 0.594-1.406s0.864-0.594 1.406-0.594h28c0.542 0 1.010 0.198 1.406 0.594s0.594 0.864 0.594 1.406v4c0 0.542-0.198 1.010-0.594 1.406s-0.864 0.594-1.406 0.594zM27 14.5c-0.417 0-0.771 0.146-1.063 0.438s-0.437 0.645-0.437 1.062 0.146 0.771 0.438 1.063c0.291 0.291 0.645 0.437 1.062 0.437s0.771-0.146 1.063-0.438c0.291-0.291 0.437-0.645 0.437-1.062s-0.146-0.771-0.438-1.063c-0.291-0.291-0.645-0.437-1.062-0.437zM23 14.5c-0.417 0-0.771 0.146-1.063 0.438s-0.437 0.645-0.437 1.062 0.146 0.771 0.438 1.063c0.291 0.291 0.645 0.437 1.062 0.437s0.771-0.146 1.063-0.438c0.291-0.291 0.437-0.645 0.437-1.062s-0.146-0.771-0.438-1.063c-0.291-0.291-0.645-0.437-1.062-0.437zM30 30h-28c-0.542 0-1.010-0.198-1.406-0.594s-0.594-0.864-0.594-1.406v-4c0-0.542 0.198-1.010 0.594-1.406s0.864-0.594 1.406-0.594h28c0.542 0 1.010 0.198 1.406 0.594s0.594 0.864 0.594 1.406v4c0 0.542-0.198 1.010-0.594 1.406s-0.864 0.594-1.406 0.594zM27 24.5c-0.417 0-0.771 0.146-1.063 0.438s-0.437 0.645-0.437 1.062 0.146 0.771 0.438 1.063c0.291 0.291 0.645 0.437 1.062 0.437s0.771-0.146 1.063-0.438c0.291-0.291 0.437-0.645 0.437-1.062s-0.146-0.771-0.438-1.063c-0.291-0.291-0.645-0.437-1.062-0.437zM23 24.5c-0.417 0-0.771 0.146-1.063 0.438s-0.437 0.645-0.437 1.062 0.146 0.771 0.438 1.063c0.291 0.291 0.645 0.437 1.062 0.437s0.771-0.146 1.063-0.438c0.291-0.291 0.437-0.645 0.437-1.062s-0.146-0.771-0.438-1.063c-0.291-0.291-0.645-0.437-1.062-0.437z"></path>
</svg>
