<!-- Generated by IcoMoon.io -->
<svg version="1.1" xmlns="http://www.w3.org/2000/svg" width="36" height="32" viewBox="0 0 36 32">
<title>share-square</title>
<path d="M35.5 11.063l-9 8.5c-0.292 0.291-0.635 0.437-1.031 0.437s-0.74-0.146-1.031-0.438c-0.292-0.291-0.438-0.645-0.438-1.062v-4.5c-3.167 0.042-5.583 0.354-7.25 0.937-1.833 0.625-3.010 1.709-3.531 3.25-0.521 1.542-0.365 3.709 0.469 6.5 0.166 0.5 0.041 0.886-0.375 1.157s-0.813 0.26-1.188-0.032c-1.292-1-2.375-2.291-3.25-3.875-0.917-1.708-1.375-3.416-1.375-5.125 0-4.125 1.604-7.041 4.813-8.75 2.541-1.333 6.437-2.020 11.687-2.062v-4.5c0-0.417 0.146-0.771 0.438-1.063s0.635-0.437 1.031-0.437 0.739 0.146 1.031 0.437l9 8.5c0.333 0.292 0.5 0.646 0.5 1.063s-0.167 0.771-0.5 1.062zM24 23.688c0-0.208 0.083-0.395 0.25-0.562s0.375-0.229 0.625-0.188c0.708 0.125 1.417 0.063 2.125-0.187 0.25-0.083 0.479-0.052 0.688 0.094 0.208 0.146 0.312 0.343 0.312 0.593v5.563c0 0.833-0.292 1.542-0.875 2.125s-1.292 0.875-2.125 0.875h-22c-0.833 0-1.542-0.292-2.125-0.875s-0.875-1.292-0.875-2.125v-22c0-0.833 0.292-1.542 0.875-2.125s1.292-0.875 2.125-0.875h7.563c0.375 0 0.614 0.188 0.718 0.563s-0.010 0.666-0.343 0.875c-1.25 0.625-2.313 1.395-3.188 2.312-0.167 0.167-0.354 0.25-0.562 0.25h-3.188v20h20v-4.313z"></path>
</svg>
