<!-- Generated by IcoMoon.io -->
<svg version="1.1" xmlns="http://www.w3.org/2000/svg" width="32" height="32" viewBox="0 0 32 32">
<title>share-alt</title>
<path d="M24 20c-1.417 0-2.667 0.438-3.75 1.313l-6.375-4c0.167-0.875 0.167-1.75 0-2.625l6.375-4c1.083 0.875 2.333 1.312 3.75 1.312 1.667 0 3.083-0.583 4.25-1.75s1.75-2.583 1.75-4.25c0-1.667-0.583-3.083-1.75-4.25s-2.583-1.75-4.25-1.75c-1.667 0-3.083 0.583-4.25 1.75s-1.75 2.583-1.75 4.25c0 0.458 0.042 0.896 0.125 1.313l-6.375 4c-1.083-0.875-2.333-1.313-3.75-1.313-1.667 0-3.083 0.583-4.25 1.75s-1.75 2.583-1.75 4.25c0 1.667 0.583 3.083 1.75 4.25s2.583 1.75 4.25 1.75c1.417 0 2.667-0.438 3.75-1.313l6.375 4c-0.083 0.417-0.125 0.855-0.125 1.313 0 1.667 0.583 3.083 1.75 4.25s2.583 1.75 4.25 1.75c1.667 0 3.083-0.583 4.25-1.75s1.75-2.583 1.75-4.25c0-1.667-0.583-3.083-1.75-4.25s-2.583-1.75-4.25-1.75z"></path>
</svg>
