<!-- Generated by IcoMoon.io -->
<svg version="1.1" xmlns="http://www.w3.org/2000/svg" width="32" height="32" viewBox="0 0 32 32">
<title>shield-alt</title>
<path d="M31 8c0 4.292-0.792 8.229-2.375 11.813-1.375 2.999-3.208 5.624-5.5 7.874-1.917 1.875-3.917 3.23-6 4.063-0.75 0.333-1.5 0.333-2.25 0-2.375-0.958-4.563-2.5-6.563-4.625-2.208-2.292-3.937-4.979-5.187-8.063-1.417-3.458-2.125-7.145-2.125-11.062 0-0.625 0.167-1.188 0.5-1.688s0.792-0.854 1.375-1.062l12-5c0.75-0.333 1.5-0.333 2.25 0l12 5c0.583 0.208 1.042 0.562 1.375 1.062s0.5 1.063 0.5 1.688zM16 27.875c3.125-1.542 5.667-3.917 7.625-7.125 2.167-3.542 3.292-7.563 3.375-12.063l-11-4.625v23.813z"></path>
</svg>
