<!-- Generated by IcoMoon.io -->
<svg version="1.1" xmlns="http://www.w3.org/2000/svg" width="36" height="32" viewBox="0 0 36 32">
<title>shopping-cart</title>
<path d="M33.003 18.813l2.938-13c0.125-0.459 0.041-0.875-0.25-1.25-0.292-0.375-0.688-0.563-1.188-0.563h-24.562l-0.563-2.812c-0.083-0.334-0.26-0.615-0.531-0.844s-0.573-0.344-0.906-0.344h-6.438c-0.417 0-0.771 0.146-1.062 0.438-0.292 0.291-0.438 0.645-0.438 1.062v1c0 0.417 0.146 0.771 0.438 1.063 0.291 0.291 0.645 0.437 1.062 0.437h4.375l4.375 21.438c-0.542 0.333-0.969 0.77-1.281 1.312s-0.469 1.125-0.469 1.75c0 0.958 0.344 1.781 1.031 2.469 0.688 0.687 1.511 1.031 2.469 1.031s1.781-0.344 2.469-1.031c0.687-0.688 1.031-1.521 1.031-2.5s-0.354-1.802-1.062-2.469h13.125c-0.709 0.667-1.063 1.49-1.063 2.469s0.344 1.812 1.031 2.5c0.688 0.687 1.511 1.031 2.469 1.031s1.781-0.344 2.469-1.031c0.687-0.688 1.031-1.511 1.031-2.469 0-0.667-0.177-1.281-0.531-1.844-0.354-0.562-0.844-0.989-1.469-1.281l0.375-1.562c0.083-0.459-0.021-0.875-0.312-1.25-0.292-0.375-0.667-0.563-1.125-0.563h-16.813l-0.375-2h18.313c0.333 0 0.635-0.104 0.906-0.312s0.448-0.5 0.531-0.875z"></path>
</svg>
