<!-- Generated by IcoMoon.io -->
<svg version="1.1" xmlns="http://www.w3.org/2000/svg" width="36" height="32" viewBox="0 0 36 32">
<title>shopping-basket</title>
<path d="M36 13.512v1c0 0.417-0.146 0.771-0.437 1.063-0.292 0.292-0.646 0.437-1.063 0.437h-0.5l-1.625 11.438c-0.125 0.75-0.469 1.365-1.031 1.844-0.563 0.479-1.219 0.718-1.969 0.718h-22.75c-0.75 0-1.406-0.239-1.969-0.718-0.562-0.479-0.906-1.094-1.031-1.844l-1.625-11.438h-0.5c-0.417 0-0.771-0.145-1.062-0.437s-0.438-0.646-0.438-1.063v-1c0-0.416 0.146-0.77 0.438-1.062 0.291-0.292 0.645-0.438 1.062-0.438h4.188l6.687-9.187c0.333-0.458 0.771-0.729 1.313-0.813s1.041 0.042 1.5 0.375c0.458 0.334 0.729 0.771 0.812 1.313s-0.042 1.042-0.375 1.5l-5 6.812h14.75l-5-6.812c-0.333-0.458-0.458-0.958-0.375-1.5s0.354-0.979 0.813-1.313c0.458-0.333 0.958-0.458 1.5-0.375 0.541 0.084 0.979 0.355 1.312 0.813l6.688 9.187h4.187c0.417 0 0.771 0.146 1.063 0.438 0.291 0.292 0.437 0.646 0.437 1.062zM19.5 24.512v-7c0-0.416-0.146-0.77-0.437-1.062-0.292-0.292-0.646-0.438-1.063-0.438s-0.771 0.146-1.062 0.438c-0.292 0.292-0.438 0.646-0.438 1.062v7c0 0.417 0.146 0.771 0.438 1.063s0.645 0.437 1.062 0.437 0.771-0.145 1.063-0.437c0.291-0.292 0.437-0.646 0.437-1.063zM26.5 24.512v-7c0-0.416-0.146-0.77-0.437-1.062-0.292-0.292-0.646-0.438-1.063-0.438s-0.771 0.146-1.062 0.438c-0.292 0.292-0.438 0.646-0.438 1.062v7c0 0.417 0.146 0.771 0.438 1.063s0.645 0.437 1.062 0.437 0.771-0.145 1.063-0.437c0.291-0.292 0.437-0.646 0.437-1.063zM12.5 24.512v-7c0-0.416-0.146-0.77-0.437-1.062-0.292-0.292-0.646-0.438-1.063-0.438s-0.771 0.146-1.062 0.438c-0.292 0.292-0.438 0.646-0.438 1.062v7c0 0.417 0.146 0.771 0.438 1.063s0.645 0.437 1.062 0.437 0.771-0.145 1.063-0.437c0.291-0.292 0.437-0.646 0.437-1.063z"></path>
</svg>
