<!-- Generated by IcoMoon.io -->
<svg version="1.1" xmlns="http://www.w3.org/2000/svg" width="32" height="32" viewBox="0 0 32 32">
<title>signature</title>
<path d="M31 20h-5.75c-0.292 0-0.583-0.167-0.875-0.5s-0.542-0.771-0.75-1.313c-0.458-1.333-1.167-2.395-2.125-3.187s-2.021-1.188-3.188-1.188c-1 0.001-1.906 0.271-2.718 0.813s-1.511 1.292-2.094 2.25l-1.313-10.25c-0.208-0.792-0.583-1.427-1.125-1.906s-1.177-0.719-1.906-0.719-1.375 0.24-1.937 0.719c-0.563 0.479-0.927 1.114-1.094 1.906l-2.625 11.125c-0.167 0.708-0.417 1.26-0.75 1.656s-0.667 0.594-1 0.594h-0.75c-0.292 0-0.531 0.094-0.719 0.281-0.187 0.188-0.281 0.427-0.281 0.719v2c0 0.292 0.094 0.531 0.281 0.719 0.188 0.187 0.427 0.281 0.719 0.281h0.75c1.333 0 2.521-0.49 3.562-1.469 1.042-0.979 1.73-2.26 2.063-3.843l1.5-6.375 1.875 13.875c0.042 0.5 0.229 0.916 0.562 1.25 0.334 0.333 0.73 0.52 1.188 0.562h0.187c0.459 0 0.865-0.135 1.219-0.406s0.594-0.615 0.719-1.032l2.062-7c0.209-0.541 0.448-0.968 0.719-1.281s0.563-0.469 0.875-0.469c0.313 0 0.615 0.157 0.906 0.469 0.292 0.313 0.521 0.761 0.688 1.344 0.5 1.333 1.229 2.396 2.187 3.187 0.959 0.792 2.021 1.188 3.188 1.188h5.75c0.292 0 0.531-0.094 0.719-0.281 0.187-0.188 0.281-0.427 0.281-0.719v-2c0-0.292-0.094-0.531-0.281-0.719-0.188-0.187-0.427-0.281-0.719-0.281z"></path>
</svg>
