<!-- Generated by IcoMoon.io -->
<svg version="1.1" xmlns="http://www.w3.org/2000/svg" width="32" height="32" viewBox="0 0 32 32">
<title>sign-in-alt</title>
<path d="M26 27.75h-5.25c-0.208 0-0.385-0.073-0.531-0.219s-0.219-0.323-0.219-0.531v-2.5c0-0.208 0.073-0.385 0.219-0.531s0.323-0.219 0.531-0.219h5.25c0.542 0 1.010-0.198 1.406-0.594s0.594-0.864 0.594-1.406v-12c0-0.542-0.198-1.010-0.594-1.406s-0.864-0.594-1.406-0.594h-5.25c-0.208 0-0.385-0.073-0.531-0.219s-0.219-0.323-0.219-0.531v-2.5c0-0.208 0.073-0.385 0.219-0.531s0.323-0.219 0.531-0.219h5.25c1.667 0 3.083 0.583 4.25 1.75s1.75 2.583 1.75 4.25v12c0 1.667-0.583 3.083-1.75 4.25s-2.583 1.75-4.25 1.75zM23.062 15.187c0.292 0.292 0.438 0.646 0.438 1.063s-0.146 0.771-0.438 1.063l-10.5 10.5c-0.291 0.291-0.645 0.437-1.062 0.437s-0.771-0.146-1.063-0.438c-0.291-0.291-0.437-0.645-0.437-1.062v-6h-8.5c-0.417 0-0.771-0.146-1.063-0.438s-0.437-0.645-0.437-1.062v-6c0-0.417 0.146-0.771 0.437-1.063 0.292-0.291 0.646-0.437 1.063-0.437h8.5v-6c0-0.417 0.146-0.771 0.437-1.063 0.292-0.291 0.646-0.437 1.063-0.437s0.771 0.146 1.062 0.438l10.5 10.5z"></path>
</svg>
