<!-- Generated by IcoMoon.io -->
<svg version="1.1" xmlns="http://www.w3.org/2000/svg" width="32" height="32" viewBox="0 0 32 32">
<title>sort-alpha-down</title>
<path d="M14.425 24.688l-5 5c-0.166 0.208-0.396 0.312-0.687 0.312-0.292 0-0.521-0.104-0.688-0.313l-5-5c-0.333-0.291-0.416-0.645-0.25-1.062s0.479-0.625 0.938-0.625h3v-20c0-0.292 0.093-0.531 0.281-0.719s0.427-0.281 0.719-0.281h2c0.291 0 0.531 0.094 0.718 0.281 0.188 0.188 0.282 0.427 0.282 0.719v20h3c0.458 0 0.771 0.208 0.937 0.625 0.167 0.417 0.084 0.771-0.25 1.063zM21.863 13.438c-0.042 0.166-0.125 0.302-0.25 0.406s-0.271 0.156-0.438 0.156h-2.25c-0.25 0-0.448-0.104-0.594-0.313-0.145-0.208-0.177-0.437-0.093-0.687l3.562-10.5c0.125-0.333 0.354-0.5 0.688-0.5h2.5c0.333 0 0.562 0.167 0.687 0.5l3.563 10.5c0.083 0.25 0.052 0.479-0.094 0.688-0.146 0.208-0.344 0.312-0.594 0.312h-2.25c-0.375 0-0.604-0.188-0.687-0.563l-0.563-1.749h-2.687l-0.5 1.75zM23.3 8.563h0.875l-0.437-1.438-0.438 1.438zM23.988 26.688h3.812c0.209 0 0.386 0.072 0.531 0.218 0.146 0.146 0.219 0.323 0.219 0.532v1.812c0 0.208-0.073 0.385-0.219 0.531-0.145 0.146-0.322 0.219-0.531 0.219h-8.125c-0.208 0-0.385-0.073-0.531-0.219s-0.219-0.323-0.219-0.531v-1.375c0-0.167 0.063-0.313 0.188-0.438l4.312-6.125h-3.5c-0.208 0-0.385-0.072-0.531-0.218s-0.219-0.323-0.219-0.532v-1.812c0-0.208 0.073-0.385 0.219-0.531s0.323-0.219 0.531-0.219h7.75c0.209 0 0.386 0.073 0.531 0.219 0.146 0.146 0.219 0.323 0.219 0.531v1.313c0 0.166-0.041 0.312-0.125 0.437l-4.187 6-0.125 0.188z"></path>
</svg>
