<!-- Generated by IcoMoon.io -->
<svg version="1.1" xmlns="http://www.w3.org/2000/svg" width="32" height="32" viewBox="0 0 32 32">
<title>sort-amount-down</title>
<path d="M11.698 24.688l-5 5c-0.167 0.208-0.396 0.312-0.688 0.312s-0.52-0.104-0.687-0.313l-5-5c-0.333-0.291-0.417-0.645-0.25-1.062s0.479-0.625 0.937-0.625h3v-20c0-0.292 0.094-0.531 0.282-0.719s0.427-0.281 0.718-0.281h2c0.292 0 0.532 0.094 0.719 0.281s0.281 0.427 0.281 0.719v20h3c0.459 0 0.771 0.208 0.938 0.625s0.083 0.771-0.25 1.063zM15.010 6c-0.291 0-0.531-0.094-0.718-0.281-0.188-0.188-0.282-0.427-0.282-0.719v-2c0-0.292 0.094-0.531 0.282-0.719 0.187-0.187 0.427-0.281 0.718-0.281h16c0.292 0 0.532 0.094 0.719 0.281s0.281 0.427 0.281 0.719v2c0 0.292-0.093 0.531-0.281 0.719-0.187 0.187-0.427 0.281-0.719 0.281h-16zM14.010 13v-2c0-0.292 0.094-0.531 0.282-0.719 0.187-0.187 0.427-0.281 0.718-0.281h12c0.292 0 0.532 0.094 0.719 0.281s0.281 0.427 0.281 0.719v2c0 0.292-0.093 0.531-0.281 0.719s-0.427 0.281-0.719 0.281h-12c-0.291 0-0.531-0.094-0.718-0.281-0.188-0.188-0.282-0.427-0.282-0.719zM14.010 29v-2c0-0.292 0.094-0.531 0.282-0.719 0.187-0.187 0.427-0.281 0.718-0.281h4c0.292 0 0.532 0.094 0.719 0.281 0.188 0.188 0.281 0.427 0.281 0.719v2c0 0.292-0.093 0.531-0.281 0.719-0.187 0.187-0.427 0.281-0.719 0.281h-4c-0.291 0-0.531-0.094-0.718-0.281-0.188-0.188-0.282-0.427-0.282-0.719zM14.010 21v-2c0-0.292 0.094-0.531 0.282-0.719 0.187-0.187 0.427-0.281 0.718-0.281h8c0.292 0 0.532 0.094 0.719 0.281 0.188 0.188 0.281 0.427 0.281 0.719v2c0 0.292-0.093 0.531-0.281 0.719-0.187 0.187-0.427 0.281-0.719 0.281h-8c-0.291 0-0.531-0.094-0.718-0.281-0.188-0.188-0.282-0.427-0.282-0.719z"></path>
</svg>
