<!-- Generated by IcoMoon.io -->
<svg version="1.1" xmlns="http://www.w3.org/2000/svg" width="32" height="32" viewBox="0 0 32 32">
<title>sort</title>
<path d="M8.563 18h14.874c0.417 0 0.771 0.146 1.063 0.438s0.438 0.645 0.438 1.062-0.146 0.771-0.438 1.063l-7.438 7.437c-0.291 0.292-0.645 0.438-1.062 0.438s-0.771-0.146-1.063-0.438l-7.437-7.438c-0.292-0.291-0.437-0.645-0.437-1.062s0.145-0.771 0.437-1.063c0.292-0.291 0.646-0.437 1.063-0.437zM24.5 11.437c0.292 0.292 0.438 0.646 0.438 1.063s-0.146 0.771-0.438 1.062c-0.292 0.292-0.646 0.438-1.063 0.438h-14.875c-0.416 0-0.77-0.146-1.062-0.438s-0.438-0.645-0.438-1.062 0.146-0.771 0.438-1.063l7.437-7.437c0.292-0.292 0.646-0.438 1.063-0.438s0.771 0.146 1.063 0.438l7.437 7.437z"></path>
</svg>
