<!-- Generated by IcoMoon.io -->
<svg version="1.1" xmlns="http://www.w3.org/2000/svg" width="32" height="32" viewBox="0 0 32 32">
<title>sort-numeric-up</title>
<path d="M22.010 7.031l-1.25-1.312c-0.125-0.167-0.187-0.354-0.187-0.563s0.083-0.375 0.25-0.5l2.687-2.562c0.167-0.125 0.355-0.188 0.563-0.188h1.937c0.209 0 0.386 0.073 0.532 0.219 0.145 0.146 0.218 0.323 0.218 0.531v7.938h1.625c0.209 0 0.386 0.073 0.532 0.218 0.145 0.146 0.218 0.323 0.218 0.532v1.812c0 0.209-0.073 0.386-0.218 0.531-0.146 0.146-0.323 0.219-0.532 0.219h-6.812c-0.208 0-0.386-0.073-0.531-0.219-0.146-0.145-0.219-0.322-0.219-0.531v-1.812c0-0.209 0.073-0.386 0.219-0.532 0.145-0.145 0.323-0.218 0.531-0.218h1.562v-3.625c-0.208 0.208-0.416 0.302-0.625 0.281-0.208-0.021-0.375-0.094-0.5-0.219zM20.073 21.906c0-1.083 0.375-2.041 1.125-2.875 0.792-0.875 1.844-1.312 3.156-1.312 1.313 0 2.427 0.458 3.344 1.375 1.083 1.083 1.625 2.541 1.625 4.375 0 1.75-0.5 3.25-1.5 4.5-1.083 1.416-2.5 2.125-4.25 2.125-0.917 0-1.729-0.146-2.438-0.438-0.166-0.083-0.291-0.208-0.375-0.375-0.083-0.166-0.104-0.333-0.062-0.5l0.625-1.875c0.042-0.208 0.156-0.354 0.344-0.437 0.187-0.084 0.385-0.104 0.593-0.063 1 0.375 1.792 0.292 2.375-0.25-1.208 0.167-2.27-0.166-3.187-1-0.917-0.833-1.375-1.916-1.375-3.25zM25.885 23.156c0-0.666-0.177-1.218-0.531-1.656s-0.719-0.656-1.094-0.656c-0.25 0-0.448 0.104-0.593 0.312-0.146 0.209-0.219 0.459-0.219 0.75 0 0.292 0.062 0.563 0.187 0.813 0.292 0.416 0.75 0.625 1.375 0.625 0.5 0 0.771-0.063 0.813-0.188h0.062zM3.698 8.906c-0.458 0-0.771-0.208-0.938-0.625-0.166-0.416-0.083-0.771 0.25-1.062l5-5c0.167-0.209 0.396-0.313 0.688-0.313s0.521 0.104 0.687 0.313l5 5c0.334 0.291 0.417 0.646 0.25 1.062s-0.479 0.625-0.937 0.625h-3v20c0 0.292-0.094 0.531-0.281 0.719-0.188 0.187-0.427 0.281-0.719 0.281h-2c-0.292 0-0.531-0.094-0.719-0.281-0.187-0.188-0.281-0.427-0.281-0.719v-20h-3z"></path>
</svg>
