<!-- Generated by IcoMoon.io -->
<svg version="1.1" xmlns="http://www.w3.org/2000/svg" width="32" height="32" viewBox="0 0 32 32">
<title>sort-amount-up</title>
<path d="M0.323 7.313l5-5.001c0.167-0.208 0.396-0.312 0.687-0.312s0.521 0.104 0.688 0.313l5 5c0.333 0.291 0.417 0.645 0.25 1.062s-0.479 0.625-0.938 0.625h-3v20c0 0.292-0.093 0.531-0.281 0.719-0.187 0.187-0.427 0.281-0.719 0.281h-2c-0.291 0-0.531-0.094-0.718-0.281-0.188-0.188-0.282-0.427-0.282-0.719v-20h-3c-0.458 0-0.77-0.208-0.937-0.625s-0.083-0.771 0.25-1.063zM15.010 6.001c-0.291 0-0.531-0.094-0.718-0.281-0.188-0.188-0.282-0.427-0.282-0.719v-2c0-0.292 0.094-0.531 0.282-0.719 0.187-0.187 0.427-0.281 0.718-0.281h16c0.292 0 0.532 0.094 0.719 0.281s0.281 0.427 0.281 0.719v2c0 0.292-0.093 0.531-0.281 0.719-0.187 0.187-0.427 0.281-0.719 0.281h-16zM14.010 13.001v-2c0-0.292 0.094-0.531 0.282-0.719 0.187-0.187 0.427-0.281 0.718-0.281h12c0.292 0 0.532 0.094 0.719 0.281s0.281 0.427 0.281 0.719v2c0 0.292-0.093 0.531-0.281 0.719s-0.427 0.281-0.719 0.281h-12c-0.291 0-0.531-0.094-0.718-0.281-0.188-0.188-0.282-0.427-0.282-0.719zM14.010 29.001v-2c0-0.292 0.094-0.531 0.282-0.719 0.187-0.187 0.427-0.281 0.718-0.281h4c0.292 0 0.532 0.094 0.719 0.281 0.188 0.188 0.281 0.427 0.281 0.719v2c0 0.292-0.093 0.531-0.281 0.719-0.187 0.187-0.427 0.281-0.719 0.281h-4c-0.291 0-0.531-0.094-0.718-0.281-0.188-0.188-0.282-0.427-0.282-0.719zM14.010 21.001v-2c0-0.292 0.094-0.531 0.282-0.719 0.187-0.187 0.427-0.281 0.718-0.281h8c0.292 0 0.532 0.094 0.719 0.281 0.188 0.188 0.281 0.427 0.281 0.719v2c0 0.292-0.093 0.531-0.281 0.719-0.187 0.187-0.427 0.281-0.719 0.281h-8c-0.291 0-0.531-0.094-0.718-0.281-0.188-0.188-0.282-0.427-0.282-0.719z"></path>
</svg>
