<!-- Generated by IcoMoon.io -->
<svg version="1.1" xmlns="http://www.w3.org/2000/svg" width="32" height="32" viewBox="0 0 32 32">
<title>spellcheck</title>
<path d="M27.776 20.919l-8.938 8.863c-0.294 0.294-0.769 0.288-1.063-0.006l-5.162-5.206c-0.294-0.294-0.287-0.769 0.006-1.063l1.775-1.762c0.294-0.294 0.769-0.288 1.063 0.006l2.875 2.9 6.625-6.575c0.294-0.294 0.769-0.287 1.063 0.006l1.762 1.775c0.294 0.3 0.288 0.769-0.006 1.063v-0.001zM7.241 20h-2.147c-0.373 0-0.668-0.155-0.886-0.466s-0.265-0.653-0.14-1.026l5.319-15.762c0.187-0.497 0.56-0.746 1.12-0.746h2.986c0.56 0 0.933 0.249 1.12 0.746l5.319 15.762c0.125 0.373 0.078 0.715-0.14 1.026s-0.513 0.466-0.886 0.466h-2.147c-0.56 0-0.933-0.28-1.12-0.839l-0.839-2.985h-5.6l-0.839 2.985c-0.063 0.248-0.203 0.45-0.42 0.606-0.218 0.155-0.451 0.233-0.7 0.233zM13.773 12.725l-1.026-3.544c-0.249-0.994-0.498-2.020-0.747-3.077-0.311 1.305-0.56 2.331-0.747 3.077l-1.026 3.544h3.546z"></path>
</svg>
