<!-- Generated by IcoMoon.io -->
<svg version="1.1" xmlns="http://www.w3.org/2000/svg" width="32" height="32" viewBox="0 0 32 32">
<title>star</title>
<path d="M14.188 1.125l-4.063 8.25-9.125 1.312c-0.542 0.084-0.969 0.334-1.281 0.75-0.313 0.417-0.459 0.875-0.438 1.375s0.219 0.938 0.594 1.313l6.625 6.437-1.562 9.125c-0.084 0.5 0.010 0.969 0.281 1.407s0.656 0.718 1.156 0.843 0.979 0.063 1.438-0.187l8.187-4.25 8.188 4.25c0.458 0.25 0.937 0.312 1.437 0.187s0.885-0.406 1.156-0.843c0.271-0.438 0.365-0.907 0.282-1.407l-1.563-9.125 6.625-6.437c0.375-0.375 0.573-0.813 0.594-1.313s-0.125-0.958-0.438-1.375c-0.312-0.416-0.739-0.666-1.281-0.75l-9.125-1.312-4.062-8.25c-0.25-0.5-0.615-0.833-1.094-1s-0.959-0.167-1.438 0c-0.479 0.167-0.843 0.5-1.093 1z"></path>
</svg>
