<!-- Generated by IcoMoon.io -->
<svg version="1.1" xmlns="http://www.w3.org/2000/svg" width="32" height="32" viewBox="0 0 32 32">
<title>sticky-note</title>
<path d="M21.5 20c-0.417 0-0.771 0.146-1.063 0.438s-0.437 0.645-0.437 1.062v8.5h-16.5c-0.417 0-0.771-0.146-1.063-0.438s-0.437-0.645-0.437-1.062v-25c0-0.417 0.146-0.771 0.437-1.063s0.646-0.437 1.063-0.437h25c0.417 0 0.771 0.146 1.063 0.437s0.437 0.646 0.437 1.063v16.5h-8.5zM29.563 23.438l-6.126 6.125c-0.291 0.291-0.645 0.437-1.062 0.437h-0.375v-8h8v0.375c0 0.417-0.146 0.771-0.438 1.063z"></path>
</svg>
