<!-- Generated by IcoMoon.io -->
<svg version="1.1" xmlns="http://www.w3.org/2000/svg" width="32" height="32" viewBox="0 0 32 32">
<title>sticky-note-o</title>
<path d="M30 21.75v-16.75c0-0.833-0.292-1.542-0.875-2.125s-1.292-0.875-2.125-0.875h-22c-0.833 0-1.542 0.292-2.125 0.875s-0.875 1.292-0.875 2.125v22c0 0.833 0.292 1.542 0.875 2.125s1.292 0.875 2.125 0.875h16.75c0.833 0 1.542-0.292 2.125-0.875l5.25-5.25c0.583-0.583 0.875-1.292 0.875-2.125zM22 26.75v-4.75h4.75l-4.75 4.75zM27 5v14h-6.5c-0.417 0-0.771 0.146-1.063 0.438s-0.437 0.645-0.437 1.062v6.5h-14v-22h22z"></path>
</svg>
