<!-- Generated by IcoMoon.io -->
<svg version="1.1" xmlns="http://www.w3.org/2000/svg" width="32" height="32" viewBox="0 0 32 32">
<title>stopwatch</title>
<path d="M29 19c0 2.375-0.583 4.552-1.75 6.531s-2.74 3.552-4.719 4.719c-1.979 1.167-4.156 1.75-6.531 1.75s-4.552-0.583-6.531-1.75c-1.979-1.167-3.552-2.74-4.719-4.719s-1.75-4.156-1.75-6.531c0-2.125 0.479-4.115 1.437-5.969s2.282-3.385 3.969-4.593c1.688-1.209 3.552-1.959 5.594-2.25v-2.188h-1.75c-0.208 0-0.385-0.073-0.531-0.219s-0.219-0.323-0.219-0.531v-2.5c0-0.208 0.073-0.385 0.219-0.531s0.323-0.219 0.531-0.219h7.5c0.208 0 0.385 0.073 0.531 0.219s0.219 0.323 0.219 0.531v2.5c0 0.208-0.073 0.385-0.219 0.531s-0.323 0.219-0.531 0.219h-1.75v2.125c2.333 0.375 4.417 1.313 6.25 2.813l1.688-1.688c0.166-0.167 0.354-0.25 0.562-0.25s0.375 0.083 0.5 0.25l1.813 1.75c0.125 0.125 0.187 0.292 0.187 0.5s-0.063 0.396-0.188 0.563l-1.875 1.874c1.375 2.125 2.063 4.48 2.063 7.063zM18 21.25v-9.5c0-0.167-0.073-0.333-0.219-0.5s-0.323-0.25-0.531-0.25h-2.5c-0.208 0-0.385 0.083-0.531 0.25s-0.219 0.333-0.219 0.5v9.5c0 0.208 0.073 0.385 0.219 0.531s0.323 0.219 0.531 0.219h2.5c0.208 0 0.385-0.073 0.531-0.219s0.219-0.323 0.219-0.531z"></path>
</svg>
