<!-- Generated by IcoMoon.io -->
<svg version="1.1" xmlns="http://www.w3.org/2000/svg" width="40" height="32" viewBox="0 0 40 32">
<title>store-alt</title>
<path d="M19.999 24h-12v-10h-4v16c0 0.542 0.198 1.010 0.594 1.406s0.864 0.594 1.406 0.594h16c0.542 0 1.010-0.198 1.406-0.594s0.594-0.864 0.594-1.406v-16h-4v10zM39.686 8.875l-5.375-8c-0.375-0.583-0.916-0.875-1.625-0.875h-25.375c-0.708 0-1.25 0.292-1.625 0.875l-5.312 8c-0.292 0.458-0.406 0.927-0.344 1.406s0.281 0.886 0.656 1.219 0.813 0.5 1.313 0.5h36c0.5 0 0.937-0.167 1.312-0.5s0.594-0.74 0.657-1.219c0.062-0.479-0.032-0.948-0.282-1.406zM31.999 31c0 0.292 0.094 0.531 0.281 0.719 0.188 0.187 0.427 0.281 0.719 0.281h2c0.292 0 0.531-0.094 0.719-0.281 0.187-0.188 0.281-0.427 0.281-0.719v-17h-4v17z"></path>
</svg>
