<!-- Generated by IcoMoon.io -->
<svg version="1.1" xmlns="http://www.w3.org/2000/svg" width="32" height="32" viewBox="0 0 32 32">
<title>strikethrough</title>
<path d="M31 17.906c0.292 0 0.531-0.093 0.719-0.281 0.187-0.188 0.281-0.427 0.281-0.719v-2c0-0.291-0.094-0.531-0.281-0.718-0.188-0.188-0.427-0.282-0.719-0.282h-30c-0.292 0-0.531 0.094-0.719 0.282-0.187 0.187-0.281 0.427-0.281 0.718v2c0 0.292 0.094 0.532 0.281 0.719s0.427 0.281 0.719 0.281h30zM17.562 18.906c0.959 0.459 1.667 0.938 2.126 1.438 0.541 0.583 0.812 1.271 0.812 2.062 0 1.042-0.427 1.865-1.281 2.469s-2.011 0.906-3.469 0.906c-1.208 0-2.25-0.208-3.125-0.625-1.125-0.5-1.688-1.208-1.688-2.125v-0.125c0-0.291-0.093-0.531-0.281-0.718-0.187-0.188-0.427-0.282-0.719-0.282h-2.812c-0.292 0-0.531 0.094-0.719 0.282-0.187 0.187-0.281 0.427-0.281 0.718v1.188c0 2 1 3.583 3 4.75 1.833 1.083 4.042 1.625 6.625 1.625 2.917 0 5.292-0.709 7.125-2.125 2-1.5 3-3.584 3-6.25 0-1.209-0.208-2.271-0.625-3.188h-7.688zM15.625 12.906c-1.125-0.5-1.958-0.979-2.5-1.437-0.667-0.625-1-1.396-1-2.313 0-1 0.396-1.75 1.187-2.25 0.75-0.458 1.709-0.687 2.875-0.687 1.25 0 2.23 0.208 2.938 0.625s1.063 0.896 1.063 1.437v0.125c0 0.292 0.104 0.532 0.312 0.719 0.208 0.188 0.438 0.281 0.688 0.281h2.875c0.291 0 0.531-0.093 0.718-0.281 0.188-0.187 0.282-0.427 0.282-0.719v-1.875c0-1.583-0.938-2.833-2.813-3.75-1.667-0.833-3.688-1.25-6.063-1.25-2.791 0-5.041 0.646-6.75 1.938-1.791 1.375-2.687 3.333-2.687 5.875 0 1.375 0.271 2.562 0.812 3.562h8.063z"></path>
</svg>
