<!-- Generated by IcoMoon.io -->
<svg version="1.1" xmlns="http://www.w3.org/2000/svg" width="32" height="32" viewBox="0 0 32 32">
<title>suitcase</title>
<path d="M8 5c0-0.833 0.292-1.542 0.875-2.125s1.292-0.875 2.125-0.875h10c0.833 0 1.542 0.292 2.125 0.875s0.875 1.292 0.875 2.125v25h-16v-25zM12 8h8v-2h-8v2zM32 11v16c0 0.833-0.292 1.542-0.875 2.125s-1.292 0.875-2.125 0.875h-3v-22h3c0.833 0 1.542 0.292 2.125 0.875s0.875 1.292 0.875 2.125zM6 30h-3c-0.833 0-1.542-0.292-2.125-0.875s-0.875-1.292-0.875-2.125v-16c0-0.833 0.292-1.542 0.875-2.125s1.292-0.875 2.125-0.875h3v22z"></path>
</svg>
