<!-- Generated by IcoMoon.io -->
<svg version="1.1" xmlns="http://www.w3.org/2000/svg" width="32" height="32" viewBox="0 0 32 32">
<title>sync</title>
<path d="M27.563 0.813l0.25 5.125c-1.459-1.709-3.209-3.042-5.25-4s-4.23-1.438-6.563-1.438c-2.5 0-4.823 0.552-6.969 1.656s-3.948 2.615-5.406 4.532c-1.458 1.916-2.417 4.062-2.875 6.437-0.042 0.208 0.010 0.406 0.156 0.594s0.344 0.281 0.594 0.281h3.063c0.166 0 0.322-0.052 0.468-0.156s0.24-0.24 0.282-0.406c0.583-2.459 1.864-4.48 3.843-6.063s4.261-2.375 6.844-2.375c1.875 0 3.615 0.438 5.219 1.313s2.906 2.062 3.906 3.562l-6.313-0.313c-0.25 0.001-0.447 0.073-0.593 0.219s-0.219 0.323-0.219 0.532v2.937c0 0.208 0.073 0.385 0.219 0.531s0.323 0.219 0.531 0.219h12.5c0.208 0 0.385-0.073 0.531-0.219s0.219-0.323 0.219-0.531v-12.5c0-0.208-0.073-0.385-0.219-0.531s-0.323-0.219-0.531-0.219h-2.938c-0.208 0-0.385 0.073-0.531 0.219s-0.219 0.344-0.219 0.594zM16.001 27c-1.875 0-3.615-0.438-5.219-1.313s-2.906-2.062-3.906-3.562l6.375 0.313c0.208 0 0.385-0.073 0.531-0.219s0.219-0.323 0.219-0.531v-2.938c0-0.208-0.073-0.385-0.219-0.531s-0.323-0.219-0.531-0.219h-12.5c-0.208 0-0.385 0.073-0.531 0.219s-0.219 0.323-0.219 0.531v12.5c0 0.208 0.073 0.385 0.219 0.531s0.323 0.219 0.531 0.219h2.938c0.25 0 0.447-0.073 0.593-0.219s0.198-0.343 0.157-0.593l-0.25-5.125c1.458 1.708 3.208 3.041 5.25 4 2.041 0.958 4.229 1.437 6.562 1.437 2.5 0 4.823-0.552 6.969-1.656s3.948-2.615 5.406-4.532c1.458-1.916 2.417-4.062 2.875-6.437 0.042-0.208-0.010-0.406-0.156-0.594-0.146-0.187-0.344-0.281-0.594-0.281h-3.063c-0.166 0-0.322 0.052-0.468 0.156s-0.24 0.24-0.282 0.407c-0.583 2.458-1.864 4.479-3.843 6.062s-4.261 2.375-6.844 2.375z"></path>
</svg>
