<!-- Generated by IcoMoon.io -->
<svg version="1.1" xmlns="http://www.w3.org/2000/svg" width="36" height="32" viewBox="0 0 36 32">
<title>tachometer-alt</title>
<path d="M18 2c-3.25 0-6.271 0.813-9.062 2.438-2.75 1.583-4.917 3.749-6.5 6.499-1.625 2.792-2.438 5.813-2.438 9.063s0.813 6.271 2.438 9.063c0.166 0.291 0.406 0.52 0.718 0.687 0.313 0.167 0.657 0.25 1.032 0.25h27.687c0.333 0 0.656-0.083 0.969-0.25 0.312-0.167 0.552-0.396 0.719-0.688 1.625-2.791 2.437-5.812 2.437-9.062s-0.812-6.271-2.437-9.063c-1.584-2.75-3.75-4.916-6.5-6.5-2.792-1.625-5.813-2.437-9.063-2.437zM18 6c0.458 0 0.854 0.135 1.188 0.406 0.333 0.271 0.562 0.636 0.687 1.094l-0.187 0.375-0.563 1.75c-0.375 0.25-0.75 0.375-1.125 0.375-0.542 0-1.010-0.198-1.406-0.594s-0.594-0.864-0.594-1.406c0-0.542 0.198-1.010 0.594-1.406s0.864-0.594 1.406-0.594zM6 24c-0.542 0-1.010-0.198-1.406-0.594s-0.594-0.864-0.594-1.406c0-0.542 0.198-1.010 0.594-1.406s0.864-0.594 1.406-0.594c0.542 0 1.010 0.198 1.406 0.594s0.594 0.864 0.594 1.406c0 0.542-0.198 1.010-0.594 1.406s-0.864 0.594-1.406 0.594zM9 14c-0.542 0-1.010-0.198-1.406-0.594s-0.594-0.864-0.594-1.406c0-0.542 0.198-1.010 0.594-1.406s0.864-0.594 1.406-0.594c0.542 0 1.010 0.198 1.406 0.594s0.594 0.864 0.594 1.406c0 0.542-0.198 1.010-0.594 1.406s-0.864 0.594-1.406 0.594zM24.438 9.5l-3.875 11.5c0.958 0.792 1.437 1.792 1.437 3 0 0.708-0.187 1.375-0.562 2h-6.875c-0.375-0.625-0.563-1.292-0.563-2 0-1.042 0.365-1.948 1.094-2.719s1.614-1.198 2.656-1.281l3.813-11.5c0.125-0.375 0.375-0.656 0.75-0.844 0.375-0.187 0.76-0.219 1.156-0.094s0.687 0.375 0.875 0.75c0.187 0.375 0.219 0.771 0.094 1.188zM25.313 13.062l1-2.937c0.25-0.083 0.479-0.125 0.687-0.125 0.542 0 1.010 0.198 1.406 0.594s0.594 0.864 0.594 1.406c0 0.542-0.198 1.010-0.594 1.406s-0.864 0.594-1.406 0.594c-0.708 0-1.271-0.313-1.687-0.938zM30 24c-0.542 0-1.010-0.198-1.406-0.594s-0.594-0.864-0.594-1.406c0-0.542 0.198-1.010 0.594-1.406s0.864-0.594 1.406-0.594c0.542 0 1.010 0.198 1.406 0.594s0.594 0.864 0.594 1.406c0 0.542-0.198 1.010-0.594 1.406s-0.864 0.594-1.406 0.594z"></path>
</svg>
