<!-- Generated by IcoMoon.io -->
<svg version="1.1" xmlns="http://www.w3.org/2000/svg" width="32" height="32" viewBox="0 0 32 32">
<title>tag</title>
<path d="M0 15.75v-12.75c0-0.833 0.292-1.542 0.875-2.125s1.292-0.875 2.125-0.875h12.75c0.833 0 1.542 0.292 2.125 0.875l13.25 13.25c0.583 0.583 0.875 1.292 0.875 2.125s-0.292 1.542-0.875 2.125l-12.75 12.75c-0.583 0.583-1.292 0.875-2.125 0.875s-1.542-0.292-2.125-0.875l-13.25-13.25c-0.583-0.583-0.875-1.292-0.875-2.125zM7 4c-0.833 0-1.542 0.292-2.125 0.875s-0.875 1.292-0.875 2.125c0 0.833 0.292 1.542 0.875 2.125s1.292 0.875 2.125 0.875c0.833 0 1.542-0.292 2.125-0.875s0.875-1.292 0.875-2.125c0-0.833-0.292-1.542-0.875-2.125s-1.292-0.875-2.125-0.875z"></path>
</svg>
