<!-- Generated by IcoMoon.io -->
<svg version="1.1" xmlns="http://www.w3.org/2000/svg" width="40" height="32" viewBox="0 0 40 32">
<title>tags</title>
<path d="M31.125 14.125c0.583 0.583 0.875 1.292 0.875 2.125s-0.292 1.542-0.875 2.125l-12.75 12.75c-0.583 0.583-1.292 0.875-2.125 0.875s-1.542-0.292-2.125-0.875l-13.25-13.25c-0.583-0.583-0.875-1.292-0.875-2.125v-12.75c0-0.833 0.292-1.542 0.875-2.125s1.292-0.875 2.125-0.875h12.75c0.833 0 1.542 0.292 2.125 0.875l13.25 13.25zM7 10c0.833 0 1.542-0.292 2.125-0.875s0.875-1.292 0.875-2.125c0-0.833-0.292-1.542-0.875-2.125s-1.292-0.875-2.125-0.875c-0.833 0-1.542 0.292-2.125 0.875s-0.875 1.292-0.875 2.125c0 0.833 0.292 1.542 0.875 2.125s1.292 0.875 2.125 0.875zM39.125 18.375l-12.75 12.75c-0.583 0.583-1.292 0.875-2.125 0.875s-1.542-0.292-2.125-0.875l10.875-10.875c1.083-1.125 1.625-2.458 1.625-4s-0.542-2.875-1.625-4l-12.312-12.25h3.062c0.833 0 1.542 0.292 2.125 0.875l13.25 13.25c0.583 0.583 0.875 1.292 0.875 2.125s-0.292 1.542-0.875 2.125z"></path>
</svg>
