<!-- Generated by IcoMoon.io -->
<svg version="1.1" xmlns="http://www.w3.org/2000/svg" width="32" height="32" viewBox="0 0 32 32">
<title>tasks</title>
<path d="M13 8.75h18c0.292 0 0.531-0.094 0.719-0.281 0.187-0.188 0.281-0.427 0.281-0.719v-2.5c0-0.292-0.094-0.531-0.281-0.719-0.188-0.187-0.427-0.281-0.719-0.281h-18c-0.292 0-0.531 0.094-0.719 0.281-0.187 0.188-0.281 0.427-0.281 0.719v2.5c0 0.292 0.094 0.531 0.281 0.719 0.188 0.187 0.427 0.281 0.719 0.281zM13 18.75h18c0.292 0 0.531-0.094 0.719-0.281 0.187-0.188 0.281-0.427 0.281-0.719v-2.5c0-0.292-0.094-0.531-0.281-0.719-0.188-0.187-0.427-0.281-0.719-0.281h-18c-0.292 0-0.531 0.094-0.719 0.281s-0.281 0.427-0.281 0.719v2.5c0 0.292 0.094 0.531 0.281 0.719 0.188 0.187 0.427 0.281 0.719 0.281zM13 28.75h18c0.292 0 0.531-0.094 0.719-0.281 0.187-0.188 0.281-0.427 0.281-0.719v-2.5c0-0.292-0.094-0.531-0.281-0.719-0.188-0.187-0.427-0.281-0.719-0.281h-18c-0.292 0-0.531 0.094-0.719 0.281-0.187 0.188-0.281 0.427-0.281 0.719v2.5c0 0.292 0.094 0.531 0.281 0.719 0.188 0.187 0.427 0.281 0.719 0.281zM4 23.5c-0.833 0-1.552 0.292-2.156 0.875s-0.906 1.292-0.906 2.125c0 0.833 0.302 1.542 0.906 2.125s1.323 0.875 2.156 0.875c0.833 0 1.542-0.292 2.125-0.875s0.875-1.292 0.875-2.125c0-0.833-0.292-1.542-0.875-2.125s-1.292-0.875-2.125-0.875zM9.75 4.812c0.167-0.166 0.25-0.343 0.25-0.531s-0.063-0.364-0.188-0.531l-1.062-1.063c-0.167-0.125-0.354-0.187-0.563-0.187-0.208 0-0.374 0.062-0.499 0.187l-4 4-1.438-1.375c-0.125-0.166-0.292-0.25-0.5-0.25s-0.396 0.084-0.563 0.25l-0.999 0.938c-0.125 0.167-0.188 0.354-0.188 0.562s0.083 0.375 0.25 0.5l2.938 3c0.166 0.125 0.354 0.188 0.562 0.188s0.396-0.063 0.563-0.188l0.937-1 4.563-4.5h-0.063zM9.75 14.812c0.167-0.166 0.25-0.354 0.25-0.562s-0.062-0.375-0.187-0.5l-1.063-1.063c-0.167-0.166-0.354-0.25-0.562-0.25s-0.375 0.084-0.5 0.25l-4 3.938-1.438-1.375c-0.125-0.125-0.292-0.188-0.5-0.188s-0.396 0.063-0.562 0.188l-1 1c-0.125 0.167-0.188 0.344-0.188 0.531 0 0.188 0.083 0.365 0.25 0.532l2.938 2.937c0.166 0.167 0.354 0.25 0.562 0.25s0.396-0.083 0.563-0.25l0.937-0.938 4.563-4.5h-0.063z"></path>
</svg>
