<!-- Generated by IcoMoon.io -->
<svg version="1.1" xmlns="http://www.w3.org/2000/svg" width="32" height="32" viewBox="0 0 32 32">
<title>th-large</title>
<path d="M18.5 2c-0.417 0-0.771 0.146-1.063 0.438-0.291 0.291-0.437 0.645-0.437 1.062v10c0 0.417 0.146 0.771 0.438 1.063s0.645 0.437 1.062 0.437h12c0.417 0 0.771-0.146 1.063-0.438s0.437-0.645 0.437-1.062v-10c0-0.417-0.146-0.771-0.438-1.063s-0.645-0.437-1.062-0.437h-12zM13.5 2h-12c-0.417 0-0.771 0.146-1.063 0.437s-0.437 0.646-0.437 1.063v10c0 0.417 0.146 0.771 0.437 1.063 0.292 0.291 0.646 0.437 1.063 0.437h12c0.417 0 0.771-0.146 1.063-0.438s0.437-0.645 0.437-1.062v-10c0-0.417-0.146-0.771-0.438-1.063s-0.645-0.437-1.062-0.437zM0 18.5v10c0 0.417 0.146 0.771 0.438 1.063 0.291 0.291 0.645 0.437 1.062 0.437h12c0.417 0 0.771-0.146 1.063-0.438s0.437-0.645 0.437-1.062v-10c0-0.417-0.146-0.771-0.438-1.063s-0.645-0.437-1.062-0.437h-12c-0.417 0-0.771 0.146-1.063 0.438s-0.437 0.645-0.437 1.062zM18.5 30h12c0.417 0 0.771-0.146 1.063-0.438s0.437-0.645 0.437-1.062v-10c0-0.417-0.146-0.771-0.438-1.063s-0.645-0.437-1.062-0.437h-12c-0.417 0-0.771 0.146-1.063 0.438s-0.437 0.645-0.437 1.062v10c0 0.417 0.146 0.771 0.438 1.063s0.645 0.437 1.062 0.437z"></path>
</svg>
