<!-- Generated by IcoMoon.io -->
<svg version="1.1" xmlns="http://www.w3.org/2000/svg" width="32" height="32" viewBox="0 0 32 32">
<title>th-list</title>
<path d="M9.313 13.5c-0.001-0.417-0.146-0.771-0.438-1.063s-0.646-0.437-1.063-0.437h-6.312c-0.417 0-0.771 0.146-1.063 0.438s-0.437 0.645-0.437 1.062v5c0 0.417 0.146 0.771 0.437 1.063 0.292 0.291 0.646 0.437 1.063 0.437h6.313c0.416 0 0.77-0.146 1.062-0.438s0.438-0.645 0.438-1.062l-0.001-5zM0.001 23.5v5c0 0.417 0.146 0.771 0.437 1.063 0.292 0.291 0.646 0.437 1.063 0.437h6.312c0.417 0 0.771-0.146 1.063-0.438s0.437-0.645 0.437-1.062v-5c0-0.417-0.145-0.771-0.437-1.063s-0.646-0.437-1.063-0.437h-6.312c-0.417 0-0.771 0.146-1.063 0.438s-0.437 0.645-0.437 1.062zM7.813 2h-6.312c-0.417 0-0.771 0.146-1.063 0.438-0.291 0.291-0.437 0.645-0.437 1.062v5c0 0.417 0.146 0.771 0.437 1.063 0.292 0.291 0.646 0.437 1.063 0.437h6.312c0.417 0 0.771-0.146 1.063-0.438s0.437-0.645 0.437-1.062v-5c0-0.417-0.145-0.771-0.437-1.063s-0.646-0.437-1.063-0.437zM12.813 30h17.688c0.417 0 0.771-0.146 1.063-0.438s0.437-0.645 0.437-1.062v-5c0-0.417-0.146-0.771-0.438-1.063s-0.645-0.437-1.062-0.437h-17.688c-0.416 0-0.77 0.146-1.062 0.438s-0.438 0.645-0.438 1.062v5c0 0.417 0.146 0.771 0.438 1.063s0.646 0.437 1.062 0.437zM11.313 3.5v5c0 0.417 0.146 0.771 0.438 1.063s0.646 0.437 1.062 0.437h17.688c0.417 0 0.771-0.146 1.063-0.438s0.437-0.645 0.437-1.062v-5c0-0.417-0.146-0.771-0.438-1.063s-0.645-0.437-1.062-0.437h-17.688c-0.416 0-0.77 0.146-1.062 0.437s-0.438 0.646-0.438 1.063zM12.813 20h17.688c0.417 0 0.771-0.146 1.063-0.438s0.437-0.645 0.437-1.062v-5c0-0.417-0.146-0.771-0.438-1.063s-0.645-0.437-1.062-0.437h-17.688c-0.416 0-0.77 0.146-1.062 0.438s-0.438 0.645-0.438 1.062v5c0 0.417 0.146 0.771 0.438 1.063s0.646 0.437 1.062 0.437z"></path>
</svg>
