<!-- Generated by IcoMoon.io -->
<svg version="1.1" xmlns="http://www.w3.org/2000/svg" width="32" height="32" viewBox="0 0 32 32">
<title>thumbs-up</title>
<path d="M6.5 14c0.417 0 0.771 0.146 1.063 0.438s0.437 0.645 0.437 1.062v15c0 0.417-0.146 0.771-0.438 1.063s-0.645 0.437-1.062 0.437h-5c-0.417 0-0.771-0.146-1.063-0.438s-0.437-0.645-0.437-1.062v-15c0-0.417 0.146-0.771 0.437-1.063 0.292-0.291 0.646-0.437 1.063-0.437h5zM4 29.5c0.417 0 0.771-0.146 1.063-0.438s0.437-0.645 0.437-1.062-0.146-0.771-0.438-1.063c-0.291-0.291-0.645-0.437-1.062-0.437s-0.771 0.146-1.063 0.438c-0.291 0.291-0.437 0.645-0.437 1.062s0.146 0.771 0.437 1.063c0.292 0.291 0.646 0.437 1.063 0.437zM24 5.062c0 0.75-0.125 1.5-0.375 2.25-0.167 0.417-0.458 1-0.875 1.75-0.458 0.875-0.729 1.521-0.813 1.938h6.313c1.042 0 1.927 0.365 2.656 1.094s1.094 1.573 1.094 2.531c0 0.583-0.115 1.146-0.344 1.687-0.229 0.542-0.51 1-0.843 1.375h-0.063c0.333 0.792 0.458 1.646 0.375 2.563s-0.396 1.729-0.938 2.438c0.25 0.791 0.271 1.625 0.063 2.5s-0.563 1.604-1.063 2.187c0.25 1.083 0.105 2.021-0.437 2.813s-1.542 1.312-3 1.562c-0.875 0.167-2.229 0.25-4.063 0.25h-0.187c-1.333 0-2.708-0.229-4.125-0.688-0.833-0.25-1.969-0.697-3.406-1.343s-2.511-0.969-3.219-0.969c-0.208 0-0.385-0.073-0.531-0.219s-0.219-0.323-0.219-0.531v-13.375c0-0.208 0.083-0.375 0.25-0.5 0.833-0.875 1.854-2.188 3.063-3.938 0.999-1.458 1.833-2.499 2.499-3.124 0.417-0.417 0.75-0.98 1-1.688 0.167-0.417 0.355-1.083 0.563-2v-0.062c0.25-0.959 0.479-1.688 0.688-2.188 0.416-0.917 0.895-1.375 1.437-1.375 1.125 0 2.063 0.271 2.813 0.813 1.125 0.833 1.687 2.25 1.687 4.25z"></path>
</svg>
