<!-- Generated by IcoMoon.io -->
<svg version="1.1" xmlns="http://www.w3.org/2000/svg" width="32" height="32" viewBox="0 0 32 32">
<title>thumbtack</title>
<path d="M22.625 13.375l-0.75-7.375h2.625c0.417 0 0.771-0.146 1.063-0.438s0.437-0.645 0.437-1.062v-3c0-0.417-0.146-0.771-0.438-1.063s-0.645-0.437-1.062-0.437h-17c-0.417 0-0.771 0.146-1.063 0.437-0.291 0.292-0.437 0.646-0.437 1.063v3c0 0.417 0.146 0.771 0.438 1.063s0.645 0.437 1.062 0.437h2.625l-0.75 7.375c-1.583 0.75-2.854 1.729-3.813 2.938-1.041 1.291-1.562 2.687-1.562 4.187 0 0.417 0.146 0.771 0.438 1.063s0.645 0.437 1.062 0.437h8.5v6.5c0 0.083 0.021 0.167 0.063 0.25l1.499 3c0.084 0.167 0.23 0.25 0.438 0.25s0.354-0.083 0.438-0.25l1.5-3c0.041-0.083 0.062-0.167 0.062-0.25v-6.5h8.5c0.417 0 0.771-0.146 1.063-0.438s0.437-0.645 0.437-1.062c0-1.542-0.521-2.958-1.563-4.25-0.958-1.167-2.229-2.125-3.812-2.875z"></path>
</svg>
