<!-- Generated by IcoMoon.io -->
<svg version="1.1" xmlns="http://www.w3.org/2000/svg" width="36" height="32" viewBox="0 0 36 32">
<title>ticket-alt</title>
<path d="M8 10h20v12h-20v-12zM33 16c0 0.833 0.292 1.542 0.875 2.125s1.292 0.875 2.125 0.875v6c0 0.833-0.292 1.542-0.875 2.125s-1.292 0.875-2.125 0.875h-30c-0.833 0-1.542-0.292-2.125-0.875s-0.875-1.292-0.875-2.125v-6c0.833 0 1.542-0.292 2.125-0.875s0.875-1.292 0.875-2.125c0-0.833-0.292-1.542-0.875-2.125s-1.292-0.875-2.125-0.875v-6c0-0.833 0.292-1.542 0.875-2.125s1.292-0.875 2.125-0.875h30c0.833 0 1.542 0.292 2.125 0.875s0.875 1.292 0.875 2.125v6c-0.833 0-1.542 0.292-2.125 0.875s-0.875 1.292-0.875 2.125zM30 9.5c0-0.417-0.146-0.771-0.437-1.063-0.292-0.291-0.646-0.437-1.063-0.437h-21c-0.417 0-0.771 0.146-1.062 0.438s-0.438 0.645-0.438 1.062v13c0 0.417 0.146 0.771 0.438 1.063s0.645 0.437 1.062 0.437h21c0.417 0 0.771-0.146 1.063-0.438s0.437-0.645 0.437-1.062v-13z"></path>
</svg>
