<!-- Generated by IcoMoon.io -->
<svg version="1.1" xmlns="http://www.w3.org/2000/svg" width="32" height="32" viewBox="0 0 32 32">
<title>times-circle</title>
<path d="M16 0.5c-2.792 0-5.375 0.698-7.75 2.094s-4.26 3.281-5.656 5.656c-1.396 2.375-2.094 4.958-2.094 7.75s0.698 5.375 2.094 7.75c1.396 2.375 3.281 4.26 5.656 5.656s4.958 2.094 7.75 2.094c2.792 0 5.375-0.698 7.75-2.094s4.26-3.281 5.656-5.656c1.396-2.375 2.094-4.958 2.094-7.75s-0.698-5.375-2.094-7.75c-1.396-2.375-3.281-4.26-5.656-5.656s-4.958-2.094-7.75-2.094zM23.625 20.063c0.125 0.166 0.188 0.354 0.188 0.562s-0.063 0.375-0.188 0.5l-2.5 2.5c-0.167 0.125-0.344 0.188-0.531 0.188-0.188 0-0.365-0.063-0.532-0.188l-4.062-4.125-4.063 4.125c-0.166 0.125-0.354 0.188-0.562 0.188s-0.375-0.063-0.5-0.188l-2.5-2.5c-0.125-0.167-0.188-0.344-0.188-0.531 0-0.188 0.063-0.365 0.188-0.532l4.125-4.062-4.125-4.063c-0.125-0.166-0.188-0.354-0.188-0.562s0.063-0.375 0.188-0.5l2.5-2.5c0.167-0.125 0.344-0.188 0.531-0.188s0.365 0.063 0.531 0.188l4.063 4.125 4.062-4.125c0.167-0.125 0.355-0.188 0.563-0.188s0.375 0.063 0.5 0.188l2.5 2.5c0.125 0.167 0.187 0.344 0.187 0.531s-0.062 0.365-0.187 0.531l-4.125 4.063 4.125 4.062z"></path>
</svg>
