<!-- Generated by IcoMoon.io -->
<svg version="1.1" xmlns="http://www.w3.org/2000/svg" width="32" height="32" viewBox="0 0 32 32">
<title>times</title>
<path d="M20.188 16l6.25-6.25c0.375-0.375 0.562-0.833 0.562-1.375s-0.188-1.021-0.563-1.438l-1.375-1.375c-0.416-0.375-0.895-0.562-1.437-0.562s-1 0.188-1.375 0.563l-6.25 6.25-6.25-6.25c-0.375-0.375-0.833-0.563-1.375-0.563s-1.021 0.188-1.438 0.563l-1.375 1.375c-0.375 0.416-0.562 0.895-0.562 1.437s0.188 1 0.563 1.375l6.25 6.25-6.25 6.25c-0.375 0.375-0.563 0.833-0.563 1.375s0.188 1.021 0.563 1.438l1.375 1.375c0.416 0.375 0.895 0.562 1.437 0.562s1-0.188 1.375-0.563l6.25-6.25 6.25 6.25c0.375 0.375 0.833 0.563 1.375 0.563s1.021-0.188 1.438-0.563l1.375-1.375c0.375-0.416 0.562-0.895 0.562-1.437s-0.188-1-0.563-1.375l-6.25-6.25z"></path>
</svg>
