<!-- Generated by IcoMoon.io -->
<svg version="1.1" xmlns="http://www.w3.org/2000/svg" width="32" height="32" viewBox="0 0 32 32">
<title>times-circle-o</title>
<path d="M16 0.5c-2.792 0-5.375 0.698-7.75 2.094s-4.26 3.281-5.656 5.656c-1.396 2.375-2.094 4.958-2.094 7.75s0.698 5.375 2.094 7.75c1.396 2.375 3.281 4.26 5.656 5.656s4.958 2.094 7.75 2.094c2.792 0 5.375-0.698 7.75-2.094s4.26-3.281 5.656-5.656c1.396-2.375 2.094-4.958 2.094-7.75s-0.698-5.375-2.094-7.75c-1.396-2.375-3.281-4.26-5.656-5.656s-4.958-2.094-7.75-2.094zM16 28.5c-2.25 0-4.333-0.563-6.25-1.688s-3.438-2.645-4.563-4.562c-1.125-1.917-1.687-4-1.687-6.25s0.563-4.333 1.688-6.25c1.125-1.917 2.645-3.438 4.562-4.563s4-1.687 6.25-1.687c2.25 0 4.333 0.563 6.25 1.688s3.438 2.645 4.563 4.562c1.125 1.917 1.687 4 1.687 6.25s-0.563 4.333-1.688 6.25c-1.125 1.917-2.645 3.438-4.562 4.563s-4 1.687-6.25 1.687zM22.375 12.125c0.125-0.167 0.188-0.354 0.188-0.563 0-0.208-0.063-0.374-0.188-0.499l-1.438-1.438c-0.125-0.125-0.291-0.187-0.5-0.187-0.208 0-0.395 0.062-0.562 0.187l-3.875 3.875-3.875-3.875c-0.167-0.125-0.354-0.187-0.563-0.187-0.208 0-0.374 0.062-0.499 0.187l-1.438 1.438c-0.125 0.125-0.187 0.291-0.187 0.5s0.062 0.395 0.187 0.562l3.875 3.875-3.875 3.875c-0.125 0.167-0.187 0.354-0.187 0.563 0 0.208 0.062 0.375 0.187 0.5l1.438 1.437c0.125 0.125 0.291 0.188 0.5 0.188s0.395-0.063 0.562-0.188l3.875-3.875 3.875 3.875c0.167 0.125 0.354 0.188 0.563 0.188 0.208 0 0.375-0.063 0.5-0.188l1.437-1.438c0.125-0.125 0.188-0.291 0.188-0.5 0-0.208-0.063-0.395-0.188-0.562l-3.875-3.875 3.875-3.875z"></path>
</svg>
