<!-- Generated by IcoMoon.io -->
<svg version="1.1" xmlns="http://www.w3.org/2000/svg" width="32" height="32" viewBox="0 0 32 32">
<title>toolbox</title>
<path d="M31.438 13.438l-2.876-2.876c-0.375-0.375-0.833-0.562-1.375-0.562h-3.187v-5c0-0.833-0.292-1.542-0.875-2.125s-1.292-0.875-2.125-0.875h-10c-0.833 0-1.542 0.292-2.125 0.875s-0.875 1.292-0.875 2.125v5h-3.188c-0.541 0-0.999 0.187-1.374 0.562l-2.875 2.875c-0.375 0.375-0.563 0.834-0.563 1.375v5.188h8v-1c0-0.292 0.094-0.531 0.281-0.719 0.188-0.187 0.427-0.281 0.719-0.281h2c0.292 0 0.531 0.094 0.719 0.281 0.187 0.188 0.281 0.427 0.281 0.719v1h8v-1c0-0.292 0.094-0.531 0.281-0.719 0.188-0.187 0.427-0.281 0.719-0.281h2c0.292 0 0.531 0.094 0.719 0.281 0.187 0.188 0.281 0.427 0.281 0.719v1h8v-5.188c0-0.541-0.188-1-0.563-1.375zM20.001 10.001h-8v-4h8v4zM24.001 23.001c0 0.292-0.094 0.531-0.281 0.719-0.188 0.187-0.427 0.281-0.719 0.281h-2c-0.292 0-0.531-0.094-0.719-0.281-0.187-0.188-0.281-0.427-0.281-0.719v-1h-8v1c0 0.292-0.094 0.531-0.281 0.719-0.188 0.187-0.427 0.281-0.719 0.281h-2c-0.292 0-0.531-0.094-0.719-0.281-0.187-0.188-0.281-0.427-0.281-0.719v-1h-8v6c0 0.542 0.198 1.010 0.594 1.406s0.864 0.594 1.406 0.594h28c0.542 0 1.010-0.198 1.406-0.594s0.594-0.864 0.594-1.406v-6h-8v1z"></path>
</svg>
