<!-- Generated by IcoMoon.io -->
<svg version="1.1" xmlns="http://www.w3.org/2000/svg" width="32" height="32" viewBox="0 0 32 32">
<title>trash-alt</title>
<path d="M2 5.25v-1.75c0-0.417 0.146-0.771 0.438-1.063 0.291-0.291 0.645-0.437 1.062-0.437h7l0.563-1.188c0.124-0.25 0.312-0.447 0.562-0.593s0.521-0.219 0.813-0.219h7.124c0.292 0 0.563 0.073 0.813 0.219s0.438 0.343 0.563 0.593l0.562 1.188h7c0.417 0 0.771 0.146 1.063 0.437s0.437 0.646 0.437 1.063v1.75c0 0.208-0.073 0.385-0.219 0.531s-0.323 0.219-0.531 0.219h-26.5c-0.208 0-0.385-0.073-0.531-0.219s-0.219-0.323-0.219-0.531zM28 8.75v20.25c0 0.833-0.292 1.542-0.875 2.125s-1.292 0.875-2.125 0.875h-18c-0.833 0-1.542-0.292-2.125-0.875s-0.875-1.292-0.875-2.125v-20.25c0-0.208 0.073-0.385 0.219-0.531s0.323-0.219 0.531-0.219h22.5c0.208 0 0.385 0.073 0.531 0.219s0.219 0.323 0.219 0.531zM11 13c0-0.292-0.094-0.531-0.281-0.719s-0.427-0.281-0.719-0.281-0.531 0.094-0.719 0.281c-0.187 0.188-0.281 0.427-0.281 0.719v14c0 0.292 0.094 0.531 0.281 0.719 0.188 0.187 0.427 0.281 0.719 0.281s0.531-0.094 0.719-0.281c0.187-0.188 0.281-0.427 0.281-0.719v-14zM17 13c0-0.292-0.094-0.531-0.281-0.719-0.188-0.187-0.427-0.281-0.719-0.281s-0.531 0.094-0.719 0.281c-0.187 0.188-0.281 0.427-0.281 0.719v14c0 0.292 0.094 0.531 0.281 0.719 0.188 0.187 0.427 0.281 0.719 0.281s0.531-0.094 0.719-0.281c0.187-0.188 0.281-0.427 0.281-0.719v-14zM23 13c0-0.292-0.094-0.531-0.281-0.719-0.188-0.187-0.427-0.281-0.719-0.281s-0.531 0.094-0.719 0.281c-0.187 0.188-0.281 0.427-0.281 0.719v14c0 0.292 0.094 0.531 0.281 0.719 0.188 0.187 0.427 0.281 0.719 0.281s0.531-0.094 0.719-0.281c0.187-0.188 0.281-0.427 0.281-0.719v-14z"></path>
</svg>
