<!-- Generated by IcoMoon.io -->
<svg version="1.1" xmlns="http://www.w3.org/2000/svg" width="40" height="32" viewBox="0 0 40 32">
<title>tv</title>
<path d="M37 0h-34c-0.833 0-1.542 0.292-2.125 0.875s-0.875 1.292-0.875 2.125v20c0 0.833 0.292 1.542 0.875 2.125s1.292 0.875 2.125 0.875h15.313v2h-10c-0.542 0-1.011 0.198-1.407 0.594s-0.593 0.864-0.593 1.406c0 0.542 0.197 1.010 0.593 1.406s0.865 0.594 1.407 0.594h24c0.541 0 1.010-0.198 1.406-0.594s0.594-0.864 0.594-1.406c0-0.542-0.198-1.010-0.594-1.406s-0.865-0.594-1.406-0.594h-10v-2h14.687c0.833 0 1.542-0.292 2.125-0.875s0.875-1.292 0.875-2.125v-20c0-0.833-0.292-1.542-0.875-2.125s-1.292-0.875-2.125-0.875zM36 22h-32v-18h32v18z"></path>
</svg>
