<!-- Generated by IcoMoon.io -->
<svg version="1.1" xmlns="http://www.w3.org/2000/svg" width="32" height="32" viewBox="0 0 32 32">
<title>underline</title>
<path d="M16 24.25c-2.958 0-5.292-0.792-7-2.375-1.833-1.667-2.75-4.021-2.75-7.063v-10.812h-1.813c-0.25 0-0.479-0.094-0.687-0.281s-0.313-0.427-0.313-0.719l0.001-2c0-0.292 0.104-0.531 0.312-0.719s0.438-0.281 0.688-0.281h8.625c0.25 0 0.479 0.094 0.687 0.281s0.313 0.427 0.313 0.719v2c0 0.292-0.105 0.531-0.313 0.719s-0.437 0.281-0.687 0.281h-1.813v10.812c0 1.625 0.417 2.855 1.25 3.688s2 1.25 3.5 1.25c1.5 0 2.667-0.417 3.5-1.25s1.25-2.083 1.25-3.75v-10.75h-1.75c-0.292 0-0.531-0.094-0.719-0.281-0.187-0.188-0.281-0.427-0.281-0.719v-2c0-0.292 0.094-0.531 0.281-0.719 0.188-0.187 0.427-0.281 0.719-0.281h8.563c0.249 0 0.479 0.094 0.687 0.281s0.312 0.427 0.312 0.719v2c0 0.292-0.104 0.531-0.312 0.719s-0.438 0.281-0.688 0.281h-1.812v10.813c0 2.999-0.896 5.354-2.688 7.062-1.75 1.583-4.104 2.375-7.062 2.375zM3 28h26c0.292 0 0.531 0.094 0.719 0.281 0.187 0.188 0.281 0.427 0.281 0.719v2c0 0.292-0.094 0.531-0.281 0.719-0.188 0.187-0.427 0.281-0.719 0.281h-26c-0.292 0-0.531-0.094-0.719-0.281-0.187-0.188-0.281-0.427-0.281-0.719v-2c0-0.292 0.094-0.531 0.281-0.719 0.188-0.187 0.427-0.281 0.719-0.281z"></path>
</svg>
