<!-- Generated by IcoMoon.io -->
<svg version="1.1" xmlns="http://www.w3.org/2000/svg" width="32" height="32" viewBox="0 0 32 32">
<title>undo</title>
<path d="M13.5 14.25h-12.5c-0.208 0-0.385-0.073-0.531-0.219s-0.219-0.323-0.219-0.531v-12.5c0-0.208 0.073-0.385 0.219-0.531s0.323-0.219 0.531-0.219h3c0.208 0 0.385 0.073 0.531 0.219s0.219 0.323 0.219 0.531v4.875c1.458-1.625 3.198-2.885 5.219-3.781s4.156-1.344 6.406-1.344c2.833 0 5.427 0.698 7.781 2.094s4.209 3.281 5.563 5.656c1.354 2.375 2.031 4.969 2.031 7.781 0 2.813-0.698 5.396-2.094 7.75s-3.271 4.229-5.625 5.625c-2.354 1.396-4.948 2.094-7.781 2.094-1.958 0-3.833-0.354-5.625-1.063-1.792-0.708-3.375-1.687-4.75-2.937-0.167-0.167-0.25-0.354-0.25-0.563 0-0.208 0.063-0.395 0.188-0.562l2.125-2.125c0.166-0.125 0.343-0.188 0.531-0.188s0.364 0.063 0.531 0.188c0.958 0.875 2.063 1.552 3.313 2.031s2.562 0.719 3.937 0.719c2 0 3.844-0.49 5.531-1.469 1.688-0.979 3.021-2.312 4-4s1.469-3.531 1.469-5.531-0.49-3.844-1.469-5.531c-0.979-1.688-2.312-3.021-4-4s-3.531-1.469-5.531-1.469c-1.792 0-3.458 0.406-5 1.219-1.542 0.812-2.833 1.906-3.875 3.281h6.125c0.208 0 0.385 0.073 0.531 0.219s0.219 0.323 0.219 0.531v3c0 0.208-0.073 0.385-0.219 0.531s-0.323 0.219-0.531 0.219z"></path>
</svg>
