<!-- Generated by IcoMoon.io -->
<svg version="1.1" xmlns="http://www.w3.org/2000/svg" width="32" height="32" viewBox="0 0 32 32">
<title>universal-access</title>
<path d="M16 3c2.375 0 4.552 0.583 6.531 1.75s3.552 2.74 4.719 4.719c1.167 1.979 1.75 4.156 1.75 6.531s-0.583 4.552-1.75 6.531c-1.167 1.979-2.74 3.552-4.719 4.719s-4.156 1.75-6.531 1.75c-2.375 0-4.552-0.583-6.531-1.75s-3.552-2.74-4.719-4.719c-1.167-1.979-1.75-4.156-1.75-6.531s0.583-4.552 1.75-6.531c1.167-1.979 2.74-3.552 4.719-4.719s4.156-1.75 6.531-1.75zM16 0.5c-2.792 0-5.375 0.698-7.75 2.094s-4.26 3.281-5.656 5.656c-1.396 2.375-2.094 4.958-2.094 7.75s0.698 5.375 2.094 7.75c1.396 2.375 3.281 4.26 5.656 5.656s4.958 2.094 7.75 2.094c2.792 0 5.375-0.698 7.75-2.094s4.26-3.281 5.656-5.656c1.396-2.375 2.094-4.958 2.094-7.75s-0.698-5.375-2.094-7.75c-1.396-2.375-3.281-4.26-5.656-5.656s-4.958-2.094-7.75-2.094zM16 4c-2.167 0-4.167 0.542-6 1.625s-3.292 2.542-4.375 4.375c-1.083 1.833-1.625 3.833-1.625 6s0.542 4.167 1.625 6c1.083 1.833 2.542 3.292 4.375 4.375s3.833 1.625 6 1.625c2.167 0 4.167-0.542 6-1.625s3.292-2.542 4.375-4.375c1.083-1.833 1.625-3.833 1.625-6s-0.542-4.167-1.625-6c-1.083-1.833-2.542-3.292-4.375-4.375s-3.833-1.625-6-1.625zM16 6.75c0.625 0 1.156 0.219 1.594 0.656 0.437 0.438 0.656 0.969 0.656 1.594s-0.219 1.156-0.656 1.594c-0.438 0.437-0.969 0.656-1.594 0.656s-1.156-0.219-1.594-0.656c-0.437-0.438-0.656-0.969-0.656-1.594s0.219-1.156 0.656-1.594c0.438-0.437 0.969-0.656 1.594-0.656zM23.375 12.875c-2.208 0.5-3.917 0.833-5.125 1 0 2.625 0.146 4.688 0.438 6.188 0.166 0.916 0.479 1.958 0.937 3.125l0.188 0.375c0.083 0.291 0.062 0.583-0.063 0.875-0.125 0.291-0.333 0.489-0.625 0.593s-0.573 0.094-0.844-0.031c-0.271-0.125-0.468-0.313-0.593-0.563l-0.188-0.437c-0.292-0.792-0.521-1.438-0.688-1.938-0.208-0.75-0.375-1.604-0.5-2.562h-0.625c-0.125 0.958-0.291 1.813-0.5 2.563-0.166 0.5-0.395 1.145-0.687 1.937l-0.188 0.438c-0.125 0.25-0.322 0.437-0.593 0.562s-0.552 0.135-0.844 0.031c-0.292-0.104-0.5-0.302-0.625-0.593-0.125-0.292-0.146-0.584-0.063-0.875l0.188-0.375c0.458-1.167 0.771-2.209 0.937-3.125 0.292-1.5 0.438-3.563 0.438-6.188-1.208-0.167-2.917-0.5-5.125-1-0.25-0.083-0.448-0.24-0.594-0.469s-0.187-0.479-0.125-0.75c0.063-0.271 0.209-0.479 0.438-0.625s0.489-0.177 0.781-0.094c2.083 0.5 3.708 0.813 4.875 0.938 1.333 0.167 2.667 0.167 4 0 1.167-0.125 2.792-0.438 4.875-0.938 0.292-0.083 0.552-0.052 0.781 0.094s0.375 0.354 0.438 0.625c0.062 0.271 0.021 0.531-0.125 0.781s-0.344 0.396-0.594 0.438z"></path>
</svg>
