<!-- Generated by IcoMoon.io -->
<svg version="1.1" xmlns="http://www.w3.org/2000/svg" width="32" height="32" viewBox="0 0 32 32">
<title>unlink</title>
<path d="M16.5 22.875c-0.125-0.125-0.292-0.187-0.5-0.187s-0.375 0.062-0.5 0.187l-2.812 2.813c-0.875 0.875-1.938 1.312-3.188 1.312s-2.312-0.437-3.187-1.312c-0.875-0.875-1.313-1.938-1.313-3.188s0.438-2.312 1.313-3.187l2.812-2.813c0.125-0.125 0.188-0.292 0.188-0.5s-0.063-0.375-0.188-0.5l-2.5-2.5c-0.125-0.167-0.292-0.25-0.5-0.25s-0.396 0.083-0.562 0.25l-2.813 2.813c-1.208 1.208-2.021 2.625-2.437 4.25-0.417 1.625-0.417 3.25 0 4.875 0.416 1.625 1.239 3.052 2.468 4.281s2.657 2.052 4.282 2.469c1.625 0.416 3.25 0.416 4.875 0 1.625-0.417 3.041-1.23 4.25-2.438l2.812-2.812c0.167-0.167 0.25-0.355 0.25-0.563s-0.083-0.375-0.25-0.5l-2.5-2.5zM15.5 9.125c0.125 0.125 0.292 0.188 0.5 0.188s0.375-0.063 0.5-0.188l2.813-2.812c0.875-0.875 1.937-1.313 3.187-1.313s2.313 0.438 3.188 1.313c0.875 0.875 1.312 1.937 1.312 3.187s-0.437 2.313-1.312 3.188l-2.813 2.812c-0.125 0.125-0.187 0.292-0.187 0.5s0.062 0.375 0.187 0.5l2.5 2.5c0.125 0.167 0.292 0.25 0.5 0.25s0.396-0.083 0.563-0.25l2.812-2.812c1.208-1.209 2.021-2.625 2.438-4.25s0.416-3.25 0-4.875c-0.417-1.625-1.24-3.053-2.469-4.282s-2.656-2.052-4.281-2.468c-1.625-0.417-3.25-0.417-4.875 0-1.625 0.416-3.042 1.229-4.25 2.437l-2.813 2.813c-0.167 0.166-0.25 0.354-0.25 0.562s0.083 0.375 0.25 0.5l2.5 2.5zM30.125 31.563l1.438-1.438c0.291-0.292 0.437-0.646 0.437-1.062 0-0.417-0.146-0.771-0.437-1.063l-27.563-27.562c-0.292-0.292-0.646-0.438-1.062-0.438s-0.771 0.146-1.063 0.438l-1.437 1.437c-0.292 0.292-0.438 0.646-0.438 1.063s0.146 0.77 0.438 1.062l27.562 27.563c0.292 0.291 0.646 0.437 1.063 0.437s0.77-0.146 1.062-0.437z"></path>
</svg>
