<!-- Generated by IcoMoon.io -->
<svg version="1.1" xmlns="http://www.w3.org/2000/svg" width="32" height="32" viewBox="0 0 32 32">
<title>upload</title>
<path d="M18.5 24h-5c-0.417 0-0.771-0.146-1.062-0.437-0.292-0.292-0.438-0.646-0.438-1.063v-10.5h-5.5c-0.542 0-0.917-0.26-1.125-0.781s-0.125-0.969 0.25-1.344l9.5-9.5c0.25-0.25 0.542-0.375 0.875-0.375s0.625 0.125 0.875 0.375l9.5 9.5c0.375 0.375 0.458 0.823 0.25 1.344s-0.583 0.781-1.125 0.781h-5.5v10.5c0 0.417-0.146 0.771-0.437 1.063-0.292 0.291-0.646 0.437-1.063 0.437zM32 23.5v7c0 0.417-0.146 0.771-0.437 1.063-0.292 0.291-0.646 0.437-1.063 0.437h-29c-0.417 0-0.771-0.146-1.062-0.437-0.292-0.292-0.438-0.646-0.438-1.063v-7c0-0.417 0.146-0.771 0.438-1.062 0.291-0.292 0.645-0.438 1.062-0.438h8.5v0.5c0 0.958 0.344 1.781 1.031 2.469 0.688 0.687 1.511 1.031 2.469 1.031h5c0.958 0 1.781-0.344 2.469-1.031 0.687-0.688 1.031-1.511 1.031-2.469v-0.5h8.5c0.417 0 0.771 0.146 1.063 0.438s0.437 0.645 0.437 1.062zM24.25 29c0-0.333-0.125-0.625-0.375-0.875s-0.542-0.375-0.875-0.375c-0.333 0-0.625 0.125-0.875 0.375s-0.375 0.542-0.375 0.875c0 0.333 0.125 0.625 0.375 0.875s0.542 0.375 0.875 0.375c0.333 0 0.625-0.125 0.875-0.375s0.375-0.542 0.375-0.875zM28.25 29c0-0.333-0.125-0.625-0.375-0.875s-0.542-0.375-0.875-0.375c-0.333 0-0.625 0.125-0.875 0.375s-0.375 0.542-0.375 0.875c0 0.333 0.125 0.625 0.375 0.875s0.542 0.375 0.875 0.375c0.333 0 0.625-0.125 0.875-0.375s0.375-0.542 0.375-0.875z"></path>
</svg>
