<!-- Generated by IcoMoon.io -->
<svg version="1.1" xmlns="http://www.w3.org/2000/svg" width="40" height="32" viewBox="0 0 40 32">
<title>users-cog</title>
<path d="M38.182 21.313c0.125-0.875 0.104-1.75-0.062-2.625l1.625-0.938c0.208-0.125 0.291-0.313 0.25-0.563-0.417-1.333-1.125-2.52-2.125-3.562-0.167-0.167-0.354-0.188-0.563-0.063l-1.562 0.876c-0.709-0.584-1.479-1.021-2.313-1.313v-1.875c0-0.25-0.125-0.396-0.375-0.437-1.375-0.292-2.75-0.292-4.125 0-0.25 0.041-0.375 0.187-0.375 0.437v1.875c-0.833 0.292-1.604 0.729-2.312 1.313l-1.625-0.938c-0.209-0.083-0.396-0.042-0.563 0.125-0.958 1.042-1.646 2.229-2.062 3.563-0.042 0.25 0.041 0.437 0.25 0.562l1.562 0.938c-0.166 0.875-0.166 1.75 0 2.625l-1.562 0.937c-0.25 0.125-0.334 0.313-0.25 0.563 0.416 1.333 1.104 2.52 2.062 3.562 0.167 0.167 0.354 0.188 0.563 0.063l1.625-0.875c0.708 0.583 1.479 1.020 2.312 1.312v1.875c0 0.25 0.125 0.396 0.375 0.438 1.375 0.291 2.75 0.291 4.125 0 0.25-0.042 0.375-0.188 0.375-0.438v-1.875c0.834-0.292 1.604-0.729 2.313-1.313l1.562 0.875c0.209 0.125 0.396 0.105 0.563-0.062 1-1.042 1.708-2.229 2.125-3.563 0.041-0.25-0.042-0.437-0.25-0.562l-1.563-0.938zM30.995 23.001c-0.834 0-1.542-0.292-2.125-0.875-0.584-0.583-0.886-1.292-0.906-2.125-0.021-0.833 0.27-1.542 0.875-2.125 0.604-0.583 1.322-0.875 2.156-0.875 0.833 0 1.541 0.292 2.125 0.875 0.583 0.583 0.885 1.292 0.906 2.125s-0.271 1.542-0.875 2.125c-0.604 0.583-1.323 0.875-2.156 0.875zM5.995 14.001c1.083 0 2.021-0.396 2.812-1.188s1.188-1.729 1.188-2.812-0.396-2.021-1.188-2.813c-0.791-0.791-1.729-1.187-2.812-1.187-1.084 0-2.021 0.396-2.813 1.188-0.791 0.791-1.187 1.729-1.187 2.812s0.396 2.021 1.187 2.813c0.792 0.791 1.729 1.187 2.813 1.187zM19.995 16.001c0.041 0 0.104 0 0.187 0l0.188-0.063c0.541-1.416 1.291-2.645 2.25-3.687 0.5-0.5 1.104-0.75 1.812-0.75 0.417 0 0.813 0.104 1.188 0.313l0.5 0.249 0.187-0.062c0.459-0.958 0.688-1.958 0.688-3 0-1.25-0.313-2.417-0.938-3.5s-1.479-1.938-2.562-2.563c-1.084-0.625-2.261-0.937-3.531-0.937-1.271 0-2.438 0.312-3.5 0.937s-1.907 1.48-2.532 2.563-0.937 2.25-0.937 3.5c0 1.25 0.312 2.417 0.937 3.5s1.479 1.937 2.563 2.562c1.083 0.625 2.25 0.938 3.5 0.938zM26.557 28.126c-0.083 0-0.187-0.063-0.312-0.188h-0.125l-0.125 0.063c-0.584 0.333-1.104 0.5-1.563 0.5-0.708 0-1.312-0.25-1.812-0.75-1.167-1.292-2-2.75-2.5-4.375-0.292-0.833-0.146-1.583 0.437-2.25 0.292-0.333 0.667-0.625 1.125-0.875h0.063v-0.5l-0.5-0.313c-0.25-0.125-0.459-0.291-0.625-0.5l-0.625 0.063c-1.459 0-2.875-0.333-4.25-1h-0.563c-1.291 0-2.489 0.323-3.593 0.969s-1.98 1.521-2.625 2.625c-0.646 1.104-0.969 2.302-0.969 3.593v1.813c0 0.833 0.291 1.542 0.875 2.125 0.583 0.583 1.291 0.875 2.125 0.875h15.937c-0.25-0.417-0.375-0.833-0.375-1.25v-0.625zM10.807 17.188c-0.791-0.791-1.729-1.187-2.812-1.187h-4c-1.084 0-2.021 0.396-2.813 1.188-0.791 0.791-1.187 1.729-1.187 2.812v2c0 0.542 0.198 1.010 0.594 1.406 0.395 0.396 0.864 0.594 1.406 0.594h4.125c0.208-1.458 0.729-2.792 1.562-4 0.834-1.208 1.875-2.146 3.125-2.813z"></path>
</svg>
