<!-- Generated by IcoMoon.io -->
<svg version="1.1" xmlns="http://www.w3.org/2000/svg" width="32" height="32" viewBox="0 0 32 32">
<title>user-o</title>
<path d="M21.625 19c-0.542 0-1.25 0.146-2.125 0.438-0.583 0.166-1.062 0.291-1.437 0.375-0.625 0.125-1.313 0.187-2.063 0.187s-1.437-0.062-2.062-0.187c-0.375-0.084-0.855-0.209-1.438-0.375-0.875-0.292-1.583-0.438-2.125-0.438-1.5 0-2.896 0.375-4.187 1.125s-2.313 1.771-3.063 3.063c-0.75 1.291-1.125 2.687-1.125 4.187v1.625c0 0.833 0.292 1.542 0.875 2.125s1.292 0.875 2.125 0.875h22c0.833 0 1.542-0.292 2.125-0.875s0.875-1.292 0.875-2.125v-1.625c0-1.5-0.375-2.896-1.125-4.187-0.75-1.292-1.771-2.313-3.062-3.063-1.292-0.75-2.688-1.125-4.188-1.125zM27 29h-22v-1.625c0-1.458 0.531-2.719 1.594-3.781 1.062-1.063 2.323-1.594 3.781-1.594 0.208 0 0.625 0.083 1.25 0.25 1.542 0.5 3.010 0.75 4.406 0.75s2.844-0.25 4.344-0.75c0.583-0.167 1-0.25 1.25-0.25 1.458 0 2.719 0.531 3.781 1.594 1.063 1.062 1.594 2.323 1.594 3.781v1.625zM16 18c1.625 0 3.125-0.406 4.5-1.219 1.375-0.812 2.469-1.906 3.281-3.281 0.813-1.375 1.219-2.875 1.219-4.5s-0.406-3.125-1.219-4.5c-0.812-1.375-1.906-2.469-3.281-3.281s-2.875-1.219-4.5-1.219-3.125 0.406-4.5 1.219c-1.375 0.812-2.469 1.906-3.281 3.281s-1.219 2.875-1.219 4.5 0.406 3.125 1.219 4.5c0.812 1.375 1.906 2.469 3.281 3.281s2.875 1.219 4.5 1.219zM16 3c1.667 0 3.083 0.583 4.25 1.75s1.75 2.583 1.75 4.25c0 1.667-0.583 3.083-1.75 4.25s-2.583 1.75-4.25 1.75c-1.667 0-3.083-0.583-4.25-1.75s-1.75-2.583-1.75-4.25c0-1.667 0.583-3.083 1.75-4.25s2.583-1.75 4.25-1.75z"></path>
</svg>
