<!-- Generated by IcoMoon.io -->
<svg version="1.1" xmlns="http://www.w3.org/2000/svg" width="32" height="32" viewBox="0 0 32 32">
<title>user-tie</title>
<path d="M16 16c1.458 0 2.802-0.354 4.031-1.063 1.229-0.708 2.198-1.677 2.907-2.906 0.708-1.229 1.062-2.573 1.062-4.031s-0.354-2.802-1.063-4.031c-0.708-1.229-1.677-2.198-2.906-2.906s-2.573-1.063-4.031-1.063-2.802 0.354-4.031 1.063c-1.229 0.708-2.198 1.677-2.907 2.906s-1.062 2.573-1.062 4.031 0.354 2.802 1.062 4.031c0.709 1.229 1.678 2.198 2.907 2.907s2.573 1.062 4.031 1.062zM22 18.063l-3 11.937-2-8.5 2-3.5h-6l2 3.5-2 8.5-3-11.938c-1.458 0.042-2.802 0.448-4.031 1.219s-2.198 1.782-2.907 3.032c-0.708 1.25-1.062 2.604-1.062 4.062v2.625c0 0.833 0.292 1.542 0.875 2.125s1.292 0.875 2.125 0.875h22c0.833 0 1.542-0.292 2.125-0.875s0.875-1.292 0.875-2.125v-2.625c0-1.458-0.354-2.813-1.063-4.063-0.708-1.25-1.677-2.26-2.906-3.031s-2.573-1.177-4.031-1.219z"></path>
</svg>
