<!-- Generated by IcoMoon.io -->
<svg version="1.1" xmlns="http://www.w3.org/2000/svg" width="40" height="32" viewBox="0 0 40 32">
<title>user-slash-o</title>
<path d="M29 32h-22c-0.833 0-1.542-0.292-2.125-0.875s-0.875-1.292-0.875-2.125v-1.625c0-1.5 0.375-2.896 1.125-4.188s1.771-2.312 3.063-3.062c1.291-0.75 2.687-1.125 4.187-1.125 0.542 0 1.25 0.146 2.125 0.438 0.105 0.030 0.207 0.058 0.306 0.086l4.432 3.415c-0.407 0.041-0.809 0.061-1.207 0.061-1.396 0-2.864-0.25-4.406-0.75-0.625-0.167-1.042-0.25-1.25-0.25-1.458 0-2.719 0.531-3.781 1.594-1.063 1.062-1.594 2.323-1.594 3.781v1.625h20.103l3.392 2.614c-0.443 0.257-0.941 0.386-1.495 0.386zM39.655 28.623c0.419 0.341 0.493 0.956 0.161 1.387-0.373 0.483-0.848 1.1-1.221 1.584-0.337 0.437-0.965 0.519-1.402 0.181-4.976-3.834-31.868-24.557-36.844-28.392-0.437-0.337-0.519-0.965-0.181-1.402 0.372-0.484 0.847-1.101 1.22-1.585 0.337-0.437 0.965-0.518 1.403-0.181l8.488 6.54c0.202-0.786 0.516-1.537 0.94-2.255 0.812-1.375 1.906-2.469 3.281-3.281s2.875-1.219 4.5-1.219 3.125 0.406 4.5 1.219c1.375 0.812 2.469 1.906 3.281 3.281 0.813 1.375 1.219 2.875 1.219 4.5s-0.406 3.125-1.219 4.5c-0.812 1.375-1.906 2.469-3.281 3.281-0.040 0.024-0.080 0.047-0.121 0.070l15.276 11.772zM21.733 14.765c0.939-0.271 1.778-0.776 2.517-1.515 1.167-1.167 1.75-2.583 1.75-4.25s-0.583-3.083-1.75-4.25c-1.167-1.167-2.583-1.75-4.25-1.75s-3.083 0.583-4.25 1.75c-1.132 1.132-1.715 2.5-1.748 4.104l7.686 5.923 0.045-0.012z"></path>
</svg>
