<!-- Generated by IcoMoon.io -->
<svg version="1.1" xmlns="http://www.w3.org/2000/svg" width="40" height="32" viewBox="0 0 40 32">
<title>users-tag</title>
<path d="M29 30h-18c-0.833 0-1.542-0.292-2.125-0.875s-0.875-1.292-0.875-2.125v-1.813c0-1.291 0.323-2.489 0.969-3.593s1.521-1.979 2.625-2.625c1.104-0.646 2.302-0.969 3.594-0.969h0.5c1.416 0.667 2.854 1 4.312 1 0.671 0 1.338-0.071 2-0.212v0.285c0 0 0.069 0.89 0.162 1.326 0.355 1.677 1.548 2.763 1.548 2.763l5.29 5.338c0 0 0.569 0.669 1.494 1.114-0.442 0.257-0.941 0.386-1.494 0.386zM30.938 12c1.125 0 2.062 0.396 2.812 1.188l5.688 5.624c0.375 0.375 0.562 0.844 0.562 1.407s-0.187 1.031-0.562 1.406l-5.813 5.813c-0.375 0.375-0.844 0.562-1.406 0.562-0.563 0-1.031-0.188-1.406-0.563l-5.688-5.687c-0.75-0.75-1.125-1.688-1.125-2.813v-4.937c0-0.542 0.188-1.010 0.563-1.406 0.374-0.396 0.854-0.594 1.437-0.594h4.938zM8 16c1.083 0 2.021 0.396 2.813 1.188-1.25 0.666-2.292 1.604-3.125 2.812s-1.355 2.542-1.563 4h-4.125c-0.542 0-1.010-0.198-1.406-0.594s-0.594-0.864-0.594-1.406v-2c0-1.083 0.396-2.021 1.188-2.813 0.791-0.791 1.729-1.187 2.812-1.187h4zM28 17.5c-0.417 0-0.771-0.146-1.062-0.438-0.292-0.291-0.438-0.645-0.438-1.062s0.146-0.771 0.438-1.063c0.291-0.291 0.645-0.437 1.062-0.437s0.771 0.146 1.063 0.438c0.291 0.291 0.437 0.645 0.437 1.062s-0.146 0.771-0.437 1.063c-0.292 0.291-0.646 0.437-1.063 0.437zM22 15.712c-0.641 0.192-1.308 0.288-2 0.288-1.25 0-2.417-0.313-3.5-0.938s-1.937-1.479-2.562-2.562-0.938-2.25-0.938-3.5c0-1.25 0.313-2.417 0.938-3.5s1.479-1.938 2.562-2.563c1.083-0.624 2.25-0.937 3.5-0.937s2.417 0.313 3.5 0.938c1.083 0.625 1.938 1.479 2.563 2.562s0.937 2.25 0.937 3.5c0 0.338-0.023 0.671-0.069 0.997-0.557 0.001-0.931 0.003-0.931 0.003s-1.735-0.076-3 1.264c-1.022 1.082-1 2.736-1 2.736v1.712zM6 14c1.083 0 2.021-0.396 2.813-1.188s1.187-1.729 1.187-2.812-0.396-2.021-1.187-2.813c-0.792-0.791-1.73-1.187-2.813-1.187s-2.021 0.396-2.812 1.188c-0.792 0.791-1.188 1.729-1.188 2.812s0.396 2.021 1.188 2.813c0.791 0.791 1.729 1.187 2.812 1.187z"></path>
</svg>
