<!-- Generated by IcoMoon.io -->
<svg version="1.1" xmlns="http://www.w3.org/2000/svg" width="40" height="32" viewBox="0 0 40 32">
<title>user-lock</title>
<path d="M20 20c0-0.667 0.167-1.292 0.5-1.875l-0.312-0.063c-0.25-0.041-0.438-0.062-0.563-0.062h-1.062c-1.459 0.667-2.98 1-4.563 1s-3.104-0.333-4.562-1h-1.063c-1.5 0-2.896 0.375-4.187 1.125s-2.313 1.771-3.063 3.063c-0.75 1.291-1.125 2.687-1.125 4.187v2.625c0 0.833 0.292 1.542 0.875 2.125s1.292 0.875 2.125 0.875h17.563c-0.375-0.625-0.563-1.292-0.563-2v-10zM14 16c1.458 0 2.802-0.354 4.031-1.063 1.229-0.708 2.198-1.677 2.907-2.906 0.708-1.229 1.062-2.573 1.062-4.031s-0.354-2.802-1.062-4.031c-0.709-1.229-1.678-2.198-2.907-2.906s-2.573-1.063-4.031-1.063-2.802 0.354-4.031 1.063c-1.229 0.708-2.198 1.677-2.906 2.906s-1.063 2.573-1.063 4.031 0.354 2.802 1.063 4.031c0.708 1.229 1.677 2.198 2.906 2.907s2.573 1.062 4.031 1.062zM38 18h-2v-3c0-1.375-0.49-2.552-1.469-3.531s-2.156-1.469-3.531-1.469c-1.375 0-2.552 0.49-3.531 1.469s-1.469 2.156-1.469 3.531v3h-2c-0.542 0-1.010 0.198-1.406 0.594s-0.594 0.864-0.594 1.406v10c0 0.542 0.198 1.010 0.594 1.406s0.864 0.594 1.406 0.594h14c0.542 0 1.010-0.198 1.406-0.594s0.594-0.864 0.594-1.406v-10c0-0.542-0.198-1.010-0.594-1.406s-0.864-0.594-1.406-0.594zM33 18h-4v-3c0-0.542 0.198-1.010 0.594-1.406s0.864-0.594 1.406-0.594c0.542 0 1.010 0.198 1.406 0.594s0.594 0.864 0.594 1.406v3z"></path>
</svg>
