<!-- Generated by IcoMoon.io -->
<svg version="1.1" xmlns="http://www.w3.org/2000/svg" width="40" height="32" viewBox="0 0 40 32">
<title>user-unlock</title>
<path d="M9.438 18c1.458 0.667 2.979 1 4.562 1s3.104-0.333 4.563-1h1.062c0.125 0 0.313 0.021 0.563 0.063l0.312 0.062c-0.333 0.583-0.5 1.208-0.5 1.875v10c0 0.708 0.187 1.375 0.563 2h-17.563c-0.833 0-1.542-0.292-2.125-0.875s-0.875-1.292-0.875-2.125v-2.625c0-1.5 0.375-2.896 1.125-4.188s1.771-2.312 3.063-3.062c1.291-0.75 2.687-1.125 4.187-1.125h1.063zM37.9 32h-13.8c-1.159 0-2.1-0.941-2.1-2.1v-9.8c0-1.159 0.941-2.1 2.1-2.1h1.9v-3c0-0.854 0.302-1.865 0.744-2.594s1.036-1.312 1.78-1.75c0.744-0.437 1.564-0.656 2.46-0.656 0.895 0 1.721 0.214 2.476 0.641s1.324 1.024 1.796 1.734c0.752 1.133 0.744 2.625 0.744 2.625 0 0.208-0.076 0.385-0.227 0.531s-0.334 0.219-0.55 0.219h-1.446c-0.216 0-0.399-0.073-0.55-0.219s-0.227-0.323-0.227-0.531c0 0-0.003-0.863-0.6-1.4-0.474-0.426-0.78-0.6-1.416-0.6-0.637 0-0.931 0.152-1.384 0.6s-0.6 0.775-0.6 1.4v3h8.9c1.159 0 2.1 0.941 2.1 2.1v9.8c0 1.159-0.941 2.1-2.1 2.1zM14 16c1.458 0 2.802-0.354 4.031-1.063 1.229-0.708 2.198-1.677 2.907-2.906 0.708-1.229 1.062-2.573 1.062-4.031s-0.354-2.802-1.062-4.031c-0.709-1.229-1.678-2.198-2.907-2.906s-2.573-1.063-4.031-1.063-2.802 0.354-4.031 1.063c-1.229 0.708-2.198 1.677-2.906 2.906s-1.063 2.573-1.063 4.031 0.354 2.802 1.063 4.031c0.708 1.229 1.677 2.198 2.906 2.907s2.573 1.062 4.031 1.062z"></path>
</svg>
