<!-- Generated by IcoMoon.io -->
<svg version="1.1" xmlns="http://www.w3.org/2000/svg" width="40" height="32" viewBox="0 0 40 32">
<title>user-slash</title>
<path d="M39.625 28.637l-15.25-11.812c1.375-0.792 2.49-1.875 3.344-3.25s1.281-2.885 1.281-4.531c0-1.646-0.406-3.157-1.219-4.532-0.812-1.375-1.906-2.468-3.281-3.281-1.375-0.812-2.875-1.219-4.5-1.219-2.083 0-3.927 0.636-5.531 1.907s-2.657 2.885-3.157 4.843l-8.437-6.562c-0.25-0.167-0.51-0.229-0.781-0.188s-0.49 0.167-0.657 0.375l-1.25 1.563c-0.166 0.25-0.229 0.51-0.187 0.781s0.167 0.49 0.375 0.656l36.813 28.375c0.208 0.209 0.447 0.292 0.718 0.25 0.271-0.041 0.49-0.166 0.656-0.375l1.25-1.625c0.167-0.208 0.23-0.447 0.188-0.718s-0.167-0.49-0.375-0.657zM12.375 20.012c-1.5 0-2.896 0.375-4.188 1.125s-2.312 1.771-3.062 3.063-1.125 2.687-1.125 4.187v0.625c0 0.834 0.292 1.542 0.875 2.125 0.583 0.584 1.292 0.875 2.125 0.875h23.875l-15.5-12h-3z"></path>
</svg>
