<!-- Generated by IcoMoon.io -->
<svg version="1.1" xmlns="http://www.w3.org/2000/svg" width="40" height="32" viewBox="0 0 40 32">
<title>user-edit</title>
<path d="M14 16c1.458 0 2.802-0.354 4.031-1.063 1.229-0.708 2.198-1.677 2.907-2.906 0.708-1.229 1.062-2.573 1.062-4.031s-0.354-2.802-1.062-4.031c-0.709-1.229-1.678-2.198-2.907-2.906s-2.573-1.063-4.031-1.063-2.802 0.354-4.031 1.063c-1.229 0.708-2.198 1.677-2.906 2.906s-1.063 2.573-1.063 4.031 0.354 2.802 1.063 4.031c0.708 1.229 1.677 2.198 2.906 2.907s2.573 1.062 4.031 1.062zM19.625 18h-1.062c-1.459 0.667-2.98 1-4.563 1s-3.104-0.333-4.562-1h-1.063c-1.5 0-2.896 0.375-4.187 1.125s-2.313 1.771-3.063 3.063c-0.75 1.291-1.125 2.687-1.125 4.187v2.625c0 0.833 0.292 1.542 0.875 2.125s1.292 0.875 2.125 0.875h17.188c-0.167-0.458-0.23-0.896-0.188-1.313l0.5-4.5 5.375-5.375c-0.792-0.875-1.729-1.562-2.812-2.062s-2.23-0.75-3.438-0.75zM22.438 27.063l-0.438 3.812c-0.042 0.333 0.052 0.615 0.281 0.844s0.511 0.323 0.844 0.281l3.813-0.438 8.625-8.625-4.5-4.5-8.625 8.625zM39.563 16.813l-2.375-2.375c-0.292-0.291-0.646-0.437-1.063-0.437s-0.771 0.146-1.062 0.437l-2.625 2.625 4.5 4.5 2.625-2.625c0.291-0.291 0.437-0.645 0.437-1.062s-0.146-0.771-0.437-1.063z"></path>
</svg>
