<!-- Generated by IcoMoon.io -->
<svg version="1.1" xmlns="http://www.w3.org/2000/svg" width="32" height="32" viewBox="0 0 32 32">
<title>user</title>
<path d="M16 18c1.625 0 3.125-0.406 4.5-1.219 1.375-0.812 2.469-1.906 3.281-3.281 0.813-1.375 1.219-2.875 1.219-4.5s-0.406-3.125-1.219-4.5c-0.812-1.375-1.906-2.469-3.281-3.281s-2.875-1.219-4.5-1.219-3.125 0.406-4.5 1.219c-1.375 0.812-2.469 1.906-3.281 3.281s-1.219 2.875-1.219 4.5 0.406 3.125 1.219 4.5c0.812 1.375 1.906 2.469 3.281 3.281s2.875 1.219 4.5 1.219zM24 20h-3.437c-1.459 0.667-2.98 1-4.563 1s-3.104-0.333-4.562-1h-3.438c-1.458 0-2.802 0.354-4.031 1.063-1.229 0.708-2.198 1.677-2.906 2.906s-1.063 2.573-1.063 4.031v1c0 0.833 0.292 1.542 0.875 2.125s1.292 0.875 2.125 0.875h26c0.833 0 1.542-0.292 2.125-0.875s0.875-1.292 0.875-2.125v-1c0-1.458-0.354-2.802-1.062-4.031s-1.678-2.198-2.907-2.906c-1.229-0.709-2.573-1.063-4.031-1.063z"></path>
</svg>
