<!-- Generated by IcoMoon.io -->
<svg version="1.1" xmlns="http://www.w3.org/2000/svg" width="40" height="32" viewBox="0 0 40 32">
<title>user-check</title>
<path d="M14 16c1.458 0 2.802-0.354 4.031-1.063 1.229-0.708 2.198-1.677 2.907-2.906 0.708-1.229 1.062-2.573 1.062-4.031s-0.354-2.802-1.063-4.031c-0.708-1.229-1.677-2.198-2.906-2.906s-2.573-1.063-4.031-1.063-2.802 0.354-4.031 1.063c-1.229 0.708-2.198 1.677-2.907 2.906s-1.062 2.573-1.062 4.031 0.354 2.802 1.062 4.031c0.709 1.229 1.678 2.198 2.907 2.907s2.573 1.062 4.031 1.062zM19.625 18h-1.063c-1.458 0.667-2.979 1-4.562 1s-3.104-0.333-4.563-1h-1.062c-1.5 0-2.896 0.375-4.188 1.125s-2.312 1.771-3.062 3.063c-0.75 1.291-1.125 2.687-1.125 4.187v2.625c0 0.833 0.292 1.542 0.875 2.125s1.292 0.875 2.125 0.875h22c0.833 0 1.542-0.292 2.125-0.875s0.875-1.292 0.875-2.125v-2.625c0-1.5-0.375-2.896-1.125-4.188s-1.771-2.312-3.063-3.062c-1.291-0.75-2.687-1.125-4.187-1.125zM39.812 10l-1.75-1.813c-0.166-0.124-0.343-0.187-0.531-0.187s-0.364 0.063-0.531 0.188l-6.563 6.5-2.812-2.813c-0.167-0.167-0.354-0.25-0.563-0.25-0.208 0-0.375 0.063-0.5 0.188l-1.75 1.75c-0.166 0.166-0.25 0.354-0.25 0.562s0.084 0.375 0.25 0.5l5.063 5.125c0.167 0.167 0.354 0.25 0.562 0.25s0.375-0.063 0.5-0.188l8.875-8.812c0.125-0.125 0.188-0.292 0.188-0.5s-0.063-0.375-0.188-0.5z"></path>
</svg>
