<!-- Generated by IcoMoon.io -->
<svg version="1.1" xmlns="http://www.w3.org/2000/svg" width="40" height="32" viewBox="0 0 40 32">
<title>user-clock-o</title>
<path d="M31 14c1.625 0 3.125 0.406 4.5 1.219s2.469 1.906 3.281 3.281c0.813 1.375 1.219 2.875 1.219 4.5s-0.406 3.125-1.219 4.5c-0.812 1.375-1.906 2.469-3.281 3.281-1.375 0.813-2.875 1.219-4.5 1.219s-3.125-0.406-4.5-1.219c-1.375-0.812-2.469-1.906-3.281-3.281-0.813-1.375-1.219-2.875-1.219-4.5s0.406-3.125 1.219-4.5c0.812-1.375 1.906-2.469 3.281-3.281 1.375-0.813 2.875-1.219 4.5-1.219zM24.709 32h-21.709c-0.833 0-1.542-0.292-2.125-0.875s-0.875-1.292-0.875-2.125v-1.625c0-1.5 0.375-2.896 1.125-4.188s1.771-2.312 3.063-3.062c1.291-0.75 2.687-1.125 4.187-1.125 0.542 0 1.25 0.146 2.125 0.438 0.583 0.166 1.063 0.291 1.438 0.375 0.625 0.125 1.312 0.187 2.062 0.187s1.438-0.063 2.063-0.188c0.375-0.083 0.854-0.208 1.437-0.375 0.875-0.291 1.583-0.437 2.125-0.437 0.373 0 0.739 0.023 1.099 0.069-0.367 0.939-0.594 1.921-0.682 2.946-0.137-0.010-0.276-0.015-0.417-0.015-0.25 0-0.667 0.083-1.25 0.25-1.5 0.5-2.948 0.75-4.344 0.75s-2.864-0.25-4.406-0.75c-0.625-0.167-1.042-0.25-1.25-0.25-1.458 0-2.719 0.531-3.781 1.594-1.063 1.062-1.594 2.323-1.594 3.781v1.625h18.802c0.783 1.187 1.752 2.187 2.907 3zM31 17c-1.083 0-2.083 0.271-3 0.813s-1.646 1.27-2.187 2.187c-0.542 0.917-0.813 1.917-0.813 3s0.271 2.083 0.813 3c0.541 0.917 1.27 1.646 2.187 2.188s1.917 0.812 3 0.812 2.083-0.271 3-0.813c0.917-0.541 1.646-1.27 2.188-2.187 0.541-0.917 0.812-1.917 0.812-3s-0.271-2.083-0.812-3c-0.542-0.917-1.271-1.646-2.188-2.188s-1.917-0.812-3-0.812zM31.375 19c0.167 0 0.313 0.063 0.438 0.188s0.187 0.27 0.187 0.437v2.375h1.375c0.167 0 0.313 0.063 0.438 0.188s0.187 0.27 0.187 0.437v0.75c0 0.167-0.063 0.313-0.188 0.438-0.124 0.124-0.27 0.187-0.437 0.187h-2.75c-0.167 0-0.313-0.063-0.438-0.188s-0.187-0.27-0.187-0.437v-3.75c0-0.167 0.063-0.313 0.188-0.438 0.124-0.124 0.27-0.187 0.437-0.187h0.75zM14 18c1.625 0 3.125-0.406 4.5-1.219 1.375-0.812 2.469-1.906 3.281-3.281 0.813-1.375 1.219-2.875 1.219-4.5s-0.406-3.125-1.219-4.5c-0.812-1.375-1.906-2.469-3.281-3.281s-2.875-1.219-4.5-1.219-3.125 0.406-4.5 1.219c-1.375 0.812-2.469 1.906-3.281 3.281s-1.219 2.875-1.219 4.5 0.406 3.125 1.219 4.5c0.812 1.375 1.906 2.469 3.281 3.281s2.875 1.219 4.5 1.219zM14 3c1.667 0 3.083 0.583 4.25 1.75s1.75 2.583 1.75 4.25c0 1.667-0.583 3.083-1.75 4.25s-2.583 1.75-4.25 1.75c-1.667 0-3.083-0.583-4.25-1.75s-1.75-2.583-1.75-4.25c0-1.667 0.583-3.083 1.75-4.25s2.583-1.75 4.25-1.75z"></path>
</svg>
