<!-- Generated by IcoMoon.io -->
<svg version="1.1" xmlns="http://www.w3.org/2000/svg" width="32" height="32" viewBox="0 0 32 32">
<title>user-circle</title>
<path d="M16 0.5c-2.792 0-5.375 0.698-7.75 2.094s-4.26 3.281-5.656 5.656c-1.396 2.375-2.094 4.958-2.094 7.75s0.698 5.375 2.094 7.75c1.396 2.375 3.281 4.26 5.656 5.656s4.958 2.094 7.75 2.094c2.792 0 5.375-0.698 7.75-2.094s4.26-3.281 5.656-5.656c1.396-2.375 2.094-4.958 2.094-7.75s-0.698-5.375-2.094-7.75c-1.396-2.375-3.281-4.26-5.656-5.656s-4.958-2.094-7.75-2.094zM16 6.5c1.5 0 2.792 0.542 3.875 1.625s1.625 2.375 1.625 3.875c0 1.5-0.542 2.792-1.625 3.875s-2.375 1.625-3.875 1.625c-1.5 0-2.792-0.542-3.875-1.625s-1.625-2.375-1.625-3.875c0-1.5 0.542-2.792 1.625-3.875s2.375-1.625 3.875-1.625zM16 28c-1.792 0-3.49-0.375-5.094-1.125s-2.968-1.792-4.093-3.125c0.625-1.125 1.479-2.031 2.562-2.719 1.083-0.687 2.292-1.031 3.625-1.031 0.125 0 0.271 0.021 0.438 0.063 0.875 0.291 1.729 0.437 2.562 0.437s1.688-0.146 2.563-0.438c0.166-0.041 0.312-0.062 0.437-0.062 1.333 0 2.542 0.344 3.625 1.031 1.083 0.688 1.938 1.594 2.563 2.719-1.125 1.333-2.49 2.375-4.094 3.125s-3.302 1.125-5.094 1.125z"></path>
</svg>
