<!-- Generated by IcoMoon.io -->
<svg version="1.1" xmlns="http://www.w3.org/2000/svg" width="40" height="32" viewBox="0 0 40 32">
<title>user-shield</title>
<path d="M38.875 16.938l-7.187-2.813c-0.459-0.167-0.917-0.167-1.375 0l-7.188 2.813c-0.333 0.125-0.604 0.333-0.812 0.625-0.209 0.291-0.313 0.604-0.313 0.937 0 2.208 0.417 4.271 1.25 6.188 0.75 1.75 1.792 3.27 3.125 4.562 1.208 1.208 2.521 2.083 3.938 2.625 0.458 0.167 0.916 0.167 1.375 0 1.25-0.5 2.437-1.271 3.562-2.313 1.417-1.25 2.521-2.729 3.313-4.437 0.958-2 1.437-4.208 1.437-6.625 0-0.333-0.104-0.646-0.312-0.938-0.209-0.291-0.48-0.5-0.813-0.625zM31 28.876v-11.813l6 2.376c-0.167 2.416-0.937 4.541-2.312 6.375-1.084 1.416-2.313 2.437-3.688 3.062zM14 16.001c1.458 0 2.802-0.354 4.031-1.063 1.229-0.708 2.198-1.677 2.907-2.906 0.708-1.229 1.062-2.573 1.062-4.031s-0.354-2.802-1.062-4.031c-0.709-1.229-1.678-2.198-2.907-2.906s-2.573-1.063-4.031-1.063-2.802 0.354-4.031 1.063c-1.229 0.708-2.198 1.677-2.906 2.906s-1.063 2.573-1.063 4.031 0.354 2.802 1.063 4.031c0.708 1.229 1.677 2.198 2.906 2.907s2.573 1.062 4.031 1.062zM20 18.501c0-0.083 0.021-0.167 0.063-0.25v-0.188l-0.438-0.062h-1.062c-1.459 0.667-2.98 1-4.563 1s-3.104-0.333-4.562-1h-1.063c-1.5 0-2.896 0.375-4.187 1.125s-2.313 1.771-3.063 3.063c-0.75 1.291-1.125 2.687-1.125 4.187v2.625c0 0.833 0.292 1.542 0.875 2.125s1.292 0.875 2.125 0.875h22c0.417 0 0.813-0.083 1.188-0.25-1.834-1.458-3.292-3.25-4.375-5.375-1.209-2.417-1.813-5.042-1.813-7.875z"></path>
</svg>
