<!-- Generated by IcoMoon.io -->
<svg version="1.1" xmlns="http://www.w3.org/2000/svg" width="40" height="32" viewBox="0 0 40 32">
<title>user-tag</title>
<path d="M39.438 22.813l-5.688-5.625c-0.75-0.792-1.687-1.188-2.812-1.188h-4.938c-0.583 0-1.062 0.198-1.437 0.594s-0.563 0.864-0.563 1.406v4.938c0 1.125 0.375 2.062 1.125 2.812l5.688 5.688c0.375 0.375 0.843 0.562 1.406 0.562 0.562 0 1.031-0.187 1.406-0.562l5.813-5.813c0.375-0.375 0.562-0.844 0.562-1.406 0-0.563-0.187-1.031-0.562-1.406zM28 21.5c-0.417 0-0.771-0.146-1.062-0.438-0.292-0.291-0.438-0.645-0.438-1.062s0.146-0.771 0.438-1.063c0.291-0.291 0.645-0.437 1.062-0.437s0.771 0.146 1.063 0.438c0.291 0.291 0.437 0.645 0.437 1.062s-0.146 0.771-0.437 1.063c-0.292 0.291-0.646 0.437-1.063 0.437zM14 16c1.458 0 2.802-0.365 4.031-1.094s2.198-1.698 2.907-2.906c0.708-1.208 1.062-2.542 1.062-4s-0.354-2.802-1.062-4.031c-0.709-1.229-1.678-2.198-2.907-2.907-1.229-0.708-2.573-1.062-4.031-1.062s-2.802 0.354-4.031 1.062c-1.229 0.709-2.198 1.678-2.906 2.907s-1.063 2.573-1.063 4.031 0.354 2.792 1.063 4c0.708 1.208 1.677 2.177 2.906 2.906s2.573 1.094 4.031 1.094zM22 22.938v-4.563c-0.875-0.25-1.667-0.375-2.375-0.375h-1.062c-1.459 0.667-2.98 1-4.563 1s-3.104-0.333-4.562-1h-1.063c-1.5 0-2.896 0.375-4.187 1.125s-2.313 1.771-3.063 3.063c-0.75 1.291-1.125 2.687-1.125 4.187v2.625c0 0.833 0.292 1.542 0.875 2.125s1.292 0.875 2.125 0.875h22c0.958 0 1.75-0.396 2.375-1.188l-3.625-3.625c-1.167-1.166-1.75-2.583-1.75-4.25z"></path>
</svg>
