<!-- Generated by IcoMoon.io -->
<svg version="1.1" xmlns="http://www.w3.org/2000/svg" width="40" height="32" viewBox="0 0 40 32">
<title>user-cog</title>
<path d="M38.182 23.313c0.125-0.875 0.104-1.75-0.062-2.625l1.625-0.938c0.208-0.125 0.291-0.313 0.25-0.563-0.417-1.333-1.125-2.52-2.125-3.562-0.167-0.167-0.354-0.188-0.563-0.063l-1.562 0.876c-0.709-0.584-1.479-1.021-2.313-1.313v-1.875c0-0.25-0.125-0.396-0.375-0.437-1.375-0.292-2.75-0.292-4.125 0-0.25 0.041-0.375 0.187-0.375 0.437v1.875c-0.833 0.292-1.604 0.729-2.312 1.313l-1.625-0.938c-0.209-0.083-0.396-0.042-0.563 0.125-0.958 1.042-1.646 2.229-2.062 3.563-0.042 0.25 0.041 0.437 0.25 0.562l1.562 0.938c-0.166 0.875-0.166 1.75 0 2.625l-1.562 0.937c-0.25 0.125-0.334 0.313-0.25 0.563 0.416 1.333 1.104 2.52 2.062 3.562 0.167 0.167 0.354 0.188 0.563 0.063l1.625-0.875c0.708 0.583 1.479 1.020 2.312 1.312v1.875c0 0.25 0.125 0.396 0.375 0.438 1.375 0.291 2.75 0.291 4.125 0 0.25-0.042 0.375-0.188 0.375-0.438v-1.875c0.834-0.292 1.604-0.729 2.313-1.313l1.562 0.875c0.209 0.125 0.396 0.105 0.563-0.062 1-1.042 1.708-2.229 2.125-3.563 0.041-0.25-0.042-0.437-0.25-0.562l-1.563-0.938zM30.995 25.001c-0.834 0-1.542-0.292-2.125-0.875-0.584-0.583-0.875-1.292-0.875-2.125s0.291-1.542 0.875-2.125c0.583-0.583 1.291-0.885 2.125-0.906 0.833-0.021 1.552 0.271 2.156 0.875s0.906 1.323 0.906 2.156c0 0.833-0.302 1.542-0.906 2.125s-1.323 0.875-2.156 0.875zM13.995 16.001c1.458 0 2.802-0.354 4.031-1.063 1.229-0.708 2.198-1.677 2.906-2.906 0.709-1.229 1.063-2.573 1.063-4.031s-0.354-2.802-1.063-4.031c-0.708-1.229-1.677-2.198-2.906-2.906s-2.573-1.063-4.031-1.063c-1.459 0-2.802 0.354-4.031 1.063-1.23 0.708-2.198 1.677-2.907 2.906s-1.062 2.573-1.062 4.031 0.354 2.802 1.062 4.031c0.709 1.229 1.677 2.198 2.907 2.907 1.229 0.708 2.572 1.062 4.031 1.062zM26.557 30.126c-0.083 0-0.187-0.063-0.312-0.188h-0.125l-0.438 0.25c-0.416 0.25-0.833 0.375-1.25 0.375-0.708 0-1.312-0.27-1.812-0.812-1.167-1.292-2-2.75-2.5-4.375-0.167-0.542-0.146-1.073 0.062-1.594s0.563-0.927 1.063-1.218l0.5-0.313v-0.5l-0.5-0.25c-0.5-0.292-0.854-0.708-1.063-1.25-0.208-0.542-0.229-1.083-0.062-1.625l0.187-0.563-0.687-0.062h-1.063c-1.458 0.667-2.979 1-4.562 1s-3.104-0.333-4.563-1h-1.062c-1.5 0-2.896 0.375-4.188 1.125s-2.312 1.771-3.062 3.063c-0.75 1.291-1.125 2.687-1.125 4.187v2.625c0 0.833 0.291 1.542 0.875 2.125 0.583 0.583 1.291 0.875 2.125 0.875h22c0.625 0 1.187-0.188 1.687-0.563-0.083-0.25-0.125-0.479-0.125-0.687v-0.625z"></path>
</svg>
