<!-- Generated by IcoMoon.io -->
<svg version="1.1" xmlns="http://www.w3.org/2000/svg" width="40" height="32" viewBox="0 0 40 32">
<title>user-clock</title>
<path d="M31 14c-1.625 0-3.125 0.406-4.5 1.219s-2.469 1.906-3.281 3.281c-0.813 1.375-1.219 2.875-1.219 4.5s0.406 3.125 1.219 4.5c0.812 1.375 1.906 2.469 3.281 3.281 1.375 0.813 2.875 1.219 4.5 1.219s3.125-0.406 4.5-1.219c1.375-0.812 2.469-1.906 3.281-3.281 0.813-1.375 1.219-2.875 1.219-4.5s-0.406-3.125-1.219-4.5c-0.812-1.375-1.906-2.469-3.281-3.281-1.375-0.813-2.875-1.219-4.5-1.219zM35 23.375c0 0.167-0.062 0.313-0.187 0.438s-0.271 0.187-0.438 0.187h-3.75c-0.167 0-0.312-0.063-0.437-0.188s-0.188-0.27-0.188-0.437v-4.75c0-0.167 0.063-0.313 0.188-0.438s0.27-0.187 0.437-0.187h0.75c0.167 0 0.313 0.063 0.438 0.188s0.187 0.27 0.187 0.437v3.375h2.375c0.167 0 0.313 0.063 0.438 0.188s0.187 0.27 0.187 0.437v0.75zM20 23c0-1.667 0.375-3.292 1.125-4.875-0.542-0.083-1.042-0.125-1.5-0.125h-1.062c-1.459 0.667-2.98 1-4.563 1s-3.104-0.333-4.562-1h-1.063c-1.5 0-2.896 0.375-4.187 1.125s-2.313 1.771-3.063 3.063c-0.75 1.291-1.125 2.687-1.125 4.187v2.625c0 0.833 0.292 1.542 0.875 2.125s1.292 0.875 2.125 0.875h21.688c-1.459-1-2.605-2.292-3.438-3.875s-1.25-3.292-1.25-5.125zM14 16c1.458 0 2.802-0.354 4.031-1.063 1.229-0.708 2.198-1.677 2.907-2.906 0.708-1.229 1.062-2.573 1.062-4.031s-0.354-2.802-1.062-4.031c-0.709-1.229-1.678-2.198-2.907-2.906s-2.573-1.063-4.031-1.063-2.802 0.354-4.031 1.063c-1.229 0.708-2.198 1.677-2.906 2.906s-1.063 2.573-1.063 4.031 0.354 2.802 1.063 4.031c0.708 1.229 1.677 2.198 2.906 2.907s2.573 1.062 4.031 1.062z"></path>
</svg>
