<!-- Generated by IcoMoon.io -->
<svg version="1.1" xmlns="http://www.w3.org/2000/svg" width="40" height="32" viewBox="0 0 40 32">
<title>user-comment</title>
<path d="M7.688 20c1.416 0.667 2.854 1 4.312 1s2.896-0.333 4.313-1h0.5c1.291 0 2.489 0.323 3.593 0.969s1.979 1.521 2.625 2.625c0.646 1.104 0.969 2.302 0.969 3.593v1.813c0 0.833-0.292 1.542-0.875 2.125s-1.292 0.875-2.125 0.875h-18c-0.833 0-1.542-0.292-2.125-0.875s-0.875-1.292-0.875-2.125v-1.813c0-1.291 0.323-2.489 0.969-3.593s1.521-1.979 2.625-2.625c1.104-0.646 2.302-0.969 3.594-0.969h0.5zM12 18c1.25 0 2.417-0.313 3.5-0.938s1.938-1.479 2.563-2.562c0.625-1.083 0.937-2.25 0.937-3.5s-0.312-2.417-0.937-3.5c-0.625-1.083-1.48-1.938-2.563-2.563s-2.25-0.937-3.5-0.937c-1.25 0-2.417 0.312-3.5 0.937s-1.937 1.48-2.562 2.563c-0.625 1.083-0.938 2.25-0.938 3.5s0.313 2.417 0.938 3.5c0.625 1.083 1.479 1.937 2.562 2.562s2.25 0.938 3.5 0.938zM30 0c-1.823 0-3.496 0.333-5.020 1-1.523 0.667-2.734 1.565-3.632 2.696s-1.348 2.375-1.348 3.733c0 0.881 0.195 1.714 0.586 2.5s0.937 1.511 1.641 2.178c-0.209 0.738-0.625 1.524-1.25 2.357-0.365 0.476-0.664 0.822-0.899 1.036-0.078 0.095-0.091 0.202-0.039 0.321s0.143 0.179 0.274 0.179c1.145 0 2.265-0.214 3.359-0.643 0.755-0.309 1.471-0.702 2.148-1.178 1.328 0.452 2.722 0.678 4.18 0.678 1.823 0 3.496-0.333 5.020-1s2.734-1.565 3.632-2.696c0.899-1.131 1.348-2.375 1.348-3.732s-0.449-2.602-1.348-3.733c-0.898-1.131-2.109-2.029-3.632-2.696-1.524-0.667-3.197-1-5.020-1z"></path>
</svg>
