<!-- Generated by IcoMoon.io -->
<svg version="1.1" xmlns="http://www.w3.org/2000/svg" width="40" height="32" viewBox="0 0 40 32">
<title>user-comment-o</title>
<path d="M16.821 20.625c1.286 0 2.483 0.328 3.59 0.984s1.982 1.55 2.625 2.68 0.964 2.352 0.964 3.664v1.422c0 0.729-0.25 1.349-0.75 1.859-0.5 0.511-1.107 0.766-1.821 0.766h-18.858c-0.714 0-1.321-0.255-1.821-0.766s-0.75-1.13-0.75-1.859v-1.422c0-1.312 0.321-2.534 0.964-3.664s1.518-2.023 2.625-2.68c1.107-0.656 2.304-0.984 3.59-0.984 0.464 0 1.071 0.128 1.821 0.383 0.5 0.146 0.911 0.255 1.232 0.328 0.536 0.109 1.125 0.164 1.768 0.164s1.232-0.055 1.768-0.164c0.321-0.073 0.732-0.182 1.232-0.328 0.75-0.255 1.357-0.383 1.821-0.383zM21.429 29.375v-1.422c0-1.276-0.456-2.379-1.366-3.308-0.911-0.93-1.992-1.395-3.242-1.395-0.214 0-0.571 0.073-1.071 0.219-1.286 0.437-2.527 0.656-3.723 0.656s-2.456-0.219-3.777-0.656c-0.536-0.146-0.893-0.219-1.071-0.219-1.25 0-2.331 0.465-3.241 1.395-0.911 0.929-1.367 2.032-1.367 3.308v1.422h18.858zM12 19.75c1.393 0 2.679-0.355 3.857-1.066 1.179-0.711 2.116-1.668 2.813-2.872 0.696-1.203 1.044-2.515 1.044-3.937s-0.348-2.734-1.044-3.938c-0.697-1.203-1.634-2.16-2.813-2.871-1.178-0.711-2.464-1.066-3.857-1.066s-2.679 0.355-3.857 1.066c-1.179 0.711-2.116 1.668-2.813 2.872-0.696 1.203-1.044 2.515-1.044 3.937s0.348 2.734 1.044 3.938c0.697 1.203 1.634 2.16 2.813 2.871s2.464 1.066 3.857 1.066zM12 6.625c1.429 0 2.643 0.51 3.643 1.531s1.5 2.261 1.5 3.719c0 1.458-0.5 2.698-1.5 3.719s-2.214 1.531-3.643 1.531c-1.429 0-2.643-0.51-3.643-1.531s-1.5-2.261-1.5-3.719c0-1.458 0.5-2.698 1.5-3.719s2.214-1.531 3.643-1.531zM30 0c-1.823 0-3.496 0.333-5.020 1-1.523 0.667-2.734 1.565-3.632 2.696s-1.348 2.375-1.348 3.733c0 1.666 0.69 3.166 2.070 4.5-0.234 0.595-0.612 1.214-1.132 1.857-0.339 0.428-0.567 0.696-0.684 0.803s-0.195 0.244-0.234 0.411c-0.040 0.167-0.020 0.327 0.058 0.482s0.195 0.28 0.352 0.375c0.156 0.095 0.325 0.143 0.508 0.143 1.927 0 3.736-0.548 5.429-1.643 1.198 0.333 2.409 0.5 3.633 0.5 1.823 0 3.496-0.333 5.020-1s2.734-1.565 3.632-2.696c0.899-1.131 1.348-2.375 1.348-3.732s-0.449-2.602-1.348-3.733c-0.898-1.131-2.109-2.029-3.632-2.696-1.524-0.667-3.197-1-5.020-1zM30 12.719c-0.981 0-1.937-0.132-2.869-0.394l-0.846-0.23-0.735 0.427c-0.662 0.438-1.361 0.766-2.097 0.985 0.295-0.46 0.54-0.909 0.736-1.347l0.368-0.919-0.736-0.723c-0.981-0.92-1.471-1.938-1.471-3.055 0-0.942 0.343-1.818 1.030-2.628 0.686-0.81 1.618-1.451 2.795-1.922s2.452-0.706 3.825-0.706 2.648 0.236 3.825 0.706c1.177 0.471 2.109 1.112 2.795 1.922s1.030 1.686 1.030 2.628-0.343 1.818-1.030 2.628c-0.686 0.81-1.618 1.451-2.795 1.922s-2.452 0.706-3.825 0.706z"></path>
</svg>
