<!-- Generated by IcoMoon.io -->
<svg version="1.1" xmlns="http://www.w3.org/2000/svg" width="40" height="32" viewBox="0 0 40 32">
<title>user-tag-o</title>
<path d="M30.938 16c1.125 0 2.062 0.396 2.812 1.188l5.688 5.625c0.375 0.375 0.562 0.843 0.562 1.406s-0.187 1.031-0.562 1.406l-5.813 5.813c-0.375 0.375-0.844 0.562-1.406 0.562-0.563 0-1.031-0.187-1.406-0.562l-5.688-5.688c-0.75-0.75-1.125-1.687-1.125-2.812v-4.938c0-0.542 0.188-1.010 0.563-1.406 0.374-0.396 0.854-0.594 1.437-0.594h4.938zM25 32h-22c-0.833 0-1.542-0.292-2.125-0.875s-0.875-1.292-0.875-2.125v-1.625c0-1.5 0.375-2.896 1.125-4.188s1.771-2.312 3.063-3.062c1.291-0.75 2.687-1.125 4.187-1.125 0.542 0 1.25 0.146 2.125 0.438 0.583 0.166 1.063 0.291 1.438 0.375 0.625 0.125 1.312 0.187 2.062 0.187s1.438-0.063 2.063-0.188c0.375-0.083 0.854-0.208 1.437-0.375 0.875-0.291 1.583-0.437 2.125-0.437 0.823 0 1.615 0.113 2.375 0.339v3.216c-0.723-0.37-1.514-0.555-2.375-0.555-0.25 0-0.667 0.083-1.25 0.25-1.5 0.5-2.948 0.75-4.344 0.75s-2.864-0.25-4.406-0.75c-0.625-0.167-1.042-0.25-1.25-0.25-1.458 0-2.719 0.531-3.781 1.594-1.063 1.062-1.594 2.323-1.594 3.781v1.625h22v-0.509c1.020 1.014 1.707 1.709 2.355 2.379-0.071 0.087-0.147 0.172-0.23 0.255-0.583 0.583-1.292 0.875-2.125 0.875zM27.237 18.983c-0.068-0.002-0.133 0.025-0.181 0.072s-0.074 0.113-0.074 0.181c0.010 0.741 0.037 2.881 0.049 3.782 0.003 0.261 0.109 0.51 0.293 0.694 0.949 0.948 3.957 3.952 4.719 4.714 0.098 0.097 0.256 0.097 0.354-0.001 0.706-0.707 3.324-3.328 4.031-4.035 0.047-0.047 0.073-0.111 0.073-0.177s-0.026-0.13-0.073-0.177c-0.761-0.76-3.758-3.753-4.701-4.695-0.184-0.184-0.431-0.288-0.69-0.293-0.901-0.015-3.056-0.053-3.8-0.065zM29 22c-0.278 0-0.514-0.097-0.708-0.292-0.195-0.194-0.292-0.43-0.292-0.708s0.097-0.514 0.292-0.708c0.194-0.195 0.43-0.292 0.708-0.292s0.514 0.097 0.708 0.292c0.195 0.194 0.292 0.43 0.292 0.708s-0.097 0.514-0.292 0.708c-0.194 0.195-0.43 0.292-0.708 0.292zM14 18c1.625 0 3.125-0.406 4.5-1.219 1.375-0.812 2.469-1.906 3.281-3.281 0.813-1.375 1.219-2.875 1.219-4.5s-0.406-3.125-1.219-4.5c-0.812-1.375-1.906-2.469-3.281-3.281s-2.875-1.219-4.5-1.219-3.125 0.406-4.5 1.219c-1.375 0.812-2.469 1.906-3.281 3.281s-1.219 2.875-1.219 4.5 0.406 3.125 1.219 4.5c0.812 1.375 1.906 2.469 3.281 3.281s2.875 1.219 4.5 1.219zM14 3c1.667 0 3.083 0.583 4.25 1.75s1.75 2.583 1.75 4.25c0 1.667-0.583 3.083-1.75 4.25s-2.583 1.75-4.25 1.75c-1.667 0-3.083-0.583-4.25-1.75s-1.75-2.583-1.75-4.25c0-1.667 0.583-3.083 1.75-4.25s2.583-1.75 4.25-1.75z"></path>
</svg>
