<!-- Generated by IcoMoon.io -->
<svg version="1.1" xmlns="http://www.w3.org/2000/svg" width="40" height="32" viewBox="0 0 40 32">
<title>user-check-o</title>
<path d="M19.625 19c1.5 0 2.896 0.375 4.188 1.125s2.312 1.771 3.062 3.062c0.75 1.292 1.125 2.688 1.125 4.188v1.625c0 0.833-0.292 1.542-0.875 2.125s-1.292 0.875-2.125 0.875h-22c-0.833 0-1.542-0.292-2.125-0.875s-0.875-1.292-0.875-2.125v-1.625c0-1.5 0.375-2.896 1.125-4.187 0.75-1.292 1.771-2.313 3.063-3.063 1.291-0.75 2.687-1.125 4.187-1.125 0.542 0 1.25 0.146 2.125 0.437 0.583 0.167 1.063 0.292 1.438 0.375 0.625 0.125 1.312 0.188 2.062 0.188s1.438-0.062 2.063-0.187c0.375-0.084 0.854-0.209 1.437-0.375 0.875-0.292 1.583-0.438 2.125-0.438zM25 29v-1.625c0-1.458-0.531-2.719-1.594-3.781-1.062-1.063-2.323-1.594-3.781-1.594-0.25 0-0.667 0.083-1.25 0.25-1.5 0.5-2.948 0.75-4.344 0.75s-2.864-0.25-4.406-0.75c-0.625-0.167-1.042-0.25-1.25-0.25-1.458 0-2.719 0.531-3.781 1.594-1.063 1.062-1.594 2.323-1.594 3.781v1.625h22zM39.75 10.812c0.167-0.125 0.25-0.291 0.25-0.5s-0.083-0.395-0.25-0.562l-1.375-1.375c-0.167-0.167-0.354-0.25-0.562-0.25-0.209 0-0.375 0.083-0.5 0.25l-6.938 6.875-2.75-2.813c-0.167-0.125-0.354-0.187-0.562-0.187s-0.375 0.062-0.5 0.187l-1.438 1.438c-0.167 0.125-0.25 0.292-0.25 0.5s0.083 0.396 0.25 0.562l4.688 4.688c0.125 0.167 0.291 0.25 0.5 0.25 0.208 0 0.395-0.063 0.562-0.188l8.875-8.875zM14 18c1.625 0 3.125-0.406 4.5-1.219 1.375-0.812 2.469-1.906 3.281-3.281 0.813-1.375 1.219-2.875 1.219-4.5s-0.406-3.125-1.219-4.5c-0.812-1.375-1.906-2.469-3.281-3.281s-2.875-1.219-4.5-1.219-3.125 0.406-4.5 1.219c-1.375 0.812-2.469 1.906-3.281 3.281s-1.219 2.875-1.219 4.5 0.406 3.125 1.219 4.5c0.812 1.375 1.906 2.469 3.281 3.281s2.875 1.219 4.5 1.219zM14 3c1.667 0 3.083 0.583 4.25 1.75s1.75 2.583 1.75 4.25c0 1.667-0.583 3.083-1.75 4.25s-2.583 1.75-4.25 1.75c-1.667 0-3.083-0.583-4.25-1.75s-1.75-2.583-1.75-4.25c0-1.667 0.583-3.083 1.75-4.25s2.583-1.75 4.25-1.75z"></path>
</svg>
