<!-- Generated by IcoMoon.io -->
<svg version="1.1" xmlns="http://www.w3.org/2000/svg" width="40" height="32" viewBox="0 0 40 32">
<title>users</title>
<path d="M6 14c1.083 0 2.021-0.396 2.813-1.188s1.187-1.729 1.187-2.812-0.396-2.021-1.187-2.813c-0.792-0.791-1.73-1.187-2.813-1.187s-2.021 0.396-2.812 1.188c-0.792 0.791-1.188 1.729-1.188 2.812s0.396 2.021 1.188 2.813c0.791 0.791 1.729 1.187 2.812 1.187zM34 14c1.083 0 2.021-0.396 2.813-1.188 0.791-0.791 1.187-1.729 1.187-2.812s-0.396-2.021-1.187-2.813c-0.792-0.791-1.73-1.187-2.813-1.187s-2.021 0.396-2.812 1.188c-0.792 0.791-1.188 1.729-1.188 2.812s0.396 2.021 1.188 2.813c0.791 0.791 1.729 1.187 2.812 1.187zM36 16h-4c-1.083 0-2.021 0.396-2.812 1.188 1.25 0.666 2.291 1.604 3.125 2.812 0.833 1.208 1.354 2.542 1.562 4h4.125c0.542 0 1.010-0.198 1.406-0.594s0.594-0.864 0.594-1.406v-2c0-1.083-0.396-2.021-1.187-2.813-0.792-0.791-1.73-1.187-2.813-1.187zM20 16c1.25 0 2.417-0.313 3.5-0.938s1.938-1.479 2.563-2.562 0.937-2.25 0.937-3.5c0-1.25-0.312-2.417-0.937-3.5s-1.48-1.938-2.563-2.563c-1.083-0.624-2.25-0.937-3.5-0.937s-2.417 0.313-3.5 0.938c-1.083 0.625-1.937 1.479-2.562 2.562s-0.938 2.25-0.938 3.5c0 1.25 0.313 2.417 0.938 3.5s1.479 1.938 2.562 2.563c1.083 0.624 2.25 0.937 3.5 0.937zM24.813 18h-0.5c-1.417 0.667-2.855 1-4.313 1s-2.896-0.333-4.312-1h-0.5c-1.292 0-2.49 0.323-3.594 0.969s-1.979 1.521-2.625 2.625c-0.646 1.104-0.969 2.302-0.969 3.593v1.813c0 0.833 0.292 1.542 0.875 2.125s1.292 0.875 2.125 0.875h18c0.833 0 1.542-0.292 2.125-0.875s0.875-1.292 0.875-2.125v-1.813c0-1.291-0.323-2.489-0.969-3.593s-1.521-1.979-2.625-2.625c-1.104-0.646-2.302-0.969-3.593-0.969zM10.813 17.187c-0.792-0.791-1.73-1.187-2.813-1.187h-4c-1.083 0-2.021 0.396-2.812 1.188-0.792 0.791-1.188 1.729-1.188 2.812v2c0 0.542 0.198 1.010 0.594 1.406s0.864 0.594 1.406 0.594h4.125c0.208-1.458 0.729-2.792 1.563-4s1.875-2.146 3.125-2.813z"></path>
</svg>
