<!-- Generated by IcoMoon.io -->
<svg version="1.1" xmlns="http://www.w3.org/2000/svg" width="40" height="32" viewBox="0 0 40 32">
<title>user-cog-o</title>
<path d="M25 32h-22c-0.833 0-1.542-0.292-2.125-0.875s-0.875-1.292-0.875-2.125v-1.625c0-1.5 0.375-2.896 1.125-4.188s1.771-2.312 3.063-3.062c1.291-0.75 2.687-1.125 4.187-1.125 0.542 0 1.25 0.146 2.125 0.438 0.583 0.166 1.063 0.291 1.438 0.375 0.625 0.125 1.312 0.187 2.062 0.187s1.438-0.063 2.063-0.188c0.375-0.083 0.854-0.208 1.437-0.375 0.875-0.291 1.583-0.437 2.125-0.437 0.137 0 1.944 3.36 1.944 3.36-0.603-0.24-1.251-0.36-1.944-0.36-0.25 0-0.667 0.083-1.25 0.25-1.5 0.5-2.948 0.75-4.344 0.75s-2.864-0.25-4.406-0.75c-0.625-0.167-1.042-0.25-1.25-0.25-1.458 0-2.719 0.531-3.781 1.594-1.063 1.062-1.594 2.323-1.594 3.781v1.625h18.994l3.006 3zM38.182 23.312c0.125-0.874 0.104-1.749-0.062-2.624l1.625-0.938c0.208-0.125 0.291-0.313 0.25-0.563-0.417-1.333-1.125-2.52-2.125-3.562-0.167-0.167-0.354-0.188-0.563-0.063l-1.562 0.876c-0.709-0.584-1.479-1.021-2.313-1.313v-1.875c0-0.25-0.125-0.396-0.375-0.437-1.375-0.292-2.75-0.292-4.125 0-0.25 0.041-0.375 0.187-0.375 0.437v1.875c-0.833 0.292-1.604 0.729-2.312 1.313l-1.625-0.938c-0.209-0.083-0.396-0.042-0.563 0.125-0.958 1.042-1.646 2.229-2.062 3.563-0.042 0.25 0.041 0.437 0.25 0.562l1.562 0.938c-0.166 0.875-0.166 1.75 0 2.625l-1.562 0.937c-0.25 0.125-0.334 0.313-0.25 0.563 0.416 1.333 1.104 2.52 2.062 3.562 0.167 0.167 0.354 0.188 0.563 0.063l1.625-0.875c0.708 0.583 1.479 1.020 2.312 1.312v1.875c0 0.25 0.125 0.396 0.375 0.438 1.375 0.291 2.75 0.291 4.125 0 0.25-0.042 0.375-0.188 0.375-0.438v-1.875c0.834-0.292 1.604-0.729 2.313-1.313l1.562 0.875c0.209 0.125 0.396 0.105 0.563-0.062 1-1.042 1.708-2.229 2.125-3.563 0.041-0.25-0.042-0.437-0.25-0.562l-1.563-0.938zM31 18c2.208 0 4 1.792 4 4s-1.792 4-4 4c-2.208 0-4-1.792-4-4s1.792-4 4-4zM14 18c1.625 0 3.125-0.406 4.5-1.219 1.375-0.812 2.469-1.906 3.281-3.281 0.813-1.375 1.219-2.875 1.219-4.5s-0.406-3.125-1.219-4.5c-0.812-1.375-1.906-2.469-3.281-3.281s-2.875-1.219-4.5-1.219-3.125 0.406-4.5 1.219c-1.375 0.812-2.469 1.906-3.281 3.281s-1.219 2.875-1.219 4.5 0.406 3.125 1.219 4.5c0.812 1.375 1.906 2.469 3.281 3.281s2.875 1.219 4.5 1.219zM14 3c1.667 0 3.083 0.583 4.25 1.75s1.75 2.583 1.75 4.25c0 1.667-0.583 3.083-1.75 4.25s-2.583 1.75-4.25 1.75c-1.667 0-3.083-0.583-4.25-1.75s-1.75-2.583-1.75-4.25c0-1.667 0.583-3.083 1.75-4.25s2.583-1.75 4.25-1.75z"></path>
</svg>
