<!-- Generated by IcoMoon.io -->
<svg version="1.1" xmlns="http://www.w3.org/2000/svg" width="40" height="32" viewBox="0 0 40 32">
<title>users-plus</title>
<path d="M15.688 18c1.416 0.667 2.854 1 4.312 1s2.896-0.333 4.313-1h0.5c1.291 0 2.489 0.323 3.593 0.969s1.979 1.521 2.625 2.625c0.646 1.104 0.969 2.302 0.969 3.593v1.813c0 0.833-0.292 1.542-0.875 2.125s-1.292 0.875-2.125 0.875h-18c-0.833 0-1.542-0.292-2.125-0.875s-0.875-1.292-0.875-2.125v-1.813c0-1.291 0.323-2.489 0.969-3.593s1.521-1.979 2.625-2.625c1.104-0.646 2.302-0.969 3.594-0.969h0.5zM8 16c1.083 0 2.021 0.396 2.813 1.188-1.25 0.666-2.292 1.604-3.125 2.812s-1.355 2.542-1.563 4h-4.125c-0.542 0-1.010-0.198-1.406-0.594s-0.594-0.864-0.594-1.406v-2c0-1.083 0.396-2.021 1.188-2.813 0.791-0.791 1.729-1.187 2.812-1.187h4zM34.825 20.5h-1.65c-0.455 0-0.825-0.37-0.825-0.825v-3.525h-3.525c-0.455 0-0.825-0.37-0.825-0.825v-1.65c0-0.455 0.37-0.825 0.825-0.825h3.525v-3.525c0-0.455 0.37-0.825 0.825-0.825h1.65c0.455 0 0.825 0.37 0.825 0.825v3.525h3.525c0.455 0 0.825 0.37 0.825 0.825v1.65c0 0.455-0.37 0.825-0.825 0.825h-3.525v3.525c0 0.455-0.37 0.825-0.825 0.825zM20 16c1.25 0 2.417-0.313 3.5-0.938s1.938-1.479 2.563-2.562 0.937-2.25 0.937-3.5c0-1.25-0.312-2.417-0.937-3.5s-1.48-1.938-2.563-2.563c-1.083-0.624-2.25-0.937-3.5-0.937s-2.417 0.313-3.5 0.938c-1.083 0.625-1.937 1.479-2.562 2.562s-0.938 2.25-0.938 3.5c0 1.25 0.313 2.417 0.938 3.5s1.479 1.938 2.562 2.563c1.083 0.624 2.25 0.937 3.5 0.937zM6 14c1.083 0 2.021-0.396 2.813-1.188s1.187-1.729 1.187-2.812-0.396-2.021-1.187-2.813c-0.792-0.791-1.73-1.187-2.813-1.187s-2.021 0.396-2.812 1.188c-0.792 0.791-1.188 1.729-1.188 2.812s0.396 2.021 1.188 2.813c0.791 0.791 1.729 1.187 2.812 1.187z"></path>
</svg>
