<!-- Generated by IcoMoon.io -->
<svg version="1.1" xmlns="http://www.w3.org/2000/svg" width="40" height="32" viewBox="0 0 40 32">
<title>user-lock-o</title>
<path d="M20.656 32h-17.656c-0.833 0-1.542-0.292-2.125-0.875s-0.875-1.292-0.875-2.125v-1.625c0-1.5 0.375-2.896 1.125-4.188s1.771-2.312 3.063-3.062c1.291-0.75 2.687-1.125 4.187-1.125 0.542 0 1.25 0.146 2.125 0.438 0.583 0.166 1.063 0.291 1.438 0.375 0.625 0.125 1.312 0.187 2.062 0.187s1.438-0.063 2.063-0.188c0.375-0.083 0.854-0.208 1.437-0.375 0.875-0.291 1.583-0.437 2.125-0.437 0.164 0 0.326 0.004 0.487 0.013-0.073 0.25-0.112 0.514-0.112 0.787v2.212c-0.124-0.008-0.249-0.012-0.375-0.012-0.25 0-0.667 0.083-1.25 0.25-1.5 0.5-2.948 0.75-4.344 0.75s-2.864-0.25-4.406-0.75c-0.625-0.167-1.042-0.25-1.25-0.25-1.458 0-2.719 0.531-3.781 1.594-1.063 1.062-1.594 2.323-1.594 3.781v1.625h17v1.2c0 0.685 0.247 1.313 0.656 1.8zM37.9 32h-13.8c-1.159 0-2.1-0.941-2.1-2.1v-9.8c0-1.159 0.941-2.1 2.1-2.1h1.9v-3.188c0-2.656 2.24-4.812 5-4.812s5 2.156 5 4.812v3.188h1.9c1.159 0 2.1 0.941 2.1 2.1v9.8c0 1.159-0.941 2.1-2.1 2.1zM36.6 21h-11.2c-0.221 0-0.4 0.179-0.4 0.4v7.2c0 0.221 0.179 0.4 0.4 0.4h11.2c0.221 0 0.4-0.179 0.4-0.4v-7.2c0-0.221-0.179-0.4-0.4-0.4zM14 18c1.625 0 3.125-0.406 4.5-1.219 1.375-0.812 2.469-1.906 3.281-3.281 0.813-1.375 1.219-2.875 1.219-4.5s-0.406-3.125-1.219-4.5c-0.812-1.375-1.906-2.469-3.281-3.281s-2.875-1.219-4.5-1.219-3.125 0.406-4.5 1.219c-1.375 0.812-2.469 1.906-3.281 3.281s-1.219 2.875-1.219 4.5 0.406 3.125 1.219 4.5c0.812 1.375 1.906 2.469 3.281 3.281s2.875 1.219 4.5 1.219zM33 18v-2.813c0-1.207-0.896-2.187-2-2.187s-2 0.98-2 2.187v2.813h4zM14 3c1.667 0 3.083 0.583 4.25 1.75s1.75 2.583 1.75 4.25c0 1.667-0.583 3.083-1.75 4.25s-2.583 1.75-4.25 1.75c-1.667 0-3.083-0.583-4.25-1.75s-1.75-2.583-1.75-4.25c0-1.667 0.583-3.083 1.75-4.25s2.583-1.75 4.25-1.75z"></path>
</svg>
