<!-- Generated by IcoMoon.io -->
<svg version="1.1" xmlns="http://www.w3.org/2000/svg" width="40" height="32" viewBox="0 0 40 32">
<title>user-times</title>
<path d="M36.875 15l2.813-2.875c0.208-0.167 0.312-0.396 0.312-0.688s-0.104-0.52-0.312-0.687l-1.438-1.438c-0.167-0.208-0.396-0.312-0.687-0.312-0.292 0-0.521 0.104-0.688 0.313l-2.875 2.812-2.875-2.813c-0.167-0.208-0.396-0.312-0.687-0.312-0.292 0-0.521 0.104-0.688 0.313l-1.437 1.437c-0.209 0.167-0.313 0.396-0.313 0.688s0.104 0.52 0.313 0.687l2.812 2.875-2.812 2.875c-0.209 0.167-0.313 0.396-0.313 0.688s0.104 0.52 0.313 0.687l1.437 1.438c0.167 0.208 0.396 0.312 0.688 0.312s0.52-0.104 0.687-0.313l2.875-2.812 2.875 2.813c0.167 0.208 0.396 0.312 0.688 0.312 0.291 0 0.52-0.104 0.687-0.313l1.438-1.437c0.208-0.167 0.312-0.396 0.312-0.688s-0.104-0.52-0.312-0.687l-2.813-2.875zM14 16c1.458 0 2.802-0.354 4.031-1.063 1.229-0.708 2.198-1.677 2.907-2.906 0.708-1.229 1.062-2.573 1.062-4.031s-0.354-2.802-1.062-4.031c-0.709-1.229-1.678-2.198-2.907-2.906s-2.573-1.063-4.031-1.063-2.802 0.354-4.031 1.063c-1.229 0.708-2.198 1.677-2.906 2.906s-1.063 2.573-1.063 4.031 0.354 2.802 1.063 4.031c0.708 1.229 1.677 2.198 2.906 2.907s2.573 1.062 4.031 1.062zM19.625 18h-1.062c-1.459 0.667-2.98 1-4.563 1s-3.104-0.333-4.562-1h-1.063c-1.5 0-2.896 0.375-4.187 1.125s-2.313 1.771-3.063 3.063c-0.75 1.291-1.125 2.687-1.125 4.187v2.625c0 0.833 0.292 1.542 0.875 2.125s1.292 0.875 2.125 0.875h22c0.833 0 1.542-0.292 2.125-0.875s0.875-1.292 0.875-2.125v-2.625c0-1.5-0.375-2.896-1.125-4.188s-1.771-2.312-3.062-3.062c-1.292-0.75-2.688-1.125-4.188-1.125z"></path>
</svg>
