<!-- Generated by IcoMoon.io -->
<svg version="1.1" xmlns="http://www.w3.org/2000/svg" width="40" height="32" viewBox="0 0 40 32">
<title>user-shield-o</title>
<path d="M25 32h-22c-0.833 0-1.542-0.292-2.125-0.875s-0.875-1.292-0.875-2.125v-1.625c0-1.5 0.375-2.896 1.125-4.188s1.771-2.312 3.063-3.062c1.291-0.75 2.687-1.125 4.187-1.125 0.542 0 1.25 0.146 2.125 0.438 0.583 0.166 1.063 0.291 1.438 0.375 0.625 0.125 1.312 0.187 2.062 0.187s1.438-0.063 2.063-0.188c0.375-0.083 0.854-0.208 1.437-0.375 0.875-0.291 1.583-0.437 2.125-0.437 0.126 0 0.251 0.003 0.375 0.008 0.001 0.999 0.11 2.019 0.319 3.034-0.226-0.028-0.457-0.042-0.694-0.042-0.25 0-0.667 0.083-1.25 0.25-1.5 0.5-2.948 0.75-4.344 0.75s-2.864-0.25-4.406-0.75c-0.625-0.167-1.042-0.25-1.25-0.25-1.458 0-2.719 0.531-3.781 1.594-1.063 1.062-1.594 2.323-1.594 3.781v1.625h20.459c0.791 1.052 1.699 1.995 2.702 2.779-0.356 0.147-0.742 0.221-1.161 0.221zM38.875 16.938l-7.187-2.813c-0.459-0.167-0.917-0.167-1.375 0l-7.188 2.813c-0.333 0.125-0.604 0.333-0.812 0.625-0.209 0.291-0.313 0.604-0.313 0.937 0 2.208 0.417 4.271 1.25 6.188 0.75 1.75 1.792 3.27 3.125 4.562 1.208 1.208 2.521 2.083 3.938 2.625 0.458 0.167 0.916 0.167 1.375 0 1.25-0.5 2.437-1.271 3.562-2.312 1.417-1.25 2.521-2.73 3.313-4.438 0.958-2 1.437-4.208 1.437-6.625 0-0.333-0.104-0.646-0.312-0.937-0.209-0.292-0.48-0.5-0.813-0.625zM30.968 28.86c-1.362-0.626-2.581-1.642-3.655-3.047-1.375-1.834-2.146-3.959-2.313-6.375l6-2.375 6 2.375c-0.167 2.416-0.937 4.541-2.312 6.375-1.084 1.416-2.313 2.437-3.688 3.062l-0.032-0.015zM31 19.214l3.818 1.511c-0.617 3.002-2.148 4.687-3.818 5.792v-7.303zM14 18c1.625 0 3.125-0.406 4.5-1.219 1.375-0.812 2.469-1.906 3.281-3.281 0.813-1.375 1.219-2.875 1.219-4.5s-0.406-3.125-1.219-4.5c-0.812-1.375-1.906-2.469-3.281-3.281s-2.875-1.219-4.5-1.219-3.125 0.406-4.5 1.219c-1.375 0.812-2.469 1.906-3.281 3.281s-1.219 2.875-1.219 4.5 0.406 3.125 1.219 4.5c0.812 1.375 1.906 2.469 3.281 3.281s2.875 1.219 4.5 1.219zM14 3c1.667 0 3.083 0.583 4.25 1.75s1.75 2.583 1.75 4.25c0 1.667-0.583 3.083-1.75 4.25s-2.583 1.75-4.25 1.75c-1.667 0-3.083-0.583-4.25-1.75s-1.75-2.583-1.75-4.25c0-1.667 0.583-3.083 1.75-4.25s2.583-1.75 4.25-1.75z"></path>
</svg>
