<!-- Generated by IcoMoon.io -->
<svg version="1.1" xmlns="http://www.w3.org/2000/svg" width="32" height="32" viewBox="0 0 32 32">
<title>weight</title>
<path d="M31.875 27.875l-4.563-18.25c-0.125-0.5-0.364-0.896-0.718-1.188s-0.761-0.437-1.219-0.437h-3.75c0.25-0.708 0.375-1.375 0.375-2 0-1.667-0.583-3.083-1.75-4.25s-2.583-1.75-4.25-1.75c-1.667 0-3.083 0.583-4.25 1.75s-1.75 2.583-1.75 4.25c0 0.667 0.125 1.333 0.375 2h-3.75c-0.458 0-0.865 0.146-1.219 0.438s-0.594 0.687-0.719 1.187l-4.562 18.25c-0.292 1.042-0.135 1.99 0.469 2.844s1.406 1.281 2.406 1.281h26c1 0 1.802-0.427 2.406-1.281s0.761-1.802 0.469-2.844zM16 8c-0.542 0-1.010-0.198-1.406-0.594s-0.594-0.864-0.594-1.406c0-0.542 0.198-1.010 0.594-1.406s0.864-0.594 1.406-0.594c0.542 0 1.010 0.198 1.406 0.594s0.594 0.864 0.594 1.406c0 0.542-0.198 1.010-0.594 1.406s-0.864 0.594-1.406 0.594z"></path>
</svg>
