<!-- Generated by IcoMoon.io -->
<svg version="1.1" xmlns="http://www.w3.org/2000/svg" width="32" height="32" viewBox="0 0 32 32">
<title>wheelchair</title>
<path d="M31.006 24.127l0.875 1.75c0.125 0.25 0.146 0.51 0.063 0.781s-0.25 0.469-0.5 0.594l-4.063 2.062c-0.5 0.25-1.021 0.281-1.562 0.094-0.542-0.188-0.938-0.531-1.188-1.031l-3.875-8.375h-8.75c-0.5 0-0.937-0.167-1.312-0.5-0.375-0.334-0.604-0.73-0.688-1.188l-2-14.312c0-1.125 0.417-2.084 1.25-2.875 0.834-0.792 1.813-1.167 2.938-1.125 1.041 0.041 1.927 0.437 2.656 1.187s1.115 1.646 1.156 2.688c0.042 1.041-0.271 1.947-0.937 2.718-0.667 0.771-1.5 1.219-2.5 1.344l0.312 2.063h8.125c0.292 0 0.531 0.093 0.719 0.281 0.187 0.187 0.281 0.427 0.281 0.719v2c0 0.291-0.094 0.531-0.281 0.718-0.188 0.188-0.427 0.282-0.719 0.282h-7.562l0.312 2h8.25c0.375 0 0.729 0.104 1.063 0.312 0.333 0.208 0.583 0.479 0.75 0.813l3.562 7.687 2.313-1.187c0.25-0.084 0.5-0.084 0.75 0 0.25 0.083 0.437 0.25 0.562 0.5zM21.069 25.439c-0.875 1.958-2.219 3.542-4.032 4.75s-3.822 1.813-6.031 1.813c-2 0-3.844-0.49-5.531-1.469s-3.021-2.313-4-4c-0.979-1.688-1.469-3.531-1.469-5.531 0-2.292 0.636-4.365 1.906-6.219s2.948-3.177 5.032-3.969l0.562 4.125c-1.041 0.625-1.885 1.469-2.531 2.531s-0.969 2.229-0.969 3.5 0.313 2.448 0.938 3.532c0.625 1.083 1.479 1.937 2.562 2.562 1.084 0.625 2.25 0.938 3.5 0.938 1.75 0 3.281-0.573 4.594-1.719 1.312-1.146 2.094-2.573 2.344-4.281h1.5l1.625 3.437z"></path>
</svg>
