<!-- Generated by IcoMoon.io -->
<svg version="1.1" xmlns="http://www.w3.org/2000/svg" width="32" height="32" viewBox="0 0 32 32">
<title>wrench</title>
<path d="M31.742 6.821c-0.084-0.292-0.261-0.469-0.531-0.532-0.271-0.062-0.511 0.011-0.719 0.219l-4.688 4.625-4.25-0.687-0.687-4.25 4.625-4.688c0.208-0.208 0.281-0.448 0.219-0.719-0.063-0.27-0.24-0.447-0.532-0.531-1.5-0.375-3.021-0.354-4.562 0.063-1.542 0.416-2.875 1.187-4 2.312-1.209 1.209-2 2.646-2.375 4.313s-0.292 3.291 0.25 4.875l-13.313 13.375c-0.791 0.791-1.187 1.739-1.187 2.843 0 1.105 0.385 2.042 1.156 2.813s1.708 1.156 2.813 1.156c1.104 0 2.052-0.396 2.843-1.187l13.313-13.313c1.625 0.542 3.26 0.625 4.906 0.25s3.094-1.166 4.344-2.375c1.125-1.166 1.896-2.51 2.312-4.031 0.417-1.521 0.438-3.031 0.063-4.531zM3.992 29.508c-0.417 0-0.771-0.146-1.063-0.437-0.291-0.292-0.437-0.646-0.437-1.063s0.146-0.771 0.437-1.062c0.292-0.292 0.646-0.438 1.063-0.438s0.771 0.146 1.062 0.438c0.292 0.291 0.438 0.646 0.438 1.062 0 0.417-0.146 0.771-0.438 1.063s-0.646 0.437-1.062 0.437z"></path>
</svg>
