<!-- Generated by IcoMoon.io -->
<svg version="1.1" xmlns="http://www.w3.org/2000/svg" width="32" height="32" viewBox="0 0 32 32">
<title>yin-yang</title>
<path d="M16 0.5c-2.792 0-5.375 0.698-7.75 2.094s-4.26 3.281-5.656 5.656c-1.396 2.375-2.094 4.958-2.094 7.75s0.698 5.375 2.094 7.75c1.396 2.375 3.281 4.26 5.656 5.656s4.958 2.094 7.75 2.094c2.792 0 5.375-0.698 7.75-2.094s4.26-3.281 5.656-5.656c1.396-2.375 2.094-4.958 2.094-7.75s-0.698-5.375-2.094-7.75c-1.396-2.375-3.281-4.26-5.656-5.656s-4.958-2.094-7.75-2.094zM16 24c-0.542 0-1.010-0.198-1.406-0.594s-0.594-0.864-0.594-1.406c0-0.542 0.198-1.010 0.594-1.406s0.864-0.594 1.406-0.594c0.542 0 1.010 0.198 1.406 0.594s0.594 0.864 0.594 1.406c0 0.542-0.198 1.010-0.594 1.406s-0.864 0.594-1.406 0.594zM16 16c-1.667 0-3.083 0.583-4.25 1.75s-1.75 2.583-1.75 4.25c0 1.667 0.583 3.083 1.75 4.25s2.583 1.75 4.25 1.75c-2.167 0-4.167-0.542-6-1.625s-3.292-2.542-4.375-4.375c-1.083-1.833-1.625-3.833-1.625-6s0.542-4.167 1.625-6c1.083-1.833 2.542-3.292 4.375-4.375s3.833-1.625 6-1.625c1.667 0 3.083 0.583 4.25 1.75s1.75 2.583 1.75 4.25c0 1.667-0.583 3.083-1.75 4.25s-2.583 1.75-4.25 1.75zM16 8c-0.542 0-1.010 0.198-1.406 0.594s-0.594 0.864-0.594 1.406c0 0.542 0.198 1.010 0.594 1.406s0.864 0.594 1.406 0.594c0.542 0 1.010-0.198 1.406-0.594s0.594-0.864 0.594-1.406c0-0.542-0.198-1.010-0.594-1.406s-0.864-0.594-1.406-0.594z"></path>
</svg>
